<svg width="122" height="32" viewBox="0 0 122 32" fill="none" xmlns="http://www.w3.org/2000/svg">
<g filter="url(#filter0_d_376_2)">
<path d="M18.8993 6.29683C15.3175 6.29438 11.5811 7.10989 7.80779 8.16724C7.329 8.2652 6.86051 8.58112 6.61445 8.97295C6.38718 9.34152 6.30415 9.71193 6.23324 10.1019C5.86657 12.1756 5.91142 14.2132 5.98718 16.4681C6.00354 16.9848 6.08172 17.5995 6.31869 17.9705C6.5696 18.3458 6.99566 18.5846 7.50657 18.6636C8.16294 18.764 8.81566 18.8411 9.4696 18.9103L9.32536 22.9854C9.30112 23.3081 9.45991 23.5787 9.65445 23.7342C9.8296 23.8676 10.0241 23.9276 10.2223 23.9423C10.6199 23.973 11.089 23.7985 11.3211 23.354C12.3393 21.3734 12.9781 20.5009 14.2496 19.1846C17.5708 19.2691 20.4684 19.0823 23.7478 18.8356C24.9078 18.8074 25.7054 17.8481 25.9163 17.0827C26.5435 15.1003 26.6429 12.6538 26.709 10.1785C26.7375 9.19765 26.4011 8.23642 25.8048 7.72703C25.2369 7.26295 24.5526 7.09581 23.9229 6.92377C22.1757 6.52397 20.429 6.30907 18.8993 6.29683ZM23.672 7.84642C24.3017 8.01907 24.8581 8.18622 25.2054 8.47336C25.7908 9.09969 25.7714 9.51846 25.7648 10.195C25.6981 12.5938 25.5848 14.9234 25.0472 16.6885C24.8151 17.346 24.4151 17.815 23.6532 17.8842C20.3102 18.1352 17.4102 18.3293 14.0508 18.2307C13.9856 18.2287 13.9207 18.2402 13.8601 18.2644C13.7995 18.2886 13.7443 18.3251 13.6981 18.3715C12.2866 19.8115 11.5648 20.8144 10.4878 22.9064C10.4635 22.9542 10.409 22.983 10.3411 22.9879C10.2987 22.9854 10.2793 22.9493 10.2769 22.9187L10.4211 18.4983C10.4216 18.3789 10.3792 18.2634 10.3017 18.1733C10.2242 18.0832 10.117 18.0246 9.99991 18.0085C9.21546 17.9322 8.43316 17.8348 7.65385 17.7164C7.31748 17.6662 7.19445 17.5732 7.10233 17.4348C6.94112 17.0472 6.94354 16.8079 6.93203 16.4368C6.85566 14.1985 6.82051 12.2448 7.15869 10.3003C7.19203 10.0113 7.29869 9.71683 7.41203 9.47316C7.59991 9.17622 7.88597 9.13336 8.17445 9.05193C11.8629 8.02336 15.4714 7.25377 18.8708 7.25132C20.5375 7.31071 22.2848 7.48091 23.672 7.84642ZM10.9302 11.6374C10.4211 12.2521 10.4708 13.0866 10.8635 13.6462C11.0696 13.9401 11.3896 14.1746 11.7781 14.2279C12.2848 14.2707 12.6066 14.0625 12.952 13.8256C13.5793 13.2758 13.6429 12.314 13.1654 11.6185C13.0499 11.4484 12.897 11.3076 12.7187 11.2071C12.5403 11.1066 12.3414 11.0492 12.1375 11.0393C11.5932 11.0442 11.2241 11.2885 10.9302 11.6374ZM16.4272 11.1354C15.9211 11.1519 15.5114 11.5058 15.2605 11.8885C14.9757 12.3232 14.8084 12.8711 15.0399 13.4093C15.4854 14.4403 17.0241 14.4281 17.6375 13.3787C17.9187 12.895 17.8478 12.3452 17.6375 11.9485C17.4266 11.5487 17.109 11.2236 16.6478 11.1495C16.5749 11.1378 16.501 11.1331 16.4272 11.1354ZM20.8902 11.2309C20.7314 11.2268 20.5728 11.2445 20.4187 11.2836C19.8102 11.4489 19.292 12.0819 19.3702 12.8932C19.4102 13.3021 19.5951 13.7013 19.9314 13.9738C20.2672 14.2493 20.7526 14.3711 21.2666 14.2658C21.8557 14.1434 22.2229 13.6627 22.3435 13.1993C22.4666 12.7352 22.4363 12.2638 22.152 11.8811C22.0047 11.6827 21.8145 11.5209 21.5958 11.4082C21.377 11.2955 21.1357 11.2349 20.8902 11.2309ZM12.0969 11.9913C12.2084 11.9938 12.2981 12.0293 12.3902 12.1634C12.5963 12.4646 12.5393 12.9195 12.3314 13.1032C12.1254 13.285 11.9951 13.3021 11.9029 13.2899C11.8126 13.2758 11.7205 13.2134 11.6375 13.0964C11.4811 12.8711 11.4338 12.5081 11.6423 12.2472C11.7514 12.0991 11.9551 12.0054 12.0969 11.9913ZM16.4932 12.0966C16.5096 12.0991 16.7084 12.216 16.8035 12.3954C16.8981 12.5748 16.9145 12.7401 16.8248 12.8932C16.5569 13.3523 15.9884 13.2274 15.9035 13.0291C15.8702 12.9525 15.8945 12.6464 16.0502 12.4101C16.2066 12.1707 16.4011 12.0819 16.4932 12.0966ZM21.3914 12.4456C21.4199 12.4866 21.4908 12.7468 21.4363 12.9525C21.3817 13.1607 21.292 13.2874 21.0738 13.3327C20.7951 13.3927 20.6387 13.3327 20.5199 13.2372C20.4041 13.1417 20.3235 12.9789 20.3072 12.8044C20.2648 12.374 20.4181 12.2736 20.6623 12.2087C20.9441 12.137 21.2635 12.2613 21.3914 12.4456ZM32.6466 8.22479C32.6535 8.10354 32.7002 7.98806 32.7793 7.89663C32.8188 7.84895 32.8685 7.81103 32.9247 7.78578C32.9809 7.76052 33.0421 7.74859 33.1035 7.75091H36.269C36.3757 7.75091 36.4872 7.79622 36.6005 7.88499C36.6535 7.92393 36.6965 7.97506 36.726 8.03416C36.7556 8.09325 36.7707 8.1586 36.7702 8.22479V13.3285H42.0672V8.22479C42.0667 8.16147 42.079 8.09872 42.1031 8.0403C42.1273 7.98187 42.1628 7.92897 42.2077 7.88478C42.2526 7.84058 42.3059 7.806 42.3643 7.7831C42.4227 7.7602 42.4851 7.74946 42.5478 7.75152H45.6696C45.812 7.75152 45.9351 7.78703 46.0417 7.85867C46.1484 7.9303 46.2023 8.0454 46.2023 8.20275V23.2652C46.2023 23.4232 46.1551 23.5407 46.0629 23.6191C45.9708 23.6981 45.8496 23.7385 45.7005 23.7385H42.5472C42.4206 23.7435 42.2966 23.701 42.1993 23.6191C42.1114 23.5401 42.0666 23.4232 42.0666 23.2652V17.1501H36.7708V23.2652C36.7708 23.4158 36.7235 23.5334 36.6266 23.6142C36.5314 23.6981 36.4017 23.7385 36.2381 23.7385H33.1035C32.8054 23.7385 32.6538 23.5976 32.6466 23.3179V8.22479ZM61.8041 23.5548C61.7202 23.6291 61.6191 23.6808 61.5102 23.7054C61.4138 23.7264 61.3155 23.7374 61.2169 23.7385H59.6072C59.4793 23.7385 59.3702 23.7146 59.2781 23.6693C59.1878 23.6236 59.1079 23.5594 59.0435 23.4807C58.9775 23.3986 58.9232 23.3075 58.8823 23.2101C58.8394 23.1092 58.8037 23.0052 58.7757 22.8991L58.4466 21.5215C58.3405 21.7444 58.1841 21.9954 57.9829 22.2801C57.7629 22.5799 57.5031 22.8477 57.2108 23.076C56.8707 23.3395 56.4933 23.55 56.0914 23.7005C55.6581 23.8701 55.1611 23.954 54.5999 23.954C53.7902 23.954 53.0544 23.796 52.3938 23.4807C51.7464 23.1752 51.1702 22.735 50.7029 22.1889C50.2393 21.644 49.8787 21.0054 49.6235 20.2787C49.3644 19.529 49.2346 18.74 49.2399 17.946V10.896C49.2399 10.6236 49.2969 10.4154 49.4157 10.2764C49.5308 10.1356 49.7187 10.0658 49.9738 10.0658H52.4363C52.7411 10.0658 52.9496 10.1185 53.066 10.2213C53.1793 10.3266 53.2357 10.5274 53.2357 10.8311V17.8389C53.2357 18.1474 53.3048 18.4389 53.4417 18.7162C53.7228 19.2727 54.1913 19.7096 54.7629 19.9481C55.052 20.0705 55.3454 20.1317 55.6441 20.1317C55.8993 20.1317 56.1648 20.0705 56.4369 19.9481C56.7114 19.8256 56.9623 19.6634 57.1944 19.4601C57.4241 19.2544 57.6157 19.0132 57.7654 18.7376C57.9145 18.4603 57.9878 18.1683 57.9878 17.8603V10.8623C57.9878 10.7405 58.0114 10.6187 58.0563 10.4968C58.0961 10.3844 58.1688 10.2868 58.2648 10.217C58.3569 10.1595 58.4448 10.1191 58.5254 10.097C58.6078 10.0756 58.7023 10.0664 58.809 10.0664H61.2169C61.5223 10.0664 61.7423 10.1399 61.8775 10.2911C62.012 10.4417 62.0811 10.645 62.0811 10.896V22.9425C62.0811 23.0785 62.0502 23.2027 61.9884 23.3179C61.9323 23.4296 61.8462 23.5232 61.7399 23.5879L61.8041 23.5548ZM74.1763 22.0695C73.9841 22.263 73.7714 22.4711 73.5417 22.694C73.3096 22.9162 73.0563 23.1244 72.7793 23.3179C72.5023 23.5113 72.2035 23.6717 71.8841 23.7985C71.5537 23.9248 71.2029 23.9881 70.8496 23.9852C69.8841 23.9852 68.9938 23.8034 68.1817 23.4372C67.3881 23.0857 66.6736 22.5748 66.0817 21.9354C65.4944 21.2993 65.0381 20.5505 64.706 19.6897C64.3775 18.8289 64.2114 17.9032 64.2114 16.9132C64.2114 15.9158 64.3775 14.9876 64.7066 14.1293C65.0375 13.2734 65.4944 12.527 66.0823 11.8909C66.673 11.2516 67.3876 10.7421 68.1817 10.394C68.9938 10.0327 69.8841 9.85091 70.8496 9.85091C71.2142 9.84656 71.577 9.90474 71.9223 10.023C72.2338 10.1317 72.5304 10.2796 72.8054 10.4632C73.0726 10.645 73.3169 10.8458 73.5417 11.073C73.7641 11.2976 73.9775 11.5199 74.1763 11.7354V6.81295C74.1763 6.58397 74.2448 6.3905 74.3823 6.23254C74.5217 6.07459 74.7302 5.99561 75.0066 5.99561H77.4054C77.4975 5.99561 77.5944 6.01703 77.6963 6.05561C77.8005 6.09601 77.8951 6.15112 77.9805 6.22275C78.0654 6.29438 78.1344 6.38071 78.1866 6.48112C78.2411 6.58152 78.2672 6.69173 78.2672 6.81356V22.9089C78.2672 23.4611 77.9805 23.7385 77.4054 23.7385H75.3144C75.1726 23.7385 75.0635 23.7201 74.986 23.6834C74.9084 23.6494 74.8406 23.5961 74.789 23.5285C74.7285 23.45 74.6799 23.363 74.6447 23.2701C74.6023 23.1672 74.5478 23.0454 74.4835 22.9089L74.1763 22.0695ZM68.0466 16.9132C68.0466 17.3864 68.1199 17.8291 68.2672 18.243C68.4021 18.6383 68.6137 19.0026 68.8896 19.3144C69.1593 19.6156 69.4835 19.855 69.8654 20.0295C70.2435 20.2064 70.6654 20.2927 71.1266 20.2927C71.5811 20.2927 72.0096 20.2113 72.412 20.046C72.812 19.8807 73.1629 19.6542 73.4605 19.3621C73.7612 19.067 74.0053 18.7183 74.1805 18.3336C74.362 17.9341 74.4649 17.5029 74.4835 17.0638V16.9132C74.4835 16.454 74.3987 16.0162 74.2284 15.5999C74.063 15.1922 73.8228 14.8197 73.5205 14.5021C73.2167 14.1853 72.8549 13.9312 72.4551 13.754C72.0365 13.5681 71.5837 13.4742 71.1266 13.4785C70.6654 13.4785 70.2435 13.5703 69.8648 13.754C69.491 13.9313 69.1587 14.1864 68.8896 14.5027C68.6154 14.8254 68.4042 15.1977 68.2672 15.5999C68.1193 16.0215 68.0447 16.4658 68.0466 16.9132ZM90.6393 22.0695C90.4472 22.263 90.2369 22.4711 90.0047 22.694C89.7744 22.9162 89.5217 23.1244 89.2447 23.3179C88.9678 23.5113 88.669 23.6717 88.3478 23.7985C88.018 23.9249 87.6678 23.9882 87.3151 23.9852C86.3496 23.9852 85.4593 23.8034 84.6447 23.4372C83.8524 23.085 83.139 22.5741 82.5478 21.9354C81.9599 21.2993 81.5011 20.5505 81.172 19.6897C80.8405 18.8289 80.6769 17.9032 80.6769 16.9132C80.6769 15.9158 80.8405 14.9876 81.172 14.1293C81.4844 13.301 81.9515 12.5411 82.5478 11.8909C83.138 11.2522 83.8517 10.7427 84.6447 10.394C85.4593 10.0327 86.3496 9.85091 87.3151 9.85091C87.706 9.85091 88.0635 9.90846 88.3854 10.023C88.6973 10.1318 88.9946 10.2797 89.2702 10.4632C89.5357 10.645 89.7823 10.8458 90.0047 11.073C90.229 11.2976 90.4405 11.5199 90.6393 11.7354V6.81295C90.6393 6.58397 90.7102 6.3905 90.8472 6.23254C90.9866 6.07459 91.1926 5.99561 91.4702 5.99561H93.8684C93.9605 5.99561 94.0575 6.01703 94.1617 6.05561C94.2635 6.09601 94.3581 6.15112 94.4435 6.22275C94.5284 6.29438 94.5999 6.38071 94.652 6.48112C94.7066 6.58152 94.7326 6.69173 94.7326 6.81356V22.9089C94.7326 23.4611 94.4435 23.7385 93.8684 23.7385H91.7799C91.6381 23.7385 91.5272 23.7201 91.449 23.6834C91.3718 23.6487 91.3042 23.5955 91.252 23.5285C91.1924 23.4495 91.1439 23.3625 91.1078 23.2701C91.0654 23.1672 91.0132 23.0454 90.949 22.9089L90.6393 22.0695ZM84.512 16.9132C84.512 17.3864 84.5853 17.8291 84.7302 18.243C84.8668 18.638 85.0789 19.002 85.3545 19.3144C85.6248 19.6156 85.949 19.855 86.3278 20.0295C86.7096 20.2064 87.1308 20.2927 87.592 20.2927C88.0317 20.2961 88.4679 20.2122 88.8757 20.046C89.2665 19.8889 89.6234 19.6567 89.9266 19.3621C90.227 19.0669 90.4709 18.7182 90.646 18.3336C90.8274 17.9341 90.9304 17.5029 90.949 17.0638V16.9132C90.9493 16.0132 90.6028 15.1485 89.9829 14.5021C89.6802 14.1843 89.3183 13.9301 88.9181 13.754C88.5005 13.5679 88.0484 13.474 87.592 13.4785C87.1308 13.4785 86.709 13.5703 86.3278 13.754C85.9552 13.9319 85.6238 14.187 85.355 14.5027C85.0809 14.8259 84.869 15.198 84.7302 15.5999C84.5842 16.022 84.5105 16.4661 84.512 16.9132ZM97.5666 6.8252C97.5666 6.59561 97.6229 6.40214 97.7363 6.24418C97.8502 6.08622 98.0466 6.00785 98.3241 6.00785H100.935C101.006 6.00785 101.079 6.02622 101.157 6.06724C101.236 6.10581 101.309 6.1603 101.376 6.23254C101.444 6.30418 101.501 6.3905 101.545 6.49091C101.593 6.59132 101.617 6.70336 101.617 6.8252V22.9089C101.617 23.1813 101.539 23.3895 101.387 23.5285C101.233 23.6693 101.037 23.7385 100.796 23.7385H98.3235C98.0466 23.7385 97.8508 23.6693 97.7369 23.5285C97.6229 23.3895 97.566 23.1813 97.566 22.9089L97.5666 6.8252ZM115.511 22.1032C114.894 22.6797 114.18 23.1403 113.402 23.4636C112.621 23.7911 111.792 23.954 110.919 23.954C109.945 23.954 109.027 23.7746 108.161 23.4158C107.312 23.0705 106.537 22.564 105.878 21.9238C105.221 21.2845 104.693 20.5227 104.323 19.6805C103.939 18.8191 103.747 17.8817 103.747 16.8703C103.747 16.2385 103.824 15.6262 103.977 15.0336C104.129 14.4427 104.347 13.8881 104.626 13.3713C104.908 12.8549 105.251 12.3753 105.648 11.9436C106.456 11.0725 107.482 10.4386 108.617 10.1093C109.199 9.93663 109.815 9.85091 110.462 9.85091C111.051 9.85091 111.622 9.92989 112.178 10.0879C113.271 10.3971 114.268 10.9822 115.076 11.7881C115.476 12.1835 115.826 12.6268 116.12 13.1081C116.411 13.5838 116.636 14.0938 116.797 14.6362C116.956 15.1768 117.036 15.7364 117.036 16.3107C117.036 16.6836 117.031 16.9872 117.019 17.2242C117.01 17.4611 116.956 17.6497 116.856 17.7911C116.756 17.9295 116.591 18.0274 116.359 18.0801C116.129 18.1352 115.788 18.1615 115.341 18.1615H107.668C107.739 18.6207 107.884 19.0058 108.101 19.3144C108.317 19.623 108.568 19.8691 108.851 20.0509C109.136 20.2346 109.439 20.3644 109.759 20.4428C110.054 20.5191 110.358 20.5594 110.663 20.5627C110.919 20.5627 111.181 20.5364 111.451 20.4813C111.717 20.43 111.979 20.3582 112.234 20.2664C112.474 20.1829 112.706 20.0789 112.928 19.9554C113.137 19.8354 113.307 19.7111 113.435 19.5819C113.548 19.4889 113.646 19.4197 113.726 19.3738C113.806 19.3268 113.897 19.302 113.989 19.3021C114.081 19.3021 114.176 19.3358 114.271 19.4001C114.368 19.465 114.474 19.5581 114.595 19.6805L115.724 20.9717C115.803 21.0648 115.852 21.1487 115.873 21.2252C115.895 21.2993 115.907 21.3783 115.907 21.4572C115.909 21.5906 115.868 21.7209 115.788 21.8276C115.71 21.9305 115.618 22.0236 115.511 22.1032ZM110.386 13.1344C110.109 13.1344 109.841 13.1895 109.581 13.3021C109.323 13.4123 109.079 13.5599 108.851 13.7466C108.624 13.9346 108.418 14.1482 108.239 14.3834C108.066 14.6073 107.918 14.8493 107.796 15.1052H113.244C113.1 14.8356 112.938 14.5766 112.758 14.3301C112.586 14.0964 112.386 13.8859 112.161 13.7038C111.931 13.5216 111.671 13.3801 111.394 13.285C111.105 13.1846 110.77 13.1344 110.386 13.1344Z" fill="white"/>
</g>
<defs>
<filter id="filter0_d_376_2" x="-4" y="0" width="128" height="38" filterUnits="userSpaceOnUse" color-interpolation-filters="sRGB">
<feFlood flood-opacity="0" result="BackgroundImageFix"/>
<feColorMatrix in="SourceAlpha" type="matrix" values="0 0 0 0 0 0 0 0 0 0 0 0 0 0 0 0 0 0 127 0" result="hardAlpha"/>
<feOffset dy="4"/>
<feGaussianBlur stdDeviation="2"/>
<feComposite in2="hardAlpha" operator="out"/>
<feColorMatrix type="matrix" values="0 0 0 0 0 0 0 0 0 0 0 0 0 0 0 0 0 0 0.25 0"/>
<feBlend mode="normal" in2="BackgroundImageFix" result="effect1_dropShadow_376_2"/>
<feBlend mode="normal" in="SourceGraphic" in2="effect1_dropShadow_376_2" result="shape"/>
</filter>
</defs>
</svg>
