<svg width="30" height="30" viewBox="0 0 30 30" fill="none" xmlns="http://www.w3.org/2000/svg">
<g clip-path="url(#clip0_181_732)">
<path d="M19.9657 24.1562C19.9657 24.2803 20.1048 24.3795 20.2802 24.3795C20.4798 24.3981 20.619 24.2989 20.619 24.1562C20.619 24.0321 20.4798 23.9329 20.3044 23.9329C20.123 23.9143 19.9657 24.0135 19.9657 24.1562ZM21.8468 23.877C21.8891 24.0011 21.7681 24.1438 21.5867 24.181C21.4294 24.243 21.248 24.181 21.2117 24.0569C21.1754 23.9329 21.2903 23.7902 21.4718 23.7344C21.629 23.6909 21.8044 23.753 21.8468 23.877ZM19.1734 23.7716C19.3488 23.815 19.4698 23.9329 19.4516 24.0756C19.4335 24.1996 19.2762 24.2803 19.0948 24.2368C18.9194 24.1934 18.7984 24.0756 18.8165 23.9515C18.8347 23.8336 18.998 23.753 19.1734 23.7716ZM15.1935 0.000244141C23.5827 0.000244141 30 6.5324 30 15.1365C30 22.016 25.7782 27.903 19.748 29.975C18.9738 30.1176 18.7016 29.6276 18.7016 29.2244C18.7016 28.8398 18.7198 26.7182 18.7198 25.4155C18.7198 25.4155 22.9536 26.346 23.8427 23.5669C23.8427 23.5669 24.5323 21.7617 25.5242 21.2964C25.5242 21.2964 26.9093 20.3225 25.4274 20.3411C25.4274 20.3411 23.9214 20.4652 23.0927 21.9416C21.7681 24.3361 19.5484 23.6475 18.6835 23.2381C18.5444 22.2456 18.1512 21.557 17.7157 21.1476C21.0968 20.763 24.5081 20.2605 24.5081 14.2928C24.5081 12.5869 24.0484 11.7308 23.0806 10.639C23.2379 10.2358 23.752 8.57331 22.9234 6.42694C21.6593 6.02372 18.75 8.10186 18.75 8.10186C17.5403 7.75447 16.2399 7.57457 14.9516 7.57457C13.6633 7.57457 12.3629 7.75447 11.1532 8.10186C11.1532 8.10186 8.24395 6.01752 6.97984 6.42694C6.15121 8.57952 6.66532 10.2358 6.82258 10.639C5.85484 11.737 5.2621 12.5931 5.2621 14.2928C5.2621 20.2791 8.8246 20.7567 12.2056 21.1476C11.6492 21.6376 11.1774 22.5681 11.1774 24.0259C11.1774 26.1165 11.1956 28.7033 11.1956 29.212C11.1956 29.6152 10.9173 30.1052 10.1492 29.9626C4.10081 27.903 0 22.016 0 15.1365C0 6.5324 6.80444 0.000244141 15.1935 0.000244141ZM24.121 21.3957C24.1996 21.4577 24.1815 21.6004 24.0786 21.7183C23.9819 21.8175 23.8427 21.861 23.7641 21.7803C23.6855 21.7183 23.7036 21.5756 23.8065 21.4577C23.9032 21.3585 24.0423 21.3151 24.121 21.3957ZM24.7742 20.8932C24.8165 20.9739 24.756 21.0731 24.6351 21.1352C24.5383 21.1972 24.4173 21.1786 24.375 21.0917C24.3327 21.0111 24.3931 20.9118 24.5141 20.8498C24.6351 20.8126 24.7319 20.8312 24.7742 20.8932ZM22.8145 23.1016C22.9113 23.1823 22.875 23.3684 22.7359 23.4862C22.5968 23.6289 22.4214 23.6475 22.3427 23.5483C22.2641 23.4676 22.3004 23.2815 22.4214 23.1637C22.5544 23.021 22.7359 23.0024 22.8145 23.1016ZM23.504 22.1897C23.6008 22.2518 23.6008 22.413 23.504 22.5557C23.4073 22.6984 23.244 22.7604 23.1653 22.6984C23.0685 22.6178 23.0685 22.4565 23.1653 22.3138C23.25 22.1711 23.4073 22.1091 23.504 22.1897Z" fill="#EBEBFF"/>
</g>
<defs>
<clipPath id="clip0_181_732">
<rect width="30" height="30" fill="white" transform="matrix(-1 0 0 1 30 0.000244141)"/>
</clipPath>
</defs>
</svg>
