<svg width="120" height="10" viewBox="0 0 120 10" fill="none" xmlns="http://www.w3.org/2000/svg">
<path d="M6.16157 2.98738C6.16157 3.80084 5.89713 4.47873 5.36824 5.02104C4.84816 5.554 4.05042 5.82048 2.97501 5.82048H1.20323V9.90182H0V0.126227H2.97501C4.01516 0.126227 4.80409 0.392707 5.34179 0.925666C5.88831 1.45863 6.16157 2.14586 6.16157 2.98738ZM2.97501 4.76858C3.64493 4.76858 4.13857 4.61431 4.4559 4.30575C4.77323 3.99719 4.9319 3.55774 4.9319 2.98738C4.9319 1.78121 4.2796 1.17812 2.97501 1.17812H1.20323V4.76858H2.97501Z" fill="white"/>
<path d="M12.1658 8.86395H15.392V9.90182H10.9626V0.126227H12.1658V8.86395Z" fill="white"/>
<path d="M25.423 7.72791H21.4034L20.663 9.90182H19.3936L22.7256 0.182328H24.114L27.4328 9.90182H26.1634L25.423 7.72791ZM25.0792 6.69004L23.4132 1.75316L21.7472 6.69004H25.0792Z" fill="white"/>
<path d="M31.7409 5.00701C31.7409 4.0533 31.9437 3.19776 32.3492 2.44039C32.7547 1.67368 33.3056 1.07527 34.002 0.645161C34.7071 0.215054 35.4873 0 36.3423 0C37.3472 0 38.2243 0.25713 38.9735 0.771389C39.7228 1.28565 40.2693 2.01496 40.6131 2.95933H39.1719C38.9162 2.37027 38.546 1.91678 38.0612 1.59888C37.5852 1.28097 37.0122 1.12202 36.3423 1.12202C35.6988 1.12202 35.1214 1.28097 34.6102 1.59888C34.0989 1.91678 33.6978 2.37027 33.407 2.95933C33.1161 3.53904 32.9706 4.2216 32.9706 5.00701C32.9706 5.78308 33.1161 6.46564 33.407 7.0547C33.6978 7.63441 34.0989 8.08322 34.6102 8.40112C35.1214 8.71903 35.6988 8.87798 36.3423 8.87798C37.0122 8.87798 37.5852 8.7237 38.0612 8.41515C38.546 8.09724 38.9162 7.64376 39.1719 7.0547H40.6131C40.2693 7.98971 39.7228 8.71435 38.9735 9.22861C38.2243 9.73352 37.3472 9.98597 36.3423 9.98597C35.4873 9.98597 34.7071 9.7756 34.002 9.35484C33.3056 8.92473 32.7547 8.331 32.3492 7.57363C31.9437 6.81627 31.7409 5.96073 31.7409 5.00701Z" fill="white"/>
<path d="M46.913 1.1641V4.43198H50.2714V5.48387H46.913V8.84993H50.6681V9.90182H45.7097V0.112202H50.6681V1.1641H46.913Z" fill="white"/>
<path d="M62.8946 0.126227V9.90182H61.6914V5.46985H56.9975V9.90182H55.7943V0.126227H56.9975V4.41795H61.6914V0.126227H62.8946Z" fill="white"/>
<path d="M72.4329 10C71.5779 10 70.7978 9.78962 70.0926 9.36886C69.3874 8.93876 68.8277 8.34502 68.4134 7.58766C68.0079 6.82094 67.8052 5.96073 67.8052 5.00701C67.8052 4.0533 68.0079 3.19776 68.4134 2.44039C68.8277 1.67368 69.3874 1.07994 70.0926 0.659186C70.7978 0.229079 71.5779 0.0140251 72.4329 0.0140251C73.2968 0.0140251 74.0813 0.229079 74.7865 0.659186C75.4917 1.07994 76.047 1.669 76.4525 2.42637C76.858 3.18373 77.0607 4.04395 77.0607 5.00701C77.0607 5.97008 76.858 6.83029 76.4525 7.58766C76.047 8.34502 75.4917 8.93876 74.7865 9.36886C74.0813 9.78962 73.2968 10 72.4329 10ZM72.4329 8.892C73.0764 8.892 73.6538 8.73305 74.1651 8.41515C74.6851 8.09724 75.0906 7.64376 75.3815 7.0547C75.6812 6.46564 75.8311 5.78308 75.8311 5.00701C75.8311 4.2216 75.6812 3.53904 75.3815 2.95933C75.0906 2.37027 74.6895 1.91678 74.1783 1.59888C73.667 1.28097 73.0852 1.12202 72.4329 1.12202C71.7807 1.12202 71.1989 1.28097 70.6876 1.59888C70.1764 1.91678 69.7709 2.37027 69.4712 2.95933C69.1803 3.53904 69.0348 4.2216 69.0348 5.00701C69.0348 5.78308 69.1803 6.46564 69.4712 7.0547C69.7709 7.64376 70.1764 8.09724 70.6876 8.41515C71.2077 8.73305 71.7895 8.892 72.4329 8.892Z" fill="white"/>
<path d="M83.158 8.86395H86.3842V9.90182H81.9547V0.126227H83.158V8.86395Z" fill="white"/>
<path d="M93.8368 0.126227C94.8417 0.126227 95.7099 0.327256 96.4416 0.729312C97.182 1.12202 97.7462 1.6877 98.134 2.42637C98.5307 3.16503 98.729 4.0346 98.729 5.03506C98.729 6.03553 98.5307 6.9051 98.134 7.64376C97.7462 8.37307 97.182 8.93408 96.4416 9.32679C95.7099 9.71014 94.8417 9.90182 93.8368 9.90182H90.9676V0.126227H93.8368ZM93.8368 8.84993C95.0268 8.84993 95.9347 8.518 96.5606 7.85414C97.1864 7.18093 97.4993 6.24123 97.4993 5.03506C97.4993 3.81954 97.182 2.8705 96.5473 2.18794C95.9215 1.50538 95.018 1.1641 93.8368 1.1641H92.1708V8.84993H93.8368Z" fill="white"/>
<path d="M104.825 1.1641V4.43198H108.183V5.48387H104.825V8.84993H108.58V9.90182H103.622V0.112202H108.58V1.1641H104.825Z" fill="white"/>
<path d="M118.559 9.90182L116.364 5.90463H114.909V9.90182H113.706V0.126227H116.681C117.378 0.126227 117.964 0.252454 118.44 0.504909C118.925 0.757363 119.286 1.09864 119.524 1.52875C119.762 1.95886 119.881 2.44974 119.881 3.0014C119.881 3.67461 119.696 4.26835 119.326 4.78261C118.964 5.29687 118.418 5.63815 117.686 5.80645L120 9.90182H118.559ZM114.909 4.88078H116.681C117.334 4.88078 117.823 4.71248 118.149 4.37588C118.475 4.02992 118.638 3.57176 118.638 3.0014C118.638 2.42169 118.475 1.97288 118.149 1.65498C117.832 1.33707 117.342 1.17812 116.681 1.17812H114.909V4.88078Z" fill="white"/>
</svg>
