<svg width="30" height="30" viewBox="0 0 30 30" fill="none" xmlns="http://www.w3.org/2000/svg">
<mask id="mask0_181_729" style="mask-type:alpha" maskUnits="userSpaceOnUse" x="0" y="0" width="30" height="31">
<rect y="0.000244141" width="30" height="30" fill="#D9D9D9"/>
</mask>
<g mask="url(#mask0_181_729)">
<path d="M15 30.0002C12.925 30.0002 10.975 29.6062 9.15 28.8182C7.325 28.0312 5.7375 26.9627 4.3875 25.6127C3.0375 24.2627 1.969 22.6752 1.182 20.8502C0.394 19.0252 0 17.0752 0 15.0002C0 12.9252 0.394 10.9752 1.182 9.15024C1.969 7.32524 3.0375 5.73774 4.3875 4.38774C5.7375 3.03774 7.325 1.96874 9.15 1.18074C10.975 0.393744 12.925 0.000244141 15 0.000244141C17.075 0.000244141 19.025 0.393744 20.85 1.18074C22.675 1.96874 24.2625 3.03774 25.6125 4.38774C26.9625 5.73774 28.031 7.32524 28.818 9.15024C29.606 10.9752 30 12.9252 30 15.0002C30 17.0752 29.606 19.0252 28.818 20.8502C28.031 22.6752 26.9625 24.2627 25.6125 25.6127C24.2625 26.9627 22.675 28.0312 20.85 28.8182C19.025 29.6062 17.075 30.0002 15 30.0002ZM13.5 26.9252V24.0002C12.675 24.0002 11.969 23.7067 11.382 23.1197C10.794 22.5317 10.5 21.8252 10.5 21.0002V19.5002L3.3 12.3002C3.225 12.7502 3.156 13.2002 3.093 13.6502C3.031 14.1002 3 14.5502 3 15.0002C3 18.0252 3.994 20.6752 5.982 22.9502C7.969 25.2252 10.475 26.5502 13.5 26.9252ZM23.85 23.1002C24.35 22.5502 24.8 21.9562 25.2 21.3182C25.6 20.6812 25.9315 20.0187 26.1945 19.3307C26.4565 18.6437 26.6565 17.9377 26.7945 17.2127C26.9315 16.4877 27 15.7502 27 15.0002C27 12.5502 26.319 10.3127 24.957 8.28774C23.594 6.26274 21.775 4.80024 19.5 3.90024V4.50024C19.5 5.32524 19.2065 6.03124 18.6195 6.61824C18.0315 7.20624 17.325 7.50024 16.5 7.50024H13.5V10.5002C13.5 10.9252 13.3565 11.2812 13.0695 11.5682C12.7815 11.8562 12.425 12.0002 12 12.0002H9V15.0002H18C18.425 15.0002 18.7815 15.1437 19.0695 15.4307C19.3565 15.7187 19.5 16.0752 19.5 16.5002V21.0002H21C21.65 21.0002 22.2375 21.1937 22.7625 21.5807C23.2875 21.9687 23.65 22.4752 23.85 23.1002Z" fill="#EBEBFF"/>
</g>
</svg>
