<svg width="30" height="30" viewBox="0 0 30 30" fill="none" xmlns="http://www.w3.org/2000/svg">
<path d="M24.3184 5.81445C21.8633 3.35352 18.5938 2 15.1191 2C7.94727 2 2.11133 7.83594 2.11133 15.0078C2.11133 17.2988 2.70898 19.5371 3.8457 21.5117L2 28.25L8.89648 26.4395C10.7949 27.4766 12.9336 28.0215 15.1133 28.0215H15.1191C22.2852 28.0215 28.25 22.1855 28.25 15.0137C28.25 11.5391 26.7734 8.27539 24.3184 5.81445ZM15.1191 25.8301C13.1738 25.8301 11.2695 25.3086 9.61133 24.3242L9.21875 24.0898L5.12891 25.1621L6.21875 21.1719L5.96094 20.7617C4.87695 19.0391 4.30859 17.0527 4.30859 15.0078C4.30859 9.04883 9.16016 4.19727 15.125 4.19727C18.0137 4.19727 20.7266 5.32227 22.7656 7.36719C24.8047 9.41211 26.0586 12.125 26.0527 15.0137C26.0527 20.9785 21.0781 25.8301 15.1191 25.8301ZM21.0488 17.7324C20.7266 17.5684 19.127 16.7832 18.8281 16.6777C18.5293 16.5664 18.3125 16.5137 18.0957 16.8418C17.8789 17.1699 17.2578 17.8965 17.0645 18.1191C16.877 18.3359 16.6836 18.3652 16.3613 18.2012C14.4512 17.2461 13.1973 16.4961 11.9375 14.334C11.6035 13.7598 12.2715 13.8008 12.8926 12.5586C12.998 12.3418 12.9453 12.1543 12.8633 11.9902C12.7812 11.8262 12.1309 10.2266 11.8613 9.57617C11.5977 8.94336 11.3281 9.03125 11.1289 9.01953C10.9414 9.00781 10.7246 9.00781 10.5078 9.00781C10.291 9.00781 9.93945 9.08984 9.64062 9.41211C9.3418 9.74023 8.50391 10.5254 8.50391 12.125C8.50391 13.7246 9.66992 15.2715 9.82813 15.4883C9.99219 15.7051 12.1191 18.9863 15.3828 20.3984C17.4453 21.2891 18.2539 21.3652 19.2852 21.2129C19.9121 21.1191 21.207 20.4277 21.4766 19.666C21.7461 18.9043 21.7461 18.2539 21.6641 18.1191C21.5879 17.9727 21.3711 17.8906 21.0488 17.7324Z" fill="url(#paint0_linear_356_3)"/>
<defs>
<linearGradient id="paint0_linear_356_3" x1="15.1571" y1="2" x2="15.1571" y2="28.25" gradientUnits="userSpaceOnUse">
<stop stop-color="#6379AC"/>
<stop offset="1" stop-color="#4B4996"/>
</linearGradient>
</defs>
</svg>
