<svg width="32" height="32" viewBox="0 0 32 32" fill="none" xmlns="http://www.w3.org/2000/svg">
<path d="M25.9396 6.20205C23.3208 3.57705 19.8333 2.1333 16.1271 2.1333C8.47705 2.1333 2.25205 8.3583 2.25205 16.0083C2.25205 18.4521 2.88955 20.8396 4.10205 22.9458L2.1333 30.1333L9.48955 28.2021C11.5146 29.3083 13.7958 29.8896 16.1208 29.8896H16.1271C23.7708 29.8896 30.1333 23.6646 30.1333 16.0146C30.1333 12.3083 28.5583 8.82705 25.9396 6.20205V6.20205ZM16.1271 27.5521C14.0521 27.5521 12.0208 26.9958 10.2521 25.9458L9.8333 25.6958L5.4708 26.8396L6.6333 22.5833L6.3583 22.1458C5.20205 20.3083 4.5958 18.1896 4.5958 16.0083C4.5958 9.65205 9.7708 4.47705 16.1333 4.47705C19.2146 4.47705 22.1083 5.67705 24.2833 7.8583C26.4583 10.0396 27.7958 12.9333 27.7896 16.0146C27.7896 22.3771 22.4833 27.5521 16.1271 27.5521V27.5521ZM22.4521 18.9146C22.1083 18.7396 20.4021 17.9021 20.0833 17.7896C19.7646 17.6708 19.5333 17.6146 19.3021 17.9646C19.0708 18.3146 18.4083 19.0896 18.2021 19.3271C18.0021 19.5583 17.7958 19.5896 17.4521 19.4146C15.4146 18.3958 14.0771 17.5958 12.7333 15.2896C12.3771 14.6771 13.0896 14.7208 13.7521 13.3958C13.8646 13.1646 13.8083 12.9646 13.7208 12.7896C13.6333 12.6146 12.9396 10.9083 12.6521 10.2146C12.3708 9.53955 12.0833 9.6333 11.8708 9.6208C11.6708 9.6083 11.4396 9.6083 11.2083 9.6083C10.9771 9.6083 10.6021 9.6958 10.2833 10.0396C9.96455 10.3896 9.0708 11.2271 9.0708 12.9333C9.0708 14.6396 10.3146 16.2896 10.4833 16.5208C10.6583 16.7521 12.9271 20.2521 16.4083 21.7583C18.6083 22.7083 19.4708 22.7896 20.5708 22.6271C21.2396 22.5271 22.6208 21.7896 22.9083 20.9771C23.1958 20.1646 23.1958 19.4708 23.1083 19.3271C23.0271 19.1708 22.7958 19.0833 22.4521 18.9146Z" fill="url(#paint0_linear_758_4454)"/>
<defs>
<linearGradient id="paint0_linear_758_4454" x1="16.1675" y1="2.1333" x2="16.1675" y2="30.1333" gradientUnits="userSpaceOnUse">
<stop stop-color="#6379AC"/>
<stop offset="1" stop-color="#4B4996"/>
</linearGradient>
</defs>
</svg>
