<svg width="103" height="70" viewBox="0 0 103 70" fill="none" xmlns="http://www.w3.org/2000/svg">
<path d="M33.5745 66H32.4105V57.402H33.5745V66ZM36.436 60.804C36.568 60.656 36.708 60.522 36.856 60.402C37.004 60.282 37.16 60.18 37.324 60.096C37.492 60.008 37.668 59.942 37.852 59.898C38.04 59.85 38.242 59.826 38.458 59.826C38.79 59.826 39.082 59.882 39.334 59.994C39.59 60.102 39.802 60.258 39.97 60.462C40.142 60.662 40.272 60.904 40.36 61.188C40.448 61.472 40.492 61.786 40.492 62.13V66H39.418V62.13C39.418 61.67 39.312 61.314 39.1 61.062C38.892 60.806 38.574 60.678 38.146 60.678C37.83 60.678 37.534 60.754 37.258 60.906C36.986 61.058 36.734 61.264 36.502 61.524V66H35.428V59.922H36.07C36.222 59.922 36.316 59.996 36.352 60.144L36.436 60.804ZM43.9034 66.096C43.4234 66.096 43.0534 65.962 42.7934 65.694C42.5374 65.426 42.4094 65.04 42.4094 64.536V60.816H41.6774C41.6134 60.816 41.5594 60.798 41.5154 60.762C41.4714 60.722 41.4494 60.662 41.4494 60.582V60.156L42.4454 60.03L42.6914 58.152C42.7034 58.092 42.7294 58.044 42.7694 58.008C42.8134 57.968 42.8694 57.948 42.9374 57.948H43.4774V60.042H45.2354V60.816H43.4774V64.464C43.4774 64.72 43.5394 64.91 43.6634 65.034C43.7874 65.158 43.9474 65.22 44.1434 65.22C44.2554 65.22 44.3514 65.206 44.4314 65.178C44.5154 65.146 44.5874 65.112 44.6474 65.076C44.7074 65.04 44.7574 65.008 44.7974 64.98C44.8414 64.948 44.8794 64.932 44.9114 64.932C44.9674 64.932 45.0174 64.966 45.0614 65.034L45.3734 65.544C45.1894 65.716 44.9674 65.852 44.7074 65.952C44.4474 66.048 44.1794 66.096 43.9034 66.096ZM50.371 62.298C50.371 62.05 50.335 61.824 50.263 61.62C50.195 61.412 50.093 61.234 49.957 61.086C49.825 60.934 49.663 60.818 49.471 60.738C49.279 60.654 49.061 60.612 48.817 60.612C48.305 60.612 47.899 60.762 47.599 61.062C47.303 61.358 47.119 61.77 47.047 62.298H50.371ZM51.235 65.148C51.103 65.308 50.945 65.448 50.761 65.568C50.577 65.684 50.379 65.78 50.167 65.856C49.959 65.932 49.743 65.988 49.519 66.024C49.295 66.064 49.073 66.084 48.853 66.084C48.433 66.084 48.045 66.014 47.689 65.874C47.337 65.73 47.031 65.522 46.771 65.25C46.515 64.974 46.315 64.634 46.171 64.23C46.027 63.826 45.955 63.362 45.955 62.838C45.955 62.414 46.019 62.018 46.147 61.65C46.279 61.282 46.467 60.964 46.711 60.696C46.955 60.424 47.253 60.212 47.605 60.06C47.957 59.904 48.353 59.826 48.793 59.826C49.157 59.826 49.493 59.888 49.801 60.012C50.113 60.132 50.381 60.308 50.605 60.54C50.833 60.768 51.011 61.052 51.139 61.392C51.267 61.728 51.331 62.112 51.331 62.544C51.331 62.712 51.313 62.824 51.277 62.88C51.241 62.936 51.173 62.964 51.073 62.964H47.011C47.023 63.348 47.075 63.682 47.167 63.966C47.263 64.25 47.395 64.488 47.563 64.68C47.731 64.868 47.931 65.01 48.163 65.106C48.395 65.198 48.655 65.244 48.943 65.244C49.211 65.244 49.441 65.214 49.633 65.154C49.829 65.09 49.997 65.022 50.137 64.95C50.277 64.878 50.393 64.812 50.485 64.752C50.581 64.688 50.663 64.656 50.731 64.656C50.819 64.656 50.887 64.69 50.935 64.758L51.235 65.148ZM53.6569 61.14C53.8489 60.724 54.0849 60.4 54.3649 60.168C54.6449 59.932 54.9869 59.814 55.3909 59.814C55.5189 59.814 55.6409 59.828 55.7569 59.856C55.8769 59.884 55.9829 59.928 56.0749 59.988L55.9969 60.786C55.9729 60.886 55.9129 60.936 55.8169 60.936C55.7609 60.936 55.6789 60.924 55.5709 60.9C55.4629 60.876 55.3409 60.864 55.2049 60.864C55.0129 60.864 54.8409 60.892 54.6889 60.948C54.5409 61.004 54.4069 61.088 54.2869 61.2C54.1709 61.308 54.0649 61.444 53.9689 61.608C53.8769 61.768 53.7929 61.952 53.7169 62.16V66H52.6429V59.922H53.2549C53.3709 59.922 53.4509 59.944 53.4949 59.988C53.5389 60.032 53.5689 60.108 53.5849 60.216L53.6569 61.14ZM57.014 66V59.922H57.656C57.808 59.922 57.902 59.996 57.938 60.144L58.016 60.768C58.24 60.492 58.492 60.266 58.772 60.09C59.052 59.914 59.376 59.826 59.744 59.826C60.152 59.826 60.482 59.94 60.734 60.168C60.99 60.396 61.174 60.704 61.286 61.092C61.374 60.872 61.486 60.682 61.622 60.522C61.762 60.362 61.918 60.23 62.09 60.126C62.262 60.022 62.444 59.946 62.636 59.898C62.832 59.85 63.03 59.826 63.23 59.826C63.55 59.826 63.834 59.878 64.082 59.982C64.334 60.082 64.546 60.23 64.718 60.426C64.894 60.622 65.028 60.864 65.12 61.152C65.212 61.436 65.258 61.762 65.258 62.13V66H64.184V62.13C64.184 61.654 64.08 61.294 63.872 61.05C63.664 60.802 63.364 60.678 62.972 60.678C62.796 60.678 62.628 60.71 62.468 60.774C62.312 60.834 62.174 60.924 62.054 61.044C61.934 61.164 61.838 61.316 61.766 61.5C61.698 61.68 61.664 61.89 61.664 62.13V66H60.59V62.13C60.59 61.642 60.492 61.278 60.296 61.038C60.1 60.798 59.814 60.678 59.438 60.678C59.174 60.678 58.93 60.75 58.706 60.894C58.482 61.034 58.276 61.226 58.088 61.47V66H57.014ZM70.9492 62.298C70.9492 62.05 70.9132 61.824 70.8412 61.62C70.7732 61.412 70.6712 61.234 70.5352 61.086C70.4032 60.934 70.2412 60.818 70.0492 60.738C69.8572 60.654 69.6392 60.612 69.3952 60.612C68.8832 60.612 68.4772 60.762 68.1772 61.062C67.8812 61.358 67.6972 61.77 67.6252 62.298H70.9492ZM71.8132 65.148C71.6812 65.308 71.5232 65.448 71.3392 65.568C71.1552 65.684 70.9572 65.78 70.7452 65.856C70.5372 65.932 70.3212 65.988 70.0972 66.024C69.8732 66.064 69.6512 66.084 69.4312 66.084C69.0112 66.084 68.6232 66.014 68.2672 65.874C67.9152 65.73 67.6092 65.522 67.3492 65.25C67.0932 64.974 66.8932 64.634 66.7492 64.23C66.6052 63.826 66.5332 63.362 66.5332 62.838C66.5332 62.414 66.5972 62.018 66.7252 61.65C66.8572 61.282 67.0452 60.964 67.2892 60.696C67.5332 60.424 67.8312 60.212 68.1832 60.06C68.5352 59.904 68.9312 59.826 69.3712 59.826C69.7352 59.826 70.0712 59.888 70.3792 60.012C70.6912 60.132 70.9592 60.308 71.1832 60.54C71.4112 60.768 71.5892 61.052 71.7172 61.392C71.8452 61.728 71.9092 62.112 71.9092 62.544C71.9092 62.712 71.8912 62.824 71.8552 62.88C71.8192 62.936 71.7512 62.964 71.6512 62.964H67.5892C67.6012 63.348 67.6532 63.682 67.7452 63.966C67.8412 64.25 67.9732 64.488 68.1412 64.68C68.3092 64.868 68.5092 65.01 68.7412 65.106C68.9732 65.198 69.2332 65.244 69.5212 65.244C69.7892 65.244 70.0192 65.214 70.2112 65.154C70.4072 65.09 70.5752 65.022 70.7152 64.95C70.8552 64.878 70.9712 64.812 71.0632 64.752C71.1592 64.688 71.2412 64.656 71.3092 64.656C71.3972 64.656 71.4652 64.69 71.5132 64.758L71.8132 65.148ZM77.181 61.368C76.981 61.1 76.765 60.914 76.533 60.81C76.301 60.702 76.041 60.648 75.753 60.648C75.189 60.648 74.755 60.85 74.451 61.254C74.147 61.658 73.995 62.234 73.995 62.982C73.995 63.378 74.029 63.718 74.097 64.002C74.165 64.282 74.265 64.514 74.397 64.698C74.529 64.878 74.691 65.01 74.883 65.094C75.075 65.178 75.293 65.22 75.537 65.22C75.889 65.22 76.195 65.14 76.455 64.98C76.719 64.82 76.961 64.594 77.181 64.302V61.368ZM78.249 57.162V66H77.613C77.461 66 77.365 65.926 77.325 65.778L77.229 65.04C76.969 65.352 76.673 65.604 76.341 65.796C76.009 65.988 75.625 66.084 75.189 66.084C74.841 66.084 74.525 66.018 74.241 65.886C73.957 65.75 73.715 65.552 73.515 65.292C73.315 65.032 73.161 64.708 73.053 64.32C72.945 63.932 72.891 63.486 72.891 62.982C72.891 62.534 72.951 62.118 73.071 61.734C73.191 61.346 73.363 61.01 73.587 60.726C73.811 60.442 74.085 60.22 74.409 60.06C74.737 59.896 75.105 59.814 75.513 59.814C75.885 59.814 76.203 59.878 76.467 60.006C76.735 60.13 76.973 60.304 77.181 60.528V57.162H78.249ZM81.0638 59.922V66H79.9958V59.922H81.0638ZM81.2918 58.014C81.2918 58.118 81.2698 58.216 81.2258 58.308C81.1858 58.396 81.1298 58.476 81.0578 58.548C80.9898 58.616 80.9078 58.67 80.8118 58.71C80.7198 58.75 80.6218 58.77 80.5178 58.77C80.4138 58.77 80.3158 58.75 80.2238 58.71C80.1358 58.67 80.0578 58.616 79.9898 58.548C79.9218 58.476 79.8678 58.396 79.8278 58.308C79.7878 58.216 79.7678 58.118 79.7678 58.014C79.7678 57.91 79.7878 57.812 79.8278 57.72C79.8678 57.624 79.9218 57.542 79.9898 57.474C80.0578 57.402 80.1358 57.346 80.2238 57.306C80.3158 57.266 80.4138 57.246 80.5178 57.246C80.6218 57.246 80.7198 57.266 80.8118 57.306C80.9078 57.346 80.9898 57.402 81.0578 57.474C81.1298 57.542 81.1858 57.624 81.2258 57.72C81.2698 57.812 81.2918 57.91 81.2918 58.014ZM86.1127 63.264C85.6207 63.28 85.2007 63.32 84.8527 63.384C84.5087 63.444 84.2267 63.524 84.0067 63.624C83.7907 63.724 83.6327 63.842 83.5327 63.978C83.4367 64.114 83.3887 64.266 83.3887 64.434C83.3887 64.594 83.4147 64.732 83.4667 64.848C83.5187 64.964 83.5887 65.06 83.6767 65.136C83.7687 65.208 83.8747 65.262 83.9947 65.298C84.1187 65.33 84.2507 65.346 84.3907 65.346C84.5787 65.346 84.7507 65.328 84.9067 65.292C85.0627 65.252 85.2087 65.196 85.3447 65.124C85.4847 65.052 85.6167 64.966 85.7407 64.866C85.8687 64.766 85.9927 64.652 86.1127 64.524V63.264ZM82.6627 60.78C82.9987 60.456 83.3607 60.214 83.7487 60.054C84.1367 59.894 84.5667 59.814 85.0387 59.814C85.3787 59.814 85.6807 59.87 85.9447 59.982C86.2087 60.094 86.4307 60.25 86.6107 60.45C86.7907 60.65 86.9267 60.892 87.0187 61.176C87.1107 61.46 87.1567 61.772 87.1567 62.112V66H86.6827C86.5787 66 86.4987 65.984 86.4427 65.952C86.3867 65.916 86.3427 65.848 86.3107 65.748L86.1907 65.172C86.0307 65.32 85.8747 65.452 85.7227 65.568C85.5707 65.68 85.4107 65.776 85.2427 65.856C85.0747 65.932 84.8947 65.99 84.7027 66.03C84.5147 66.074 84.3047 66.096 84.0727 66.096C83.8367 66.096 83.6147 66.064 83.4067 66C83.1987 65.932 83.0167 65.832 82.8607 65.7C82.7087 65.568 82.5867 65.402 82.4947 65.202C82.4067 64.998 82.3627 64.758 82.3627 64.482C82.3627 64.242 82.4287 64.012 82.5607 63.792C82.6927 63.568 82.9067 63.37 83.2027 63.198C83.4987 63.026 83.8847 62.886 84.3607 62.778C84.8367 62.666 85.4207 62.602 86.1127 62.586V62.112C86.1127 61.64 86.0107 61.284 85.8067 61.044C85.6027 60.8 85.3047 60.678 84.9127 60.678C84.6487 60.678 84.4267 60.712 84.2467 60.78C84.0707 60.844 83.9167 60.918 83.7847 61.002C83.6567 61.082 83.5447 61.156 83.4487 61.224C83.3567 61.288 83.2647 61.32 83.1727 61.32C83.1007 61.32 83.0387 61.302 82.9867 61.266C82.9347 61.226 82.8907 61.178 82.8547 61.122L82.6627 60.78ZM86.6527 57.306L85.2547 58.854C85.1987 58.914 85.1427 58.958 85.0867 58.986C85.0347 59.01 84.9667 59.022 84.8827 59.022H84.2467L85.1347 57.57C85.1907 57.478 85.2507 57.412 85.3147 57.372C85.3827 57.328 85.4807 57.306 85.6087 57.306H86.6527ZM89.7975 61.14C89.9895 60.724 90.2255 60.4 90.5055 60.168C90.7855 59.932 91.1275 59.814 91.5315 59.814C91.6595 59.814 91.7815 59.828 91.8975 59.856C92.0175 59.884 92.1235 59.928 92.2155 59.988L92.1375 60.786C92.1135 60.886 92.0535 60.936 91.9575 60.936C91.9015 60.936 91.8195 60.924 91.7115 60.9C91.6035 60.876 91.4815 60.864 91.3455 60.864C91.1535 60.864 90.9815 60.892 90.8295 60.948C90.6815 61.004 90.5475 61.088 90.4275 61.2C90.3115 61.308 90.2055 61.444 90.1095 61.608C90.0175 61.768 89.9335 61.952 89.8575 62.16V66H88.7835V59.922H89.3955C89.5115 59.922 89.5915 59.944 89.6355 59.988C89.6795 60.032 89.7095 60.108 89.7255 60.216L89.7975 61.14ZM94.2826 59.922V66H93.2146V59.922H94.2826ZM94.5106 58.014C94.5106 58.118 94.4886 58.216 94.4446 58.308C94.4046 58.396 94.3486 58.476 94.2766 58.548C94.2086 58.616 94.1266 58.67 94.0306 58.71C93.9386 58.75 93.8406 58.77 93.7366 58.77C93.6326 58.77 93.5346 58.75 93.4426 58.71C93.3546 58.67 93.2766 58.616 93.2086 58.548C93.1406 58.476 93.0866 58.396 93.0466 58.308C93.0066 58.216 92.9866 58.118 92.9866 58.014C92.9866 57.91 93.0066 57.812 93.0466 57.72C93.0866 57.624 93.1406 57.542 93.2086 57.474C93.2766 57.402 93.3546 57.346 93.4426 57.306C93.5346 57.266 93.6326 57.246 93.7366 57.246C93.8406 57.246 93.9386 57.266 94.0306 57.306C94.1266 57.346 94.2086 57.402 94.2766 57.474C94.3486 57.542 94.4046 57.624 94.4446 57.72C94.4886 57.812 94.5106 57.91 94.5106 58.014ZM98.5994 59.826C99.0434 59.826 99.4434 59.9 99.7994 60.048C100.155 60.196 100.459 60.406 100.711 60.678C100.963 60.95 101.155 61.28 101.287 61.668C101.423 62.052 101.491 62.482 101.491 62.958C101.491 63.438 101.423 63.87 101.287 64.254C101.155 64.638 100.963 64.966 100.711 65.238C100.459 65.51 100.155 65.72 99.7994 65.868C99.4434 66.012 99.0434 66.084 98.5994 66.084C98.1514 66.084 97.7474 66.012 97.3874 65.868C97.0314 65.72 96.7274 65.51 96.4754 65.238C96.2234 64.966 96.0294 64.638 95.8934 64.254C95.7614 63.87 95.6954 63.438 95.6954 62.958C95.6954 62.482 95.7614 62.052 95.8934 61.668C96.0294 61.28 96.2234 60.95 96.4754 60.678C96.7274 60.406 97.0314 60.196 97.3874 60.048C97.7474 59.9 98.1514 59.826 98.5994 59.826ZM98.5994 65.25C99.1994 65.25 99.6474 65.05 99.9434 64.65C100.239 64.246 100.387 63.684 100.387 62.964C100.387 62.24 100.239 61.676 99.9434 61.272C99.6474 60.868 99.1994 60.666 98.5994 60.666C98.2954 60.666 98.0294 60.718 97.8014 60.822C97.5774 60.926 97.3894 61.076 97.2374 61.272C97.0894 61.468 96.9774 61.71 96.9014 61.998C96.8294 62.282 96.7934 62.604 96.7934 62.964C96.7934 63.684 96.9414 64.246 97.2374 64.65C97.5374 65.05 97.9914 65.25 98.5994 65.25Z" fill="#54545C"/>
<path d="M53.667 26C53.667 24.6267 53.967 23.4 54.567 22.32C55.167 21.2267 55.987 20.38 57.027 19.78C58.067 19.1667 59.227 18.86 60.507 18.86C62.067 18.86 63.4004 19.2333 64.507 19.98C65.627 20.7133 66.4404 21.7533 66.947 23.1H65.307C64.907 22.1533 64.2937 21.4133 63.467 20.88C62.6537 20.3467 61.667 20.08 60.507 20.08C59.4804 20.08 58.5537 20.32 57.727 20.8C56.9137 21.28 56.2737 21.9733 55.807 22.88C55.3404 23.7733 55.107 24.8133 55.107 26C55.107 27.1867 55.3404 28.2267 55.807 29.12C56.2737 30.0133 56.9137 30.7 57.727 31.18C58.5537 31.66 59.4804 31.9 60.507 31.9C61.667 31.9 62.6537 31.64 63.467 31.12C64.2937 30.5867 64.907 29.8533 65.307 28.92H66.947C66.4404 30.2533 65.627 31.2867 64.507 32.02C63.387 32.7533 62.0537 33.12 60.507 33.12C59.227 33.12 58.067 32.82 57.027 32.22C55.987 31.6067 55.167 30.76 54.567 29.68C53.967 28.6 53.667 27.3733 53.667 26ZM73.9767 33.14C73.0567 33.14 72.2434 32.98 71.5367 32.66C70.8434 32.34 70.2967 31.8933 69.8967 31.32C69.4967 30.7467 69.2834 30.1067 69.2567 29.4H70.7367C70.8034 30.08 71.1034 30.68 71.6367 31.2C72.1701 31.7067 72.9501 31.96 73.9767 31.96C74.9234 31.96 75.6701 31.72 76.2167 31.24C76.7767 30.7467 77.0567 30.1267 77.0567 29.38C77.0567 28.78 76.9034 28.3 76.5967 27.94C76.2901 27.5667 75.9101 27.2933 75.4567 27.12C75.0034 26.9333 74.3767 26.7333 73.5767 26.52C72.6434 26.2667 71.9034 26.02 71.3567 25.78C70.8101 25.54 70.3434 25.1667 69.9567 24.66C69.5701 24.1533 69.3767 23.4667 69.3767 22.6C69.3767 21.88 69.5634 21.24 69.9367 20.68C70.3101 20.1067 70.8367 19.66 71.5167 19.34C72.1967 19.02 72.9767 18.86 73.8567 18.86C75.1501 18.86 76.1901 19.18 76.9767 19.82C77.7767 20.4467 78.2367 21.26 78.3567 22.26H76.8367C76.7434 21.6867 76.4301 21.18 75.8967 20.74C75.3634 20.2867 74.6434 20.06 73.7367 20.06C72.8967 20.06 72.1967 20.2867 71.6367 20.74C71.0767 21.18 70.7967 21.7867 70.7967 22.56C70.7967 23.1467 70.9501 23.62 71.2567 23.98C71.5634 24.34 71.9434 24.6133 72.3967 24.8C72.8634 24.9867 73.4901 25.1867 74.2767 25.4C75.1834 25.6533 75.9167 25.9067 76.4767 26.16C77.0367 26.4 77.5101 26.7733 77.8967 27.28C78.2834 27.7867 78.4767 28.4667 78.4767 29.32C78.4767 29.9733 78.3034 30.5933 77.9567 31.18C77.6101 31.7667 77.0967 32.24 76.4167 32.6C75.7367 32.96 74.9234 33.14 73.9767 33.14ZM85.422 33.14C84.502 33.14 83.6887 32.98 82.982 32.66C82.2887 32.34 81.742 31.8933 81.342 31.32C80.942 30.7467 80.7287 30.1067 80.702 29.4H82.182C82.2487 30.08 82.5487 30.68 83.082 31.2C83.6154 31.7067 84.3954 31.96 85.422 31.96C86.3687 31.96 87.1154 31.72 87.662 31.24C88.222 30.7467 88.502 30.1267 88.502 29.38C88.502 28.78 88.3487 28.3 88.042 27.94C87.7354 27.5667 87.3554 27.2933 86.902 27.12C86.4487 26.9333 85.822 26.7333 85.022 26.52C84.0887 26.2667 83.3487 26.02 82.802 25.78C82.2554 25.54 81.7887 25.1667 81.402 24.66C81.0154 24.1533 80.822 23.4667 80.822 22.6C80.822 21.88 81.0087 21.24 81.382 20.68C81.7554 20.1067 82.282 19.66 82.962 19.34C83.642 19.02 84.422 18.86 85.302 18.86C86.5954 18.86 87.6354 19.18 88.422 19.82C89.222 20.4467 89.682 21.26 89.802 22.26H88.282C88.1887 21.6867 87.8754 21.18 87.342 20.74C86.8087 20.2867 86.0887 20.06 85.182 20.06C84.342 20.06 83.642 20.2867 83.082 20.74C82.522 21.18 82.242 21.7867 82.242 22.56C82.242 23.1467 82.3954 23.62 82.702 23.98C83.0087 24.34 83.3887 24.6133 83.842 24.8C84.3087 24.9867 84.9354 25.1867 85.722 25.4C86.6287 25.6533 87.362 25.9067 87.922 26.16C88.482 26.4 88.9554 26.7733 89.342 27.28C89.7287 27.7867 89.922 28.4667 89.922 29.32C89.922 29.9733 89.7487 30.5933 89.402 31.18C89.0554 31.7667 88.542 32.24 87.862 32.6C87.182 32.96 86.3687 33.14 85.422 33.14ZM92.1273 22.26C92.194 20.9267 92.6607 19.9 93.5273 19.18C94.4073 18.4467 95.5607 18.08 96.9873 18.08C97.9607 18.08 98.794 18.2533 99.4873 18.6C100.181 18.9333 100.701 19.3933 101.047 19.98C101.407 20.5533 101.587 21.2067 101.587 21.94C101.587 22.78 101.367 23.4933 100.927 24.08C100.501 24.6533 99.9873 25.04 99.3873 25.24V25.32C100.161 25.56 100.761 25.9867 101.187 26.6C101.627 27.2133 101.847 28 101.847 28.96C101.847 29.76 101.661 30.4733 101.287 31.1C100.927 31.7267 100.387 32.22 99.6673 32.58C98.9607 32.9267 98.1073 33.1 97.1073 33.1C95.6007 33.1 94.374 32.72 93.4273 31.96C92.4807 31.2 91.9807 30.08 91.9273 28.6H94.6473C94.674 29.2533 94.894 29.78 95.3073 30.18C95.734 30.5667 96.314 30.76 97.0473 30.76C97.7273 30.76 98.2473 30.5733 98.6073 30.2C98.9807 29.8133 99.1673 29.32 99.1673 28.72C99.1673 27.92 98.914 27.3467 98.4073 27C97.9007 26.6533 97.114 26.48 96.0473 26.48H95.4673V24.18H96.0473C97.9407 24.18 98.8873 23.5467 98.8873 22.28C98.8873 21.7067 98.714 21.26 98.3673 20.94C98.034 20.62 97.5473 20.46 96.9073 20.46C96.2807 20.46 95.794 20.6333 95.4473 20.98C95.114 21.3133 94.9207 21.74 94.8673 22.26H92.1273Z" fill="#54545C"/>
<path d="M52 1.625L45.0667 41.6696L20.8758 50.375L0 41.6696L2.12333 31.3538H11.0067L10.14 35.7718L22.75 40.6032L37.2775 35.7718L39.3142 25.2056H3.19583L4.92917 16.2826H41.08L42.2175 10.548H6.09917L7.865 1.625H52Z" fill="#54545C"/>
</svg>
