<svg width="115" height="70" viewBox="0 0 115 70" fill="none" xmlns="http://www.w3.org/2000/svg">
<path d="M46.5745 66H45.4105V57.402H46.5745V66ZM49.436 60.804C49.568 60.656 49.708 60.522 49.856 60.402C50.004 60.282 50.16 60.18 50.324 60.096C50.492 60.008 50.668 59.942 50.852 59.898C51.04 59.85 51.242 59.826 51.458 59.826C51.79 59.826 52.082 59.882 52.334 59.994C52.59 60.102 52.802 60.258 52.97 60.462C53.142 60.662 53.272 60.904 53.36 61.188C53.448 61.472 53.492 61.786 53.492 62.13V66H52.418V62.13C52.418 61.67 52.312 61.314 52.1 61.062C51.892 60.806 51.574 60.678 51.146 60.678C50.83 60.678 50.534 60.754 50.258 60.906C49.986 61.058 49.734 61.264 49.502 61.524V66H48.428V59.922H49.07C49.222 59.922 49.316 59.996 49.352 60.144L49.436 60.804ZM56.9034 66.096C56.4234 66.096 56.0534 65.962 55.7934 65.694C55.5374 65.426 55.4094 65.04 55.4094 64.536V60.816H54.6774C54.6134 60.816 54.5594 60.798 54.5154 60.762C54.4714 60.722 54.4494 60.662 54.4494 60.582V60.156L55.4454 60.03L55.6914 58.152C55.7034 58.092 55.7294 58.044 55.7694 58.008C55.8134 57.968 55.8694 57.948 55.9374 57.948H56.4774V60.042H58.2354V60.816H56.4774V64.464C56.4774 64.72 56.5394 64.91 56.6634 65.034C56.7874 65.158 56.9474 65.22 57.1434 65.22C57.2554 65.22 57.3514 65.206 57.4314 65.178C57.5154 65.146 57.5874 65.112 57.6474 65.076C57.7074 65.04 57.7574 65.008 57.7974 64.98C57.8414 64.948 57.8794 64.932 57.9114 64.932C57.9674 64.932 58.0174 64.966 58.0614 65.034L58.3734 65.544C58.1894 65.716 57.9674 65.852 57.7074 65.952C57.4474 66.048 57.1794 66.096 56.9034 66.096ZM63.371 62.298C63.371 62.05 63.335 61.824 63.263 61.62C63.195 61.412 63.093 61.234 62.957 61.086C62.825 60.934 62.663 60.818 62.471 60.738C62.279 60.654 62.061 60.612 61.817 60.612C61.305 60.612 60.899 60.762 60.599 61.062C60.303 61.358 60.119 61.77 60.047 62.298H63.371ZM64.235 65.148C64.103 65.308 63.945 65.448 63.761 65.568C63.577 65.684 63.379 65.78 63.167 65.856C62.959 65.932 62.743 65.988 62.519 66.024C62.295 66.064 62.073 66.084 61.853 66.084C61.433 66.084 61.045 66.014 60.689 65.874C60.337 65.73 60.031 65.522 59.771 65.25C59.515 64.974 59.315 64.634 59.171 64.23C59.027 63.826 58.955 63.362 58.955 62.838C58.955 62.414 59.019 62.018 59.147 61.65C59.279 61.282 59.467 60.964 59.711 60.696C59.955 60.424 60.253 60.212 60.605 60.06C60.957 59.904 61.353 59.826 61.793 59.826C62.157 59.826 62.493 59.888 62.801 60.012C63.113 60.132 63.381 60.308 63.605 60.54C63.833 60.768 64.011 61.052 64.139 61.392C64.267 61.728 64.331 62.112 64.331 62.544C64.331 62.712 64.313 62.824 64.277 62.88C64.241 62.936 64.173 62.964 64.073 62.964H60.011C60.023 63.348 60.075 63.682 60.167 63.966C60.263 64.25 60.395 64.488 60.563 64.68C60.731 64.868 60.931 65.01 61.163 65.106C61.395 65.198 61.655 65.244 61.943 65.244C62.211 65.244 62.441 65.214 62.633 65.154C62.829 65.09 62.997 65.022 63.137 64.95C63.277 64.878 63.393 64.812 63.485 64.752C63.581 64.688 63.663 64.656 63.731 64.656C63.819 64.656 63.887 64.69 63.935 64.758L64.235 65.148ZM66.6569 61.14C66.8489 60.724 67.0849 60.4 67.3649 60.168C67.6449 59.932 67.9869 59.814 68.3909 59.814C68.5189 59.814 68.6409 59.828 68.7569 59.856C68.8769 59.884 68.9829 59.928 69.0749 59.988L68.9969 60.786C68.9729 60.886 68.9129 60.936 68.8169 60.936C68.7609 60.936 68.6789 60.924 68.5709 60.9C68.4629 60.876 68.3409 60.864 68.2049 60.864C68.0129 60.864 67.8409 60.892 67.6889 60.948C67.5409 61.004 67.4069 61.088 67.2869 61.2C67.1709 61.308 67.0649 61.444 66.9689 61.608C66.8769 61.768 66.7929 61.952 66.7169 62.16V66H65.6429V59.922H66.2549C66.3709 59.922 66.4509 59.944 66.4949 59.988C66.5389 60.032 66.5689 60.108 66.5849 60.216L66.6569 61.14ZM70.014 66V59.922H70.656C70.808 59.922 70.902 59.996 70.938 60.144L71.016 60.768C71.24 60.492 71.492 60.266 71.772 60.09C72.052 59.914 72.376 59.826 72.744 59.826C73.152 59.826 73.482 59.94 73.734 60.168C73.99 60.396 74.174 60.704 74.286 61.092C74.374 60.872 74.486 60.682 74.622 60.522C74.762 60.362 74.918 60.23 75.09 60.126C75.262 60.022 75.444 59.946 75.636 59.898C75.832 59.85 76.03 59.826 76.23 59.826C76.55 59.826 76.834 59.878 77.082 59.982C77.334 60.082 77.546 60.23 77.718 60.426C77.894 60.622 78.028 60.864 78.12 61.152C78.212 61.436 78.258 61.762 78.258 62.13V66H77.184V62.13C77.184 61.654 77.08 61.294 76.872 61.05C76.664 60.802 76.364 60.678 75.972 60.678C75.796 60.678 75.628 60.71 75.468 60.774C75.312 60.834 75.174 60.924 75.054 61.044C74.934 61.164 74.838 61.316 74.766 61.5C74.698 61.68 74.664 61.89 74.664 62.13V66H73.59V62.13C73.59 61.642 73.492 61.278 73.296 61.038C73.1 60.798 72.814 60.678 72.438 60.678C72.174 60.678 71.93 60.75 71.706 60.894C71.482 61.034 71.276 61.226 71.088 61.47V66H70.014ZM83.9492 62.298C83.9492 62.05 83.9132 61.824 83.8412 61.62C83.7732 61.412 83.6712 61.234 83.5352 61.086C83.4032 60.934 83.2412 60.818 83.0492 60.738C82.8572 60.654 82.6392 60.612 82.3952 60.612C81.8832 60.612 81.4772 60.762 81.1772 61.062C80.8812 61.358 80.6972 61.77 80.6252 62.298H83.9492ZM84.8132 65.148C84.6812 65.308 84.5232 65.448 84.3392 65.568C84.1552 65.684 83.9572 65.78 83.7452 65.856C83.5372 65.932 83.3212 65.988 83.0972 66.024C82.8732 66.064 82.6512 66.084 82.4312 66.084C82.0112 66.084 81.6232 66.014 81.2672 65.874C80.9152 65.73 80.6092 65.522 80.3492 65.25C80.0932 64.974 79.8932 64.634 79.7492 64.23C79.6052 63.826 79.5332 63.362 79.5332 62.838C79.5332 62.414 79.5972 62.018 79.7252 61.65C79.8572 61.282 80.0452 60.964 80.2892 60.696C80.5332 60.424 80.8312 60.212 81.1832 60.06C81.5352 59.904 81.9312 59.826 82.3712 59.826C82.7352 59.826 83.0712 59.888 83.3792 60.012C83.6912 60.132 83.9592 60.308 84.1832 60.54C84.4112 60.768 84.5892 61.052 84.7172 61.392C84.8452 61.728 84.9092 62.112 84.9092 62.544C84.9092 62.712 84.8912 62.824 84.8552 62.88C84.8192 62.936 84.7512 62.964 84.6512 62.964H80.5892C80.6012 63.348 80.6532 63.682 80.7452 63.966C80.8412 64.25 80.9732 64.488 81.1412 64.68C81.3092 64.868 81.5092 65.01 81.7412 65.106C81.9732 65.198 82.2332 65.244 82.5212 65.244C82.7892 65.244 83.0192 65.214 83.2112 65.154C83.4072 65.09 83.5752 65.022 83.7152 64.95C83.8552 64.878 83.9712 64.812 84.0632 64.752C84.1592 64.688 84.2412 64.656 84.3092 64.656C84.3972 64.656 84.4652 64.69 84.5132 64.758L84.8132 65.148ZM90.181 61.368C89.981 61.1 89.765 60.914 89.533 60.81C89.301 60.702 89.041 60.648 88.753 60.648C88.189 60.648 87.755 60.85 87.451 61.254C87.147 61.658 86.995 62.234 86.995 62.982C86.995 63.378 87.029 63.718 87.097 64.002C87.165 64.282 87.265 64.514 87.397 64.698C87.529 64.878 87.691 65.01 87.883 65.094C88.075 65.178 88.293 65.22 88.537 65.22C88.889 65.22 89.195 65.14 89.455 64.98C89.719 64.82 89.961 64.594 90.181 64.302V61.368ZM91.249 57.162V66H90.613C90.461 66 90.365 65.926 90.325 65.778L90.229 65.04C89.969 65.352 89.673 65.604 89.341 65.796C89.009 65.988 88.625 66.084 88.189 66.084C87.841 66.084 87.525 66.018 87.241 65.886C86.957 65.75 86.715 65.552 86.515 65.292C86.315 65.032 86.161 64.708 86.053 64.32C85.945 63.932 85.891 63.486 85.891 62.982C85.891 62.534 85.951 62.118 86.071 61.734C86.191 61.346 86.363 61.01 86.587 60.726C86.811 60.442 87.085 60.22 87.409 60.06C87.737 59.896 88.105 59.814 88.513 59.814C88.885 59.814 89.203 59.878 89.467 60.006C89.735 60.13 89.973 60.304 90.181 60.528V57.162H91.249ZM94.0638 59.922V66H92.9958V59.922H94.0638ZM94.2918 58.014C94.2918 58.118 94.2698 58.216 94.2258 58.308C94.1858 58.396 94.1298 58.476 94.0578 58.548C93.9898 58.616 93.9078 58.67 93.8118 58.71C93.7198 58.75 93.6218 58.77 93.5178 58.77C93.4138 58.77 93.3158 58.75 93.2238 58.71C93.1358 58.67 93.0578 58.616 92.9898 58.548C92.9218 58.476 92.8678 58.396 92.8278 58.308C92.7878 58.216 92.7678 58.118 92.7678 58.014C92.7678 57.91 92.7878 57.812 92.8278 57.72C92.8678 57.624 92.9218 57.542 92.9898 57.474C93.0578 57.402 93.1358 57.346 93.2238 57.306C93.3158 57.266 93.4138 57.246 93.5178 57.246C93.6218 57.246 93.7198 57.266 93.8118 57.306C93.9078 57.346 93.9898 57.402 94.0578 57.474C94.1298 57.542 94.1858 57.624 94.2258 57.72C94.2698 57.812 94.2918 57.91 94.2918 58.014ZM99.1127 63.264C98.6207 63.28 98.2007 63.32 97.8527 63.384C97.5087 63.444 97.2267 63.524 97.0067 63.624C96.7907 63.724 96.6327 63.842 96.5327 63.978C96.4367 64.114 96.3887 64.266 96.3887 64.434C96.3887 64.594 96.4147 64.732 96.4667 64.848C96.5187 64.964 96.5887 65.06 96.6767 65.136C96.7687 65.208 96.8747 65.262 96.9947 65.298C97.1187 65.33 97.2507 65.346 97.3907 65.346C97.5787 65.346 97.7507 65.328 97.9067 65.292C98.0627 65.252 98.2087 65.196 98.3447 65.124C98.4847 65.052 98.6167 64.966 98.7407 64.866C98.8687 64.766 98.9927 64.652 99.1127 64.524V63.264ZM95.6627 60.78C95.9987 60.456 96.3607 60.214 96.7487 60.054C97.1367 59.894 97.5667 59.814 98.0387 59.814C98.3787 59.814 98.6807 59.87 98.9447 59.982C99.2087 60.094 99.4307 60.25 99.6107 60.45C99.7907 60.65 99.9267 60.892 100.019 61.176C100.111 61.46 100.157 61.772 100.157 62.112V66H99.6827C99.5787 66 99.4987 65.984 99.4427 65.952C99.3867 65.916 99.3427 65.848 99.3107 65.748L99.1907 65.172C99.0307 65.32 98.8747 65.452 98.7227 65.568C98.5707 65.68 98.4107 65.776 98.2427 65.856C98.0747 65.932 97.8947 65.99 97.7027 66.03C97.5147 66.074 97.3047 66.096 97.0727 66.096C96.8367 66.096 96.6147 66.064 96.4067 66C96.1987 65.932 96.0167 65.832 95.8607 65.7C95.7087 65.568 95.5867 65.402 95.4947 65.202C95.4067 64.998 95.3627 64.758 95.3627 64.482C95.3627 64.242 95.4287 64.012 95.5607 63.792C95.6927 63.568 95.9067 63.37 96.2027 63.198C96.4987 63.026 96.8847 62.886 97.3607 62.778C97.8367 62.666 98.4207 62.602 99.1127 62.586V62.112C99.1127 61.64 99.0107 61.284 98.8067 61.044C98.6027 60.8 98.3047 60.678 97.9127 60.678C97.6487 60.678 97.4267 60.712 97.2467 60.78C97.0707 60.844 96.9167 60.918 96.7847 61.002C96.6567 61.082 96.5447 61.156 96.4487 61.224C96.3567 61.288 96.2647 61.32 96.1727 61.32C96.1007 61.32 96.0387 61.302 95.9867 61.266C95.9347 61.226 95.8907 61.178 95.8547 61.122L95.6627 60.78ZM99.6527 57.306L98.2547 58.854C98.1987 58.914 98.1427 58.958 98.0867 58.986C98.0347 59.01 97.9667 59.022 97.8827 59.022H97.2467L98.1347 57.57C98.1907 57.478 98.2507 57.412 98.3147 57.372C98.3827 57.328 98.4807 57.306 98.6087 57.306H99.6527ZM102.798 61.14C102.99 60.724 103.226 60.4 103.506 60.168C103.786 59.932 104.128 59.814 104.532 59.814C104.66 59.814 104.782 59.828 104.898 59.856C105.018 59.884 105.124 59.928 105.216 59.988L105.138 60.786C105.114 60.886 105.054 60.936 104.958 60.936C104.902 60.936 104.82 60.924 104.712 60.9C104.604 60.876 104.482 60.864 104.346 60.864C104.154 60.864 103.982 60.892 103.83 60.948C103.682 61.004 103.548 61.088 103.428 61.2C103.312 61.308 103.206 61.444 103.11 61.608C103.018 61.768 102.934 61.952 102.858 62.16V66H101.784V59.922H102.396C102.512 59.922 102.592 59.944 102.636 59.988C102.68 60.032 102.71 60.108 102.726 60.216L102.798 61.14ZM107.283 59.922V66H106.215V59.922H107.283ZM107.511 58.014C107.511 58.118 107.489 58.216 107.445 58.308C107.405 58.396 107.349 58.476 107.277 58.548C107.209 58.616 107.127 58.67 107.031 58.71C106.939 58.75 106.841 58.77 106.737 58.77C106.633 58.77 106.535 58.75 106.443 58.71C106.355 58.67 106.277 58.616 106.209 58.548C106.141 58.476 106.087 58.396 106.047 58.308C106.007 58.216 105.987 58.118 105.987 58.014C105.987 57.91 106.007 57.812 106.047 57.72C106.087 57.624 106.141 57.542 106.209 57.474C106.277 57.402 106.355 57.346 106.443 57.306C106.535 57.266 106.633 57.246 106.737 57.246C106.841 57.246 106.939 57.266 107.031 57.306C107.127 57.346 107.209 57.402 107.277 57.474C107.349 57.542 107.405 57.624 107.445 57.72C107.489 57.812 107.511 57.91 107.511 58.014ZM111.599 59.826C112.043 59.826 112.443 59.9 112.799 60.048C113.155 60.196 113.459 60.406 113.711 60.678C113.963 60.95 114.155 61.28 114.287 61.668C114.423 62.052 114.491 62.482 114.491 62.958C114.491 63.438 114.423 63.87 114.287 64.254C114.155 64.638 113.963 64.966 113.711 65.238C113.459 65.51 113.155 65.72 112.799 65.868C112.443 66.012 112.043 66.084 111.599 66.084C111.151 66.084 110.747 66.012 110.387 65.868C110.031 65.72 109.727 65.51 109.475 65.238C109.223 64.966 109.029 64.638 108.893 64.254C108.761 63.87 108.695 63.438 108.695 62.958C108.695 62.482 108.761 62.052 108.893 61.668C109.029 61.28 109.223 60.95 109.475 60.678C109.727 60.406 110.031 60.196 110.387 60.048C110.747 59.9 111.151 59.826 111.599 59.826ZM111.599 65.25C112.199 65.25 112.647 65.05 112.943 64.65C113.239 64.246 113.387 63.684 113.387 62.964C113.387 62.24 113.239 61.676 112.943 61.272C112.647 60.868 112.199 60.666 111.599 60.666C111.295 60.666 111.029 60.718 110.801 60.822C110.577 60.926 110.389 61.076 110.237 61.272C110.089 61.468 109.977 61.71 109.901 61.998C109.829 62.282 109.793 62.604 109.793 62.964C109.793 63.684 109.941 64.246 110.237 64.65C110.537 65.05 110.991 65.25 111.599 65.25Z" fill="#54545C"/>
<path d="M64.8902 19.02V33H63.4902V26.46H55.9102V33H54.5102V19.02H55.9102V25.3H63.4902V19.02H64.8902ZM76.2644 19.02V20.18H72.3844V33H70.9844V20.18H67.0844V19.02H76.2644ZM92.135 19.2V33H90.735V21.98L85.815 33H84.795L79.875 22.02V33H78.475V19.2H79.955L85.295 31.16L90.635 19.2H92.135ZM96.7109 31.86H101.731V33H95.3109V19.02H96.7109V31.86ZM112.989 20.84H106.509V24.26C106.789 23.9133 107.189 23.6333 107.709 23.42C108.229 23.1933 108.782 23.08 109.369 23.08C110.436 23.08 111.309 23.3133 111.989 23.78C112.669 24.2467 113.162 24.8467 113.469 25.58C113.776 26.3 113.929 27.0733 113.929 27.9C113.929 29.4333 113.489 30.6667 112.609 31.6C111.742 32.5333 110.502 33 108.889 33C107.369 33 106.156 32.62 105.249 31.86C104.342 31.1 103.829 30.1067 103.709 28.88H106.429C106.549 29.4133 106.816 29.84 107.229 30.16C107.656 30.48 108.196 30.64 108.849 30.64C109.636 30.64 110.229 30.3933 110.629 29.9C111.029 29.4067 111.229 28.7533 111.229 27.94C111.229 27.1133 111.022 26.4867 110.609 26.06C110.209 25.62 109.616 25.4 108.829 25.4C108.269 25.4 107.802 25.54 107.429 25.82C107.056 26.1 106.789 26.4733 106.629 26.94H103.949V18.38H112.989V20.84Z" fill="#54545C"/>
<g clip-path="url(#clip0_252_68)">
<g filter="url(#filter0_d_252_68)">
<path d="M3.46655 0L7.56246 45.9411L25.9412 52L44.4373 45.9411L48.5332 0H3.46655ZM39.6372 14.8455H18.0663L18.5475 20.5795H39.1561L37.56 37.8045L26.0703 40.9384V40.9732H25.9412L14.3577 37.8045L13.6535 29.0062H19.2516L19.6624 33.4286L25.9412 35.1116L32.2435 33.4286L32.9477 26.2089H13.3601L11.8579 9.30893H40.1536L39.6372 14.8455Z" fill="#54545C"/>
</g>
</g>
<defs>
<filter id="filter0_d_252_68" x="3.46655" y="0" width="47.0667" height="54" filterUnits="userSpaceOnUse" color-interpolation-filters="sRGB">
<feFlood flood-opacity="0" result="BackgroundImageFix"/>
<feColorMatrix in="SourceAlpha" type="matrix" values="0 0 0 0 0 0 0 0 0 0 0 0 0 0 0 0 0 0 127 0" result="hardAlpha"/>
<feOffset dx="2" dy="2"/>
<feComposite in2="hardAlpha" operator="out"/>
<feColorMatrix type="matrix" values="0 0 0 0 0 0 0 0 0 0 0 0 0 0 0 0 0 0 0.15 0"/>
<feBlend mode="normal" in2="BackgroundImageFix" result="effect1_dropShadow_252_68"/>
<feBlend mode="normal" in="SourceGraphic" in2="effect1_dropShadow_252_68" result="shape"/>
</filter>
<clipPath id="clip0_252_68">
<rect width="52" height="52" fill="white"/>
</clipPath>
</defs>
</svg>
