<svg width="116" height="70" viewBox="0 0 116 70" fill="none" xmlns="http://www.w3.org/2000/svg">
<path d="M47.5745 66H46.4105V57.402H47.5745V66ZM50.436 60.804C50.568 60.656 50.708 60.522 50.856 60.402C51.004 60.282 51.16 60.18 51.324 60.096C51.492 60.008 51.668 59.942 51.852 59.898C52.04 59.85 52.242 59.826 52.458 59.826C52.79 59.826 53.082 59.882 53.334 59.994C53.59 60.102 53.802 60.258 53.97 60.462C54.142 60.662 54.272 60.904 54.36 61.188C54.448 61.472 54.492 61.786 54.492 62.13V66H53.418V62.13C53.418 61.67 53.312 61.314 53.1 61.062C52.892 60.806 52.574 60.678 52.146 60.678C51.83 60.678 51.534 60.754 51.258 60.906C50.986 61.058 50.734 61.264 50.502 61.524V66H49.428V59.922H50.07C50.222 59.922 50.316 59.996 50.352 60.144L50.436 60.804ZM57.9034 66.096C57.4234 66.096 57.0534 65.962 56.7934 65.694C56.5374 65.426 56.4094 65.04 56.4094 64.536V60.816H55.6774C55.6134 60.816 55.5594 60.798 55.5154 60.762C55.4714 60.722 55.4494 60.662 55.4494 60.582V60.156L56.4454 60.03L56.6914 58.152C56.7034 58.092 56.7294 58.044 56.7694 58.008C56.8134 57.968 56.8694 57.948 56.9374 57.948H57.4774V60.042H59.2354V60.816H57.4774V64.464C57.4774 64.72 57.5394 64.91 57.6634 65.034C57.7874 65.158 57.9474 65.22 58.1434 65.22C58.2554 65.22 58.3514 65.206 58.4314 65.178C58.5154 65.146 58.5874 65.112 58.6474 65.076C58.7074 65.04 58.7574 65.008 58.7974 64.98C58.8414 64.948 58.8794 64.932 58.9114 64.932C58.9674 64.932 59.0174 64.966 59.0614 65.034L59.3734 65.544C59.1894 65.716 58.9674 65.852 58.7074 65.952C58.4474 66.048 58.1794 66.096 57.9034 66.096ZM64.371 62.298C64.371 62.05 64.335 61.824 64.263 61.62C64.195 61.412 64.093 61.234 63.957 61.086C63.825 60.934 63.663 60.818 63.471 60.738C63.279 60.654 63.061 60.612 62.817 60.612C62.305 60.612 61.899 60.762 61.599 61.062C61.303 61.358 61.119 61.77 61.047 62.298H64.371ZM65.235 65.148C65.103 65.308 64.945 65.448 64.761 65.568C64.577 65.684 64.379 65.78 64.167 65.856C63.959 65.932 63.743 65.988 63.519 66.024C63.295 66.064 63.073 66.084 62.853 66.084C62.433 66.084 62.045 66.014 61.689 65.874C61.337 65.73 61.031 65.522 60.771 65.25C60.515 64.974 60.315 64.634 60.171 64.23C60.027 63.826 59.955 63.362 59.955 62.838C59.955 62.414 60.019 62.018 60.147 61.65C60.279 61.282 60.467 60.964 60.711 60.696C60.955 60.424 61.253 60.212 61.605 60.06C61.957 59.904 62.353 59.826 62.793 59.826C63.157 59.826 63.493 59.888 63.801 60.012C64.113 60.132 64.381 60.308 64.605 60.54C64.833 60.768 65.011 61.052 65.139 61.392C65.267 61.728 65.331 62.112 65.331 62.544C65.331 62.712 65.313 62.824 65.277 62.88C65.241 62.936 65.173 62.964 65.073 62.964H61.011C61.023 63.348 61.075 63.682 61.167 63.966C61.263 64.25 61.395 64.488 61.563 64.68C61.731 64.868 61.931 65.01 62.163 65.106C62.395 65.198 62.655 65.244 62.943 65.244C63.211 65.244 63.441 65.214 63.633 65.154C63.829 65.09 63.997 65.022 64.137 64.95C64.277 64.878 64.393 64.812 64.485 64.752C64.581 64.688 64.663 64.656 64.731 64.656C64.819 64.656 64.887 64.69 64.935 64.758L65.235 65.148ZM67.6569 61.14C67.8489 60.724 68.0849 60.4 68.3649 60.168C68.6449 59.932 68.9869 59.814 69.3909 59.814C69.5189 59.814 69.6409 59.828 69.7569 59.856C69.8769 59.884 69.9829 59.928 70.0749 59.988L69.9969 60.786C69.9729 60.886 69.9129 60.936 69.8169 60.936C69.7609 60.936 69.6789 60.924 69.5709 60.9C69.4629 60.876 69.3409 60.864 69.2049 60.864C69.0129 60.864 68.8409 60.892 68.6889 60.948C68.5409 61.004 68.4069 61.088 68.2869 61.2C68.1709 61.308 68.0649 61.444 67.9689 61.608C67.8769 61.768 67.7929 61.952 67.7169 62.16V66H66.6429V59.922H67.2549C67.3709 59.922 67.4509 59.944 67.4949 59.988C67.5389 60.032 67.5689 60.108 67.5849 60.216L67.6569 61.14ZM71.014 66V59.922H71.656C71.808 59.922 71.902 59.996 71.938 60.144L72.016 60.768C72.24 60.492 72.492 60.266 72.772 60.09C73.052 59.914 73.376 59.826 73.744 59.826C74.152 59.826 74.482 59.94 74.734 60.168C74.99 60.396 75.174 60.704 75.286 61.092C75.374 60.872 75.486 60.682 75.622 60.522C75.762 60.362 75.918 60.23 76.09 60.126C76.262 60.022 76.444 59.946 76.636 59.898C76.832 59.85 77.03 59.826 77.23 59.826C77.55 59.826 77.834 59.878 78.082 59.982C78.334 60.082 78.546 60.23 78.718 60.426C78.894 60.622 79.028 60.864 79.12 61.152C79.212 61.436 79.258 61.762 79.258 62.13V66H78.184V62.13C78.184 61.654 78.08 61.294 77.872 61.05C77.664 60.802 77.364 60.678 76.972 60.678C76.796 60.678 76.628 60.71 76.468 60.774C76.312 60.834 76.174 60.924 76.054 61.044C75.934 61.164 75.838 61.316 75.766 61.5C75.698 61.68 75.664 61.89 75.664 62.13V66H74.59V62.13C74.59 61.642 74.492 61.278 74.296 61.038C74.1 60.798 73.814 60.678 73.438 60.678C73.174 60.678 72.93 60.75 72.706 60.894C72.482 61.034 72.276 61.226 72.088 61.47V66H71.014ZM84.9492 62.298C84.9492 62.05 84.9132 61.824 84.8412 61.62C84.7732 61.412 84.6712 61.234 84.5352 61.086C84.4032 60.934 84.2412 60.818 84.0492 60.738C83.8572 60.654 83.6392 60.612 83.3952 60.612C82.8832 60.612 82.4772 60.762 82.1772 61.062C81.8812 61.358 81.6972 61.77 81.6252 62.298H84.9492ZM85.8132 65.148C85.6812 65.308 85.5232 65.448 85.3392 65.568C85.1552 65.684 84.9572 65.78 84.7452 65.856C84.5372 65.932 84.3212 65.988 84.0972 66.024C83.8732 66.064 83.6512 66.084 83.4312 66.084C83.0112 66.084 82.6232 66.014 82.2672 65.874C81.9152 65.73 81.6092 65.522 81.3492 65.25C81.0932 64.974 80.8932 64.634 80.7492 64.23C80.6052 63.826 80.5332 63.362 80.5332 62.838C80.5332 62.414 80.5972 62.018 80.7252 61.65C80.8572 61.282 81.0452 60.964 81.2892 60.696C81.5332 60.424 81.8312 60.212 82.1832 60.06C82.5352 59.904 82.9312 59.826 83.3712 59.826C83.7352 59.826 84.0712 59.888 84.3792 60.012C84.6912 60.132 84.9592 60.308 85.1832 60.54C85.4112 60.768 85.5892 61.052 85.7172 61.392C85.8452 61.728 85.9092 62.112 85.9092 62.544C85.9092 62.712 85.8912 62.824 85.8552 62.88C85.8192 62.936 85.7512 62.964 85.6512 62.964H81.5892C81.6012 63.348 81.6532 63.682 81.7452 63.966C81.8412 64.25 81.9732 64.488 82.1412 64.68C82.3092 64.868 82.5092 65.01 82.7412 65.106C82.9732 65.198 83.2332 65.244 83.5212 65.244C83.7892 65.244 84.0192 65.214 84.2112 65.154C84.4072 65.09 84.5752 65.022 84.7152 64.95C84.8552 64.878 84.9712 64.812 85.0632 64.752C85.1592 64.688 85.2412 64.656 85.3092 64.656C85.3972 64.656 85.4652 64.69 85.5132 64.758L85.8132 65.148ZM91.181 61.368C90.981 61.1 90.765 60.914 90.533 60.81C90.301 60.702 90.041 60.648 89.753 60.648C89.189 60.648 88.755 60.85 88.451 61.254C88.147 61.658 87.995 62.234 87.995 62.982C87.995 63.378 88.029 63.718 88.097 64.002C88.165 64.282 88.265 64.514 88.397 64.698C88.529 64.878 88.691 65.01 88.883 65.094C89.075 65.178 89.293 65.22 89.537 65.22C89.889 65.22 90.195 65.14 90.455 64.98C90.719 64.82 90.961 64.594 91.181 64.302V61.368ZM92.249 57.162V66H91.613C91.461 66 91.365 65.926 91.325 65.778L91.229 65.04C90.969 65.352 90.673 65.604 90.341 65.796C90.009 65.988 89.625 66.084 89.189 66.084C88.841 66.084 88.525 66.018 88.241 65.886C87.957 65.75 87.715 65.552 87.515 65.292C87.315 65.032 87.161 64.708 87.053 64.32C86.945 63.932 86.891 63.486 86.891 62.982C86.891 62.534 86.951 62.118 87.071 61.734C87.191 61.346 87.363 61.01 87.587 60.726C87.811 60.442 88.085 60.22 88.409 60.06C88.737 59.896 89.105 59.814 89.513 59.814C89.885 59.814 90.203 59.878 90.467 60.006C90.735 60.13 90.973 60.304 91.181 60.528V57.162H92.249ZM95.0638 59.922V66H93.9958V59.922H95.0638ZM95.2918 58.014C95.2918 58.118 95.2698 58.216 95.2258 58.308C95.1858 58.396 95.1298 58.476 95.0578 58.548C94.9898 58.616 94.9078 58.67 94.8118 58.71C94.7198 58.75 94.6218 58.77 94.5178 58.77C94.4138 58.77 94.3158 58.75 94.2238 58.71C94.1358 58.67 94.0578 58.616 93.9898 58.548C93.9218 58.476 93.8678 58.396 93.8278 58.308C93.7878 58.216 93.7678 58.118 93.7678 58.014C93.7678 57.91 93.7878 57.812 93.8278 57.72C93.8678 57.624 93.9218 57.542 93.9898 57.474C94.0578 57.402 94.1358 57.346 94.2238 57.306C94.3158 57.266 94.4138 57.246 94.5178 57.246C94.6218 57.246 94.7198 57.266 94.8118 57.306C94.9078 57.346 94.9898 57.402 95.0578 57.474C95.1298 57.542 95.1858 57.624 95.2258 57.72C95.2698 57.812 95.2918 57.91 95.2918 58.014ZM100.113 63.264C99.6207 63.28 99.2007 63.32 98.8527 63.384C98.5087 63.444 98.2267 63.524 98.0067 63.624C97.7907 63.724 97.6327 63.842 97.5327 63.978C97.4367 64.114 97.3887 64.266 97.3887 64.434C97.3887 64.594 97.4147 64.732 97.4667 64.848C97.5187 64.964 97.5887 65.06 97.6767 65.136C97.7687 65.208 97.8747 65.262 97.9947 65.298C98.1187 65.33 98.2507 65.346 98.3907 65.346C98.5787 65.346 98.7507 65.328 98.9067 65.292C99.0627 65.252 99.2087 65.196 99.3447 65.124C99.4847 65.052 99.6167 64.966 99.7407 64.866C99.8687 64.766 99.9927 64.652 100.113 64.524V63.264ZM96.6627 60.78C96.9987 60.456 97.3607 60.214 97.7487 60.054C98.1367 59.894 98.5667 59.814 99.0387 59.814C99.3787 59.814 99.6807 59.87 99.9447 59.982C100.209 60.094 100.431 60.25 100.611 60.45C100.791 60.65 100.927 60.892 101.019 61.176C101.111 61.46 101.157 61.772 101.157 62.112V66H100.683C100.579 66 100.499 65.984 100.443 65.952C100.387 65.916 100.343 65.848 100.311 65.748L100.191 65.172C100.031 65.32 99.8747 65.452 99.7227 65.568C99.5707 65.68 99.4107 65.776 99.2427 65.856C99.0747 65.932 98.8947 65.99 98.7027 66.03C98.5147 66.074 98.3047 66.096 98.0727 66.096C97.8367 66.096 97.6147 66.064 97.4067 66C97.1987 65.932 97.0167 65.832 96.8607 65.7C96.7087 65.568 96.5867 65.402 96.4947 65.202C96.4067 64.998 96.3627 64.758 96.3627 64.482C96.3627 64.242 96.4287 64.012 96.5607 63.792C96.6927 63.568 96.9067 63.37 97.2027 63.198C97.4987 63.026 97.8847 62.886 98.3607 62.778C98.8367 62.666 99.4207 62.602 100.113 62.586V62.112C100.113 61.64 100.011 61.284 99.8067 61.044C99.6027 60.8 99.3047 60.678 98.9127 60.678C98.6487 60.678 98.4267 60.712 98.2467 60.78C98.0707 60.844 97.9167 60.918 97.7847 61.002C97.6567 61.082 97.5447 61.156 97.4487 61.224C97.3567 61.288 97.2647 61.32 97.1727 61.32C97.1007 61.32 97.0387 61.302 96.9867 61.266C96.9347 61.226 96.8907 61.178 96.8547 61.122L96.6627 60.78ZM100.653 57.306L99.2547 58.854C99.1987 58.914 99.1427 58.958 99.0867 58.986C99.0347 59.01 98.9667 59.022 98.8827 59.022H98.2467L99.1347 57.57C99.1907 57.478 99.2507 57.412 99.3147 57.372C99.3827 57.328 99.4807 57.306 99.6087 57.306H100.653ZM103.798 61.14C103.99 60.724 104.226 60.4 104.506 60.168C104.786 59.932 105.128 59.814 105.532 59.814C105.66 59.814 105.782 59.828 105.898 59.856C106.018 59.884 106.124 59.928 106.216 59.988L106.138 60.786C106.114 60.886 106.054 60.936 105.958 60.936C105.902 60.936 105.82 60.924 105.712 60.9C105.604 60.876 105.482 60.864 105.346 60.864C105.154 60.864 104.982 60.892 104.83 60.948C104.682 61.004 104.548 61.088 104.428 61.2C104.312 61.308 104.206 61.444 104.11 61.608C104.018 61.768 103.934 61.952 103.858 62.16V66H102.784V59.922H103.396C103.512 59.922 103.592 59.944 103.636 59.988C103.68 60.032 103.71 60.108 103.726 60.216L103.798 61.14ZM108.283 59.922V66H107.215V59.922H108.283ZM108.511 58.014C108.511 58.118 108.489 58.216 108.445 58.308C108.405 58.396 108.349 58.476 108.277 58.548C108.209 58.616 108.127 58.67 108.031 58.71C107.939 58.75 107.841 58.77 107.737 58.77C107.633 58.77 107.535 58.75 107.443 58.71C107.355 58.67 107.277 58.616 107.209 58.548C107.141 58.476 107.087 58.396 107.047 58.308C107.007 58.216 106.987 58.118 106.987 58.014C106.987 57.91 107.007 57.812 107.047 57.72C107.087 57.624 107.141 57.542 107.209 57.474C107.277 57.402 107.355 57.346 107.443 57.306C107.535 57.266 107.633 57.246 107.737 57.246C107.841 57.246 107.939 57.266 108.031 57.306C108.127 57.346 108.209 57.402 108.277 57.474C108.349 57.542 108.405 57.624 108.445 57.72C108.489 57.812 108.511 57.91 108.511 58.014ZM112.599 59.826C113.043 59.826 113.443 59.9 113.799 60.048C114.155 60.196 114.459 60.406 114.711 60.678C114.963 60.95 115.155 61.28 115.287 61.668C115.423 62.052 115.491 62.482 115.491 62.958C115.491 63.438 115.423 63.87 115.287 64.254C115.155 64.638 114.963 64.966 114.711 65.238C114.459 65.51 114.155 65.72 113.799 65.868C113.443 66.012 113.043 66.084 112.599 66.084C112.151 66.084 111.747 66.012 111.387 65.868C111.031 65.72 110.727 65.51 110.475 65.238C110.223 64.966 110.029 64.638 109.893 64.254C109.761 63.87 109.695 63.438 109.695 62.958C109.695 62.482 109.761 62.052 109.893 61.668C110.029 61.28 110.223 60.95 110.475 60.678C110.727 60.406 111.031 60.196 111.387 60.048C111.747 59.9 112.151 59.826 112.599 59.826ZM112.599 65.25C113.199 65.25 113.647 65.05 113.943 64.65C114.239 64.246 114.387 63.684 114.387 62.964C114.387 62.24 114.239 61.676 113.943 61.272C113.647 60.868 113.199 60.666 112.599 60.666C112.295 60.666 112.029 60.718 111.801 60.822C111.577 60.926 111.389 61.076 111.237 61.272C111.089 61.468 110.977 61.71 110.901 61.998C110.829 62.282 110.793 62.604 110.793 62.964C110.793 63.684 110.941 64.246 111.237 64.65C111.537 65.05 111.991 65.25 112.599 65.25Z" fill="#54545C"/>
<path d="M68.1798 17.224V29.92C68.1798 31.2 67.7878 32.232 67.0038 33.016C66.2198 33.784 65.1718 34.168 63.8598 34.168C62.4998 34.168 61.4118 33.76 60.5958 32.944C59.7958 32.112 59.3958 30.992 59.3958 29.584H61.0998C61.1158 30.496 61.3398 31.24 61.7718 31.816C62.2198 32.392 62.9158 32.68 63.8598 32.68C64.7558 32.68 65.4198 32.416 65.8518 31.888C66.2838 31.36 66.4998 30.704 66.4998 29.92V17.224H68.1798ZM71.6364 27.424C71.6364 26.08 71.9004 24.904 72.4284 23.896C72.9724 22.872 73.7164 22.088 74.6604 21.544C75.6204 20.984 76.7004 20.704 77.9004 20.704C79.1484 20.704 80.2204 20.992 81.1164 21.568C82.0284 22.144 82.6844 22.88 83.0844 23.776V20.896H84.7644V34H83.0844V31.096C82.6684 31.992 82.0044 32.736 81.0924 33.328C80.1964 33.904 79.1244 34.192 77.8764 34.192C76.6924 34.192 75.6204 33.912 74.6604 33.352C73.7164 32.792 72.9724 32 72.4284 30.976C71.9004 29.952 71.6364 28.768 71.6364 27.424ZM83.0844 27.448C83.0844 26.392 82.8684 25.464 82.4364 24.664C82.0044 23.864 81.4124 23.248 80.6604 22.816C79.9244 22.384 79.1084 22.168 78.2124 22.168C77.2844 22.168 76.4524 22.376 75.7164 22.792C74.9804 23.208 74.3964 23.816 73.9644 24.616C73.5484 25.4 73.3404 26.336 73.3404 27.424C73.3404 28.496 73.5484 29.44 73.9644 30.256C74.3964 31.056 74.9804 31.672 75.7164 32.104C76.4524 32.52 77.2844 32.728 78.2124 32.728C79.1084 32.728 79.9244 32.512 80.6604 32.08C81.4124 31.648 82.0044 31.032 82.4364 30.232C82.8684 29.432 83.0844 28.504 83.0844 27.448ZM93.2557 32.368L97.6717 20.896H99.4477L94.1917 34H92.2957L87.0397 20.896H88.8397L93.2557 32.368ZM100.957 27.424C100.957 26.08 101.221 24.904 101.749 23.896C102.293 22.872 103.037 22.088 103.981 21.544C104.941 20.984 106.021 20.704 107.221 20.704C108.469 20.704 109.541 20.992 110.437 21.568C111.349 22.144 112.005 22.88 112.405 23.776V20.896H114.085V34H112.405V31.096C111.989 31.992 111.325 32.736 110.413 33.328C109.517 33.904 108.445 34.192 107.197 34.192C106.013 34.192 104.941 33.912 103.981 33.352C103.037 32.792 102.293 32 101.749 30.976C101.221 29.952 100.957 28.768 100.957 27.424ZM112.405 27.448C112.405 26.392 112.189 25.464 111.757 24.664C111.325 23.864 110.733 23.248 109.981 22.816C109.245 22.384 108.429 22.168 107.533 22.168C106.605 22.168 105.773 22.376 105.037 22.792C104.301 23.208 103.717 23.816 103.285 24.616C102.869 25.4 102.661 26.336 102.661 27.424C102.661 28.496 102.869 29.44 103.285 30.256C103.717 31.056 104.301 31.672 105.037 32.104C105.773 32.52 106.605 32.728 107.533 32.728C108.429 32.728 109.245 32.512 109.981 32.08C110.733 31.648 111.325 31.032 111.757 30.232C112.189 29.432 112.405 28.504 112.405 27.448Z" fill="#54545C"/>
<g clip-path="url(#clip0_252_76)">
<g filter="url(#filter0_d_252_76)">
<path d="M34.692 31.7785C35.682 31.098 37.0558 30.509 37.0558 30.509C37.0558 30.509 33.1464 31.2199 29.2571 31.5449C24.4991 31.941 19.3875 32.0222 16.8216 31.6769C10.7503 30.8644 20.1552 28.6199 20.1552 28.6199C20.1552 28.6199 16.5084 28.3762 12.0131 30.5496C6.70953 33.1292 25.1456 34.3074 34.692 31.7785ZM26.0649 28.5184C24.1455 24.1817 17.6702 20.3732 26.0649 13.7108C36.5366 5.40305 31.1664 0 31.1664 0C33.3383 8.58192 23.5293 11.1819 19.9835 16.5138C17.5691 20.1599 21.1654 24.07 26.0649 28.5184ZM37.6417 10.6233C37.6518 10.6233 19.9431 15.0717 28.3984 24.8622C30.8936 27.7465 27.7418 30.3465 27.7418 30.3465C27.7418 30.3465 34.0757 27.0559 31.1664 22.9427C28.449 19.1037 26.3679 17.1943 37.6417 10.6233ZM37.0255 38.0956C36.9703 38.1924 36.9024 38.2812 36.8235 38.3596C49.7843 34.937 45.0162 26.284 38.8237 28.4777C38.4892 28.6013 38.2002 28.8245 37.9953 29.1176C38.3569 28.986 38.7285 28.8841 39.1065 28.8129C42.2381 28.1528 46.7335 33.0277 37.0255 38.0956ZM41.7896 44.4228C41.7896 44.4228 43.2544 45.6314 40.1834 46.5759C34.3344 48.3533 15.8579 48.8915 10.7261 46.647C8.87741 45.8447 12.3424 44.7174 13.4334 44.4838C14.5648 44.24 15.2214 44.2807 15.2214 44.2807C13.1707 42.8283 1.95756 47.1345 9.52393 48.3634C30.1562 51.7353 47.1437 46.8502 41.7896 44.4228ZM19.2057 40.2182C11.2554 42.4526 24.0445 47.0634 34.1667 42.7065C33.1795 42.3209 32.2265 41.852 31.3179 41.3049C26.8023 42.1682 24.7112 42.2291 20.6098 41.7619C17.2257 41.376 19.2057 40.2182 19.2057 40.2182ZM37.369 50.09C29.4187 51.5931 19.6097 51.4204 13.8011 50.4556C13.8011 50.4454 14.9931 51.4407 21.1149 51.8368C30.4289 52.436 44.7333 51.5017 45.0667 47.0736C45.0667 47.0736 44.4202 48.7494 37.369 50.09ZM32.9645 35.8511C26.9842 37.0089 23.5192 36.9784 19.145 36.5214C15.7609 36.1659 17.9732 34.5206 17.9732 34.5206C9.20471 37.4456 22.8424 40.7565 35.096 37.1511C34.3041 36.8699 33.5784 36.4274 32.9645 35.8511Z" fill="#54545C"/>
</g>
</g>
<defs>
<filter id="filter0_d_252_76" x="6.93335" y="0" width="40.1333" height="54" filterUnits="userSpaceOnUse" color-interpolation-filters="sRGB">
<feFlood flood-opacity="0" result="BackgroundImageFix"/>
<feColorMatrix in="SourceAlpha" type="matrix" values="0 0 0 0 0 0 0 0 0 0 0 0 0 0 0 0 0 0 127 0" result="hardAlpha"/>
<feOffset dx="2" dy="2"/>
<feComposite in2="hardAlpha" operator="out"/>
<feColorMatrix type="matrix" values="0 0 0 0 0 0 0 0 0 0 0 0 0 0 0 0 0 0 0.15 0"/>
<feBlend mode="normal" in2="BackgroundImageFix" result="effect1_dropShadow_252_76"/>
<feBlend mode="normal" in="SourceGraphic" in2="effect1_dropShadow_252_76" result="shape"/>
</filter>
<clipPath id="clip0_252_76">
<rect width="52" height="52" fill="white"/>
</clipPath>
</defs>
</svg>
