<svg width="160" height="70" viewBox="0 0 160 70" fill="none" xmlns="http://www.w3.org/2000/svg">
<path d="M117.625 66H116.461V57.402H117.625V66ZM120.487 60.804C120.619 60.656 120.759 60.522 120.907 60.402C121.055 60.282 121.211 60.18 121.375 60.096C121.543 60.008 121.719 59.942 121.903 59.898C122.091 59.85 122.293 59.826 122.509 59.826C122.841 59.826 123.133 59.882 123.385 59.994C123.641 60.102 123.853 60.258 124.021 60.462C124.193 60.662 124.323 60.904 124.411 61.188C124.499 61.472 124.543 61.786 124.543 62.13V66H123.469V62.13C123.469 61.67 123.363 61.314 123.151 61.062C122.943 60.806 122.625 60.678 122.197 60.678C121.881 60.678 121.585 60.754 121.309 60.906C121.037 61.058 120.785 61.264 120.553 61.524V66H119.479V59.922H120.121C120.273 59.922 120.367 59.996 120.403 60.144L120.487 60.804ZM127.298 59.922V66H126.23V59.922H127.298ZM127.526 58.014C127.526 58.118 127.504 58.216 127.46 58.308C127.42 58.396 127.364 58.476 127.292 58.548C127.224 58.616 127.142 58.67 127.046 58.71C126.954 58.75 126.856 58.77 126.752 58.77C126.648 58.77 126.55 58.75 126.458 58.71C126.37 58.67 126.292 58.616 126.224 58.548C126.156 58.476 126.102 58.396 126.062 58.308C126.022 58.216 126.002 58.118 126.002 58.014C126.002 57.91 126.022 57.812 126.062 57.72C126.102 57.624 126.156 57.542 126.224 57.474C126.292 57.402 126.37 57.346 126.458 57.306C126.55 57.266 126.648 57.246 126.752 57.246C126.856 57.246 126.954 57.266 127.046 57.306C127.142 57.346 127.224 57.402 127.292 57.474C127.364 57.542 127.42 57.624 127.46 57.72C127.504 57.812 127.526 57.91 127.526 58.014ZM133.283 61.002C133.251 61.046 133.219 61.08 133.187 61.104C133.155 61.128 133.111 61.14 133.055 61.14C132.995 61.14 132.929 61.116 132.857 61.068C132.785 61.016 132.695 60.96 132.587 60.9C132.483 60.84 132.353 60.786 132.197 60.738C132.045 60.686 131.857 60.66 131.633 60.66C131.333 60.66 131.069 60.714 130.841 60.822C130.613 60.926 130.421 61.078 130.265 61.278C130.113 61.478 129.997 61.72 129.917 62.004C129.841 62.288 129.803 62.606 129.803 62.958C129.803 63.326 129.845 63.654 129.929 63.942C130.013 64.226 130.131 64.466 130.283 64.662C130.439 64.854 130.625 65.002 130.841 65.106C131.061 65.206 131.307 65.256 131.579 65.256C131.839 65.256 132.053 65.226 132.221 65.166C132.389 65.102 132.527 65.032 132.635 64.956C132.747 64.88 132.839 64.812 132.911 64.752C132.987 64.688 133.061 64.656 133.133 64.656C133.221 64.656 133.289 64.69 133.337 64.758L133.637 65.148C133.505 65.312 133.355 65.452 133.187 65.568C133.019 65.684 132.837 65.782 132.641 65.862C132.449 65.938 132.247 65.994 132.035 66.03C131.823 66.066 131.607 66.084 131.387 66.084C131.007 66.084 130.653 66.014 130.325 65.874C130.001 65.734 129.719 65.532 129.479 65.268C129.239 65 129.051 64.672 128.915 64.284C128.779 63.896 128.711 63.454 128.711 62.958C128.711 62.506 128.773 62.088 128.897 61.704C129.025 61.32 129.209 60.99 129.449 60.714C129.693 60.434 129.991 60.216 130.343 60.06C130.699 59.904 131.107 59.826 131.567 59.826C131.995 59.826 132.371 59.896 132.695 60.036C133.023 60.172 133.313 60.366 133.565 60.618L133.283 61.002ZM135.912 59.922V66H134.844V59.922H135.912ZM136.14 58.014C136.14 58.118 136.118 58.216 136.074 58.308C136.034 58.396 135.978 58.476 135.906 58.548C135.838 58.616 135.756 58.67 135.66 58.71C135.567 58.75 135.47 58.77 135.366 58.77C135.262 58.77 135.164 58.75 135.072 58.71C134.984 58.67 134.906 58.616 134.838 58.548C134.77 58.476 134.716 58.396 134.676 58.308C134.636 58.216 134.616 58.118 134.616 58.014C134.616 57.91 134.636 57.812 134.676 57.72C134.716 57.624 134.77 57.542 134.838 57.474C134.906 57.402 134.984 57.346 135.072 57.306C135.164 57.266 135.262 57.246 135.366 57.246C135.47 57.246 135.567 57.266 135.66 57.306C135.756 57.346 135.838 57.402 135.906 57.474C135.978 57.542 136.034 57.624 136.074 57.72C136.118 57.812 136.14 57.91 136.14 58.014ZM140.96 63.264C140.468 63.28 140.048 63.32 139.7 63.384C139.356 63.444 139.074 63.524 138.854 63.624C138.638 63.724 138.48 63.842 138.38 63.978C138.284 64.114 138.236 64.266 138.236 64.434C138.236 64.594 138.262 64.732 138.314 64.848C138.366 64.964 138.436 65.06 138.524 65.136C138.616 65.208 138.722 65.262 138.842 65.298C138.966 65.33 139.098 65.346 139.238 65.346C139.426 65.346 139.598 65.328 139.754 65.292C139.91 65.252 140.056 65.196 140.192 65.124C140.332 65.052 140.464 64.966 140.588 64.866C140.716 64.766 140.84 64.652 140.96 64.524V63.264ZM137.51 60.78C137.846 60.456 138.208 60.214 138.596 60.054C138.984 59.894 139.414 59.814 139.886 59.814C140.226 59.814 140.528 59.87 140.792 59.982C141.056 60.094 141.278 60.25 141.458 60.45C141.638 60.65 141.774 60.892 141.866 61.176C141.958 61.46 142.004 61.772 142.004 62.112V66H141.53C141.426 66 141.346 65.984 141.29 65.952C141.234 65.916 141.19 65.848 141.158 65.748L141.038 65.172C140.878 65.32 140.722 65.452 140.57 65.568C140.418 65.68 140.258 65.776 140.09 65.856C139.922 65.932 139.742 65.99 139.55 66.03C139.362 66.074 139.152 66.096 138.92 66.096C138.684 66.096 138.462 66.064 138.254 66C138.046 65.932 137.864 65.832 137.708 65.7C137.556 65.568 137.434 65.402 137.342 65.202C137.254 64.998 137.21 64.758 137.21 64.482C137.21 64.242 137.276 64.012 137.408 63.792C137.54 63.568 137.754 63.37 138.05 63.198C138.346 63.026 138.732 62.886 139.208 62.778C139.684 62.666 140.268 62.602 140.96 62.586V62.112C140.96 61.64 140.858 61.284 140.654 61.044C140.45 60.8 140.152 60.678 139.76 60.678C139.496 60.678 139.274 60.712 139.094 60.78C138.918 60.844 138.764 60.918 138.632 61.002C138.504 61.082 138.392 61.156 138.296 61.224C138.204 61.288 138.112 61.32 138.02 61.32C137.948 61.32 137.886 61.302 137.834 61.266C137.782 61.226 137.738 61.178 137.702 61.122L137.51 60.78ZM144.639 60.804C144.771 60.656 144.911 60.522 145.059 60.402C145.207 60.282 145.363 60.18 145.527 60.096C145.695 60.008 145.871 59.942 146.055 59.898C146.243 59.85 146.445 59.826 146.661 59.826C146.993 59.826 147.285 59.882 147.537 59.994C147.793 60.102 148.005 60.258 148.173 60.462C148.345 60.662 148.475 60.904 148.563 61.188C148.651 61.472 148.695 61.786 148.695 62.13V66H147.621V62.13C147.621 61.67 147.515 61.314 147.303 61.062C147.095 60.806 146.777 60.678 146.349 60.678C146.033 60.678 145.737 60.754 145.461 60.906C145.189 61.058 144.937 61.264 144.705 61.524V66H143.631V59.922H144.273C144.425 59.922 144.519 59.996 144.555 60.144L144.639 60.804ZM152.107 66.096C151.627 66.096 151.257 65.962 150.997 65.694C150.741 65.426 150.613 65.04 150.613 64.536V60.816H149.881C149.817 60.816 149.763 60.798 149.719 60.762C149.675 60.722 149.653 60.662 149.653 60.582V60.156L150.649 60.03L150.895 58.152C150.907 58.092 150.933 58.044 150.973 58.008C151.017 57.968 151.073 57.948 151.141 57.948H151.681V60.042H153.439V60.816H151.681V64.464C151.681 64.72 151.743 64.91 151.867 65.034C151.991 65.158 152.151 65.22 152.347 65.22C152.459 65.22 152.555 65.206 152.635 65.178C152.719 65.146 152.791 65.112 152.851 65.076C152.911 65.04 152.961 65.008 153.001 64.98C153.045 64.948 153.083 64.932 153.115 64.932C153.171 64.932 153.221 64.966 153.265 65.034L153.577 65.544C153.393 65.716 153.171 65.852 152.911 65.952C152.651 66.048 152.383 66.096 152.107 66.096ZM158.574 62.298C158.574 62.05 158.538 61.824 158.466 61.62C158.398 61.412 158.296 61.234 158.16 61.086C158.028 60.934 157.866 60.818 157.674 60.738C157.482 60.654 157.264 60.612 157.02 60.612C156.508 60.612 156.102 60.762 155.802 61.062C155.506 61.358 155.322 61.77 155.25 62.298H158.574ZM159.438 65.148C159.306 65.308 159.148 65.448 158.964 65.568C158.78 65.684 158.582 65.78 158.37 65.856C158.162 65.932 157.946 65.988 157.722 66.024C157.498 66.064 157.276 66.084 157.056 66.084C156.636 66.084 156.248 66.014 155.892 65.874C155.54 65.73 155.234 65.522 154.974 65.25C154.718 64.974 154.518 64.634 154.374 64.23C154.23 63.826 154.158 63.362 154.158 62.838C154.158 62.414 154.222 62.018 154.35 61.65C154.482 61.282 154.67 60.964 154.914 60.696C155.158 60.424 155.456 60.212 155.808 60.06C156.16 59.904 156.556 59.826 156.996 59.826C157.36 59.826 157.696 59.888 158.004 60.012C158.316 60.132 158.584 60.308 158.808 60.54C159.036 60.768 159.214 61.052 159.342 61.392C159.47 61.728 159.534 62.112 159.534 62.544C159.534 62.712 159.516 62.824 159.48 62.88C159.444 62.936 159.376 62.964 159.276 62.964H155.214C155.226 63.348 155.278 63.682 155.37 63.966C155.466 64.25 155.598 64.488 155.766 64.68C155.934 64.868 156.134 65.01 156.366 65.106C156.598 65.198 156.858 65.244 157.146 65.244C157.414 65.244 157.644 65.214 157.836 65.154C158.032 65.09 158.2 65.022 158.34 64.95C158.48 64.878 158.596 64.812 158.688 64.752C158.784 64.688 158.866 64.656 158.934 64.656C159.022 64.656 159.09 64.69 159.138 64.758L159.438 65.148Z" fill="#54545C"/>
<path d="M60.9702 19.02V29.6C60.9702 30.6667 60.6435 31.5267 59.9902 32.18C59.3368 32.82 58.4635 33.14 57.3702 33.14C56.2368 33.14 55.3302 32.8 54.6502 32.12C53.9835 31.4267 53.6502 30.4933 53.6502 29.32H55.0702C55.0835 30.08 55.2702 30.7 55.6302 31.18C56.0035 31.66 56.5835 31.9 57.3702 31.9C58.1168 31.9 58.6702 31.68 59.0302 31.24C59.3902 30.8 59.5702 30.2533 59.5702 29.6V19.02H60.9702ZM63.8506 27.52C63.8506 26.4 64.0706 25.42 64.5106 24.58C64.964 23.7267 65.584 23.0733 66.3706 22.62C67.1706 22.1533 68.0706 21.92 69.0706 21.92C70.1106 21.92 71.004 22.16 71.7506 22.64C72.5106 23.12 73.0573 23.7333 73.3906 24.48V22.08H74.7906V33H73.3906V30.58C73.044 31.3267 72.4906 31.9467 71.7306 32.44C70.984 32.92 70.0906 33.16 69.0506 33.16C68.064 33.16 67.1706 32.9267 66.3706 32.46C65.584 31.9933 64.964 31.3333 64.5106 30.48C64.0706 29.6267 63.8506 28.64 63.8506 27.52ZM73.3906 27.54C73.3906 26.66 73.2106 25.8867 72.8506 25.22C72.4906 24.5533 71.9973 24.04 71.3706 23.68C70.7573 23.32 70.0773 23.14 69.3306 23.14C68.5573 23.14 67.864 23.3133 67.2506 23.66C66.6373 24.0067 66.1506 24.5133 65.7906 25.18C65.444 25.8333 65.2706 26.6133 65.2706 27.52C65.2706 28.4133 65.444 29.2 65.7906 29.88C66.1506 30.5467 66.6373 31.06 67.2506 31.42C67.864 31.7667 68.5573 31.94 69.3306 31.94C70.0773 31.94 70.7573 31.76 71.3706 31.4C71.9973 31.04 72.4906 30.5267 72.8506 29.86C73.2106 29.1933 73.3906 28.42 73.3906 27.54ZM81.8667 31.64L85.5467 22.08H87.0267L82.6467 33H81.0667L76.6867 22.08H78.1867L81.8667 31.64ZM88.2842 27.52C88.2842 26.4 88.5042 25.42 88.9442 24.58C89.3976 23.7267 90.0176 23.0733 90.8042 22.62C91.6042 22.1533 92.5042 21.92 93.5042 21.92C94.5442 21.92 95.4376 22.16 96.1842 22.64C96.9442 23.12 97.4909 23.7333 97.8242 24.48V22.08H99.2242V33H97.8242V30.58C97.4776 31.3267 96.9242 31.9467 96.1642 32.44C95.4176 32.92 94.5242 33.16 93.4842 33.16C92.4976 33.16 91.6042 32.9267 90.8042 32.46C90.0176 31.9933 89.3976 31.3333 88.9442 30.48C88.5042 29.6267 88.2842 28.64 88.2842 27.52ZM97.8242 27.54C97.8242 26.66 97.6442 25.8867 97.2842 25.22C96.9242 24.5533 96.4309 24.04 95.8042 23.68C95.1909 23.32 94.5109 23.14 93.7642 23.14C92.9909 23.14 92.2976 23.3133 91.6842 23.66C91.0709 24.0067 90.5842 24.5133 90.2242 25.18C89.8776 25.8333 89.7042 26.6133 89.7042 27.52C89.7042 28.4133 89.8776 29.2 90.2242 29.88C90.5842 30.5467 91.0709 31.06 91.6842 31.42C92.2976 31.7667 92.9909 31.94 93.7642 31.94C94.5109 31.94 95.1909 31.76 95.8042 31.4C96.4309 31.04 96.9242 30.5267 97.2842 29.86C97.6442 29.1933 97.8242 28.42 97.8242 27.54ZM107.02 33.14C106.047 33.14 105.167 32.9733 104.38 32.64C103.607 32.3067 102.994 31.8267 102.54 31.2C102.087 30.5733 101.854 29.8333 101.84 28.98H104.84C104.88 29.5533 105.08 30.0067 105.44 30.34C105.814 30.6733 106.32 30.84 106.96 30.84C107.614 30.84 108.127 30.6867 108.5 30.38C108.874 30.06 109.06 29.6467 109.06 29.14C109.06 28.7267 108.934 28.3867 108.68 28.12C108.427 27.8533 108.107 27.6467 107.72 27.5C107.347 27.34 106.827 27.1667 106.16 26.98C105.254 26.7133 104.514 26.4533 103.94 26.2C103.38 25.9333 102.894 25.54 102.48 25.02C102.08 24.4867 101.88 23.78 101.88 22.9C101.88 22.0733 102.087 21.3533 102.5 20.74C102.914 20.1267 103.494 19.66 104.24 19.34C104.987 19.0067 105.84 18.84 106.8 18.84C108.24 18.84 109.407 19.1933 110.3 19.9C111.207 20.5933 111.707 21.5667 111.8 22.82H108.72C108.694 22.34 108.487 21.9467 108.1 21.64C107.727 21.32 107.227 21.16 106.6 21.16C106.054 21.16 105.614 21.3 105.28 21.58C104.96 21.86 104.8 22.2667 104.8 22.8C104.8 23.1733 104.92 23.4867 105.16 23.74C105.414 23.98 105.72 24.18 106.08 24.34C106.454 24.4867 106.974 24.66 107.64 24.86C108.547 25.1267 109.287 25.3933 109.86 25.66C110.434 25.9267 110.927 26.3267 111.34 26.86C111.754 27.3933 111.96 28.0933 111.96 28.96C111.96 29.7067 111.767 30.4 111.38 31.04C110.994 31.68 110.427 32.1933 109.68 32.58C108.934 32.9533 108.047 33.14 107.02 33.14ZM113.668 27.46C113.668 26.3133 113.901 25.3133 114.368 24.46C114.834 23.5933 115.481 22.9267 116.308 22.46C117.134 21.98 118.081 21.74 119.148 21.74C120.521 21.74 121.654 22.0867 122.548 22.78C123.454 23.46 124.061 24.42 124.368 25.66H121.348C121.188 25.18 120.914 24.8067 120.528 24.54C120.154 24.26 119.688 24.12 119.128 24.12C118.328 24.12 117.694 24.4133 117.228 25C116.761 25.5733 116.528 26.3933 116.528 27.46C116.528 28.5133 116.761 29.3333 117.228 29.92C117.694 30.4933 118.328 30.78 119.128 30.78C120.261 30.78 121.001 30.2733 121.348 29.26H124.368C124.061 30.46 123.454 31.4133 122.548 32.12C121.641 32.8267 120.508 33.18 119.148 33.18C118.081 33.18 117.134 32.9467 116.308 32.48C115.481 32 114.834 31.3333 114.368 30.48C113.901 29.6133 113.668 28.6067 113.668 27.46ZM129.219 23.64C129.579 23.0533 130.046 22.5933 130.619 22.26C131.206 21.9267 131.872 21.76 132.619 21.76V24.7H131.879C130.999 24.7 130.332 24.9067 129.879 25.32C129.439 25.7333 129.219 26.4533 129.219 27.48V33H126.419V21.92H129.219V23.64ZM135.925 20.6C135.432 20.6 135.018 20.4467 134.685 20.14C134.365 19.82 134.205 19.4267 134.205 18.96C134.205 18.4933 134.365 18.1067 134.685 17.8C135.018 17.48 135.432 17.32 135.925 17.32C136.418 17.32 136.825 17.48 137.145 17.8C137.478 18.1067 137.645 18.4933 137.645 18.96C137.645 19.4267 137.478 19.82 137.145 20.14C136.825 20.4467 136.418 20.6 135.925 20.6ZM137.305 21.92V33H134.505V21.92H137.305ZM142.871 23.52C143.231 23.0133 143.725 22.5933 144.351 22.26C144.991 21.9133 145.718 21.74 146.531 21.74C147.478 21.74 148.331 21.9733 149.091 22.44C149.865 22.9067 150.471 23.5733 150.911 24.44C151.365 25.2933 151.591 26.2867 151.591 27.42C151.591 28.5533 151.365 29.56 150.911 30.44C150.471 31.3067 149.865 31.98 149.091 32.46C148.331 32.94 147.478 33.18 146.531 33.18C145.718 33.18 144.998 33.0133 144.371 32.68C143.758 32.3467 143.258 31.9267 142.871 31.42V38.28H140.071V21.92H142.871V23.52ZM148.731 27.42C148.731 26.7533 148.591 26.18 148.311 25.7C148.045 25.2067 147.685 24.8333 147.231 24.58C146.791 24.3267 146.311 24.2 145.791 24.2C145.285 24.2 144.805 24.3333 144.351 24.6C143.911 24.8533 143.551 25.2267 143.271 25.72C143.005 26.2133 142.871 26.7933 142.871 27.46C142.871 28.1267 143.005 28.7067 143.271 29.2C143.551 29.6933 143.911 30.0733 144.351 30.34C144.805 30.5933 145.285 30.72 145.791 30.72C146.311 30.72 146.791 30.5867 147.231 30.32C147.685 30.0533 148.045 29.6733 148.311 29.18C148.591 28.6867 148.731 28.1 148.731 27.42ZM156.886 24.22V29.58C156.886 29.9533 156.973 30.2267 157.146 30.4C157.333 30.56 157.639 30.64 158.066 30.64H159.366V33H157.606C155.246 33 154.066 31.8533 154.066 29.56V24.22H152.746V21.92H154.066V19.18H156.886V21.92H159.366V24.22H156.886Z" fill="#54545C"/>
<g clip-path="url(#clip0_252_72)">
<g filter="url(#filter0_d_252_72)">
<path d="M25.9898 52C25.314 52 24.6281 51.8143 24.033 51.4634L17.8096 47.6972C16.8817 47.1606 17.3355 46.9749 17.6381 46.8717C18.8788 46.428 19.131 46.3352 20.4523 45.5613C20.5935 45.4787 20.7751 45.5097 20.9163 45.6025L25.6973 48.502C25.8688 48.6052 26.1108 48.6052 26.2722 48.502L44.9021 37.5025C45.0735 37.3993 45.1845 37.193 45.1845 36.9866V14.9876C45.1845 14.7709 45.0735 14.5749 44.892 14.4614L26.2722 3.47217C26.1008 3.36898 25.8688 3.36898 25.6973 3.47217L7.08762 14.4717C6.90606 14.5749 6.79511 14.7812 6.79511 14.9979V36.9866C6.79511 37.193 6.90606 37.3993 7.08762 37.4922L12.1914 40.5052C14.9652 41.9188 16.6597 40.2576 16.6597 38.5757V16.8656C16.6597 16.556 16.9018 16.3187 17.2044 16.3187H19.5647C19.8572 16.3187 20.1093 16.556 20.1093 16.8656V38.586C20.1093 42.3625 18.092 44.5294 14.592 44.5294C13.5127 44.5294 12.6655 44.5294 10.3052 43.3325L5.42334 40.4536C4.21296 39.7416 3.46655 38.4106 3.46655 36.9763V14.9876C3.46655 13.5636 4.21296 12.2222 5.42334 11.5103L24.033 0.510765C25.2131 -0.170255 26.7766 -0.170255 27.9466 0.510765L46.5764 11.5206C47.7868 12.2326 48.5332 13.5636 48.5332 14.9979V36.9866C48.5332 38.4106 47.7868 39.7416 46.5764 40.4639L27.9466 51.4634C27.3515 51.8143 26.6757 52 25.9898 52ZM41.0288 30.3209C41.0288 26.2038 38.3055 25.11 32.5864 24.3361C26.7967 23.5519 26.2117 23.1495 26.2117 21.7668C26.2117 20.6215 26.7059 19.0944 30.9927 19.0944C34.8155 19.0944 36.2276 19.9405 36.8127 22.582C36.8631 22.8296 37.085 23.0154 37.3372 23.0154H39.7579C39.9092 23.0154 40.0504 22.9535 40.1513 22.84C40.2522 22.7265 40.3026 22.5717 40.2925 22.4169C39.9193 17.8665 36.964 15.7512 30.9927 15.7512C25.6771 15.7512 22.5099 18.0419 22.5099 21.8907C22.5099 26.0593 25.667 27.215 30.7607 27.7309C36.8631 28.3397 37.3372 29.2581 37.3372 30.486C37.3372 32.6116 35.6628 33.5196 31.7391 33.5196C26.8068 33.5196 25.7276 32.2504 25.3644 29.743C25.3241 29.4747 25.1022 29.2787 24.8298 29.2787H22.4192C22.1166 29.2787 21.8846 29.5263 21.8846 29.8256C21.8846 33.0346 23.5892 36.8628 31.7492 36.8628C37.6398 36.8525 41.0288 34.4689 41.0288 30.3209Z" fill="#54545C"/>
</g>
</g>
<defs>
<filter id="filter0_d_252_72" x="3.46655" y="0" width="47.0667" height="54" filterUnits="userSpaceOnUse" color-interpolation-filters="sRGB">
<feFlood flood-opacity="0" result="BackgroundImageFix"/>
<feColorMatrix in="SourceAlpha" type="matrix" values="0 0 0 0 0 0 0 0 0 0 0 0 0 0 0 0 0 0 127 0" result="hardAlpha"/>
<feOffset dx="2" dy="2"/>
<feComposite in2="hardAlpha" operator="out"/>
<feColorMatrix type="matrix" values="0 0 0 0 0 0 0 0 0 0 0 0 0 0 0 0 0 0 0.15 0"/>
<feBlend mode="normal" in2="BackgroundImageFix" result="effect1_dropShadow_252_72"/>
<feBlend mode="normal" in="SourceGraphic" in2="effect1_dropShadow_252_72" result="shape"/>
</filter>
<clipPath id="clip0_252_72">
<rect width="52" height="52" fill="white"/>
</clipPath>
</defs>
</svg>
