<svg width="130" height="70" viewBox="0 0 130 70" fill="none" xmlns="http://www.w3.org/2000/svg">
<path d="M87.6253 66H86.4613V57.402H87.6253V66ZM90.4868 60.804C90.6188 60.656 90.7588 60.522 90.9068 60.402C91.0548 60.282 91.2108 60.18 91.3748 60.096C91.5428 60.008 91.7188 59.942 91.9028 59.898C92.0908 59.85 92.2928 59.826 92.5088 59.826C92.8408 59.826 93.1328 59.882 93.3848 59.994C93.6408 60.102 93.8528 60.258 94.0208 60.462C94.1928 60.662 94.3228 60.904 94.4108 61.188C94.4988 61.472 94.5428 61.786 94.5428 62.13V66H93.4688V62.13C93.4688 61.67 93.3628 61.314 93.1508 61.062C92.9428 60.806 92.6248 60.678 92.1968 60.678C91.8808 60.678 91.5848 60.754 91.3088 60.906C91.0368 61.058 90.7848 61.264 90.5528 61.524V66H89.4788V59.922H90.1208C90.2728 59.922 90.3668 59.996 90.4028 60.144L90.4868 60.804ZM97.2982 59.922V66H96.2302V59.922H97.2982ZM97.5262 58.014C97.5262 58.118 97.5042 58.216 97.4602 58.308C97.4202 58.396 97.3642 58.476 97.2922 58.548C97.2242 58.616 97.1422 58.67 97.0462 58.71C96.9542 58.75 96.8562 58.77 96.7522 58.77C96.6482 58.77 96.5502 58.75 96.4582 58.71C96.3702 58.67 96.2922 58.616 96.2242 58.548C96.1562 58.476 96.1022 58.396 96.0622 58.308C96.0222 58.216 96.0022 58.118 96.0022 58.014C96.0022 57.91 96.0222 57.812 96.0622 57.72C96.1022 57.624 96.1562 57.542 96.2242 57.474C96.2922 57.402 96.3702 57.346 96.4582 57.306C96.5502 57.266 96.6482 57.246 96.7522 57.246C96.8562 57.246 96.9542 57.266 97.0462 57.306C97.1422 57.346 97.2242 57.402 97.2922 57.474C97.3642 57.542 97.4202 57.624 97.4602 57.72C97.5042 57.812 97.5262 57.91 97.5262 58.014ZM103.283 61.002C103.251 61.046 103.219 61.08 103.187 61.104C103.155 61.128 103.111 61.14 103.055 61.14C102.995 61.14 102.929 61.116 102.857 61.068C102.785 61.016 102.695 60.96 102.587 60.9C102.483 60.84 102.353 60.786 102.197 60.738C102.045 60.686 101.857 60.66 101.633 60.66C101.333 60.66 101.069 60.714 100.841 60.822C100.613 60.926 100.421 61.078 100.265 61.278C100.113 61.478 99.997 61.72 99.917 62.004C99.841 62.288 99.803 62.606 99.803 62.958C99.803 63.326 99.845 63.654 99.929 63.942C100.013 64.226 100.131 64.466 100.283 64.662C100.439 64.854 100.625 65.002 100.841 65.106C101.061 65.206 101.307 65.256 101.579 65.256C101.839 65.256 102.053 65.226 102.221 65.166C102.389 65.102 102.527 65.032 102.635 64.956C102.747 64.88 102.839 64.812 102.911 64.752C102.987 64.688 103.061 64.656 103.133 64.656C103.221 64.656 103.289 64.69 103.337 64.758L103.637 65.148C103.505 65.312 103.355 65.452 103.187 65.568C103.019 65.684 102.837 65.782 102.641 65.862C102.449 65.938 102.247 65.994 102.035 66.03C101.823 66.066 101.607 66.084 101.387 66.084C101.007 66.084 100.653 66.014 100.325 65.874C100.001 65.734 99.719 65.532 99.479 65.268C99.239 65 99.051 64.672 98.915 64.284C98.779 63.896 98.711 63.454 98.711 62.958C98.711 62.506 98.773 62.088 98.897 61.704C99.025 61.32 99.209 60.99 99.449 60.714C99.693 60.434 99.991 60.216 100.343 60.06C100.699 59.904 101.107 59.826 101.567 59.826C101.995 59.826 102.371 59.896 102.695 60.036C103.023 60.172 103.313 60.366 103.565 60.618L103.283 61.002ZM105.912 59.922V66H104.844V59.922H105.912ZM106.14 58.014C106.14 58.118 106.118 58.216 106.074 58.308C106.034 58.396 105.978 58.476 105.906 58.548C105.838 58.616 105.756 58.67 105.66 58.71C105.567 58.75 105.47 58.77 105.366 58.77C105.262 58.77 105.164 58.75 105.072 58.71C104.984 58.67 104.906 58.616 104.838 58.548C104.77 58.476 104.716 58.396 104.676 58.308C104.636 58.216 104.616 58.118 104.616 58.014C104.616 57.91 104.636 57.812 104.676 57.72C104.716 57.624 104.77 57.542 104.838 57.474C104.906 57.402 104.984 57.346 105.072 57.306C105.164 57.266 105.262 57.246 105.366 57.246C105.47 57.246 105.567 57.266 105.66 57.306C105.756 57.346 105.838 57.402 105.906 57.474C105.978 57.542 106.034 57.624 106.074 57.72C106.118 57.812 106.14 57.91 106.14 58.014ZM110.96 63.264C110.468 63.28 110.048 63.32 109.7 63.384C109.356 63.444 109.074 63.524 108.854 63.624C108.638 63.724 108.48 63.842 108.38 63.978C108.284 64.114 108.236 64.266 108.236 64.434C108.236 64.594 108.262 64.732 108.314 64.848C108.366 64.964 108.436 65.06 108.524 65.136C108.616 65.208 108.722 65.262 108.842 65.298C108.966 65.33 109.098 65.346 109.238 65.346C109.426 65.346 109.598 65.328 109.754 65.292C109.91 65.252 110.056 65.196 110.192 65.124C110.332 65.052 110.464 64.966 110.588 64.866C110.716 64.766 110.84 64.652 110.96 64.524V63.264ZM107.51 60.78C107.846 60.456 108.208 60.214 108.596 60.054C108.984 59.894 109.414 59.814 109.886 59.814C110.226 59.814 110.528 59.87 110.792 59.982C111.056 60.094 111.278 60.25 111.458 60.45C111.638 60.65 111.774 60.892 111.866 61.176C111.958 61.46 112.004 61.772 112.004 62.112V66H111.53C111.426 66 111.346 65.984 111.29 65.952C111.234 65.916 111.19 65.848 111.158 65.748L111.038 65.172C110.878 65.32 110.722 65.452 110.57 65.568C110.418 65.68 110.258 65.776 110.09 65.856C109.922 65.932 109.742 65.99 109.55 66.03C109.362 66.074 109.152 66.096 108.92 66.096C108.684 66.096 108.462 66.064 108.254 66C108.046 65.932 107.864 65.832 107.708 65.7C107.556 65.568 107.434 65.402 107.342 65.202C107.254 64.998 107.21 64.758 107.21 64.482C107.21 64.242 107.276 64.012 107.408 63.792C107.54 63.568 107.754 63.37 108.05 63.198C108.346 63.026 108.732 62.886 109.208 62.778C109.684 62.666 110.268 62.602 110.96 62.586V62.112C110.96 61.64 110.858 61.284 110.654 61.044C110.45 60.8 110.152 60.678 109.76 60.678C109.496 60.678 109.274 60.712 109.094 60.78C108.918 60.844 108.764 60.918 108.632 61.002C108.504 61.082 108.392 61.156 108.296 61.224C108.204 61.288 108.112 61.32 108.02 61.32C107.948 61.32 107.886 61.302 107.834 61.266C107.782 61.226 107.738 61.178 107.702 61.122L107.51 60.78ZM114.639 60.804C114.771 60.656 114.911 60.522 115.059 60.402C115.207 60.282 115.363 60.18 115.527 60.096C115.695 60.008 115.871 59.942 116.055 59.898C116.243 59.85 116.445 59.826 116.661 59.826C116.993 59.826 117.285 59.882 117.537 59.994C117.793 60.102 118.005 60.258 118.173 60.462C118.345 60.662 118.475 60.904 118.563 61.188C118.651 61.472 118.695 61.786 118.695 62.13V66H117.621V62.13C117.621 61.67 117.515 61.314 117.303 61.062C117.095 60.806 116.777 60.678 116.349 60.678C116.033 60.678 115.737 60.754 115.461 60.906C115.189 61.058 114.937 61.264 114.705 61.524V66H113.631V59.922H114.273C114.425 59.922 114.519 59.996 114.555 60.144L114.639 60.804ZM122.107 66.096C121.627 66.096 121.257 65.962 120.997 65.694C120.741 65.426 120.613 65.04 120.613 64.536V60.816H119.881C119.817 60.816 119.763 60.798 119.719 60.762C119.675 60.722 119.653 60.662 119.653 60.582V60.156L120.649 60.03L120.895 58.152C120.907 58.092 120.933 58.044 120.973 58.008C121.017 57.968 121.073 57.948 121.141 57.948H121.681V60.042H123.439V60.816H121.681V64.464C121.681 64.72 121.743 64.91 121.867 65.034C121.991 65.158 122.151 65.22 122.347 65.22C122.459 65.22 122.555 65.206 122.635 65.178C122.719 65.146 122.791 65.112 122.851 65.076C122.911 65.04 122.961 65.008 123.001 64.98C123.045 64.948 123.083 64.932 123.115 64.932C123.171 64.932 123.221 64.966 123.265 65.034L123.577 65.544C123.393 65.716 123.171 65.852 122.911 65.952C122.651 66.048 122.383 66.096 122.107 66.096ZM128.574 62.298C128.574 62.05 128.538 61.824 128.466 61.62C128.398 61.412 128.296 61.234 128.16 61.086C128.028 60.934 127.866 60.818 127.674 60.738C127.482 60.654 127.264 60.612 127.02 60.612C126.508 60.612 126.102 60.762 125.802 61.062C125.506 61.358 125.322 61.77 125.25 62.298H128.574ZM129.438 65.148C129.306 65.308 129.148 65.448 128.964 65.568C128.78 65.684 128.582 65.78 128.37 65.856C128.162 65.932 127.946 65.988 127.722 66.024C127.498 66.064 127.276 66.084 127.056 66.084C126.636 66.084 126.248 66.014 125.892 65.874C125.54 65.73 125.234 65.522 124.974 65.25C124.718 64.974 124.518 64.634 124.374 64.23C124.23 63.826 124.158 63.362 124.158 62.838C124.158 62.414 124.222 62.018 124.35 61.65C124.482 61.282 124.67 60.964 124.914 60.696C125.158 60.424 125.456 60.212 125.808 60.06C126.16 59.904 126.556 59.826 126.996 59.826C127.36 59.826 127.696 59.888 128.004 60.012C128.316 60.132 128.584 60.308 128.808 60.54C129.036 60.768 129.214 61.052 129.342 61.392C129.47 61.728 129.534 62.112 129.534 62.544C129.534 62.712 129.516 62.824 129.48 62.88C129.444 62.936 129.376 62.964 129.276 62.964H125.214C125.226 63.348 125.278 63.682 125.37 63.966C125.466 64.25 125.598 64.488 125.766 64.68C125.934 64.868 126.134 65.01 126.366 65.106C126.598 65.198 126.858 65.244 127.146 65.244C127.414 65.244 127.644 65.214 127.836 65.154C128.032 65.09 128.2 65.022 128.34 64.95C128.48 64.878 128.596 64.812 128.688 64.752C128.784 64.688 128.866 64.656 128.934 64.656C129.022 64.656 129.09 64.69 129.138 64.758L129.438 65.148Z" fill="#54545C"/>
<path d="M72.0092 23.36C72.0092 24.1067 71.8292 24.8067 71.4692 25.46C71.1226 26.1133 70.5692 26.64 69.8092 27.04C69.0626 27.44 68.1159 27.64 66.9692 27.64H64.6292V33H61.8292V19.04H66.9692C68.0492 19.04 68.9692 19.2267 69.7292 19.6C70.4892 19.9733 71.0559 20.4867 71.4292 21.14C71.8159 21.7933 72.0092 22.5333 72.0092 23.36ZM66.8492 25.38C67.6226 25.38 68.1959 25.2067 68.5692 24.86C68.9426 24.5 69.1292 24 69.1292 23.36C69.1292 22 68.3692 21.32 66.8492 21.32H64.6292V25.38H66.8492ZM84.5972 21.92L77.7372 38.24H74.7572L77.1572 32.72L72.7172 21.92H75.8572L78.7172 29.66L81.6172 21.92H84.5972ZM88.1466 23.26V30.04C88.1466 30.7067 88.2732 31.1667 88.5266 31.42C88.7799 31.6733 89.2266 31.8 89.8666 31.8H91.1466V33H89.6466C88.6599 33 87.9266 32.7733 87.4466 32.32C86.9666 31.8533 86.7266 31.0933 86.7266 30.04V23.26H85.2066V22.08H86.7266V19.34H88.1466V22.08H91.1466V23.26H88.1466ZM98.6555 21.88C99.4821 21.88 100.222 22.0533 100.875 22.4C101.542 22.7467 102.062 23.28 102.435 24C102.822 24.7067 103.015 25.5733 103.015 26.6V33H101.635V26.76C101.635 25.5733 101.335 24.6667 100.735 24.04C100.149 23.4133 99.3421 23.1 98.3155 23.1C97.2621 23.1 96.4221 23.4333 95.7955 24.1C95.1688 24.7667 94.8555 25.7467 94.8555 27.04V33H93.4555V18.2H94.8555V23.94C95.2021 23.2867 95.7088 22.78 96.3755 22.42C97.0555 22.06 97.8155 21.88 98.6555 21.88ZM110.892 33.16C109.865 33.16 108.938 32.9333 108.112 32.48C107.298 32.0133 106.652 31.36 106.172 30.52C105.705 29.6667 105.472 28.6733 105.472 27.54C105.472 26.4067 105.712 25.42 106.192 24.58C106.672 23.7267 107.325 23.0733 108.152 22.62C108.978 22.1533 109.905 21.92 110.932 21.92C111.958 21.92 112.885 22.1533 113.712 22.62C114.552 23.0733 115.205 23.7267 115.672 24.58C116.152 25.42 116.392 26.4067 116.392 27.54C116.392 28.66 116.152 29.6467 115.672 30.5C115.192 31.3533 114.532 32.0133 113.692 32.48C112.852 32.9333 111.918 33.16 110.892 33.16ZM110.892 31.94C111.612 31.94 112.278 31.78 112.892 31.46C113.505 31.1267 113.998 30.6333 114.372 29.98C114.758 29.3133 114.952 28.5 114.952 27.54C114.952 26.58 114.765 25.7733 114.392 25.12C114.018 24.4533 113.525 23.96 112.912 23.64C112.298 23.3067 111.632 23.14 110.912 23.14C110.192 23.14 109.525 23.3067 108.912 23.64C108.298 23.96 107.805 24.4533 107.432 25.12C107.072 25.7733 106.892 26.58 106.892 27.54C106.892 28.5 107.072 29.3133 107.432 29.98C107.805 30.6333 108.292 31.1267 108.892 31.46C109.505 31.78 110.172 31.94 110.892 31.94ZM124.064 21.88C125.37 21.88 126.437 22.2867 127.264 23.1C128.09 23.9 128.504 25.0667 128.504 26.6V33H127.124V26.76C127.124 25.5733 126.824 24.6667 126.224 24.04C125.637 23.4133 124.83 23.1 123.804 23.1C122.75 23.1 121.91 23.4333 121.284 24.1C120.657 24.7667 120.344 25.7467 120.344 27.04V33H118.944V22.08H120.344V23.94C120.69 23.2733 121.19 22.7667 121.844 22.42C122.497 22.06 123.237 21.88 124.064 21.88Z" fill="#54545C"/>
<g clip-path="url(#clip0_256_199)">
<g filter="url(#filter0_d_256_199)">
<path d="M51.0466 19.5575C50.1528 15.971 48.4583 13.2667 44.8486 13.2667H40.1942V18.7683C40.1942 23.0395 36.5729 26.6376 32.4409 26.6376H20.0449C16.6558 26.6376 13.8469 29.5393 13.8469 32.9401V44.7558C13.8469 48.1217 16.7718 50.0949 20.0449 51.0582C23.968 52.2073 27.7402 52.4162 32.4409 51.0582C35.5632 50.1529 38.6389 48.3306 38.6389 44.7558V40.0318H26.2545V38.4533H44.8486C48.4583 38.4533 49.793 35.9346 51.0466 32.1624C52.3465 28.2742 52.2885 24.5368 51.0466 19.5575ZM33.2186 43.1772C34.507 43.1772 35.5516 44.2335 35.5516 45.5334C35.5516 46.845 34.507 47.9012 33.2186 47.9012C31.9419 47.9012 30.8856 46.8334 30.8856 45.5334C30.8972 44.2219 31.9419 43.1772 33.2186 43.1772ZM19.4762 25.0823H31.8722C35.3194 25.0823 38.0702 22.2387 38.0702 18.7799V6.95259C38.0702 3.58663 35.2382 1.06797 31.8722 0.49924C27.717 -0.185558 23.202 -0.150738 19.4762 0.510847C14.23 1.43939 13.2782 3.37771 13.2782 6.9642V11.6881H25.6858V13.2667H8.6239C5.0142 13.2667 1.85717 15.4371 0.870593 19.5575C-0.266868 24.2815 -0.313295 27.2296 0.870593 32.1624C1.75271 35.8302 3.85353 38.4533 7.46323 38.4533H11.7229V32.7892C11.7229 28.692 15.263 25.0823 19.4762 25.0823ZM18.6986 8.53111C17.4102 8.53111 16.3656 7.47489 16.3656 6.17494C16.3772 4.86338 17.4102 3.80716 18.6986 3.80716C19.9753 3.80716 21.0315 4.87498 21.0315 6.17494C21.0315 7.47489 19.9869 8.53111 18.6986 8.53111Z" fill="#54545C"/>
</g>
</g>
<defs>
<filter id="filter0_d_256_199" x="0" y="0" width="54" height="54" filterUnits="userSpaceOnUse" color-interpolation-filters="sRGB">
<feFlood flood-opacity="0" result="BackgroundImageFix"/>
<feColorMatrix in="SourceAlpha" type="matrix" values="0 0 0 0 0 0 0 0 0 0 0 0 0 0 0 0 0 0 127 0" result="hardAlpha"/>
<feOffset dx="2" dy="2"/>
<feComposite in2="hardAlpha" operator="out"/>
<feColorMatrix type="matrix" values="0 0 0 0 0 0 0 0 0 0 0 0 0 0 0 0 0 0 0.15 0"/>
<feBlend mode="normal" in2="BackgroundImageFix" result="effect1_dropShadow_256_199"/>
<feBlend mode="normal" in="SourceGraphic" in2="effect1_dropShadow_256_199" result="shape"/>
</filter>
<clipPath id="clip0_256_199">
<rect width="52" height="52" fill="white"/>
</clipPath>
</defs>
</svg>
