<svg width="40" height="40" viewBox="0 0 40 40" fill="none" xmlns="http://www.w3.org/2000/svg">
<path d="M24.7125 4.00001C18.1611 3.99557 11.327 5.47421 4.42534 7.39133C3.54961 7.56894 2.69272 8.14175 2.24266 8.8522C1.82696 9.52047 1.67509 10.1921 1.54539 10.8992C0.874735 14.6591 0.956766 18.3534 1.09533 22.4419C1.12526 23.3788 1.26826 24.4933 1.7017 25.166C2.16062 25.8465 2.93992 26.2795 3.87441 26.4227C5.07494 26.6047 6.26882 26.7446 7.46492 26.87L7.20109 34.2588C7.15675 34.8438 7.44718 35.3344 7.80302 35.6164C8.12339 35.8584 8.47922 35.9672 8.84171 35.9938C9.5689 36.0493 10.4269 35.733 10.8515 34.927C12.7138 31.3359 13.8822 29.754 16.2079 27.3673C22.2826 27.5205 27.5824 27.182 33.5807 26.7346C35.7024 26.6835 37.1612 24.944 37.547 23.5564C38.6943 19.962 38.8761 15.526 38.9969 11.038C39.049 9.2596 38.4338 7.51677 37.343 6.59317C36.3043 5.75173 35.0528 5.44867 33.901 5.13674C30.7052 4.41185 27.5104 4.02221 24.7125 4.00001ZM33.4421 6.80964C34.5939 7.12269 35.6115 7.42574 36.2467 7.94637C37.3175 9.08199 37.2821 9.84129 37.2699 11.0679C37.1479 15.4173 36.9406 19.6411 35.9574 22.8415C35.5328 24.0338 34.8012 24.8841 33.4077 25.0095C27.2931 25.4647 21.9888 25.8166 15.8443 25.6378C15.725 25.6343 15.6064 25.6551 15.4954 25.699C15.3845 25.7429 15.2837 25.8089 15.1991 25.8932C12.6173 28.5041 11.2971 30.3224 9.32724 34.1156C9.2829 34.2022 9.18314 34.2543 9.05898 34.2632C8.98138 34.2588 8.94591 34.1933 8.94148 34.1378L9.20531 26.1229C9.20623 25.9065 9.1286 25.6972 8.98688 25.5338C8.84515 25.3704 8.64898 25.2642 8.43488 25.2349C7.00007 25.0966 5.56919 24.92 4.14378 24.7054C3.52855 24.6143 3.30351 24.4456 3.13502 24.1947C2.84015 23.492 2.84459 23.058 2.82352 22.3853C2.68385 18.3268 2.61955 14.7845 3.23811 11.2589C3.29908 10.7349 3.49418 10.201 3.70148 9.75914C4.04512 9.22075 4.56834 9.14304 5.096 8.9954C11.8425 7.13046 18.4426 5.73508 24.6604 5.73064C27.7088 5.83831 30.9047 6.14692 33.4421 6.80964ZM10.1365 13.6833C9.20531 14.7978 9.2962 16.3109 10.0145 17.3255C10.3914 17.8583 10.9767 18.2835 11.6873 18.3801C12.614 18.4578 13.2026 18.0804 13.8345 17.6508C14.9818 16.6539 15.0982 14.9099 14.2247 13.6489C14.0134 13.3405 13.7338 13.0852 13.4076 12.903C13.0815 12.7209 12.7177 12.6167 12.3447 12.5987C11.3492 12.6076 10.6741 13.0506 10.1365 13.6833ZM20.1908 12.773C19.2652 12.803 18.5158 13.4446 18.0569 14.1384C17.5359 14.9266 17.2299 15.9201 17.6534 16.8959C18.4681 18.7653 21.2827 18.7431 22.4045 16.8404C22.9189 15.9634 22.7892 14.9666 22.4045 14.2472C22.0188 13.5223 21.4379 12.9329 20.5943 12.7986C20.4609 12.7773 20.3258 12.7688 20.1908 12.773ZM28.354 12.9462C28.0635 12.9388 27.7734 12.9709 27.4915 13.0417C26.3786 13.3414 25.4308 14.4892 25.5738 15.9601C25.647 16.7016 25.9851 17.4254 26.6003 17.9194C27.2144 18.4189 28.1023 18.6398 29.0424 18.4489C30.1199 18.2269 30.7916 17.3555 31.0122 16.5151C31.2373 15.6737 31.1818 14.8189 30.6619 14.1251C30.3925 13.7653 30.0445 13.472 29.6445 13.2677C29.2444 13.0633 28.803 12.9534 28.354 12.9462ZM12.2704 14.3249C12.4743 14.3294 12.6384 14.3938 12.8069 14.6369C13.1838 15.183 13.0796 16.0078 12.6994 16.3408C12.3225 16.6705 12.0841 16.7016 11.9157 16.6794C11.7505 16.6539 11.582 16.5407 11.4301 16.3286C11.1441 15.9201 11.0577 15.2618 11.439 14.7889C11.6385 14.5203 12.011 14.3505 12.2704 14.3249ZM20.3116 14.5159C20.3416 14.5203 20.7052 14.7323 20.8792 15.0576C21.0521 15.3828 21.0821 15.6826 20.918 15.9601C20.428 16.7927 19.3882 16.5662 19.233 16.2065C19.1721 16.0678 19.2164 15.5127 19.5013 15.0842C19.7873 14.6502 20.1431 14.4892 20.3116 14.5159ZM29.2707 15.1486C29.3228 15.223 29.4525 15.6948 29.3528 16.0678C29.253 16.4452 29.0889 16.675 28.6899 16.7571C28.1799 16.8659 27.8939 16.7571 27.6767 16.584C27.4649 16.4108 27.3175 16.1155 27.2876 15.7991C27.21 15.0187 27.4904 14.8367 27.9372 14.719C28.4526 14.5891 29.0368 14.8145 29.2707 15.1486Z" fill="#E1EAFF"/>
</svg>
