<svg width="24" height="24" viewBox="0 0 24 24" fill="none" xmlns="http://www.w3.org/2000/svg">
<path d="M8.52857 5.979V10.8532C8.52857 11.6417 8.38312 12.2151 8.01952 12.5735C7.72867 12.9319 7.14687 13.1469 6.41967 13.1469C5.69247 13.1469 5.18342 13.0036 4.81982 12.6452C4.52894 12.2868 4.31078 11.7134 4.31078 10.8532V5.979H1.62012V10.8532C1.62012 12.2868 1.911 13.362 2.49276 14.1505C2.56548 14.2221 2.6382 14.3655 2.78364 14.4372C3.58357 15.2256 4.7471 15.584 6.41967 15.584C8.01952 15.584 9.25577 15.2256 9.98297 14.4372C10.0557 14.3655 10.1284 14.2221 10.2739 14.1505C10.8556 13.362 11.1465 12.2868 11.1465 10.8532V5.979H8.52857Z" fill="#D8D8EB"/>
<path fill-rule="evenodd" clip-rule="evenodd" d="M12.8918 5.97889V18.1643V18.236H15.6552V15.6555V14.7237C15.6552 14.5701 15.6343 14.4164 15.6149 14.2738C15.5981 14.1503 15.5825 14.035 15.5825 13.9352C15.9461 14.5087 16.3824 14.9388 16.8915 15.2255C17.4005 15.5122 18.055 15.6555 18.7822 15.6555C20.0184 15.6555 21.0365 15.2255 21.7637 14.2936C22.5637 13.3618 22.9273 12.1433 22.9273 10.638C22.9273 9.06109 22.4909 7.84254 21.7637 6.98239C21.0365 6.12224 19.9457 5.69214 18.6367 5.69214C17.9095 5.69214 17.3278 5.83549 16.8187 6.12224C16.3097 6.40894 15.8734 6.83904 15.5098 7.48414V5.97889H12.8918ZM16.0915 12.5017C15.6552 12.0716 15.437 11.4265 15.437 10.5663C15.437 9.70619 15.5825 9.06109 16.0915 8.55934C16.5279 8.05754 17.1096 7.84254 17.8368 7.84254C18.564 7.84254 19.1458 8.05754 19.5821 8.55934C20.0184 9.06109 20.2366 9.70619 20.2366 10.5663C20.2366 11.3548 20.0184 11.9999 19.5821 12.5017C19.1458 13.0034 18.564 13.2185 17.8368 13.2185C17.1096 13.2185 16.5279 13.0034 16.0915 12.5017Z" fill="#D8D8EB"/>
<path d="M10.4193 18.0927C10.3466 18.0211 10.2738 17.8777 10.1284 17.806C9.32849 17.0176 8.16494 16.6592 6.49239 16.6592C4.89252 16.6592 3.65627 17.0176 2.92906 17.806C2.85634 17.8777 2.78362 18.0211 2.63818 18.0927H10.4193Z" fill="#D8D8EB"/>
</svg>
