<svg width="24" height="24" viewBox="0 0 24 24" fill="none" xmlns="http://www.w3.org/2000/svg">
<mask id="mask0_1060_759" style="mask-type:alpha" maskUnits="userSpaceOnUse" x="0" y="0" width="24" height="24">
<rect width="24" height="24" fill="#D9D9D9"/>
</mask>
<g mask="url(#mask0_1060_759)">
<path d="M12 24C10.34 24 8.78 23.6848 7.32 23.0544C5.86 22.4248 4.59 21.57 3.51 20.49C2.43 19.41 1.5752 18.14 0.9456 16.68C0.3152 15.22 0 13.66 0 12C0 10.34 0.3152 8.78 0.9456 7.32C1.5752 5.86 2.43 4.59 3.51 3.51C4.59 2.43 5.86 1.5748 7.32 0.9444C8.78 0.3148 10.34 0 12 0C13.66 0 15.22 0.3148 16.68 0.9444C18.14 1.5748 19.41 2.43 20.49 3.51C21.57 4.59 22.4248 5.86 23.0544 7.32C23.6848 8.78 24 10.34 24 12C24 13.66 23.6848 15.22 23.0544 16.68C22.4248 18.14 21.57 19.41 20.49 20.49C19.41 21.57 18.14 22.4248 16.68 23.0544C15.22 23.6848 13.66 24 12 24ZM10.8 21.54V19.2C10.14 19.2 9.5752 18.9652 9.1056 18.4956C8.6352 18.0252 8.4 17.46 8.4 16.8V15.6L2.64 9.84C2.58 10.2 2.5248 10.56 2.4744 10.92C2.4248 11.28 2.4 11.64 2.4 12C2.4 14.42 3.1952 16.54 4.7856 18.36C6.3752 20.18 8.38 21.24 10.8 21.54ZM19.08 18.48C19.48 18.04 19.84 17.5648 20.16 17.0544C20.48 16.5448 20.7452 16.0148 20.9556 15.4644C21.1652 14.9148 21.3252 14.35 21.4356 13.77C21.5452 13.19 21.6 12.6 21.6 12C21.6 10.04 21.0552 8.25 19.9656 6.63C18.8752 5.01 17.42 3.84 15.6 3.12V3.6C15.6 4.26 15.3652 4.8248 14.8956 5.2944C14.4252 5.7648 13.86 6 13.2 6H10.8V8.4C10.8 8.74 10.6852 9.0248 10.4556 9.2544C10.2252 9.4848 9.94 9.6 9.6 9.6H7.2V12H14.4C14.74 12 15.0252 12.1148 15.2556 12.3444C15.4852 12.5748 15.6 12.86 15.6 13.2V16.8H16.8C17.32 16.8 17.79 16.9548 18.21 17.2644C18.63 17.5748 18.92 17.98 19.08 18.48Z" fill="#D8D8EB"/>
</g>
</svg>
