<svg width="32" height="32" viewBox="0 0 32 32" fill="none" xmlns="http://www.w3.org/2000/svg">
<mask id="mask0_758_4452" style="mask-type:alpha" maskUnits="userSpaceOnUse" x="0" y="0" width="32" height="32">
<rect width="32" height="32" fill="#D9D9D9"/>
</mask>
<g mask="url(#mask0_758_4452)">
<path d="M5.33341 26.6666C4.60008 26.6666 3.97253 26.4058 3.45075 25.884C2.92808 25.3613 2.66675 24.7333 2.66675 24V7.99998C2.66675 7.26665 2.92808 6.63909 3.45075 6.11731C3.97253 5.59465 4.60008 5.33331 5.33341 5.33331H26.6667C27.4001 5.33331 28.0281 5.59465 28.5507 6.11731C29.0725 6.63909 29.3334 7.26665 29.3334 7.99998V24C29.3334 24.7333 29.0725 25.3613 28.5507 25.884C28.0281 26.4058 27.4001 26.6666 26.6667 26.6666H5.33341ZM26.6667 10.6666L16.7001 16.9C16.589 16.9666 16.4721 17.0164 16.3494 17.0493C16.2276 17.0831 16.1112 17.1 16.0001 17.1C15.889 17.1 15.7725 17.0831 15.6507 17.0493C15.5281 17.0164 15.4112 16.9666 15.3001 16.9L5.33341 10.6666V24H26.6667V10.6666ZM16.0001 14.6666L26.6667 7.99998H5.33341L16.0001 14.6666ZM5.33341 11V9.03331V9.06665V9.04931V11Z" fill="url(#paint0_linear_758_4452)"/>
</g>
<defs>
<linearGradient id="paint0_linear_758_4452" x1="16.0327" y1="5.33331" x2="16.0327" y2="26.6666" gradientUnits="userSpaceOnUse">
<stop stop-color="#6379AC"/>
<stop offset="1" stop-color="#4B4996"/>
</linearGradient>
</defs>
</svg>
