<svg width="32" height="32" viewBox="0 0 32 32" fill="none" xmlns="http://www.w3.org/2000/svg">
<mask id="mask0_758_4459" style="mask-type:alpha" maskUnits="userSpaceOnUse" x="0" y="0" width="32" height="32">
<rect width="32" height="32" fill="#D9D9D9"/>
</mask>
<g mask="url(#mask0_758_4459)">
<path d="M16.0002 15.9998C16.7335 15.9998 17.3615 15.7385 17.8842 15.2158C18.4059 14.6941 18.6668 14.0665 18.6668 13.3332C18.6668 12.5998 18.4059 11.9718 17.8842 11.4492C17.3615 10.9274 16.7335 10.6665 16.0002 10.6665C15.2668 10.6665 14.6393 10.9274 14.1175 11.4492C13.5948 11.9718 13.3335 12.5998 13.3335 13.3332C13.3335 14.0665 13.5948 14.6941 14.1175 15.2158C14.6393 15.7385 15.2668 15.9998 16.0002 15.9998ZM16.0002 25.7998C18.7113 23.3109 20.7224 21.0496 22.0335 19.0158C23.3446 16.9829 24.0002 15.1776 24.0002 13.5998C24.0002 11.1776 23.2277 9.19406 21.6828 7.64917C20.1388 6.10517 18.2446 5.33317 16.0002 5.33317C13.7557 5.33317 11.8611 6.10517 10.3162 7.64917C8.77216 9.19406 8.00016 11.1776 8.00016 13.5998C8.00016 15.1776 8.65572 16.9829 9.96683 19.0158C11.2779 21.0496 13.2891 23.3109 16.0002 25.7998ZM16.0002 29.3332C12.4224 26.2887 9.75038 23.4607 7.98416 20.8492C6.21705 18.2385 5.3335 15.8221 5.3335 13.5998C5.3335 10.2665 6.40594 7.61095 8.55083 5.63317C10.6948 3.65539 13.1779 2.6665 16.0002 2.6665C18.8224 2.6665 21.3055 3.65539 23.4495 5.63317C25.5944 7.61095 26.6668 10.2665 26.6668 13.5998C26.6668 15.8221 25.7837 18.2385 24.0175 20.8492C22.2504 23.4607 19.5779 26.2887 16.0002 29.3332Z" fill="url(#paint0_linear_758_4459)"/>
</g>
<defs>
<linearGradient id="paint0_linear_758_4459" x1="16.0262" y1="2.6665" x2="16.0262" y2="29.3332" gradientUnits="userSpaceOnUse">
<stop stop-color="#6379AC"/>
<stop offset="1" stop-color="#4B4996"/>
</linearGradient>
</defs>
</svg>
