<svg width="32" height="32" viewBox="0 0 32 32" fill="none" xmlns="http://www.w3.org/2000/svg">
<mask id="mask0_758_4453" style="mask-type:alpha" maskUnits="userSpaceOnUse" x="0" y="0" width="32" height="32">
<rect width="32" height="32" fill="#D9D9D9"/>
</mask>
<g mask="url(#mask0_758_4453)">
<path d="M15.9999 16C16.7333 16 17.3613 15.7387 17.8839 15.216C18.4057 14.6942 18.6666 14.0667 18.6666 13.3334C18.6666 12.6 18.4057 11.972 17.8839 11.4494C17.3613 10.9276 16.7333 10.6667 15.9999 10.6667C15.2666 10.6667 14.639 10.9276 14.1173 11.4494C13.5946 11.972 13.3333 12.6 13.3333 13.3334C13.3333 14.0667 13.5946 14.6942 14.1173 15.216C14.639 15.7387 15.2666 16 15.9999 16ZM15.9999 25.8C18.711 23.3111 20.7221 21.0498 22.0333 19.016C23.3444 16.9831 23.9999 15.1778 23.9999 13.6C23.9999 11.1778 23.2275 9.19424 21.6826 7.64935C20.1386 6.10535 18.2444 5.33335 15.9999 5.33335C13.7555 5.33335 11.8608 6.10535 10.3159 7.64935C8.77192 9.19424 7.99992 11.1778 7.99992 13.6C7.99992 15.1778 8.65547 16.9831 9.96659 19.016C11.2777 21.0498 13.2888 23.3111 15.9999 25.8ZM15.9999 28.8334C15.8221 28.8334 15.6444 28.8 15.4666 28.7334C15.2888 28.6667 15.1333 28.5778 14.9999 28.4667C11.7555 25.6 9.33325 22.9391 7.73325 20.484C6.13325 18.028 5.33325 15.7334 5.33325 13.6C5.33325 10.2667 6.4057 7.61113 8.55059 5.63335C10.6946 3.65558 13.1777 2.66669 15.9999 2.66669C18.8221 2.66669 21.3053 3.65558 23.4493 5.63335C25.5941 7.61113 26.6666 10.2667 26.6666 13.6C26.6666 15.7334 25.8666 18.028 24.2666 20.484C22.6666 22.9391 20.2444 25.6 16.9999 28.4667C16.8666 28.5778 16.711 28.6667 16.5333 28.7334C16.3555 28.8 16.1777 28.8334 15.9999 28.8334Z" fill="url(#paint0_linear_758_4453)"/>
</g>
<defs>
<linearGradient id="paint0_linear_758_4453" x1="16.026" y1="2.66669" x2="16.026" y2="28.8334" gradientUnits="userSpaceOnUse">
<stop stop-color="#6379AC"/>
<stop offset="1" stop-color="#4B4996"/>
</linearGradient>
</defs>
</svg>
