<svg width="32" height="32" viewBox="0 0 32 32" fill="none" xmlns="http://www.w3.org/2000/svg">
<path d="M25.9396 6.20208C23.3209 3.57708 19.8334 2.13333 16.1271 2.13333C8.47711 2.13333 2.25211 8.35833 2.25211 16.0083C2.25211 18.3123 2.81875 20.5662 3.89965 22.5816C4.0257 22.8166 4.06248 23.0905 3.99202 23.3478L2.22493 29.799C2.18424 29.9476 2.31965 30.0844 2.46861 30.0453L9.10512 28.303C9.35205 28.2382 9.61369 28.2717 9.8412 28.3876C11.7769 29.3732 13.9295 29.8896 16.1209 29.8896H16.1271C23.7709 29.8896 30.1334 23.6646 30.1334 16.0146C30.1334 12.3083 28.5584 8.82708 25.9396 6.20208ZM16.1271 27.5521C14.0521 27.5521 12.0209 26.9958 10.2521 25.9458L10.1937 25.9109C9.9632 25.7733 9.68709 25.7342 9.42745 25.8023L5.80573 26.7518C5.65685 26.7908 5.52152 26.6541 5.56207 26.5056L6.51762 23.0071C6.59138 22.737 6.54857 22.4484 6.3996 22.2114L6.35836 22.1458C5.20211 20.3083 4.59586 18.1896 4.59586 16.0083C4.59586 9.65208 9.77086 4.47708 16.1334 4.47708C19.2146 4.47708 22.1084 5.67708 24.2834 7.85833C26.4584 10.0396 27.7959 12.9333 27.7896 16.0146C27.7896 22.3771 22.4834 27.5521 16.1271 27.5521ZM22.4521 18.9146C22.1084 18.7396 20.4021 17.9021 20.0834 17.7896C19.7646 17.6708 19.5334 17.6146 19.3021 17.9646C19.0709 18.3146 18.4084 19.0896 18.2021 19.3271C18.0021 19.5583 17.7959 19.5896 17.4521 19.4146C15.4146 18.3958 14.0771 17.5958 12.7334 15.2896C12.3771 14.6771 13.0896 14.7208 13.7521 13.3958C13.8646 13.1646 13.8084 12.9646 13.7209 12.7896C13.6334 12.6146 12.9396 10.9083 12.6521 10.2146C12.3709 9.53958 12.0834 9.63333 11.8709 9.62083C11.6709 9.60833 11.4396 9.60833 11.2084 9.60833C10.9771 9.60833 10.6021 9.69583 10.2834 10.0396C9.96461 10.3896 9.07086 11.2271 9.07086 12.9333C9.07086 14.6396 10.3146 16.2896 10.4834 16.5208C10.6584 16.7521 12.9271 20.2521 16.4084 21.7583C18.6084 22.7083 19.4709 22.7896 20.5709 22.6271C21.2396 22.5271 22.6209 21.7896 22.9084 20.9771C23.1959 20.1646 23.1959 19.4708 23.1084 19.3271C23.0271 19.1708 22.7959 19.0833 22.4521 18.9146Z" fill="url(#paint0_linear_758_4451)"/>
<defs>
<linearGradient id="paint0_linear_758_4451" x1="16.1676" y1="2.13333" x2="16.1676" y2="30.1333" gradientUnits="userSpaceOnUse">
<stop stop-color="#6379AC"/>
<stop offset="1" stop-color="#4B4996"/>
</linearGradient>
</defs>
</svg>
