<svg width="24" height="24" viewBox="0 0 24 24" fill="none" xmlns="http://www.w3.org/2000/svg">
<path d="M22.1462 0.333556C21.9559 0.121202 21.6845 0 21.4 0H2.00167C1.7172 0 1.44574 0.121202 1.25543 0.333556C1.06511 0.54591 0.97496 0.829382 1.00601 1.11185L3.21169 20.9679C3.25576 21.3716 3.54124 21.7092 3.93189 21.8204L11.4244 23.9609C11.5145 23.987 11.6077 24 11.6998 24C11.792 24 11.8851 23.987 11.9753 23.9609L19.4678 21.8204C19.8584 21.7092 20.1429 21.3716 20.188 20.9679L22.3947 1.11185C22.4267 0.829382 22.3366 0.54591 22.1462 0.333556ZM17.226 10.0908L16.7793 17.388L11.7329 19.0377L6.68648 17.388L6.49516 13.8982H9.04942L9.11352 15.4848L11.7329 16.3733L14.3523 15.4848L14.5436 12.6301H8.92221L8.79499 10.0918H14.6718L14.8631 7.55359H6.04741L5.8561 5.01436H17.5456L17.226 10.0908Z" fill="#D8D8EB"/>
</svg>
