<svg width="24" height="24" viewBox="0 0 24 24" fill="none" xmlns="http://www.w3.org/2000/svg">
<path d="M22.1462 0.333556C21.9559 0.121202 21.6845 0 21.4 0H2.00167C1.7172 0 1.44574 0.121202 1.25543 0.333556C1.06511 0.54591 0.97496 0.829382 1.00601 1.11185L3.21169 20.9679C3.25576 21.3716 3.54124 21.7092 3.93189 21.8204L11.4244 23.9609C11.5145 23.987 11.6077 24 11.6998 24C11.792 24 11.8851 23.987 11.9753 23.9609L19.4678 21.8204C19.8584 21.7092 20.1429 21.3716 20.188 20.9679L22.3947 1.11185C22.4267 0.829382 22.3366 0.54591 22.1462 0.333556ZM17.3392 7.4424H8.39433L8.60668 9.98865H17.1239L16.4848 17.5112L11.7038 19.0317L11.6568 19.0167L6.92888 17.5092L6.67045 14.4441H8.98631L9.08748 15.6351L11.7289 16.217L14.3242 15.6341L14.5997 12.4157H6.49616L5.86912 5.00835H17.5476L17.3392 7.4424Z" fill="#D8D8EB"/>
</svg>
