<svg width="120" height="29" viewBox="0 0 120 29" fill="none" xmlns="http://www.w3.org/2000/svg">
<path d="M5.44706 11.8788C6.01882 11.0318 6.80235 10.3435 7.79765 9.81412C8.81412 9.28471 9.96824 9.02 11.26 9.02C12.7635 9.02 14.1188 9.39059 15.3259 10.1318C16.5541 10.8729 17.5176 11.9318 18.2165 13.3082C18.9365 14.6635 19.2965 16.2412 19.2965 18.0412C19.2965 19.8412 18.9365 21.44 18.2165 22.8376C17.5176 24.2141 16.5541 25.2835 15.3259 26.0459C14.1188 26.8082 12.7635 27.1894 11.26 27.1894C9.94706 27.1894 8.79294 26.9353 7.79765 26.4271C6.82353 25.8976 6.04 25.22 5.44706 24.3941V26.9035H1V3.39765H5.44706V11.8788ZM14.7541 18.0412C14.7541 16.9824 14.5318 16.0718 14.0871 15.3094C13.6635 14.5259 13.0918 13.9329 12.3718 13.5306C11.6768 13.1292 10.8872 12.9209 10.0847 12.9271C9.28 12.9271 8.51765 13.1388 7.79765 13.5624C7.09882 13.9647 6.52706 14.5576 6.08235 15.3412C5.65882 16.1247 5.44706 17.0459 5.44706 18.1047C5.44706 19.1635 5.65882 20.0847 6.08235 20.8682C6.52706 21.6518 7.09882 22.2553 7.79765 22.6788C8.51765 23.0812 9.28 23.2824 10.0847 23.2824C10.9106 23.2824 11.6729 23.0706 12.3718 22.6471C13.0918 22.2235 13.6635 21.62 14.0871 20.8365C14.5318 20.0529 14.7541 19.1212 14.7541 18.0412ZM24.7829 7.20941C23.9994 7.20941 23.3429 6.96588 22.8135 6.47882C22.3053 5.97059 22.0512 5.34588 22.0512 4.60471C22.0512 3.86353 22.3053 3.24941 22.8135 2.76235C23.3429 2.25412 23.9994 2 24.7829 2C25.5665 2 26.2124 2.25412 26.7206 2.76235C27.25 3.24941 27.5147 3.86353 27.5147 4.60471C27.5147 5.34588 27.25 5.97059 26.7206 6.47882C26.2124 6.96588 25.5665 7.20941 24.7829 7.20941ZM26.9747 9.30588V26.9035H22.5276V9.30588H26.9747ZM41.7876 26.9035L35.8159 19.4071V26.9035H31.3688V3.39765H35.8159V16.7706L41.7241 9.30588H47.5053L39.7547 18.1365L47.5688 26.9035H41.7876ZM47.8926 18.1047C47.8926 16.2835 48.2632 14.6953 49.0044 13.34C49.7456 11.9635 50.7726 10.9047 52.0856 10.1635C53.3985 9.40118 54.9021 9.02 56.5962 9.02C58.7774 9.02 60.5774 9.57059 61.9962 10.6718C63.4362 11.7518 64.3997 13.2765 64.8868 15.2459H60.0912C59.8371 14.4835 59.4029 13.8906 58.7888 13.4671C58.1959 13.0224 57.4547 12.8 56.5653 12.8C55.2947 12.8 54.2888 13.2659 53.5476 14.1976C52.8065 15.1082 52.4359 16.4106 52.4359 18.1047C52.4359 19.7776 52.8065 21.08 53.5476 22.0118C54.2888 22.9224 55.2947 23.3776 56.5653 23.3776C58.3653 23.3776 59.5406 22.5729 60.0912 20.9635H64.8876C64.4006 22.8694 63.4371 24.3835 61.9971 25.5059C60.5571 26.6282 58.7571 27.1894 56.5971 27.1894C54.9029 27.1894 53.3994 26.8188 52.0865 26.0776C50.7839 25.3261 49.7169 24.226 49.0053 22.9012C48.2641 21.5247 47.8935 19.9259 47.8935 18.1047H47.8926ZM71.71 12.0376C72.2553 11.1319 73.02 10.3781 73.9335 9.84588C74.8653 9.31647 75.9241 9.05176 77.11 9.05176V13.7212H75.9347C74.5371 13.7212 73.4782 14.0494 72.7582 14.7059C72.0594 15.3624 71.71 16.5059 71.71 18.1365V26.9035H67.2629V9.30588H71.71V12.0376ZM90.7459 24.3941C90.2588 25.1988 89.4647 25.8765 88.3635 26.4271C87.2624 26.9565 86.0765 27.2212 84.8059 27.2212C83.7047 27.2212 82.7094 26.9988 81.82 26.5541C80.9306 26.1094 80.2318 25.4953 79.7235 24.7118C79.2153 23.9282 78.9612 23.0282 78.9612 22.0118C78.9612 20.3812 79.5647 19.0471 80.7718 18.0094C82 16.9718 83.8318 16.4529 86.2671 16.4529H90.7459C90.7035 15.3306 90.3753 14.4412 89.7612 13.7847C89.1682 13.1071 88.3424 12.7682 87.2835 12.7682C86.3518 12.7682 85.5788 13.0224 84.9647 13.5306C84.3506 14.0176 83.9588 14.7059 83.7894 15.5953H79.3424C79.5541 14.3247 80.0094 13.1918 80.7082 12.1965C81.422 11.1853 82.3849 10.3756 83.5035 9.84588C84.6682 9.27412 85.9706 8.98824 87.4106 8.98824C88.8929 8.98824 90.2271 9.29529 91.4129 9.90941C92.5909 10.4961 93.5729 11.412 94.24 12.5459C94.9176 13.6894 95.2565 15.0341 95.2565 16.58V26.9035H90.7459V24.3941ZM86.1082 23.6318C86.8494 23.6318 87.5694 23.4729 88.2682 23.1553C88.9882 22.8376 89.5812 22.3612 90.0471 21.7259C90.5129 21.0906 90.7459 20.3388 90.7459 19.4706V19.3435H86.5212C85.5047 19.3435 84.7424 19.5447 84.2341 19.9471C83.7471 20.3494 83.5035 20.8788 83.5035 21.5353C83.5035 22.1706 83.7259 22.6788 84.1706 23.06C84.6365 23.4412 85.2824 23.6318 86.1082 23.6318ZM104.635 12.9588V26.9035H100.124V12.9588H98.1232V9.30588H100.124V8.41647C100.124 6.25647 100.739 4.66824 101.967 3.65176C103.195 2.63529 105.048 2.15882 107.526 2.22235V5.97059C106.446 5.94941 105.694 6.12941 105.27 6.51059C104.847 6.89176 104.635 7.58 104.635 8.57529V9.30588H110.414V4.95412H114.893V9.30588H118.832V12.9588H114.893V21.4718C114.893 22.0647 115.031 22.4988 115.306 22.7741C115.603 23.0282 116.09 23.1553 116.767 23.1553H118.832V26.9035H116.037C112.289 26.9035 110.414 25.0824 110.414 21.44V12.9588H104.635Z" fill="#F5F5FF"/>
</svg>
