<svg width="120" height="30" viewBox="0 0 120 30" fill="none" xmlns="http://www.w3.org/2000/svg">
<path d="M14.7693 5.31993C10.9651 5.31733 6.99668 6.18348 2.98902 7.30649C2.4805 7.41053 1.98292 7.74607 1.72158 8.16224C1.4802 8.5537 1.39201 8.94711 1.3167 9.36133C0.927261 11.5638 0.974895 13.7279 1.05536 16.1228C1.07274 16.6716 1.15577 17.3245 1.40746 17.7185C1.67395 18.1172 2.12647 18.3708 2.66911 18.4546C3.36623 18.5613 4.05949 18.6432 4.75404 18.7167L4.60084 23.0449C4.57509 23.3876 4.74374 23.675 4.95037 23.8401C5.1364 23.9819 5.34303 24.0456 5.55351 24.0612C5.97578 24.0938 6.474 23.9084 6.72054 23.4363C7.80195 21.3327 8.4804 20.4061 9.83088 19.008C13.3583 19.0978 16.4359 18.8994 19.9189 18.6374C21.1509 18.6075 21.998 17.5885 22.2221 16.7757C22.8883 14.6701 22.9938 12.0716 23.064 9.44262C23.0943 8.40089 22.737 7.37997 22.1036 6.83895C21.5005 6.34605 20.7737 6.16853 20.1049 5.9858C18.2492 5.56118 16.394 5.33294 14.7693 5.31993ZM19.8384 6.96575C20.5072 7.14913 21.0982 7.32665 21.467 7.63163C22.0888 8.29685 22.0682 8.74163 22.0611 9.46017C21.9903 12.0079 21.87 14.4822 21.299 16.3569C21.0525 17.0553 20.6276 17.5534 19.8185 17.6269C16.2679 17.8935 13.1878 18.0996 9.61975 17.9949C9.55052 17.9928 9.4816 18.005 9.41719 18.0307C9.35278 18.0564 9.29423 18.0951 9.24512 18.1445C7.74595 19.6739 6.9793 20.739 5.83545 22.961C5.80971 23.0117 5.75177 23.0423 5.67968 23.0475C5.63462 23.0449 5.61402 23.0065 5.61145 22.974L5.76465 18.2791C5.76518 18.1523 5.7201 18.0297 5.63781 17.934C5.55551 17.8383 5.4416 17.776 5.31728 17.7589C4.48411 17.6779 3.65323 17.5744 2.82552 17.4487C2.46827 17.3954 2.3376 17.2965 2.23976 17.1496C2.06854 16.7379 2.07111 16.4837 2.05888 16.0896C1.97778 13.7123 1.94044 11.6373 2.29962 9.57202C2.33503 9.26509 2.44832 8.95231 2.56869 8.69351C2.76824 8.37813 3.07206 8.33261 3.37846 8.24613C7.296 7.15368 11.1286 6.3363 14.7391 6.33369C16.5092 6.39677 18.365 6.57754 19.8384 6.96575ZM6.30535 10.9922C5.76465 11.6451 5.81743 12.5314 6.23454 13.1257C6.4534 13.4378 6.79327 13.6869 7.20588 13.7435C7.74402 13.789 8.08582 13.5679 8.45273 13.3162C9.11895 12.7323 9.18654 11.7107 8.67931 10.972C8.55663 10.7914 8.39425 10.6419 8.20486 10.5351C8.01547 10.4284 7.80421 10.3674 7.5876 10.3569C7.00956 10.3621 6.61755 10.6215 6.30535 10.9922ZM12.1437 10.459C11.6062 10.4765 11.1711 10.8524 10.9046 11.2588C10.602 11.7205 10.4244 12.3025 10.6703 12.8741C11.1434 13.9691 12.7777 13.9561 13.4291 12.8416C13.7278 12.3278 13.6525 11.7439 13.4291 11.3225C13.2051 10.8979 12.8678 10.5526 12.378 10.4739C12.3005 10.4615 12.2221 10.4565 12.1437 10.459ZM16.8839 10.5604C16.7152 10.5561 16.5467 10.5749 16.3831 10.6163C15.7368 10.7919 15.1864 11.4643 15.2695 12.3259C15.312 12.7603 15.5083 13.1842 15.8655 13.4736C16.2222 13.7662 16.7378 13.8956 17.2836 13.7838C17.9093 13.6537 18.2994 13.1433 18.4275 12.651C18.5581 12.1581 18.5259 11.6574 18.224 11.251C18.0676 11.0402 17.8655 10.8684 17.6332 10.7487C17.4009 10.629 17.1446 10.5646 16.8839 10.5604ZM7.54447 11.3681C7.66291 11.3707 7.75818 11.4084 7.85602 11.5508C8.07488 11.8707 8.01437 12.3539 7.79358 12.5489C7.57472 12.7421 7.43633 12.7603 7.33849 12.7473C7.24257 12.7323 7.14473 12.666 7.05655 12.5418C6.89047 12.3025 6.84026 11.9169 7.0617 11.6399C7.17756 11.4825 7.39384 11.383 7.54447 11.3681ZM12.2138 11.4799C12.2312 11.4825 12.4424 11.6067 12.5434 11.7972C12.6438 11.9878 12.6612 12.1633 12.566 12.3259C12.2814 12.8136 11.6776 12.6809 11.5875 12.4703C11.5521 12.389 11.5779 12.0638 11.7433 11.8128C11.9094 11.5586 12.116 11.4643 12.2138 11.4799ZM17.4162 11.8505C17.4465 11.8941 17.5218 12.1705 17.4638 12.389C17.4059 12.6101 17.3106 12.7447 17.0789 12.7928C16.7828 12.8565 16.6167 12.7928 16.4906 12.6913C16.3676 12.5899 16.282 12.4169 16.2646 12.2316C16.2196 11.7745 16.3824 11.6678 16.6418 11.5989C16.9412 11.5228 17.2804 11.6548 17.4162 11.8505ZM29.3703 7.36762C29.3776 7.23883 29.4272 7.11619 29.5113 7.01907C29.5532 6.96844 29.606 6.92817 29.6657 6.90134C29.7254 6.87452 29.7904 6.86185 29.8557 6.86431H33.2177C33.331 6.86431 33.4494 6.91243 33.5698 7.00672C33.6261 7.04807 33.6718 7.10238 33.7031 7.16515C33.7345 7.22791 33.7506 7.29732 33.75 7.36762V12.7882H39.3759V7.36762C39.3755 7.30037 39.3885 7.23372 39.4141 7.17167C39.4398 7.10961 39.4775 7.05343 39.5252 7.00649C39.5729 6.95955 39.6294 6.92282 39.6915 6.8985C39.7536 6.87418 39.8199 6.86277 39.8864 6.86496H43.2021C43.3534 6.86496 43.484 6.90268 43.5973 6.97876C43.7106 7.05484 43.7679 7.17709 43.7679 7.34421V23.342C43.7679 23.5098 43.7177 23.6347 43.6198 23.7179C43.522 23.8018 43.3933 23.8447 43.2349 23.8447H39.8858C39.7513 23.8501 39.6197 23.8049 39.5163 23.7179C39.4229 23.634 39.3753 23.5098 39.3753 23.342V16.8472H33.7507V23.342C33.7507 23.502 33.7005 23.6269 33.5975 23.7127C33.4964 23.8018 33.3587 23.8447 33.1849 23.8447H29.8557C29.539 23.8447 29.378 23.6951 29.3703 23.398V7.36762ZM60.3386 23.6496C60.2494 23.7285 60.1421 23.7835 60.0264 23.8096C59.924 23.8318 59.8196 23.8436 59.7148 23.8447H58.0052C57.8694 23.8447 57.7535 23.8193 57.6557 23.7712C57.5597 23.7227 57.4749 23.6545 57.4065 23.5709C57.3364 23.4837 57.2788 23.387 57.2353 23.2835C57.1897 23.1763 57.1518 23.0659 57.122 22.9532L56.7725 21.4901C56.6599 21.7268 56.4938 21.9934 56.2801 22.2958C56.0464 22.6142 55.7704 22.8986 55.46 23.1411C55.0987 23.421 54.698 23.6445 54.2711 23.8044C53.8109 23.9845 53.283 24.0736 52.687 24.0736C51.827 24.0736 51.0455 23.9058 50.3439 23.5709C49.6563 23.2464 49.0443 22.7789 48.548 22.1989C48.0556 21.6201 47.6726 20.9419 47.4016 20.1701C47.1263 19.3739 46.9885 18.5358 46.9941 17.6925V10.2047C46.9941 9.91536 47.0546 9.69427 47.1808 9.54666C47.3031 9.3971 47.5026 9.32297 47.7736 9.32297H50.389C50.7127 9.32297 50.9342 9.37889 51.0578 9.48813C51.1781 9.59998 51.238 9.81327 51.238 10.1358V17.5787C51.238 17.9065 51.3114 18.216 51.4569 18.5106C51.7553 19.1017 52.253 19.5656 52.8601 19.8189C53.1672 19.949 53.4787 20.014 53.7961 20.014C54.067 20.014 54.349 19.949 54.638 19.8189C54.9296 19.6889 55.1961 19.5165 55.4426 19.3006C55.6866 19.0822 55.89 18.826 56.049 18.5333C56.2073 18.2388 56.2852 17.9286 56.2852 17.6015V10.169C56.2852 10.0396 56.3103 9.91016 56.358 9.78075C56.4003 9.66133 56.4775 9.5577 56.5794 9.48358C56.6772 9.42246 56.7706 9.37954 56.8562 9.35613C56.9437 9.33337 57.0441 9.32362 57.1574 9.32362H59.7148C60.0393 9.32362 60.2729 9.40165 60.4165 9.56226C60.5594 9.72223 60.6328 9.93812 60.6328 10.2047V22.9994C60.6328 23.1437 60.5999 23.2757 60.5343 23.398C60.4747 23.5167 60.3832 23.616 60.2704 23.6847L60.3386 23.6496ZM73.479 22.0721C73.275 22.2776 73.049 22.4987 72.8051 22.7353C72.5585 22.9714 72.2895 23.1925 71.9953 23.398C71.7011 23.6035 71.3838 23.7738 71.0446 23.9084C70.6936 24.0426 70.321 24.1099 69.9458 24.1068C68.9204 24.1068 67.9748 23.9136 67.1122 23.5248C66.2693 23.1514 65.5104 22.6087 64.8818 21.9297C64.2581 21.254 63.7734 20.4588 63.4206 19.5445C63.0717 18.6302 62.8954 17.647 62.8954 16.5955C62.8954 15.5363 63.0717 14.5505 63.4213 13.6388C63.7727 12.7297 64.2581 11.937 64.8824 11.2614C65.5098 10.5824 66.2688 10.0412 67.1122 9.67151C67.9748 9.28785 68.9204 9.09472 69.9458 9.09472C70.333 9.09011 70.7183 9.15189 71.0851 9.27745C71.4159 9.39299 71.731 9.55007 72.023 9.74499C72.3069 9.93812 72.5663 10.1514 72.8051 10.3927C73.0413 10.6313 73.2679 10.8673 73.479 11.0962V5.8681C73.479 5.62491 73.5518 5.41942 73.6979 5.25165C73.8459 5.08388 74.0674 5 74.3609 5H76.9086C77.0065 5 77.1095 5.02276 77.2176 5.06373C77.3283 5.10664 77.4288 5.16517 77.5195 5.24125C77.6096 5.31733 77.683 5.40902 77.7384 5.51566C77.7963 5.6223 77.824 5.73935 77.824 5.86875V22.9636C77.824 23.5501 77.5195 23.8447 76.9086 23.8447H74.6879C74.5373 23.8447 74.4214 23.8252 74.339 23.7862C74.2566 23.7501 74.1847 23.6935 74.1298 23.6217C74.0656 23.5384 74.0139 23.4459 73.9766 23.3472C73.9315 23.238 73.8736 23.1086 73.8054 22.9636L73.479 22.0721ZM66.9687 16.5955C66.9687 17.0982 67.0466 17.5683 67.203 18.0079C67.3463 18.4278 67.5711 18.8147 67.8641 19.1459C68.1505 19.4658 68.4949 19.7201 68.9004 19.9054C69.3021 20.0933 69.7501 20.185 70.2399 20.185C70.7227 20.185 71.1778 20.0985 71.6052 19.9229C72.0301 19.7474 72.4028 19.5068 72.7188 19.1966C73.0381 18.8831 73.2974 18.5128 73.4835 18.1042C73.6763 17.6799 73.7856 17.2219 73.8054 16.7555V16.5955C73.8054 16.1078 73.7153 15.6429 73.5344 15.2007C73.3587 14.7677 73.1036 14.3721 72.7825 14.0348C72.4599 13.6983 72.0756 13.4284 71.6509 13.2402C71.2064 13.0428 70.7255 12.943 70.2399 12.9475C69.7501 12.9475 69.3021 13.0451 68.8998 13.2402C68.5028 13.4285 68.1499 13.6995 67.8641 14.0354C67.5728 14.3782 67.3485 14.7736 67.203 15.2007C67.0459 15.6485 66.9666 16.1204 66.9687 16.5955ZM90.9644 22.0721C90.7604 22.2776 90.537 22.4987 90.2905 22.7353C90.0459 22.9714 89.7774 23.1925 89.4833 23.398C89.1891 23.6035 88.8718 23.7738 88.5306 23.9084C88.1803 24.0427 87.8084 24.1099 87.4337 24.1068C86.4083 24.1068 85.4627 23.9136 84.5976 23.5248C83.7561 23.1507 82.9984 22.608 82.3704 21.9297C81.746 21.254 81.2588 20.4588 80.9092 19.5445C80.5571 18.6302 80.3833 17.647 80.3833 16.5955C80.3833 15.5363 80.5571 14.5505 80.9092 13.6388C81.241 12.7591 81.7371 11.952 82.3704 11.2614C82.9973 10.5831 83.7553 10.0419 84.5976 9.67151C85.4627 9.28785 86.4083 9.09472 87.4337 9.09472C87.8489 9.09472 88.2287 9.15585 88.5705 9.27745C88.9019 9.39303 89.2176 9.5501 89.5103 9.74499C89.7922 9.93812 90.0542 10.1514 90.2905 10.3927C90.5286 10.6313 90.7533 10.8673 90.9644 11.0962V5.8681C90.9644 5.62491 91.0397 5.41942 91.1852 5.25165C91.3333 5.08388 91.5521 5 91.8469 5H94.394C94.4919 5 94.5949 5.02276 94.7056 5.06373C94.8137 5.10664 94.9141 5.16517 95.0049 5.24125C95.095 5.31733 95.171 5.40902 95.2263 5.51566C95.2843 5.6223 95.312 5.73935 95.312 5.86875V22.9636C95.312 23.5501 95.0049 23.8447 94.394 23.8447H92.1759C92.0252 23.8447 91.9074 23.8252 91.8244 23.7862C91.7424 23.7494 91.6706 23.6929 91.6152 23.6217C91.5519 23.5377 91.5003 23.4454 91.462 23.3472C91.4169 23.238 91.3616 23.1086 91.2933 22.9636L90.9644 22.0721ZM84.4566 16.5955C84.4566 17.0982 84.5345 17.5683 84.6884 18.0079C84.8334 18.4275 85.0587 18.8141 85.3514 19.1459C85.6385 19.4658 85.9828 19.7201 86.3851 19.9054C86.7907 20.0933 87.238 20.185 87.7279 20.185C88.1949 20.1885 88.6581 20.0995 89.0913 19.9229C89.5064 19.7561 89.8854 19.5094 90.2074 19.1966C90.5265 18.8831 90.7856 18.5127 90.9715 18.1042C91.1642 17.6799 91.2735 17.2219 91.2933 16.7555V16.5955C91.2937 15.6397 90.9257 14.7213 90.2673 14.0348C89.9458 13.6972 89.5614 13.4272 89.1363 13.2402C88.6928 13.0426 88.2126 12.9428 87.7279 12.9475C87.238 12.9475 86.79 13.0451 86.3851 13.2402C85.9894 13.4292 85.6374 13.7001 85.352 14.0354C85.0608 14.3787 84.8358 14.7739 84.6884 15.2007C84.5333 15.649 84.455 16.1207 84.4566 16.5955ZM98.3219 5.88111C98.3219 5.63726 98.3817 5.43178 98.5021 5.26401C98.6231 5.09624 98.8317 5.013 99.1265 5.013H101.9C101.975 5.013 102.053 5.03251 102.136 5.07608C102.219 5.11705 102.297 5.17492 102.368 5.25165C102.44 5.32773 102.501 5.41942 102.548 5.52606C102.599 5.63271 102.624 5.75171 102.624 5.88111V22.9636C102.624 23.253 102.541 23.474 102.38 23.6217C102.216 23.7712 102.008 23.8447 101.751 23.8447H99.1258C98.8317 23.8447 98.6238 23.7712 98.5028 23.6217C98.3817 23.474 98.3212 23.253 98.3212 22.9636L98.3219 5.88111ZM117.381 22.1078C116.725 22.7201 115.967 23.2094 115.141 23.5527C114.311 23.9006 113.431 24.0736 112.503 24.0736C111.469 24.0736 110.494 23.8831 109.574 23.502C108.673 23.1352 107.85 22.5973 107.15 21.9173C106.452 21.2383 105.891 20.4292 105.498 19.5347C105.09 18.6198 104.886 17.6243 104.886 16.55C104.886 15.8789 104.967 15.2287 105.131 14.5992C105.292 13.9717 105.523 13.3826 105.82 12.8338C106.119 12.2852 106.483 11.7759 106.906 11.3173C107.763 10.3921 108.853 9.71891 110.059 9.36913C110.677 9.18576 111.331 9.09472 112.018 9.09472C112.643 9.09472 113.25 9.17861 113.841 9.34638C115.002 9.67486 116.061 10.2963 116.918 11.1522C117.343 11.5722 117.716 12.043 118.027 12.5541C118.336 13.0594 118.575 13.6011 118.746 14.1772C118.915 14.7514 119 15.3457 119 15.9557C119 16.3517 118.995 16.6742 118.983 16.9259C118.972 17.1775 118.915 17.3778 118.809 17.528C118.703 17.675 118.528 17.779 118.281 17.8349C118.037 17.8935 117.675 17.9214 117.2 17.9214H109.05C109.126 18.4091 109.28 18.8181 109.511 19.1459C109.74 19.4736 110.006 19.735 110.308 19.9282C110.61 20.1232 110.932 20.2611 111.271 20.3443C111.585 20.4255 111.907 20.4682 112.232 20.4718C112.503 20.4718 112.782 20.4438 113.068 20.3853C113.351 20.3308 113.629 20.2545 113.901 20.157C114.155 20.0684 114.402 19.9579 114.638 19.8267C114.859 19.6993 115.04 19.5673 115.176 19.43C115.296 19.3312 115.4 19.2577 115.485 19.209C115.57 19.159 115.666 19.1328 115.764 19.1329C115.862 19.1329 115.963 19.1686 116.063 19.2369C116.166 19.3058 116.28 19.4047 116.408 19.5347L117.607 20.9062C117.691 21.005 117.743 21.0941 117.765 21.1754C117.789 21.254 117.801 21.3379 117.801 21.4218C117.804 21.5634 117.759 21.7019 117.675 21.8152C117.592 21.9245 117.494 22.0233 117.381 22.1078ZM111.937 12.5821C111.643 12.5821 111.359 12.6406 111.083 12.7603C110.808 12.8773 110.549 13.034 110.308 13.2324C110.066 13.432 109.847 13.6589 109.657 13.9086C109.473 14.1465 109.316 14.4035 109.187 14.6753H114.972C114.82 14.3889 114.648 14.1139 114.457 13.8521C114.274 13.6039 114.061 13.3803 113.823 13.1868C113.578 12.9934 113.303 12.843 113.008 12.7421C112.701 12.6354 112.345 12.5821 111.937 12.5821Z" fill="#F5F5FF"/>
</svg>
