<svg width="60" height="60" viewBox="0 0 60 60" fill="none" xmlns="http://www.w3.org/2000/svg">
<path d="M37.4408 6.00002C27.0965 5.99322 16.3058 8.25738 5.40844 11.193C4.0257 11.4649 2.67271 12.342 1.96209 13.4299C1.30572 14.4532 1.06593 15.4816 0.861147 16.5644C-0.197787 22.3217 -0.0682644 27.9787 0.150524 34.2391C0.197782 35.6738 0.423571 37.3804 1.10794 38.4105C1.83257 39.4525 3.06303 40.1154 4.53854 40.3347C6.43411 40.6135 8.31919 40.8276 10.2078 41.0197L9.7912 52.3337C9.72119 53.2295 10.1798 53.9809 10.7416 54.4126C11.2475 54.7832 11.8093 54.9498 12.3816 54.9906C13.5298 55.0756 14.8846 54.5911 15.5549 53.357C18.4955 47.8581 20.3403 45.4359 24.0124 41.7812C33.6041 42.0158 41.9723 41.4974 51.4432 40.8124C54.7933 40.7342 57.0967 38.0705 57.7058 35.9458C59.5173 30.4417 59.8044 23.6493 59.9952 16.7769C60.0774 14.0538 59.106 11.385 57.3837 9.9708C55.7437 8.68233 53.7676 8.21828 51.949 7.74063C46.9029 6.63065 41.8585 6.03401 37.4408 6.00002ZM51.2244 10.3023C53.043 10.7816 54.6497 11.2457 55.6527 12.0429C57.3435 13.7818 57.2874 14.9445 57.2682 16.8228C57.0757 23.4827 56.7483 29.9505 55.1958 34.8511C54.5255 36.6767 53.3703 37.9787 51.1701 38.1708C41.5155 38.8678 33.1403 39.4066 23.4383 39.1329C23.2501 39.1275 23.0627 39.1593 22.8875 39.2266C22.7124 39.2938 22.5532 39.3949 22.4196 39.5239C18.3432 43.5219 16.2586 46.3062 13.1483 52.1145C13.0783 52.247 12.9207 52.3269 12.7247 52.3405C12.6022 52.3337 12.5462 52.2334 12.5392 52.1485L12.9557 39.8758C12.9572 39.5444 12.8346 39.2238 12.6109 38.9736C12.3871 38.7235 12.0773 38.5608 11.7393 38.5159C9.47379 38.3041 7.21452 38.0338 4.96386 37.7051C3.99244 37.5657 3.63713 37.3073 3.37108 36.9232C2.9055 35.8472 2.9125 35.1825 2.87925 34.1525C2.65871 27.9379 2.55719 22.5138 3.53386 17.1151C3.63013 16.3128 3.93818 15.4952 4.26549 14.8187C4.80808 13.9943 5.63423 13.8753 6.46737 13.6492C17.1197 10.7935 27.541 8.65684 37.3585 8.65004C42.1718 8.81492 47.2179 9.28747 51.2244 10.3023ZM14.426 20.8276C12.9557 22.5342 13.0993 24.851 14.2335 26.4047C14.8286 27.2206 15.7527 27.8716 16.8747 28.0195C18.3379 28.1385 19.2673 27.5605 20.265 26.9027C22.0766 25.3763 22.2604 22.7059 20.8811 20.7749C20.5475 20.3026 20.106 19.9118 19.591 19.6328C19.076 19.3538 18.5016 19.1944 17.9126 19.1668C16.3408 19.1804 15.2749 19.8587 14.426 20.8276ZM30.3013 19.4337C28.8398 19.4796 27.6566 20.4621 26.9319 21.5245C26.1093 22.7314 25.6262 24.2527 26.2948 25.7468C27.5813 28.6093 32.0253 28.5753 33.7966 25.6618C34.6088 24.319 34.404 22.7925 33.7966 21.6911C33.1875 20.5811 32.2704 19.6785 30.9384 19.4728C30.7277 19.4403 30.5144 19.4272 30.3013 19.4337ZM43.1905 19.6989C42.7319 19.6875 42.2738 19.7367 41.8288 19.8451C40.0715 20.304 38.5749 22.0616 38.8007 24.3139C38.9163 25.4494 39.4501 26.5576 40.4215 27.3141C41.3912 28.079 42.7932 28.4173 44.2774 28.1249C45.9787 27.7849 47.0394 26.4506 47.3877 25.1638C47.743 23.8753 47.6555 22.5665 46.8346 21.5041C46.4093 20.9531 45.8597 20.504 45.2281 20.1911C44.5965 19.8782 43.8995 19.7098 43.1905 19.6989ZM17.7953 21.8101C18.1174 21.8169 18.3764 21.9154 18.6425 22.2877C19.2376 23.124 19.0731 24.387 18.4727 24.8969C17.8776 25.4018 17.5013 25.4494 17.2352 25.4154C16.9744 25.3763 16.7084 25.2029 16.4686 24.8782C16.017 24.2527 15.8805 23.2447 16.4826 22.5206C16.7977 22.1092 17.3858 21.8491 17.7953 21.8101ZM30.492 22.1024C30.5393 22.1092 31.1134 22.4339 31.3882 22.9319C31.6612 23.43 31.7085 23.8889 31.4495 24.3139C30.6758 25.5888 29.034 25.242 28.789 24.6912C28.6927 24.4788 28.7627 23.6289 29.2126 22.9727C29.6641 22.3081 30.226 22.0616 30.492 22.1024ZM44.638 23.0713C44.7203 23.1852 44.925 23.9076 44.7675 24.4788C44.61 25.0567 44.3509 25.4086 43.7208 25.5344C42.9157 25.7009 42.4641 25.5344 42.1211 25.2692C41.7868 25.004 41.554 24.5519 41.5067 24.0674C41.3842 22.8724 41.827 22.5937 42.5324 22.4135C43.3463 22.2146 44.2687 22.5597 44.638 23.0713Z" fill="url(#paint0_linear_1060_745)"/>
<defs>
<linearGradient id="paint0_linear_1060_745" x1="30.0733" y1="6" x2="30.0733" y2="55" gradientUnits="userSpaceOnUse">
<stop stop-color="#6379AC"/>
<stop offset="1" stop-color="#4B4996"/>
</linearGradient>
</defs>
</svg>
