<svg width="30" height="30" viewBox="0 0 30 30" fill="none" xmlns="http://www.w3.org/2000/svg">
<circle cx="15" cy="15" r="15" fill="#D8D8EB"/>
<path d="M10.0291 24.0008H6.29732V11.9831H10.0291V24.0008ZM8.16121 10.3438C6.9679 10.3438 6 9.35538 6 8.16205C6 7.58885 6.2277 7.03912 6.633 6.63381C7.03831 6.2285 7.58802 6.00079 8.16121 6.00079C8.73439 6.00079 9.2841 6.2285 9.68941 6.63381C10.0947 7.03912 10.3224 7.58885 10.3224 8.16205C10.3224 9.35538 9.35411 10.3438 8.16121 10.3438ZM23.996 24.0008H20.2722V18.1507C20.2722 16.7564 20.2441 14.9684 18.332 14.9684C16.3918 14.9684 16.0945 16.4832 16.0945 18.0502V24.0008H12.3667V11.9831H15.9458V13.6224H15.998C16.4962 12.6782 17.7133 11.6818 19.5289 11.6818C23.3057 11.6818 24 14.1689 24 17.3993V24.0008H23.996Z" fill="#1C1C1F"/>
</svg>
