<svg width="60" height="186" viewBox="0 0 60 186" fill="none" xmlns="http://www.w3.org/2000/svg">
<g clip-path="url(#clip0_1261_792)">
<path d="M21.48 21.8C21.48 22.04 21.3867 22.2467 21.2 22.42L19.36 24.1C17.9733 22.9267 16.9 21.4933 16.14 19.8C15.38 18.12 15 16.0933 15 13.72C15 11.64 15.36 9.75333 16.08 8.06C16.8 6.38 17.8067 4.94 19.1 3.74C20.3933 2.55333 21.94 1.63333 23.74 0.98C25.54 0.326667 27.52 0 29.68 0C31.84 0 33.82 0.34 35.62 1.02C37.42 1.71333 38.9667 2.68 40.26 3.92C41.5533 5.16 42.56 6.64 43.28 8.36C44 10.0933 44.36 12.0067 44.36 14.1C44.36 16.14 44.0267 17.9533 43.36 19.54C42.6933 21.1267 41.8067 22.5067 40.7 23.68L38.72 22.28C38.5733 22.1867 38.4533 22.0667 38.36 21.92C38.2667 21.7867 38.22 21.6067 38.22 21.38C38.22 21.1267 38.3467 20.8267 38.6 20.48C38.8533 20.1467 39.1333 19.7 39.44 19.14C39.76 18.5933 40.0467 17.9133 40.3 17.1C40.5533 16.2867 40.68 15.2733 40.68 14.06C40.68 12.6333 40.4267 11.3267 39.92 10.14C39.4267 8.95333 38.7067 7.92667 37.76 7.06C36.8267 6.20667 35.6733 5.54 34.3 5.06C32.94 4.59333 31.4 4.36 29.68 4.36C27.9333 4.36 26.38 4.60667 25.02 5.1C23.66 5.59333 22.5067 6.27333 21.56 7.14C20.6133 8.00667 19.8933 9.02667 19.4 10.2C18.9067 11.3733 18.66 12.64 18.66 14C18.66 14.8267 18.7067 15.5667 18.8 16.22C18.9067 16.8867 19.06 17.4933 19.26 18.04C19.46 18.6 19.7133 19.1267 20.02 19.62C20.34 20.1133 20.72 20.6 21.16 21.08C21.2533 21.1867 21.3267 21.3 21.38 21.42C21.4467 21.54 21.48 21.6667 21.48 21.8Z" fill="url(#paint0_linear_1261_792)"/>
<path d="M29.68 54.5938C27.5333 54.5938 25.56 54.2471 23.76 53.5538C21.9733 52.8738 20.4267 51.9071 19.12 50.6538C17.8267 49.4004 16.82 47.9004 16.1 46.1538C15.38 44.4071 15.02 42.4671 15.02 40.3338C15.02 38.2138 15.38 36.2738 16.1 34.5138C16.82 32.7671 17.8267 31.2671 19.12 30.0138C20.4267 28.7738 21.9733 27.8071 23.76 27.1138C25.56 26.4204 27.5333 26.0737 29.68 26.0737C31.8133 26.0737 33.78 26.4204 35.58 27.1138C37.38 27.8071 38.9267 28.7738 40.22 30.0138C41.5267 31.2671 42.54 32.7671 43.26 34.5138C43.9933 36.2738 44.36 38.2138 44.36 40.3338C44.36 42.4671 43.9933 44.4071 43.26 46.1538C42.54 47.9004 41.5267 49.4004 40.22 50.6538C38.9267 51.9071 37.38 52.8738 35.58 53.5538C33.78 54.2471 31.8133 54.5938 29.68 54.5938ZM29.68 50.2337C31.3867 50.2337 32.92 50.0004 34.28 49.5338C35.64 49.0671 36.7933 48.4004 37.74 47.5338C38.6867 46.6804 39.4133 45.6404 39.92 44.4137C40.4267 43.2004 40.68 41.8404 40.68 40.3338C40.68 38.8271 40.4267 37.4604 39.92 36.2337C39.4133 35.0204 38.6867 33.9804 37.74 33.1138C36.7933 32.2471 35.64 31.5804 34.28 31.1138C32.92 30.6471 31.3867 30.4137 29.68 30.4137C27.96 30.4137 26.42 30.6471 25.06 31.1138C23.7133 31.5804 22.5667 32.2471 21.62 33.1138C20.6733 33.9804 19.9467 35.0204 19.44 36.2337C18.9467 37.4604 18.7 38.8271 18.7 40.3338C18.7 41.8404 18.9467 43.2004 19.44 44.4137C19.9467 45.6404 20.6733 46.6804 21.62 47.5338C22.5667 48.4004 23.7133 49.0671 25.06 49.5338C26.42 50.0004 27.96 50.2337 29.68 50.2337Z" fill="url(#paint1_linear_1261_792)"/>
<path d="M44.04 83.4631H15.32V81.3031C15.32 80.9698 15.38 80.6898 15.5 80.4631C15.62 80.2498 15.8133 80.0298 16.08 79.8031L37.06 63.5831C36.7 63.6098 36.3467 63.6298 36 63.6431C35.6533 63.6698 35.3267 63.6831 35.02 63.6831H15.32V59.9431H44.04V62.1431C44.04 62.5165 43.9933 62.7965 43.9 62.9831C43.82 63.1698 43.6267 63.3765 43.32 63.6031L22.32 79.8631C22.7067 79.8231 23.08 79.7898 23.44 79.7631C23.8133 79.7498 24.16 79.7431 24.48 79.7431H44.04V83.4631Z" fill="url(#paint2_linear_1261_792)"/>
<path d="M40.48 110.148V101.028H15.32V96.7881H40.48V87.6281H44.04V110.148H40.48Z" fill="url(#paint3_linear_1261_792)"/>
<path d="M26.02 126.727L37.16 122.467C37.92 122.16 38.88 121.853 40.04 121.547C39.4667 121.4 38.9333 121.247 38.44 121.087C37.9467 120.94 37.5067 120.793 37.12 120.647L26.02 116.407V126.727ZM15.32 135.147V131.867C15.32 131.493 15.4133 131.187 15.6 130.947C15.7867 130.707 16.0267 130.533 16.32 130.427L22.98 127.887V115.227L16.32 112.687C16.0667 112.593 15.8333 112.42 15.62 112.167C15.42 111.913 15.32 111.607 15.32 111.247V107.967L44.04 119.407V123.707L15.32 135.147Z" fill="url(#paint4_linear_1261_792)"/>
<path d="M40.48 155.5V146.38H15.32V142.14H40.48V132.98H44.04V155.5H40.48Z" fill="url(#paint5_linear_1261_792)"/>
<path d="M29.68 185.18C27.5333 185.18 25.56 184.833 23.76 184.14C21.9733 183.46 20.4267 182.493 19.12 181.24C17.8267 179.986 16.82 178.486 16.1 176.74C15.38 174.993 15.02 173.053 15.02 170.92C15.02 168.8 15.38 166.86 16.1 165.1C16.82 163.353 17.8267 161.853 19.12 160.6C20.4267 159.36 21.9733 158.393 23.76 157.7C25.56 157.006 27.5333 156.66 29.68 156.66C31.8133 156.66 33.78 157.006 35.58 157.7C37.38 158.393 38.9267 159.36 40.22 160.6C41.5267 161.853 42.54 163.353 43.26 165.1C43.9933 166.86 44.36 168.8 44.36 170.92C44.36 173.053 43.9933 174.993 43.26 176.74C42.54 178.486 41.5267 179.986 40.22 181.24C38.9267 182.493 37.38 183.46 35.58 184.14C33.78 184.833 31.8133 185.18 29.68 185.18ZM29.68 180.82C31.3867 180.82 32.92 180.586 34.28 180.12C35.64 179.653 36.7933 178.986 37.74 178.12C38.6867 177.266 39.4133 176.226 39.92 175C40.4267 173.786 40.68 172.426 40.68 170.92C40.68 169.413 40.4267 168.046 39.92 166.82C39.4133 165.606 38.6867 164.566 37.74 163.7C36.7933 162.833 35.64 162.166 34.28 161.7C32.92 161.233 31.3867 161 29.68 161C27.96 161 26.42 161.233 25.06 161.7C23.7133 162.166 22.5667 162.833 21.62 163.7C20.6733 164.566 19.9467 165.606 19.44 166.82C18.9467 168.046 18.7 169.413 18.7 170.92C18.7 172.426 18.9467 173.786 19.44 175C19.9467 176.226 20.6733 177.266 21.62 178.12C22.5667 178.986 23.7133 179.653 25.06 180.12C26.42 180.586 27.96 180.82 29.68 180.82Z" fill="url(#paint6_linear_1261_792)"/>
</g>
<defs>
<linearGradient id="paint0_linear_1261_792" x1="29.68" y1="185.18" x2="29.68" y2="-9.91655e-07" gradientUnits="userSpaceOnUse">
<stop stop-color="#09090A" stop-opacity="0.5"/>
<stop offset="1" stop-color="#1C1C1F"/>
</linearGradient>
<linearGradient id="paint1_linear_1261_792" x1="29.68" y1="185.18" x2="29.68" y2="-9.91655e-07" gradientUnits="userSpaceOnUse">
<stop stop-color="#09090A" stop-opacity="0.5"/>
<stop offset="1" stop-color="#1C1C1F"/>
</linearGradient>
<linearGradient id="paint2_linear_1261_792" x1="29.68" y1="185.18" x2="29.68" y2="-9.91655e-07" gradientUnits="userSpaceOnUse">
<stop stop-color="#09090A" stop-opacity="0.5"/>
<stop offset="1" stop-color="#1C1C1F"/>
</linearGradient>
<linearGradient id="paint3_linear_1261_792" x1="29.68" y1="185.18" x2="29.68" y2="-9.91655e-07" gradientUnits="userSpaceOnUse">
<stop stop-color="#09090A" stop-opacity="0.5"/>
<stop offset="1" stop-color="#1C1C1F"/>
</linearGradient>
<linearGradient id="paint4_linear_1261_792" x1="29.68" y1="185.18" x2="29.68" y2="-9.91655e-07" gradientUnits="userSpaceOnUse">
<stop stop-color="#09090A" stop-opacity="0.5"/>
<stop offset="1" stop-color="#1C1C1F"/>
</linearGradient>
<linearGradient id="paint5_linear_1261_792" x1="29.68" y1="185.18" x2="29.68" y2="-9.91655e-07" gradientUnits="userSpaceOnUse">
<stop stop-color="#09090A" stop-opacity="0.5"/>
<stop offset="1" stop-color="#1C1C1F"/>
</linearGradient>
<linearGradient id="paint6_linear_1261_792" x1="29.68" y1="185.18" x2="29.68" y2="-9.91655e-07" gradientUnits="userSpaceOnUse">
<stop stop-color="#09090A" stop-opacity="0.5"/>
<stop offset="1" stop-color="#1C1C1F"/>
</linearGradient>
<clipPath id="clip0_1261_792">
<rect width="60" height="185.18" fill="white"/>
</clipPath>
</defs>
</svg>
