<svg width="136" height="88" viewBox="0 0 136 88" fill="none" xmlns="http://www.w3.org/2000/svg">
<circle r="4" transform="matrix(1 0 0 -1 8 84)" fill="#6379AC"/>
<circle r="4" transform="matrix(1 0 0 -1 32 84)" fill="#6379AC"/>
<circle r="4" transform="matrix(1 0 0 -1 56 84)" fill="#6379AC"/>
<circle r="4" transform="matrix(1 0 0 -1 80 84)" fill="#6379AC"/>
<circle r="4" transform="matrix(1 0 0 -1 104 84)" fill="#6379AC"/>
<circle r="4" transform="matrix(1 0 0 -1 128 84)" fill="#6379AC"/>
<g opacity="0.8">
<circle r="4" transform="matrix(1 0 0 -1 8 64)" fill="#6379AC"/>
<circle r="4" transform="matrix(1 0 0 -1 32 64)" fill="#6379AC"/>
<circle r="4" transform="matrix(1 0 0 -1 56 64)" fill="#6379AC"/>
<circle r="4" transform="matrix(1 0 0 -1 80 64)" fill="#6379AC"/>
<circle r="4" transform="matrix(1 0 0 -1 104 64)" fill="#6379AC"/>
<circle r="4" transform="matrix(1 0 0 -1 128 64)" fill="#6379AC"/>
</g>
<g opacity="0.6">
<circle r="4" transform="matrix(1 0 0 -1 8 44)" fill="#6379AC"/>
<circle r="4" transform="matrix(1 0 0 -1 32 44)" fill="#6379AC"/>
<circle r="4" transform="matrix(1 0 0 -1 56 44)" fill="#6379AC"/>
<circle r="4" transform="matrix(1 0 0 -1 80 44)" fill="#6379AC"/>
<circle r="4" transform="matrix(1 0 0 -1 104 44)" fill="#6379AC"/>
<circle r="4" transform="matrix(1 0 0 -1 128 44)" fill="#6379AC"/>
</g>
<g opacity="0.4">
<circle r="4" transform="matrix(1 0 0 -1 8 24)" fill="#6379AC"/>
<circle r="4" transform="matrix(1 0 0 -1 32 24)" fill="#6379AC"/>
<circle r="4" transform="matrix(1 0 0 -1 56 24)" fill="#6379AC"/>
<circle r="4" transform="matrix(1 0 0 -1 80 24)" fill="#6379AC"/>
<circle r="4" transform="matrix(1 0 0 -1 104 24)" fill="#6379AC"/>
<circle r="4" transform="matrix(1 0 0 -1 128 24)" fill="#6379AC"/>
</g>
<g opacity="0.2">
<circle r="4" transform="matrix(1 0 0 -1 8 4)" fill="#6379AC"/>
<circle r="4" transform="matrix(1 0 0 -1 32 4)" fill="#6379AC"/>
<circle r="4" transform="matrix(1 0 0 -1 56 4)" fill="#6379AC"/>
<circle r="4" transform="matrix(1 0 0 -1 80 4)" fill="#6379AC"/>
<circle r="4" transform="matrix(1 0 0 -1 104 4)" fill="#6379AC"/>
<circle r="4" transform="matrix(1 0 0 -1 128 4)" fill="#6379AC"/>
</g>
</svg>
