<svg width="81" height="68" viewBox="0 0 81 68" fill="none" xmlns="http://www.w3.org/2000/svg">
<circle cx="76.32" cy="63.9996" r="4" transform="rotate(-180 76.32 63.9996)" fill="#1C1C1F"/>
<g opacity="0.8">
<circle cx="52.32" cy="63.9996" r="4" transform="rotate(-180 52.32 63.9996)" fill="#1C1C1F"/>
</g>
<g opacity="0.6">
<circle cx="28.32" cy="63.9996" r="4" transform="rotate(-180 28.32 63.9996)" fill="#1C1C1F"/>
</g>
<g opacity="0.4">
<circle cx="4.32001" cy="63.9996" r="4" transform="rotate(-180 4.32001 63.9996)" fill="#1C1C1F"/>
</g>
<g opacity="0.8">
<circle cx="76.32" cy="43.9996" r="4" transform="rotate(-180 76.32 43.9996)" fill="#1C1C1F"/>
</g>
<g opacity="0.6">
<circle cx="52.32" cy="43.9996" r="4" transform="rotate(-180 52.32 43.9996)" fill="#1C1C1F"/>
</g>
<g opacity="0.4">
<circle cx="28.32" cy="43.9996" r="4" transform="rotate(-180 28.32 43.9996)" fill="#1C1C1F"/>
</g>
<g opacity="0.2">
<circle cx="4.32001" cy="43.9996" r="4" transform="rotate(-180 4.32001 43.9996)" fill="#1C1C1F"/>
</g>
<g opacity="0.6">
<circle cx="76.32" cy="23.9996" r="4" transform="rotate(-180 76.32 23.9996)" fill="#1C1C1F"/>
</g>
<g opacity="0.4">
<circle cx="52.32" cy="23.9996" r="4" transform="rotate(-180 52.32 23.9996)" fill="#1C1C1F"/>
</g>
<g opacity="0.2">
<circle cx="28.32" cy="23.9996" r="4" transform="rotate(-180 28.32 23.9996)" fill="#1C1C1F"/>
</g>
<g opacity="0.4">
<circle cx="76.32" cy="3.99963" r="4" transform="rotate(-180 76.32 3.99963)" fill="#1C1C1F"/>
</g>
<g opacity="0.2">
<circle cx="52.32" cy="3.99963" r="4" transform="rotate(-180 52.32 3.99963)" fill="#1C1C1F"/>
</g>
</svg>
