<svg width="58" height="224" viewBox="0 0 58 224" fill="none" xmlns="http://www.w3.org/2000/svg">
<g clip-path="url(#clip0_1261_790)">
<path d="M40.54 4.28H30.92V15.8H27.46V4.28H15.28V0H44V17.8H40.54V4.28Z" fill="url(#paint0_linear_1261_790)"/>
<path d="M29.64 49.1038C27.4933 49.1038 25.52 48.7571 23.72 48.0638C21.9333 47.3838 20.3867 46.4171 19.08 45.1637C17.7867 43.9104 16.78 42.4104 16.06 40.6637C15.34 38.9171 14.98 36.9771 14.98 34.8438C14.98 32.7237 15.34 30.7837 16.06 29.0238C16.78 27.2771 17.7867 25.7771 19.08 24.5238C20.3867 23.2838 21.9333 22.3171 23.72 21.6238C25.52 20.9304 27.4933 20.5837 29.64 20.5837C31.7733 20.5837 33.74 20.9304 35.54 21.6238C37.34 22.3171 38.8867 23.2838 40.18 24.5238C41.4867 25.7771 42.5 27.2771 43.22 29.0238C43.9533 30.7837 44.32 32.7237 44.32 34.8438C44.32 36.9771 43.9533 38.9171 43.22 40.6637C42.5 42.4104 41.4867 43.9104 40.18 45.1637C38.8867 46.4171 37.34 47.3838 35.54 48.0638C33.74 48.7571 31.7733 49.1038 29.64 49.1038ZM29.64 44.7438C31.3467 44.7438 32.88 44.5104 34.24 44.0438C35.6 43.5771 36.7533 42.9104 37.7 42.0438C38.6467 41.1904 39.3733 40.1504 39.88 38.9238C40.3867 37.7104 40.64 36.3504 40.64 34.8438C40.64 33.3371 40.3867 31.9704 39.88 30.7437C39.3733 29.5304 38.6467 28.4904 37.7 27.6238C36.7533 26.7571 35.6 26.0904 34.24 25.6238C32.88 25.1571 31.3467 24.9237 29.64 24.9237C27.92 24.9237 26.38 25.1571 25.02 25.6238C23.6733 26.0904 22.5267 26.7571 21.58 27.6238C20.6333 28.4904 19.9067 29.5304 19.4 30.7437C18.9067 31.9704 18.66 33.3371 18.66 34.8438C18.66 36.3504 18.9067 37.7104 19.4 38.9238C19.9067 40.1504 20.6333 41.1904 21.58 42.0438C22.5267 42.9104 23.6733 43.5771 25.02 44.0438C26.38 44.5104 27.92 44.7438 29.64 44.7438Z" fill="url(#paint1_linear_1261_790)"/>
<path d="M30.16 62.5931C30.16 63.6865 30.2933 64.6465 30.56 65.4731C30.8267 66.3131 31.2 67.0131 31.68 67.5731C32.1733 68.1331 32.7534 68.5531 33.42 68.8331C34.1 69.1131 34.8467 69.2531 35.66 69.2531C37.3133 69.2531 38.56 68.7065 39.4 67.6131C40.24 66.5331 40.66 64.9065 40.66 62.7331V58.7131H30.16V62.5931ZM15.28 75.9931V72.1931C15.28 71.4331 15.58 70.8798 16.18 70.5331L26.14 63.4331C26.4733 63.2065 26.7067 62.9598 26.84 62.6931C26.9867 62.4265 27.06 62.0265 27.06 61.4931V58.7131H15.28V54.4531H44V62.7331C44 64.5865 43.8067 66.1798 43.42 67.5131C43.0467 68.8598 42.5067 69.9665 41.8 70.8331C41.1067 71.7131 40.2667 72.3598 39.28 72.7731C38.2933 73.1998 37.1867 73.4131 35.96 73.4131C34.96 73.4131 34.02 73.2598 33.14 72.9531C32.26 72.6465 31.4667 72.1931 30.76 71.5931C30.0667 71.0065 29.4667 70.2865 28.96 69.4331C28.4533 68.5798 28.0667 67.6131 27.8 66.5331C27.48 67.0665 27.0334 67.5265 26.46 67.9131L15.28 75.9931Z" fill="url(#paint2_linear_1261_790)"/>
<path d="M44 109.887H15.28V106.168H35.72C36.0267 106.168 36.3534 106.174 36.7 106.188C37.0467 106.214 37.4 106.241 37.76 106.268L20.22 96.7075C19.5667 96.3742 19.24 95.8608 19.24 95.1675V94.5675C19.24 93.8742 19.5667 93.3675 20.22 93.0475L37.82 83.3075C37.0734 83.3875 36.3734 83.4275 35.72 83.4275H15.28V79.6875H44V82.8475C44 83.2208 43.96 83.5075 43.88 83.7075C43.8133 83.9208 43.6134 84.1208 43.28 84.3075L26.08 93.9075C25.7333 94.0942 25.3667 94.2675 24.98 94.4275C24.5933 94.5875 24.2067 94.7408 23.82 94.8875C24.6067 95.1675 25.3667 95.4942 26.1 95.8675L43.28 105.287C43.6134 105.461 43.8133 105.648 43.88 105.848C43.96 106.061 44 106.354 44 106.728V109.887Z" fill="url(#paint3_linear_1261_790)"/>
<path d="M25.98 132.252L37.12 127.992C37.88 127.686 38.84 127.379 40 127.072C39.4267 126.926 38.8933 126.772 38.4 126.612C37.9067 126.466 37.4667 126.319 37.08 126.172L25.98 121.932V132.252ZM15.28 140.672V137.392C15.28 137.019 15.3733 136.712 15.56 136.472C15.7467 136.232 15.9867 136.059 16.28 135.952L22.94 133.412V120.752L16.28 118.212C16.0267 118.119 15.7933 117.946 15.58 117.692C15.38 117.439 15.28 117.132 15.28 116.772V113.492L44 124.932V129.232L15.28 140.672Z" fill="url(#paint4_linear_1261_790)"/>
<path d="M19.32 165.837C18.0533 164.757 17.04 163.457 16.28 161.937C15.5333 160.43 15.1 158.637 14.98 156.557L13.86 156.237C13.5933 157.477 13.2267 158.363 12.76 158.897C12.28 159.443 11.68 159.717 10.96 159.717C10.52 159.717 10.1267 159.603 9.78001 159.377C9.43335 159.163 9.14001 158.857 8.90001 158.457C8.66001 158.07 8.47335 157.597 8.34002 157.037C8.20668 156.49 8.14001 155.89 8.14001 155.237C8.14001 154.69 8.19335 154.17 8.30001 153.677C8.39335 153.197 8.53335 152.743 8.72001 152.317L9.94001 152.677C10.1933 152.757 10.32 152.923 10.32 153.177C10.32 153.257 10.3 153.35 10.26 153.457C10.2067 153.563 10.16 153.683 10.12 153.817C10.0667 153.963 10.02 154.137 9.98001 154.337C9.92668 154.537 9.90001 154.77 9.90001 155.037C9.90001 155.557 10.0067 155.95 10.22 156.217C10.4333 156.497 10.7 156.637 11.02 156.637C11.5 156.637 11.84 156.363 12.04 155.817C12.2267 155.283 12.3867 154.503 12.52 153.477L15 154.297C15.1333 152.39 15.5867 150.663 16.36 149.117C17.1333 147.57 18.16 146.25 19.44 145.157C20.72 144.063 22.22 143.217 23.94 142.617C25.6733 142.03 27.5733 141.737 29.64 141.737C31.8 141.737 33.78 142.077 35.58 142.757C37.38 143.45 38.9267 144.417 40.22 145.657C41.5133 146.897 42.52 148.377 43.24 150.097C43.96 151.83 44.32 153.743 44.32 155.837C44.32 157.877 43.9867 159.69 43.32 161.277C42.6533 162.863 41.7667 164.243 40.66 165.417L38.68 164.017C38.5334 163.923 38.4133 163.803 38.32 163.657C38.2267 163.523 38.18 163.343 38.18 163.117C38.18 162.863 38.3067 162.563 38.56 162.217C38.8134 161.883 39.0934 161.437 39.4 160.877C39.72 160.33 40.0067 159.65 40.26 158.837C40.5133 158.023 40.64 157.01 40.64 155.797C40.64 154.37 40.3867 153.063 39.88 151.877C39.3867 150.69 38.6667 149.663 37.72 148.797C36.7867 147.943 35.6333 147.277 34.26 146.797C32.9 146.33 31.36 146.097 29.64 146.097C27.8933 146.097 26.34 146.343 24.98 146.837C23.62 147.33 22.4667 148.01 21.52 148.877C20.5733 149.743 19.8533 150.763 19.36 151.937C18.8667 153.11 18.62 154.377 18.62 155.737C18.62 156.563 18.6667 157.303 18.76 157.957C18.8667 158.623 19.02 159.23 19.22 159.777C19.42 160.337 19.6733 160.863 19.98 161.357C20.3 161.85 20.68 162.337 21.12 162.817C21.2133 162.923 21.2867 163.037 21.34 163.157C21.4067 163.277 21.44 163.403 21.44 163.537C21.44 163.777 21.3467 163.983 21.16 164.157L19.32 165.837Z" fill="url(#paint5_linear_1261_790)"/>
<path d="M25.98 185.377L37.12 181.117C37.88 180.811 38.84 180.504 40 180.197C39.4267 180.051 38.8933 179.897 38.4 179.737C37.9067 179.591 37.4667 179.444 37.08 179.297L25.98 175.057V185.377ZM15.28 193.797V190.517C15.28 190.144 15.3733 189.837 15.56 189.597C15.7467 189.357 15.9867 189.184 16.28 189.077L22.94 186.537V173.877L16.28 171.337C16.0267 171.244 15.7933 171.071 15.58 170.817C15.38 170.564 15.28 170.257 15.28 169.897V166.617L44 178.057V182.357L15.28 193.797ZM48.74 182.717C48.74 183.024 48.7933 183.291 48.9 183.517C49.02 183.744 49.1733 183.931 49.36 184.077C49.5467 184.237 49.7534 184.357 49.98 184.437C50.22 184.517 50.46 184.557 50.7 184.557V186.937C50.1 186.937 49.5267 186.851 48.98 186.677C48.4333 186.517 47.9467 186.277 47.52 185.957C47.1067 185.637 46.7733 185.244 46.52 184.777C46.2667 184.311 46.14 183.771 46.14 183.157C46.14 182.544 46.2467 181.997 46.46 181.517C46.6733 181.037 46.9067 180.591 47.16 180.177C47.4267 179.777 47.6667 179.397 47.88 179.037C48.1067 178.677 48.22 178.317 48.22 177.957C48.22 177.651 48.16 177.384 48.04 177.157C47.92 176.931 47.76 176.744 47.56 176.597C47.3733 176.451 47.16 176.337 46.92 176.257C46.68 176.177 46.4467 176.137 46.22 176.137V173.717C46.82 173.717 47.3934 173.797 47.94 173.957C48.5 174.131 48.9933 174.377 49.42 174.697C49.8467 175.031 50.1867 175.431 50.44 175.897C50.6934 176.364 50.82 176.897 50.82 177.497C50.82 178.124 50.7067 178.677 50.48 179.157C50.2667 179.637 50.0267 180.077 49.76 180.477C49.5067 180.891 49.2733 181.271 49.06 181.617C48.8467 181.977 48.74 182.344 48.74 182.717Z" fill="url(#paint6_linear_1261_790)"/>
<path d="M29.64 223.362C27.4933 223.362 25.52 223.015 23.72 222.322C21.9333 221.642 20.3867 220.675 19.08 219.422C17.7867 218.168 16.78 216.668 16.06 214.922C15.34 213.175 14.98 211.235 14.98 209.102C14.98 206.982 15.34 205.042 16.06 203.282C16.78 201.535 17.7867 200.035 19.08 198.782C20.3867 197.542 21.9333 196.575 23.72 195.882C25.52 195.188 27.4933 194.842 29.64 194.842C31.7733 194.842 33.74 195.188 35.54 195.882C37.34 196.575 38.8867 197.542 40.18 198.782C41.4867 200.035 42.5 201.535 43.22 203.282C43.9533 205.042 44.32 206.982 44.32 209.102C44.32 211.235 43.9533 213.175 43.22 214.922C42.5 216.668 41.4867 218.168 40.18 219.422C38.8867 220.675 37.34 221.642 35.54 222.322C33.74 223.015 31.7733 223.362 29.64 223.362ZM29.64 219.002C31.3467 219.002 32.88 218.768 34.24 218.302C35.6 217.835 36.7533 217.168 37.7 216.302C38.6467 215.448 39.3733 214.408 39.88 213.182C40.3867 211.968 40.64 210.608 40.64 209.102C40.64 207.595 40.3867 206.228 39.88 205.002C39.3733 203.788 38.6467 202.748 37.7 201.882C36.7533 201.015 35.6 200.348 34.24 199.882C32.88 199.415 31.3467 199.182 29.64 199.182C27.92 199.182 26.38 199.415 25.02 199.882C23.6733 200.348 22.5267 201.015 21.58 201.882C20.6333 202.748 19.9067 203.788 19.4 205.002C18.9067 206.228 18.66 207.595 18.66 209.102C18.66 210.608 18.9067 211.968 19.4 213.182C19.9067 214.408 20.6333 215.448 21.58 216.302C22.5267 217.168 23.6733 217.835 25.02 218.302C26.38 218.768 27.92 219.002 29.64 219.002Z" fill="url(#paint7_linear_1261_790)"/>
</g>
<defs>
<linearGradient id="paint0_linear_1261_790" x1="29.48" y1="223.362" x2="29.48" y2="-1.19612e-06" gradientUnits="userSpaceOnUse">
<stop stop-color="#09090A" stop-opacity="0.5"/>
<stop offset="1" stop-color="#1C1C1F"/>
</linearGradient>
<linearGradient id="paint1_linear_1261_790" x1="29.48" y1="223.362" x2="29.48" y2="-1.19612e-06" gradientUnits="userSpaceOnUse">
<stop stop-color="#09090A" stop-opacity="0.5"/>
<stop offset="1" stop-color="#1C1C1F"/>
</linearGradient>
<linearGradient id="paint2_linear_1261_790" x1="29.48" y1="223.362" x2="29.48" y2="-1.19612e-06" gradientUnits="userSpaceOnUse">
<stop stop-color="#09090A" stop-opacity="0.5"/>
<stop offset="1" stop-color="#1C1C1F"/>
</linearGradient>
<linearGradient id="paint3_linear_1261_790" x1="29.48" y1="223.362" x2="29.48" y2="-1.19612e-06" gradientUnits="userSpaceOnUse">
<stop stop-color="#09090A" stop-opacity="0.5"/>
<stop offset="1" stop-color="#1C1C1F"/>
</linearGradient>
<linearGradient id="paint4_linear_1261_790" x1="29.48" y1="223.362" x2="29.48" y2="-1.19612e-06" gradientUnits="userSpaceOnUse">
<stop stop-color="#09090A" stop-opacity="0.5"/>
<stop offset="1" stop-color="#1C1C1F"/>
</linearGradient>
<linearGradient id="paint5_linear_1261_790" x1="29.48" y1="223.362" x2="29.48" y2="-1.19612e-06" gradientUnits="userSpaceOnUse">
<stop stop-color="#09090A" stop-opacity="0.5"/>
<stop offset="1" stop-color="#1C1C1F"/>
</linearGradient>
<linearGradient id="paint6_linear_1261_790" x1="29.48" y1="223.362" x2="29.48" y2="-1.19612e-06" gradientUnits="userSpaceOnUse">
<stop stop-color="#09090A" stop-opacity="0.5"/>
<stop offset="1" stop-color="#1C1C1F"/>
</linearGradient>
<linearGradient id="paint7_linear_1261_790" x1="29.48" y1="223.362" x2="29.48" y2="-1.19612e-06" gradientUnits="userSpaceOnUse">
<stop stop-color="#09090A" stop-opacity="0.5"/>
<stop offset="1" stop-color="#1C1C1F"/>
</linearGradient>
<clipPath id="clip0_1261_790">
<rect width="58" height="223.362" fill="white"/>
</clipPath>
</defs>
</svg>
