<svg width="58" height="263" viewBox="0 0 58 263" fill="none" xmlns="http://www.w3.org/2000/svg">
<g clip-path="url(#clip0_1261_789)">
<path d="M15.14 4.28V0H43.86V4.28H15.14Z" fill="url(#paint0_linear_1261_789)"/>
<path d="M43.86 34.8872H15.14V32.7272C15.14 32.3939 15.2 32.1139 15.32 31.8872C15.44 31.6739 15.6333 31.4539 15.9 31.2272L36.88 15.0072C36.52 15.0339 36.1667 15.0539 35.82 15.0672C35.4733 15.0939 35.1467 15.1072 34.84 15.1072H15.14V11.3672H43.86V13.5672C43.86 13.9405 43.8133 14.2205 43.72 14.4072C43.64 14.5939 43.4467 14.8005 43.14 15.0272L22.14 31.2872C22.5267 31.2472 22.9 31.2139 23.26 31.1872C23.6333 31.1739 23.98 31.1672 24.3 31.1672H43.86V34.8872Z" fill="url(#paint1_linear_1261_789)"/>
<path d="M40.3 61.5722V52.4522H15.14V48.2122H40.3V39.0522H43.86V61.5722H40.3Z" fill="url(#paint2_linear_1261_789)"/>
<path d="M30.02 73.8431C30.02 74.9365 30.1533 75.8965 30.42 76.7231C30.6867 77.5631 31.06 78.2631 31.54 78.8231C32.0333 79.3831 32.6133 79.8031 33.28 80.0831C33.96 80.3631 34.7067 80.5031 35.52 80.5031C37.1733 80.5031 38.42 79.9565 39.26 78.8631C40.1 77.7831 40.52 76.1565 40.52 73.9831V69.9631H30.02V73.8431ZM15.14 87.2431V83.4431C15.14 82.6831 15.44 82.1298 16.04 81.7831L26 74.6831C26.3333 74.4565 26.5667 74.2098 26.7 73.9431C26.8467 73.6765 26.92 73.2765 26.92 72.7431V69.9631H15.14V65.7031H43.86V73.9831C43.86 75.8365 43.6667 77.4298 43.28 78.7631C42.9067 80.1098 42.3667 81.2165 41.66 82.0831C40.9667 82.9631 40.1267 83.6098 39.14 84.0231C38.1533 84.4498 37.0467 84.6631 35.82 84.6631C34.82 84.6631 33.88 84.5098 33 84.2031C32.12 83.8965 31.3267 83.4431 30.62 82.8431C29.9267 82.2565 29.3267 81.5365 28.82 80.6831C28.3133 79.8298 27.9267 78.8631 27.66 77.7831C27.34 78.3165 26.8933 78.7765 26.32 79.1631L15.14 87.2431Z" fill="url(#paint3_linear_1261_789)"/>
<path d="M29.5 117.385C27.3533 117.385 25.38 117.038 23.58 116.345C21.7933 115.665 20.2467 114.698 18.94 113.445C17.6467 112.192 16.64 110.692 15.92 108.945C15.2 107.198 14.84 105.258 14.84 103.125C14.84 101.005 15.2 99.065 15.92 97.305C16.64 95.5583 17.6467 94.0583 18.94 92.805C20.2467 91.565 21.7933 90.5983 23.58 89.905C25.38 89.2117 27.3533 88.865 29.5 88.865C31.6333 88.865 33.6 89.2117 35.4 89.905C37.2 90.5983 38.7467 91.565 40.04 92.805C41.3467 94.0583 42.36 95.5583 43.08 97.305C43.8133 99.065 44.18 101.005 44.18 103.125C44.18 105.258 43.8133 107.198 43.08 108.945C42.36 110.692 41.3467 112.192 40.04 113.445C38.7467 114.698 37.2 115.665 35.4 116.345C33.6 117.038 31.6333 117.385 29.5 117.385ZM29.5 113.025C31.2067 113.025 32.74 112.792 34.1 112.325C35.46 111.858 36.6133 111.192 37.56 110.325C38.5067 109.472 39.2333 108.432 39.74 107.205C40.2467 105.992 40.5 104.632 40.5 103.125C40.5 101.618 40.2467 100.252 39.74 99.025C39.2333 97.8117 38.5067 96.7717 37.56 95.905C36.6133 95.0383 35.46 94.3717 34.1 93.905C32.74 93.4383 31.2067 93.205 29.5 93.205C27.78 93.205 26.24 93.4383 24.88 93.905C23.5333 94.3717 22.3867 95.0383 21.44 95.905C20.4933 96.7717 19.7667 97.8117 19.26 99.025C18.7667 100.252 18.52 101.618 18.52 103.125C18.52 104.632 18.7667 105.992 19.26 107.205C19.7667 108.432 20.4933 109.472 21.44 110.325C22.3867 111.192 23.5333 111.858 24.88 112.325C26.24 112.792 27.78 113.025 29.5 113.025Z" fill="url(#paint4_linear_1261_789)"/>
<path d="M29.5 147.794C27.3533 147.794 25.4 147.448 23.64 146.754C21.88 146.074 20.3667 145.108 19.1 143.854C17.8467 142.601 16.8733 141.101 16.18 139.354C15.4867 137.608 15.14 135.668 15.14 133.534V122.734H43.86V133.534C43.86 135.668 43.5133 137.608 42.82 139.354C42.1267 141.101 41.1467 142.601 39.88 143.854C38.6267 145.108 37.1133 146.074 35.34 146.754C33.58 147.448 31.6333 147.794 29.5 147.794ZM29.5 143.434C31.2067 143.434 32.7333 143.201 34.08 142.734C35.44 142.268 36.5867 141.601 37.52 140.734C38.4667 139.881 39.1867 138.841 39.68 137.614C40.1733 136.401 40.42 135.041 40.42 133.534V127.014H18.58V133.534C18.58 135.041 18.8267 136.401 19.32 137.614C19.8133 138.841 20.5267 139.881 21.46 140.734C22.4067 141.601 23.5533 142.268 24.9 142.734C26.2467 143.201 27.78 143.434 29.5 143.434Z" fill="url(#paint5_linear_1261_789)"/>
<path d="M18.56 164.364C18.56 165.511 18.7533 166.537 19.14 167.444C19.5267 168.351 20.0667 169.117 20.76 169.744C21.4667 170.371 22.3 170.851 23.26 171.184C24.2333 171.517 25.3067 171.684 26.48 171.684H43.86V175.924H26.48C24.8 175.924 23.2467 175.657 21.82 175.124C20.3933 174.591 19.16 173.824 18.12 172.824C17.08 171.824 16.2667 170.611 15.68 169.184C15.0933 167.757 14.8 166.151 14.8 164.364C14.8 162.577 15.0933 160.971 15.68 159.544C16.2667 158.117 17.08 156.904 18.12 155.904C19.16 154.904 20.3933 154.137 21.82 153.604C23.2467 153.071 24.8 152.804 26.48 152.804H43.86V157.064H26.5C25.3267 157.064 24.2533 157.224 23.28 157.544C22.3067 157.877 21.4667 158.357 20.76 158.984C20.0667 159.611 19.5267 160.377 19.14 161.284C18.7533 162.191 18.56 163.217 18.56 164.364Z" fill="url(#paint6_linear_1261_789)"/>
<path d="M19.18 205.016C17.9133 203.936 16.9 202.636 16.14 201.116C15.3933 199.61 14.96 197.816 14.84 195.736L13.72 195.416C13.4533 196.656 13.0867 197.543 12.62 198.076C12.14 198.623 11.54 198.896 10.82 198.896C10.38 198.896 9.98667 198.783 9.64 198.556C9.29333 198.343 9 198.036 8.76 197.636C8.52 197.25 8.33333 196.776 8.2 196.216C8.06667 195.67 8 195.07 8 194.416C8 193.87 8.05333 193.35 8.16 192.856C8.25333 192.376 8.39333 191.923 8.58 191.496L9.8 191.856C10.0533 191.936 10.18 192.103 10.18 192.356C10.18 192.436 10.16 192.53 10.12 192.636C10.0667 192.743 10.02 192.863 9.98 192.996C9.92667 193.143 9.88 193.316 9.84 193.516C9.78667 193.716 9.76 193.95 9.76 194.216C9.76 194.736 9.86667 195.13 10.08 195.396C10.2933 195.676 10.56 195.816 10.88 195.816C11.36 195.816 11.7 195.543 11.9 194.996C12.0867 194.463 12.2467 193.683 12.38 192.656L14.86 193.476C14.9933 191.57 15.4467 189.843 16.22 188.296C16.9933 186.75 18.02 185.43 19.3 184.336C20.58 183.243 22.08 182.396 23.8 181.796C25.5333 181.21 27.4333 180.916 29.5 180.916C31.66 180.916 33.64 181.256 35.44 181.936C37.24 182.63 38.7867 183.596 40.08 184.836C41.3733 186.076 42.38 187.556 43.1 189.276C43.82 191.01 44.18 192.923 44.18 195.016C44.18 197.056 43.8467 198.87 43.18 200.456C42.5133 202.043 41.6267 203.423 40.52 204.596L38.54 203.196C38.3933 203.103 38.2733 202.983 38.18 202.836C38.0867 202.703 38.04 202.523 38.04 202.296C38.04 202.043 38.1667 201.743 38.42 201.396C38.6733 201.063 38.9533 200.616 39.26 200.056C39.58 199.51 39.8667 198.83 40.12 198.016C40.3733 197.203 40.5 196.19 40.5 194.976C40.5 193.55 40.2467 192.243 39.74 191.056C39.2467 189.87 38.5267 188.843 37.58 187.976C36.6467 187.123 35.4933 186.456 34.12 185.976C32.76 185.51 31.22 185.276 29.5 185.276C27.7533 185.276 26.2 185.523 24.84 186.016C23.48 186.51 22.3267 187.19 21.38 188.056C20.4333 188.923 19.7133 189.943 19.22 191.116C18.7267 192.29 18.48 193.556 18.48 194.916C18.48 195.743 18.5267 196.483 18.62 197.136C18.7267 197.803 18.88 198.41 19.08 198.956C19.28 199.516 19.5333 200.043 19.84 200.536C20.16 201.03 20.54 201.516 20.98 201.996C21.0733 202.103 21.1467 202.216 21.2 202.336C21.2667 202.456 21.3 202.583 21.3 202.716C21.3 202.956 21.2067 203.163 21.02 203.336L19.18 205.016Z" fill="url(#paint7_linear_1261_789)"/>
<path d="M25.84 224.557L36.98 220.297C37.74 219.99 38.7 219.684 39.86 219.377C39.2867 219.23 38.7533 219.077 38.26 218.917C37.7667 218.77 37.3267 218.624 36.94 218.477L25.84 214.237V224.557ZM15.14 232.977V229.697C15.14 229.324 15.2333 229.017 15.42 228.777C15.6067 228.537 15.8467 228.364 16.14 228.257L22.8 225.717V213.057L16.14 210.517C15.8867 210.424 15.6533 210.25 15.44 209.997C15.24 209.744 15.14 209.437 15.14 209.077V205.797L43.86 217.237V221.537L15.14 232.977ZM48.6 221.897C48.6 222.204 48.6533 222.47 48.76 222.697C48.88 222.924 49.0333 223.11 49.22 223.257C49.4067 223.417 49.6133 223.537 49.84 223.617C50.08 223.697 50.32 223.737 50.56 223.737V226.117C49.96 226.117 49.3867 226.03 48.84 225.857C48.2933 225.697 47.8067 225.457 47.38 225.137C46.9667 224.817 46.6333 224.424 46.38 223.957C46.1267 223.49 46 222.95 46 222.337C46 221.724 46.1067 221.177 46.32 220.697C46.5333 220.217 46.7667 219.77 47.02 219.357C47.2867 218.957 47.5267 218.577 47.74 218.217C47.9667 217.857 48.08 217.497 48.08 217.137C48.08 216.83 48.02 216.564 47.9 216.337C47.78 216.11 47.62 215.924 47.42 215.777C47.2333 215.63 47.02 215.517 46.78 215.437C46.54 215.357 46.3067 215.317 46.08 215.317V212.897C46.68 212.897 47.2533 212.977 47.8 213.137C48.36 213.31 48.8533 213.557 49.28 213.877C49.7067 214.21 50.0467 214.61 50.3 215.077C50.5533 215.544 50.68 216.077 50.68 216.677C50.68 217.304 50.5667 217.857 50.34 218.337C50.1267 218.817 49.8867 219.257 49.62 219.657C49.3667 220.07 49.1333 220.45 48.92 220.797C48.7067 221.157 48.6 221.524 48.6 221.897Z" fill="url(#paint8_linear_1261_789)"/>
<path d="M29.5 262.541C27.3533 262.541 25.38 262.195 23.58 261.501C21.7933 260.821 20.2467 259.855 18.94 258.601C17.6467 257.348 16.64 255.848 15.92 254.101C15.2 252.355 14.84 250.415 14.84 248.281C14.84 246.161 15.2 244.221 15.92 242.461C16.64 240.715 17.6467 239.215 18.94 237.961C20.2467 236.721 21.7933 235.755 23.58 235.061C25.38 234.368 27.3533 234.021 29.5 234.021C31.6333 234.021 33.6 234.368 35.4 235.061C37.2 235.755 38.7467 236.721 40.04 237.961C41.3467 239.215 42.36 240.715 43.08 242.461C43.8133 244.221 44.18 246.161 44.18 248.281C44.18 250.415 43.8133 252.355 43.08 254.101C42.36 255.848 41.3467 257.348 40.04 258.601C38.7467 259.855 37.2 260.821 35.4 261.501C33.6 262.195 31.6333 262.541 29.5 262.541ZM29.5 258.181C31.2067 258.181 32.74 257.948 34.1 257.481C35.46 257.015 36.6133 256.348 37.56 255.481C38.5067 254.628 39.2333 253.588 39.74 252.361C40.2467 251.148 40.5 249.788 40.5 248.281C40.5 246.775 40.2467 245.408 39.74 244.181C39.2333 242.968 38.5067 241.928 37.56 241.061C36.6133 240.195 35.46 239.528 34.1 239.061C32.74 238.595 31.2067 238.361 29.5 238.361C27.78 238.361 26.24 238.595 24.88 239.061C23.5333 239.528 22.3867 240.195 21.44 241.061C20.4933 241.928 19.7667 242.968 19.26 244.181C18.7667 245.408 18.52 246.775 18.52 248.281C18.52 249.788 18.7667 251.148 19.26 252.361C19.7667 253.588 20.4933 254.628 21.44 255.481C22.3867 256.348 23.5333 257.015 24.88 257.481C26.24 257.948 27.78 258.181 29.5 258.181Z" fill="url(#paint9_linear_1261_789)"/>
</g>
<defs>
<linearGradient id="paint0_linear_1261_789" x1="29.34" y1="262.541" x2="29.34" y2="-1.40593e-06" gradientUnits="userSpaceOnUse">
<stop stop-color="#09090A" stop-opacity="0.5"/>
<stop offset="1" stop-color="#1C1C1F"/>
</linearGradient>
<linearGradient id="paint1_linear_1261_789" x1="29.34" y1="262.541" x2="29.34" y2="-1.40593e-06" gradientUnits="userSpaceOnUse">
<stop stop-color="#09090A" stop-opacity="0.5"/>
<stop offset="1" stop-color="#1C1C1F"/>
</linearGradient>
<linearGradient id="paint2_linear_1261_789" x1="29.34" y1="262.541" x2="29.34" y2="-1.40593e-06" gradientUnits="userSpaceOnUse">
<stop stop-color="#09090A" stop-opacity="0.5"/>
<stop offset="1" stop-color="#1C1C1F"/>
</linearGradient>
<linearGradient id="paint3_linear_1261_789" x1="29.34" y1="262.541" x2="29.34" y2="-1.40593e-06" gradientUnits="userSpaceOnUse">
<stop stop-color="#09090A" stop-opacity="0.5"/>
<stop offset="1" stop-color="#1C1C1F"/>
</linearGradient>
<linearGradient id="paint4_linear_1261_789" x1="29.34" y1="262.541" x2="29.34" y2="-1.40593e-06" gradientUnits="userSpaceOnUse">
<stop stop-color="#09090A" stop-opacity="0.5"/>
<stop offset="1" stop-color="#1C1C1F"/>
</linearGradient>
<linearGradient id="paint5_linear_1261_789" x1="29.34" y1="262.541" x2="29.34" y2="-1.40593e-06" gradientUnits="userSpaceOnUse">
<stop stop-color="#09090A" stop-opacity="0.5"/>
<stop offset="1" stop-color="#1C1C1F"/>
</linearGradient>
<linearGradient id="paint6_linear_1261_789" x1="29.34" y1="262.541" x2="29.34" y2="-1.40593e-06" gradientUnits="userSpaceOnUse">
<stop stop-color="#09090A" stop-opacity="0.5"/>
<stop offset="1" stop-color="#1C1C1F"/>
</linearGradient>
<linearGradient id="paint7_linear_1261_789" x1="29.34" y1="262.541" x2="29.34" y2="-1.40593e-06" gradientUnits="userSpaceOnUse">
<stop stop-color="#09090A" stop-opacity="0.5"/>
<stop offset="1" stop-color="#1C1C1F"/>
</linearGradient>
<linearGradient id="paint8_linear_1261_789" x1="29.34" y1="262.541" x2="29.34" y2="-1.40593e-06" gradientUnits="userSpaceOnUse">
<stop stop-color="#09090A" stop-opacity="0.5"/>
<stop offset="1" stop-color="#1C1C1F"/>
</linearGradient>
<linearGradient id="paint9_linear_1261_789" x1="29.34" y1="262.541" x2="29.34" y2="-1.40593e-06" gradientUnits="userSpaceOnUse">
<stop stop-color="#09090A" stop-opacity="0.5"/>
<stop offset="1" stop-color="#1C1C1F"/>
</linearGradient>
<clipPath id="clip0_1261_789">
<rect width="58" height="262.541" fill="white"/>
</clipPath>
</defs>
</svg>
