<svg width="58" height="192" viewBox="0 0 58 192" fill="none" xmlns="http://www.w3.org/2000/svg">
<g clip-path="url(#clip0_1261_791)">
<path d="M28.26 8.7C28.26 9.78 28.4 10.7267 28.68 11.54C28.96 12.3667 29.3533 13.0533 29.86 13.6C30.38 14.16 30.9933 14.58 31.7 14.86C32.42 15.14 33.2133 15.28 34.08 15.28C35.8267 15.28 37.2 14.7333 38.2 13.64C39.2 12.56 39.7 10.9133 39.7 8.7V4.26H28.26V8.7ZM43.04 8.7C43.04 10.54 42.8267 12.14 42.4 13.5C41.9733 14.86 41.3667 15.9867 40.58 16.88C39.8067 17.7733 38.8667 18.4333 37.76 18.86C36.6533 19.3 35.4267 19.52 34.08 19.52C32.7333 19.52 31.4933 19.2867 30.36 18.82C29.24 18.3533 28.2733 17.6667 27.46 16.76C26.6467 15.8533 26.0133 14.72 25.56 13.36C25.12 12.0133 24.9 10.46 24.9 8.7V4.26H14.32V0H43.04V8.7Z" fill="url(#paint0_linear_1261_791)"/>
<path d="M29.2 32.3587C29.2 33.4521 29.3333 34.4121 29.6 35.2388C29.8667 36.0788 30.24 36.7788 30.72 37.3388C31.2133 37.8988 31.7933 38.3188 32.46 38.5988C33.14 38.8787 33.8867 39.0187 34.7 39.0187C36.3533 39.0187 37.6 38.4721 38.44 37.3787C39.28 36.2987 39.7 34.6721 39.7 32.4987V28.4788H29.2V32.3587ZM14.32 45.7588V41.9588C14.32 41.1988 14.62 40.6454 15.22 40.2988L25.18 33.1987C25.5133 32.9721 25.7467 32.7254 25.88 32.4588C26.0267 32.1921 26.1 31.7921 26.1 31.2588V28.4788H14.32V24.2188H43.04V32.4987C43.04 34.3521 42.8467 35.9454 42.46 37.2788C42.0867 38.6254 41.5467 39.7321 40.84 40.5988C40.1467 41.4788 39.3067 42.1254 38.32 42.5387C37.3333 42.9654 36.2267 43.1787 35 43.1787C34 43.1787 33.06 43.0254 32.18 42.7188C31.3 42.4121 30.5067 41.9587 29.8 41.3587C29.1067 40.7721 28.5067 40.0521 28 39.1987C27.4933 38.3454 27.1067 37.3788 26.84 36.2988C26.52 36.8321 26.0733 37.2921 25.5 37.6787L14.32 45.7588Z" fill="url(#paint1_linear_1261_791)"/>
<path d="M28.68 75.9006C26.5333 75.9006 24.56 75.554 22.76 74.8606C20.9733 74.1806 19.4267 73.214 18.12 71.9606C16.8267 70.7073 15.82 69.2073 15.1 67.4606C14.38 65.714 14.02 63.774 14.02 61.6406C14.02 59.5206 14.38 57.5806 15.1 55.8206C15.82 54.074 16.8267 52.574 18.12 51.3206C19.4267 50.0806 20.9733 49.114 22.76 48.4206C24.56 47.7273 26.5333 47.3806 28.68 47.3806C30.8133 47.3806 32.78 47.7273 34.58 48.4206C36.38 49.114 37.9267 50.0806 39.22 51.3206C40.5267 52.574 41.54 54.074 42.26 55.8206C42.9933 57.5806 43.36 59.5206 43.36 61.6406C43.36 63.774 42.9933 65.714 42.26 67.4606C41.54 69.2073 40.5267 70.7073 39.22 71.9606C37.9267 73.214 36.38 74.1806 34.58 74.8606C32.78 75.554 30.8133 75.9006 28.68 75.9006ZM28.68 71.5406C30.3867 71.5406 31.92 71.3073 33.28 70.8406C34.64 70.374 35.7933 69.7073 36.74 68.8406C37.6867 67.9873 38.4133 66.9473 38.92 65.7206C39.4267 64.5073 39.68 63.1473 39.68 61.6406C39.68 60.134 39.4267 58.7673 38.92 57.5406C38.4133 56.3273 37.6867 55.2873 36.74 54.4206C35.7933 53.554 34.64 52.8873 33.28 52.4206C31.92 51.954 30.3867 51.7206 28.68 51.7206C26.96 51.7206 25.42 51.954 24.06 52.4206C22.7133 52.8873 21.5667 53.554 20.62 54.4206C19.6733 55.2873 18.9467 56.3273 18.44 57.5406C17.9467 58.7673 17.7 60.134 17.7 61.6406C17.7 63.1473 17.9467 64.5073 18.44 65.7206C18.9467 66.9473 19.6733 67.9873 20.62 68.8406C21.5667 69.7073 22.7133 70.374 24.06 70.8406C25.42 71.3073 26.96 71.5406 28.68 71.5406Z" fill="url(#paint2_linear_1261_791)"/>
<path d="M24.32 90.0238C22.72 90.0238 21.28 89.8238 20 89.4238C18.72 89.0238 17.6333 88.4371 16.74 87.6637C15.86 86.9037 15.18 85.9504 14.7 84.8037C14.2333 83.6704 14 82.3638 14 80.8838C14 79.5504 14.1867 78.1771 14.56 76.7637L17.08 77.0038C17.32 77.0304 17.5133 77.1171 17.66 77.2637C17.82 77.4238 17.9 77.6571 17.9 77.9638C17.9 78.1904 17.84 78.4971 17.72 78.8838C17.6133 79.2838 17.56 79.8037 17.56 80.4437C17.56 81.2971 17.6867 82.0504 17.94 82.7038C18.1933 83.3704 18.5867 83.9304 19.12 84.3838C19.6667 84.8371 20.36 85.1771 21.2 85.4037C22.04 85.6437 23.0467 85.7637 24.22 85.7637H43.04V90.0238H24.32Z" fill="url(#paint3_linear_1261_791)"/>
<path d="M17.78 114.656L14.32 114.636V96.8359H43.04V114.636H39.58V101.116H30.48V111.996H27.14V101.116H17.78V114.656Z" fill="url(#paint4_linear_1261_791)"/>
<path d="M39.48 139.502V130.382H14.32V126.142H39.48V116.982H43.04V139.502H39.48Z" fill="url(#paint5_linear_1261_791)"/>
<path d="M28.68 169.182C26.5333 169.182 24.56 168.835 22.76 168.142C20.9733 167.462 19.4267 166.495 18.12 165.242C16.8267 163.989 15.82 162.489 15.1 160.742C14.38 158.995 14.02 157.055 14.02 154.922C14.02 152.802 14.38 150.862 15.1 149.102C15.82 147.355 16.8267 145.855 18.12 144.602C19.4267 143.362 20.9733 142.395 22.76 141.702C24.56 141.009 26.5333 140.662 28.68 140.662C30.8133 140.662 32.78 141.009 34.58 141.702C36.38 142.395 37.9267 143.362 39.22 144.602C40.5267 145.855 41.54 147.355 42.26 149.102C42.9933 150.862 43.36 152.802 43.36 154.922C43.36 157.055 42.9933 158.995 42.26 160.742C41.54 162.489 40.5267 163.989 39.22 165.242C37.9267 166.495 36.38 167.462 34.58 168.142C32.78 168.835 30.8133 169.182 28.68 169.182ZM28.68 164.822C30.3867 164.822 31.92 164.589 33.28 164.122C34.64 163.655 35.7933 162.989 36.74 162.122C37.6867 161.269 38.4133 160.229 38.92 159.002C39.4267 157.789 39.68 156.429 39.68 154.922C39.68 153.415 39.4267 152.049 38.92 150.822C38.4133 149.609 37.6867 148.569 36.74 147.702C35.7933 146.835 34.64 146.169 33.28 145.702C31.92 145.235 30.3867 145.002 28.68 145.002C26.96 145.002 25.42 145.235 24.06 145.702C22.7133 146.169 21.5667 146.835 20.62 147.702C19.6733 148.569 18.9467 149.609 18.44 150.822C17.9467 152.049 17.7 153.415 17.7 154.922C17.7 156.429 17.9467 157.789 18.44 159.002C18.9467 160.229 19.6733 161.269 20.62 162.122C21.5667 162.989 22.7133 163.655 24.06 164.122C25.42 164.589 26.96 164.822 28.68 164.822Z" fill="url(#paint6_linear_1261_791)"/>
<path d="M38.36 189.391C38.1333 189.258 37.9667 189.118 37.86 188.971C37.7533 188.825 37.7 188.638 37.7 188.411C37.7 188.171 37.8067 187.898 38.02 187.591C38.2467 187.285 38.4933 186.898 38.76 186.431C39.04 185.978 39.2867 185.431 39.5 184.791C39.7267 184.151 39.84 183.385 39.84 182.491C39.84 181.651 39.7267 180.911 39.5 180.271C39.2867 179.645 38.9867 179.118 38.6 178.691C38.2267 178.265 37.78 177.938 37.26 177.711C36.7533 177.498 36.2 177.391 35.6 177.391C34.8267 177.391 34.1867 177.585 33.68 177.971C33.1733 178.371 32.74 178.891 32.38 179.531C32.02 180.171 31.7067 180.898 31.44 181.711C31.1733 182.525 30.8933 183.358 30.6 184.211C30.32 185.065 29.9933 185.898 29.62 186.711C29.2467 187.525 28.7733 188.251 28.2 188.891C27.64 189.531 26.9467 190.045 26.12 190.431C25.3067 190.831 24.3067 191.031 23.12 191.031C21.8533 191.031 20.6667 190.811 19.56 190.371C18.4533 189.945 17.4867 189.318 16.66 188.491C15.8333 187.665 15.18 186.645 14.7 185.431C14.2333 184.231 14 182.865 14 181.331C14 180.411 14.0933 179.518 14.28 178.651C14.4533 177.785 14.7 176.965 15.02 176.191C15.3533 175.418 15.7467 174.691 16.2 174.011C16.6667 173.345 17.1867 172.745 17.76 172.211L19.8 173.431C19.96 173.551 20.0933 173.691 20.2 173.851C20.3067 174.025 20.36 174.218 20.36 174.431C20.36 174.711 20.2133 175.031 19.92 175.391C19.6267 175.765 19.3 176.218 18.94 176.751C18.5933 177.298 18.2733 177.945 17.98 178.691C17.6867 179.451 17.54 180.371 17.54 181.451C17.54 182.331 17.6533 183.118 17.88 183.811C18.12 184.505 18.4533 185.085 18.88 185.551C19.32 186.031 19.8467 186.398 20.46 186.651C21.0733 186.905 21.7533 187.031 22.5 187.031C23.34 187.031 24.0267 186.838 24.56 186.451C25.0933 186.065 25.54 185.551 25.9 184.911C26.26 184.271 26.5667 183.545 26.82 182.731C27.0733 181.918 27.3333 181.085 27.6 180.231C27.88 179.378 28.2 178.545 28.56 177.731C28.92 176.918 29.3867 176.191 29.96 175.551C30.5467 174.911 31.2733 174.398 32.14 174.011C33.02 173.625 34.1 173.431 35.38 173.431C36.4067 173.431 37.4 173.631 38.36 174.031C39.32 174.431 40.1667 175.011 40.9 175.771C41.6467 176.545 42.24 177.491 42.68 178.611C43.1333 179.731 43.36 181.011 43.36 182.451C43.36 184.065 43.1 185.545 42.58 186.891C42.0733 188.251 41.34 189.431 40.38 190.431L38.36 189.391Z" fill="url(#paint7_linear_1261_791)"/>
</g>
<defs>
<linearGradient id="paint0_linear_1261_791" x1="28.68" y1="191.031" x2="28.68" y2="-1.02299e-06" gradientUnits="userSpaceOnUse">
<stop stop-color="#09090A" stop-opacity="0.5"/>
<stop offset="1" stop-color="#1C1C1F"/>
</linearGradient>
<linearGradient id="paint1_linear_1261_791" x1="28.68" y1="191.031" x2="28.68" y2="-1.02299e-06" gradientUnits="userSpaceOnUse">
<stop stop-color="#09090A" stop-opacity="0.5"/>
<stop offset="1" stop-color="#1C1C1F"/>
</linearGradient>
<linearGradient id="paint2_linear_1261_791" x1="28.68" y1="191.031" x2="28.68" y2="-1.02299e-06" gradientUnits="userSpaceOnUse">
<stop stop-color="#09090A" stop-opacity="0.5"/>
<stop offset="1" stop-color="#1C1C1F"/>
</linearGradient>
<linearGradient id="paint3_linear_1261_791" x1="28.68" y1="191.031" x2="28.68" y2="-1.02299e-06" gradientUnits="userSpaceOnUse">
<stop stop-color="#09090A" stop-opacity="0.5"/>
<stop offset="1" stop-color="#1C1C1F"/>
</linearGradient>
<linearGradient id="paint4_linear_1261_791" x1="28.68" y1="191.031" x2="28.68" y2="-1.02299e-06" gradientUnits="userSpaceOnUse">
<stop stop-color="#09090A" stop-opacity="0.5"/>
<stop offset="1" stop-color="#1C1C1F"/>
</linearGradient>
<linearGradient id="paint5_linear_1261_791" x1="28.68" y1="191.031" x2="28.68" y2="-1.02299e-06" gradientUnits="userSpaceOnUse">
<stop stop-color="#09090A" stop-opacity="0.5"/>
<stop offset="1" stop-color="#1C1C1F"/>
</linearGradient>
<linearGradient id="paint6_linear_1261_791" x1="28.68" y1="191.031" x2="28.68" y2="-1.02299e-06" gradientUnits="userSpaceOnUse">
<stop stop-color="#09090A" stop-opacity="0.5"/>
<stop offset="1" stop-color="#1C1C1F"/>
</linearGradient>
<linearGradient id="paint7_linear_1261_791" x1="28.68" y1="191.031" x2="28.68" y2="-1.02299e-06" gradientUnits="userSpaceOnUse">
<stop stop-color="#09090A" stop-opacity="0.5"/>
<stop offset="1" stop-color="#1C1C1F"/>
</linearGradient>
<clipPath id="clip0_1261_791">
<rect width="58" height="191.031" fill="white"/>
</clipPath>
</defs>
</svg>
