<svg width="96" height="24" viewBox="0 0 96 24" fill="none" xmlns="http://www.w3.org/2000/svg">
<g clip-path="url(#clip0_508_289)">
<path d="M-0.000244141 4.25049C0.00759345 4.11256 0.0607203 3.98119 0.150742 3.87718C0.195625 3.82295 0.252203 3.77981 0.316139 3.75108C0.380074 3.72235 0.44967 3.70878 0.519597 3.71142H4.12058C4.24192 3.71142 4.36878 3.76296 4.49771 3.86395C4.55799 3.90824 4.60694 3.96641 4.64052 4.03363C4.67409 4.10086 4.69131 4.1752 4.69076 4.25049V10.0564H10.7165V4.25049C10.716 4.17847 10.7299 4.10708 10.7574 4.04062C10.7849 3.97415 10.8253 3.91397 10.8764 3.8637C10.9275 3.81342 10.988 3.77408 11.0545 3.74803C11.121 3.72198 11.192 3.70977 11.2633 3.71211H14.8146C14.9766 3.71211 15.1166 3.75251 15.2379 3.834C15.3593 3.91549 15.4206 4.04642 15.4206 4.22542V21.3603C15.4206 21.54 15.3668 21.6737 15.262 21.7629C15.1573 21.8527 15.0194 21.8987 14.8498 21.8987H11.2626C11.1186 21.9044 10.9776 21.856 10.8668 21.7629C10.7669 21.673 10.7158 21.54 10.7158 21.3603V14.4038H4.69144V21.3603C4.69144 21.5316 4.63767 21.6654 4.52736 21.7573C4.41911 21.8527 4.27157 21.8987 4.08542 21.8987H0.519597C0.180389 21.8987 0.00802923 21.7385 -0.000244141 21.4202V4.25049ZM33.1691 21.6897C33.0735 21.7742 32.9586 21.8331 32.8347 21.8611C32.725 21.8849 32.6132 21.8975 32.501 21.8987H30.6698C30.5243 21.8987 30.4002 21.8715 30.2954 21.82C30.1927 21.768 30.1018 21.6949 30.0286 21.6055C29.9535 21.512 29.8918 21.4084 29.8452 21.2976C29.7964 21.1828 29.7558 21.0645 29.7239 20.9438L29.3495 19.3767C29.2289 19.6302 29.051 19.9158 28.8221 20.2397C28.5718 20.5807 28.2762 20.8854 27.9437 21.1451C27.5568 21.4448 27.1276 21.6843 26.6703 21.8555C26.1774 22.0484 25.612 22.1438 24.9736 22.1438C24.0525 22.1438 23.2155 21.9641 22.464 21.6055C21.7275 21.2579 21.0721 20.7571 20.5405 20.1359C20.013 19.516 19.6028 18.7896 19.3125 17.9629C19.0178 17.1101 18.8702 16.2125 18.8761 15.3093V7.28925C18.8761 6.97932 18.9409 6.74251 19.0761 6.58441C19.2071 6.42422 19.4208 6.34482 19.7111 6.34482H22.5123C22.8591 6.34482 23.0962 6.40472 23.2286 6.52173C23.3575 6.64152 23.4216 6.86997 23.4216 7.21542V15.1874C23.4216 15.5384 23.5003 15.8699 23.6561 16.1854C23.9758 16.8185 24.5088 17.3155 25.1591 17.5868C25.4879 17.726 25.8216 17.7957 26.1615 17.7957C26.4518 17.7957 26.7538 17.726 27.0633 17.5868C27.3756 17.4475 27.6611 17.2629 27.9251 17.0317C28.1864 16.7976 28.4043 16.5232 28.5746 16.2098C28.7442 15.8943 28.8276 15.5621 28.8276 15.2117V7.25094C28.8276 7.11234 28.8545 6.97374 28.9055 6.83514C28.9508 6.70723 29.0335 6.59623 29.1427 6.51685C29.2475 6.45138 29.3475 6.40541 29.4392 6.38034C29.5329 6.35596 29.6405 6.34551 29.7618 6.34551H32.501C32.8485 6.34551 33.0987 6.42909 33.2525 6.60112C33.4055 6.77246 33.4841 7.00369 33.4841 7.28925V20.9932C33.4841 21.1479 33.449 21.2893 33.3786 21.4202C33.3148 21.5473 33.2169 21.6538 33.096 21.7273L33.1691 21.6897ZM47.2434 20.0001C47.0249 20.2202 46.7829 20.457 46.5216 20.7105C46.2575 20.9633 45.9693 21.2001 45.6543 21.4202C45.3392 21.6403 44.9993 21.8228 44.6359 21.9669C44.26 22.1106 43.861 22.1827 43.4591 22.1794C42.3608 22.1794 41.348 21.9725 40.4241 21.556C39.5213 21.1561 38.7085 20.5749 38.0352 19.8475C37.3671 19.1239 36.8479 18.2721 36.4701 17.2928C36.0964 16.3136 35.9075 15.2605 35.9075 14.1343C35.9075 12.9997 36.0964 11.9438 36.4708 10.9674C36.8473 9.99369 37.3671 9.14468 38.0359 8.42103C38.7078 7.6938 39.5207 7.11412 40.4241 6.71813C41.348 6.30721 42.3608 6.10035 43.4591 6.10035C43.8739 6.09541 44.2865 6.16158 44.6794 6.29606C45.0337 6.41982 45.3711 6.58806 45.6839 6.79684C45.9879 7.00369 46.2658 7.23214 46.5216 7.49053C46.7746 7.74614 47.0173 7.99897 47.2434 8.24413V2.6444C47.2434 2.38392 47.3213 2.16383 47.4778 1.98414C47.6364 1.80445 47.8736 1.7146 48.188 1.7146H50.9168C51.0216 1.7146 51.1319 1.73898 51.2477 1.78285C51.3663 1.82882 51.4739 1.89151 51.5711 1.97299C51.6676 2.05448 51.7462 2.15269 51.8055 2.26691C51.8676 2.38113 51.8972 2.5065 51.8972 2.6451V20.9549C51.8972 21.5832 51.5711 21.8987 50.9168 21.8987H48.5382C48.3769 21.8987 48.2528 21.8778 48.1645 21.836C48.0763 21.7973 47.9992 21.7367 47.9405 21.6598C47.8717 21.5706 47.8164 21.4715 47.7764 21.3659C47.7281 21.2489 47.6661 21.1103 47.593 20.9549L47.2434 20.0001ZM40.2704 14.1343C40.2704 14.6727 40.3538 15.1762 40.5213 15.647C40.6749 16.0968 40.9156 16.5112 41.2294 16.8659C41.5362 17.2086 41.905 17.4809 42.3394 17.6794C42.7696 17.8807 43.2495 17.9789 43.7741 17.9789C44.2912 17.9789 44.7787 17.8862 45.2365 17.6982C45.6915 17.5101 46.0907 17.2524 46.4292 16.9202C46.7712 16.5845 47.0489 16.1878 47.2483 15.7501C47.4547 15.2957 47.5718 14.8051 47.593 14.3056V14.1343C47.593 13.6119 47.4965 13.1139 47.3027 12.6403C47.1146 12.1765 46.8413 11.7528 46.4974 11.3915C46.1519 11.0311 45.7402 10.7421 45.2854 10.5404C44.8093 10.329 44.2942 10.2222 43.7741 10.227C43.2495 10.227 42.7696 10.3315 42.3387 10.5404C41.9136 10.7421 41.5355 11.0324 41.2294 11.3922C40.9174 11.7593 40.6772 12.1828 40.5213 12.6403C40.3531 13.12 40.2682 13.6254 40.2704 14.1343ZM65.9716 20.0001C65.753 20.2202 65.5138 20.457 65.2497 20.7105C64.9877 20.9633 64.7002 21.2001 64.3851 21.4202C64.0701 21.6403 63.7302 21.8228 63.3648 21.9669C62.9896 22.1107 62.5912 22.1828 62.19 22.1794C61.0917 22.1794 60.0789 21.9725 59.1523 21.556C58.2509 21.1553 57.4394 20.5741 56.7668 19.8475C56.098 19.1239 55.5761 18.2721 55.2017 17.2928C54.8246 16.3136 54.6384 15.2605 54.6384 14.1343C54.6384 12.9997 54.8246 11.9438 55.2017 10.9674C55.5571 10.0251 56.0884 9.16069 56.7668 8.42103C57.4382 7.69447 58.2501 7.11487 59.1523 6.71813C60.0789 6.30721 61.0917 6.10035 62.19 6.10035C62.6347 6.10035 63.0414 6.16582 63.4075 6.29606C63.7624 6.41986 64.1006 6.5881 64.4141 6.79684C64.7161 7.00369 64.9967 7.23214 65.2497 7.49053C65.5048 7.74614 65.7454 7.99897 65.9716 8.24413V2.6444C65.9716 2.38392 66.0522 2.16383 66.2081 1.98414C66.3666 1.80445 66.601 1.7146 66.9168 1.7146H69.6449C69.7497 1.7146 69.8601 1.73898 69.9786 1.78285C70.0945 1.82882 70.202 1.89151 70.2992 1.97299C70.3958 2.05448 70.4771 2.15269 70.5364 2.26691C70.5984 2.38113 70.6281 2.5065 70.6281 2.6451V20.9549C70.6281 21.5832 70.2992 21.8987 69.6449 21.8987H67.2691C67.1078 21.8987 66.9816 21.8778 66.8927 21.836C66.8049 21.7966 66.728 21.7361 66.6686 21.6598C66.6008 21.5699 66.5456 21.471 66.5045 21.3659C66.4563 21.2489 66.397 21.1103 66.3239 20.9549L65.9716 20.0001ZM59.0013 14.1343C59.0013 14.6727 59.0847 15.1762 59.2495 15.647C59.4048 16.0964 59.6461 16.5106 59.9596 16.8659C60.2671 17.2086 60.6359 17.4809 61.0668 17.6794C61.5012 17.8807 61.9804 17.9789 62.505 17.9789C63.0053 17.9826 63.5014 17.8873 63.9653 17.6982C64.4099 17.5195 64.8159 17.2553 65.1608 16.9202C65.5026 16.5844 65.78 16.1877 65.9792 15.7501C66.1856 15.2957 66.3027 14.8051 66.3239 14.3056V14.1343C66.3243 13.1105 65.9301 12.1268 65.2249 11.3915C64.8806 11.03 64.4689 10.7408 64.0135 10.5404C63.5385 10.3288 63.0242 10.2219 62.505 10.227C61.9804 10.227 61.5005 10.3315 61.0668 10.5404C60.643 10.7429 60.266 11.0331 59.9603 11.3922C59.6484 11.7599 59.4073 12.1832 59.2495 12.6403C59.0834 13.1205 58.9995 13.6257 59.0013 14.1343ZM73.852 2.65833C73.852 2.39715 73.9161 2.17706 74.045 1.99737C74.1746 1.81768 74.398 1.72853 74.7138 1.72853H77.6839C77.7646 1.72853 77.848 1.74942 77.9369 1.79609C78.0266 1.83997 78.1093 1.90195 78.1851 1.98414C78.263 2.06563 78.3279 2.16383 78.3782 2.27805C78.4326 2.39228 78.4595 2.51973 78.4595 2.65833V20.9549C78.4595 21.2649 78.3706 21.5017 78.1982 21.6598C78.0231 21.82 77.7997 21.8987 77.5253 21.8987H74.7131C74.398 21.8987 74.1753 21.82 74.0457 21.6598C73.9161 21.5017 73.8513 21.2649 73.8513 20.9549L73.852 2.65833ZM94.2658 20.0384C93.5634 20.6942 92.751 21.2183 91.8665 21.586C90.9771 21.9586 90.0347 22.1438 89.0412 22.1438C87.9339 22.1438 86.8894 21.9398 85.9035 21.5316C84.9385 21.1388 84.0571 20.5626 83.307 19.8343C82.5598 19.107 81.959 18.2404 81.5379 17.2824C81.1015 16.3024 80.8829 15.2361 80.8829 14.0855C80.8829 13.3668 80.9698 12.6703 81.1449 11.9961C81.3173 11.324 81.5648 10.693 81.8826 10.1051C82.2029 9.5176 82.5936 8.9721 83.0457 8.48093C83.9644 7.48999 85.1316 6.76891 86.4233 6.39427C87.0852 6.19786 87.7857 6.10035 88.5213 6.10035C89.1915 6.10035 89.8409 6.1902 90.4738 6.36989C91.7172 6.72172 92.8515 7.38731 93.7701 8.30403C94.2251 8.75389 94.624 9.25815 94.958 9.80564C95.2889 10.3468 95.5447 10.927 95.7281 11.5441C95.9087 12.1591 95.9998 12.7956 95.9998 13.4489C95.9998 13.8731 95.9949 14.2186 95.9811 14.4881C95.9701 14.7576 95.9088 14.9722 95.795 15.133C95.6819 15.2904 95.4937 15.4019 95.2296 15.4618C94.9683 15.5245 94.5809 15.5544 94.0714 15.5544H85.343C85.4243 16.0768 85.5884 16.5149 85.8359 16.8659C86.0814 17.2169 86.3668 17.4969 86.6895 17.7038C87.0135 17.9127 87.3582 18.0604 87.7216 18.1495C88.0578 18.2364 88.4032 18.2822 88.7502 18.286C89.0412 18.286 89.3397 18.2561 89.6465 18.1934C89.9494 18.135 90.2474 18.0533 90.5379 17.9489C90.8106 17.854 91.0747 17.7356 91.3274 17.5951C91.5645 17.4586 91.7583 17.3172 91.9037 17.1703C92.0327 17.0644 92.1437 16.9857 92.2347 16.9334C92.3255 16.88 92.4288 16.8518 92.5339 16.852C92.6387 16.852 92.7469 16.8903 92.8545 16.9634C92.9648 17.0372 93.0862 17.1431 93.2234 17.2824L94.5078 18.7513C94.5974 18.8571 94.6533 18.9526 94.6774 19.0396C94.7022 19.1239 94.7153 19.2137 94.7153 19.3036C94.7183 19.4553 94.6709 19.6036 94.5809 19.725C94.4912 19.842 94.3871 19.9478 94.2658 20.0384ZM88.4351 9.83559C88.1201 9.83559 87.8153 9.89827 87.5196 10.0264C87.2259 10.1518 86.948 10.3196 86.6895 10.5321C86.4306 10.7459 86.1967 10.9889 85.9924 11.2564C85.7961 11.5112 85.6274 11.7865 85.4891 12.0776H91.6859C91.5226 11.7709 91.3381 11.4762 91.1336 11.1958C90.9383 10.93 90.7101 10.6905 90.4545 10.4833C90.1924 10.2761 89.8975 10.1151 89.5824 10.0069C89.2535 9.8927 88.8716 9.83559 88.4351 9.83559Z" fill="#EAF1FF"/>
</g>
<defs>
<clipPath id="clip0_508_289">
<rect width="96" height="24" fill="white" transform="translate(-0.000244141 0.000366211)"/>
</clipPath>
</defs>
</svg>
