<svg width="102" height="24" viewBox="0 0 102 24" fill="none" xmlns="http://www.w3.org/2000/svg">
<g clip-path="url(#clip0_508_276)">
<path d="M3.8493 9.55186C4.34424 8.81861 5.0225 8.22285 5.88406 7.76457C6.76396 7.30629 7.76301 7.07715 8.88121 7.07715C10.1827 7.07715 11.3559 7.39795 12.4008 8.03954C13.464 8.68113 14.2981 9.59769 14.903 10.7892C15.5263 11.9624 15.8379 13.3281 15.8379 14.8862C15.8379 16.4444 15.5263 17.8284 14.903 19.0382C14.2981 20.2298 13.464 21.1555 12.4008 21.8154C11.3559 22.4753 10.1827 22.8053 8.88121 22.8053C7.74468 22.8053 6.74563 22.5853 5.88406 22.1454C5.04083 21.6871 4.36258 21.1005 3.8493 20.3856V22.5578H-0.000244141V2.21022H3.8493V9.55186ZM11.9059 14.8862C11.9059 13.9697 11.7134 13.1814 11.3284 12.5215C10.9618 11.8433 10.4669 11.33 9.8436 10.9817C9.24203 10.6342 8.55851 10.4539 7.86383 10.4593C7.16724 10.4593 6.50732 10.6426 5.88406 11.0092C5.27913 11.3575 4.78419 11.8708 4.39924 12.549C4.03261 13.2273 3.8493 14.0247 3.8493 14.9412C3.8493 15.8578 4.03261 16.6552 4.39924 17.3334C4.78419 18.0117 5.27913 18.5341 5.88406 18.9008C6.50732 19.2491 7.16724 19.4232 7.86383 19.4232C8.57874 19.4232 9.23867 19.2399 9.8436 18.8733C10.4669 18.5066 10.9618 17.9842 11.3284 17.3059C11.7134 16.6277 11.9059 15.8211 11.9059 14.8862ZM20.5872 5.50983C19.9089 5.50983 19.3407 5.29903 18.8824 4.87741C18.4424 4.43746 18.2225 3.89669 18.2225 3.2551C18.2225 2.61351 18.4424 2.08191 18.8824 1.66029C19.3407 1.22034 19.9089 1.00037 20.5872 1.00037C21.2654 1.00037 21.8245 1.22034 22.2645 1.66029C22.7228 2.08191 22.9519 2.61351 22.9519 3.2551C22.9519 3.89669 22.7228 4.43746 22.2645 4.87741C21.8245 5.29903 21.2654 5.50983 20.5872 5.50983ZM22.4845 7.32462V22.5578H18.6349V7.32462H22.4845ZM35.3071 22.5578L30.1377 16.0686V22.5578H26.2882V2.21022H30.1377V13.7864L35.2521 7.32462H40.2565L33.5473 14.9687L40.3115 22.5578H35.3071ZM40.5919 14.9412C40.5919 13.3647 40.9126 11.9899 41.5542 10.8167C42.1958 9.62518 43.0849 8.70862 44.2214 8.06703C45.358 7.40711 46.6595 7.07715 48.126 7.07715C50.0141 7.07715 51.5722 7.55376 52.8004 8.50698C54.0469 9.44187 54.881 10.7617 55.3026 12.4665H51.1514C50.9314 11.8066 50.5556 11.2933 50.024 10.9267C49.5107 10.5417 48.8691 10.3493 48.0992 10.3493C46.9994 10.3493 46.1286 10.7526 45.487 11.5591C44.8454 12.3474 44.5247 13.4747 44.5247 14.9412C44.5247 16.3894 44.8454 17.5168 45.487 18.3233C46.1286 19.1116 46.9994 19.5057 48.0992 19.5057C49.6574 19.5057 50.6748 18.8091 51.1514 17.4159H55.3034C54.8818 19.0657 54.0477 20.3764 52.8012 21.348C51.5547 22.3195 49.9965 22.8053 48.1267 22.8053C46.6602 22.8053 45.3587 22.4845 44.2222 21.8429C43.0947 21.1923 42.171 20.2401 41.555 19.0932C40.9134 17.9017 40.5926 16.5177 40.5926 14.9412H40.5919ZM61.2091 9.68934C61.6811 8.9053 62.3431 8.25279 63.1338 7.79207C63.9404 7.33379 64.857 7.10465 65.8835 7.10465V11.1467H64.8661C63.6563 11.1467 62.7397 11.4308 62.1165 11.9991C61.5115 12.5673 61.2091 13.5572 61.2091 14.9687V22.5578H57.3595V7.32462H61.2091V9.68934ZM77.6873 20.3856C77.2657 21.0822 76.5782 21.6688 75.625 22.1454C74.6718 22.6037 73.6453 22.8328 72.5454 22.8328C71.5922 22.8328 70.7306 22.6403 69.9607 22.2554C69.1908 21.8704 68.5858 21.3388 68.1459 20.6605C67.7059 19.9823 67.486 19.2032 67.486 18.3233C67.486 16.9118 68.0084 15.757 69.0533 14.8587C70.1165 13.9605 71.7021 13.5114 73.8102 13.5114H77.6873C77.6506 12.5398 77.3665 11.7699 76.8349 11.2017C76.3216 10.6151 75.6067 10.3218 74.6901 10.3218C73.8836 10.3218 73.2145 10.5417 72.6829 10.9817C72.1513 11.4033 71.8121 11.9991 71.6655 12.769H67.8159C67.9993 11.6691 68.3934 10.6884 68.9983 9.82683C69.6161 8.95151 70.4497 8.25057 71.418 7.79207C72.4262 7.29712 73.5536 7.04965 74.8001 7.04965C76.0833 7.04965 77.2382 7.31546 78.2647 7.84706C79.2844 8.35491 80.1345 9.14773 80.7119 10.1293C81.2985 11.1192 81.5918 12.2832 81.5918 13.6214V22.5578H77.6873V20.3856ZM73.6727 19.7257C74.3143 19.7257 74.9376 19.5882 75.5425 19.3132C76.1658 19.0382 76.6791 18.6258 77.0823 18.0759C77.4856 17.5259 77.6873 16.8752 77.6873 16.1236V16.0136H74.0302C73.1503 16.0136 72.4904 16.1877 72.0504 16.536C71.6288 16.8843 71.418 17.3426 71.418 17.9109C71.418 18.4608 71.6105 18.9008 71.9954 19.2307C72.3987 19.5607 72.9578 19.7257 73.6727 19.7257ZM89.7102 10.4867V22.5578H85.8057V10.4867H84.0734V7.32462H85.8057V6.55471C85.8057 4.68493 86.3373 3.31009 87.4005 2.4302C88.4637 1.5503 90.0677 1.13785 92.2124 1.19284V4.43746C91.2775 4.41913 90.6268 4.57494 90.2602 4.90491C89.8935 5.23487 89.7102 5.83063 89.7102 6.6922V7.32462H94.7131V3.55756H98.5902V7.32462H102V10.4867H98.5902V17.8559C98.5902 18.3692 98.7093 18.7449 98.9476 18.9832C99.2043 19.2032 99.6259 19.3132 100.212 19.3132H102V22.5578H99.58C96.3354 22.5578 94.7131 20.9813 94.7131 17.8284V10.4867H89.7102Z" fill="#F5F5FF"/>
</g>
<defs>
<clipPath id="clip0_508_276">
<rect width="102" height="24" fill="white" transform="translate(-0.000244141 0.000366211)"/>
</clipPath>
</defs>
</svg>
