<svg width="120" height="10" viewBox="0 0 120 10" fill="none" xmlns="http://www.w3.org/2000/svg">
<path d="M6.16133 2.98774C6.16133 3.80121 5.89688 4.47909 5.36799 5.0214C4.84792 5.55436 4.05017 5.82084 2.97476 5.82084H1.20298V9.90219H-0.000244141V0.126593H2.97476C4.01491 0.126593 4.80384 0.393073 5.34155 0.926032C5.88807 1.45899 6.16133 2.14623 6.16133 2.98774ZM2.97476 4.76895C3.64469 4.76895 4.13832 4.61467 4.45566 4.30612C4.77299 3.99756 4.93166 3.5581 4.93166 2.98774C4.93166 1.78157 4.27936 1.17849 2.97476 1.17849H1.20298V4.76895H2.97476Z" fill="#F5F5FF"/>
<path d="M12.1656 8.86432H15.3918V9.90219H10.9623V0.126593H12.1656V8.86432Z" fill="#F5F5FF"/>
<path d="M25.4227 7.72828H21.4032L20.6627 9.90219H19.3934L22.7254 0.182695H24.1137L27.4325 9.90219H26.1632L25.4227 7.72828ZM25.079 6.69041L23.413 1.75352L21.747 6.69041H25.079Z" fill="#F5F5FF"/>
<path d="M31.7407 5.00738C31.7407 4.05366 31.9434 3.19812 32.3489 2.44076C32.7544 1.67405 33.3053 1.07563 34.0017 0.645527C34.7069 0.21542 35.487 0.000366211 36.342 0.000366211C37.3469 0.000366211 38.224 0.257496 38.9733 0.771755C39.7225 1.28601 40.2691 2.01533 40.6128 2.95969H39.1716C38.916 2.37063 38.5458 1.91715 38.0609 1.59924C37.5849 1.28134 37.012 1.12239 36.342 1.12239C35.6986 1.12239 35.1212 1.28134 34.6099 1.59924C34.0987 1.91715 33.6976 2.37063 33.4067 2.95969C33.1158 3.5394 32.9704 4.22196 32.9704 5.00738C32.9704 5.78344 33.1158 6.466 33.4067 7.05506C33.6976 7.63477 34.0987 8.08358 34.6099 8.40149C35.1212 8.71939 35.6986 8.87835 36.342 8.87835C37.012 8.87835 37.5849 8.72407 38.0609 8.41551C38.5458 8.09761 38.916 7.64412 39.1716 7.05506H40.6128C40.2691 7.99008 39.7225 8.71472 38.9733 9.22898C38.224 9.73389 37.3469 9.98634 36.342 9.98634C35.487 9.98634 34.7069 9.77596 34.0017 9.3552C33.3053 8.9251 32.7544 8.33136 32.3489 7.574C31.9434 6.81664 31.7407 5.9611 31.7407 5.00738Z" fill="#F5F5FF"/>
<path d="M46.9127 1.16446V4.43234H50.2712V5.48424H46.9127V8.8503H50.6678V9.90219H45.7095V0.112568H50.6678V1.16446H46.9127Z" fill="#F5F5FF"/>
<path d="M62.8944 0.126593V9.90219H61.6912V5.47021H56.9973V9.90219H55.794V0.126593H56.9973V4.41832H61.6912V0.126593H62.8944Z" fill="#F5F5FF"/>
<path d="M72.4327 10.0004C71.5777 10.0004 70.7976 9.78999 70.0924 9.36923C69.3872 8.93912 68.8274 8.34539 68.4131 7.58802C68.0077 6.82131 67.8049 5.9611 67.8049 5.00738C67.8049 4.05366 68.0077 3.19812 68.4131 2.44076C68.8274 1.67405 69.3872 1.08031 70.0924 0.659553C70.7976 0.229445 71.5777 0.0143913 72.4327 0.0143913C73.2966 0.0143913 74.0811 0.229445 74.7863 0.659553C75.4915 1.08031 76.0468 1.66937 76.4523 2.42673C76.8578 3.1841 77.0605 4.04431 77.0605 5.00738C77.0605 5.97045 76.8578 6.83066 76.4523 7.58802C76.0468 8.34539 75.4915 8.93912 74.7863 9.36923C74.0811 9.78999 73.2966 10.0004 72.4327 10.0004ZM72.4327 8.89237C73.0762 8.89237 73.6536 8.73342 74.1648 8.41551C74.6849 8.09761 75.0904 7.64412 75.3813 7.05506C75.681 6.466 75.8308 5.78344 75.8308 5.00738C75.8308 4.22196 75.681 3.5394 75.3813 2.95969C75.0904 2.37063 74.6893 1.91715 74.178 1.59924C73.6668 1.28134 73.085 1.12239 72.4327 1.12239C71.7804 1.12239 71.1986 1.28134 70.6874 1.59924C70.1761 1.91715 69.7706 2.37063 69.4709 2.95969C69.18 3.5394 69.0346 4.22196 69.0346 5.00738C69.0346 5.78344 69.18 6.466 69.4709 7.05506C69.7706 7.64412 70.1761 8.09761 70.6874 8.41551C71.2074 8.73342 71.7892 8.89237 72.4327 8.89237Z" fill="#F5F5FF"/>
<path d="M83.1577 8.86432H86.3839V9.90219H81.9545V0.126593H83.1577V8.86432Z" fill="#F5F5FF"/>
<path d="M93.8365 0.126593C94.8414 0.126593 95.7097 0.327622 96.4413 0.729679C97.1818 1.12239 97.7459 1.68807 98.1338 2.42673C98.5304 3.1654 98.7288 4.03496 98.7288 5.03543C98.7288 6.0359 98.5304 6.90546 98.1338 7.64412C97.7459 8.37344 97.1818 8.93445 96.4413 9.32715C95.7097 9.71051 94.8414 9.90219 93.8365 9.90219H90.9673V0.126593H93.8365ZM93.8365 8.8503C95.0265 8.8503 95.9345 8.51836 96.5603 7.8545C97.1862 7.18129 97.4991 6.2416 97.4991 5.03543C97.4991 3.81991 97.1818 2.87087 96.5471 2.1883C95.9212 1.50574 95.0177 1.16446 93.8365 1.16446H92.1705V8.8503H93.8365Z" fill="#F5F5FF"/>
<path d="M104.825 1.16446V4.43234H108.183V5.48424H104.825V8.8503H108.58V9.90219H103.621V0.112568H108.58V1.16446H104.825Z" fill="#F5F5FF"/>
<path d="M118.559 9.90219L116.364 5.90499H114.909V9.90219H113.706V0.126593H116.681C117.377 0.126593 117.964 0.252821 118.44 0.505275C118.924 0.75773 119.286 1.09901 119.524 1.52912C119.762 1.95923 119.881 2.45011 119.881 3.00177C119.881 3.67498 119.696 4.26872 119.325 4.78297C118.964 5.29723 118.417 5.63851 117.686 5.80682L120 9.90219H118.559ZM114.909 4.88115H116.681C117.333 4.88115 117.822 4.71285 118.149 4.37624C118.475 4.03029 118.638 3.57213 118.638 3.00177C118.638 2.42206 118.475 1.97325 118.149 1.65535C117.831 1.33744 117.342 1.17849 116.681 1.17849H114.909V4.88115Z" fill="#F5F5FF"/>
</svg>
