<svg width="25" height="24" viewBox="0 0 25 24" fill="none" xmlns="http://www.w3.org/2000/svg">
<mask id="mask0_981_375" style="mask-type:alpha" maskUnits="userSpaceOnUse" x="0" y="0" width="25" height="24">
<rect x="0.5" width="24" height="24" fill="#D9D9D9"/>
</mask>
<g mask="url(#mask0_981_375)">
<path d="M18.5 14V11H15.5V9H18.5V6H20.5V9H23.5V11H20.5V14H18.5ZM9.5 12C8.4 12 7.45833 11.6083 6.675 10.825C5.89167 10.0417 5.5 9.1 5.5 8C5.5 6.9 5.89167 5.95833 6.675 5.175C7.45833 4.39167 8.4 4 9.5 4C10.6 4 11.5417 4.39167 12.325 5.175C13.1083 5.95833 13.5 6.9 13.5 8C13.5 9.1 13.1083 10.0417 12.325 10.825C11.5417 11.6083 10.6 12 9.5 12ZM1.5 20V17.2C1.5 16.6333 1.646 16.1123 1.938 15.637C2.22933 15.1623 2.61667 14.8 3.1 14.55C4.13333 14.0333 5.18333 13.6457 6.25 13.387C7.31667 13.129 8.4 13 9.5 13C10.6 13 11.6833 13.129 12.75 13.387C13.8167 13.6457 14.8667 14.0333 15.9 14.55C16.3833 14.8 16.7707 15.1623 17.062 15.637C17.354 16.1123 17.5 16.6333 17.5 17.2V20H1.5ZM3.5 18H15.5V17.2C15.5 17.0167 15.4543 16.85 15.363 16.7C15.271 16.55 15.15 16.4333 15 16.35C14.1 15.9 13.1917 15.5623 12.275 15.337C11.3583 15.1123 10.4333 15 9.5 15C8.56667 15 7.64167 15.1123 6.725 15.337C5.80833 15.5623 4.9 15.9 4 16.35C3.85 16.4333 3.72933 16.55 3.638 16.7C3.546 16.85 3.5 17.0167 3.5 17.2V18ZM9.5 10C10.05 10 10.521 9.804 10.913 9.412C11.3043 9.02067 11.5 8.55 11.5 8C11.5 7.45 11.3043 6.97933 10.913 6.588C10.521 6.196 10.05 6 9.5 6C8.95 6 8.47933 6.196 8.088 6.588C7.696 6.97933 7.5 7.45 7.5 8C7.5 8.55 7.696 9.02067 8.088 9.412C8.47933 9.804 8.95 10 9.5 10Z" fill="url(#paint0_linear_981_375)"/>
</g>
<defs>
<linearGradient id="paint0_linear_981_375" x1="12.5269" y1="4" x2="12.5269" y2="20" gradientUnits="userSpaceOnUse">
<stop stop-color="#6379AC"/>
<stop offset="1" stop-color="#4B4996"/>
</linearGradient>
</defs>
</svg>
