<svg width="25" height="24" viewBox="0 0 25 24" fill="none" xmlns="http://www.w3.org/2000/svg">
<mask id="mask0_1252_736" style="mask-type:alpha" maskUnits="userSpaceOnUse" x="0" y="0" width="25" height="24">
<rect x="0.5" width="24" height="24" fill="#D9D9D9"/>
</mask>
<g mask="url(#mask0_1252_736)">
<path d="M19.5 14C19.2167 14 18.9793 13.904 18.788 13.712C18.596 13.5207 18.5 13.2833 18.5 13V11H16.5C16.2167 11 15.9793 10.904 15.788 10.712C15.596 10.5207 15.5 10.2833 15.5 10C15.5 9.71667 15.596 9.479 15.788 9.287C15.9793 9.09567 16.2167 9 16.5 9H18.5V7C18.5 6.71667 18.596 6.479 18.788 6.287C18.9793 6.09567 19.2167 6 19.5 6C19.7833 6 20.0207 6.09567 20.212 6.287C20.404 6.479 20.5 6.71667 20.5 7V9H22.5C22.7833 9 23.0207 9.09567 23.212 9.287C23.404 9.479 23.5 9.71667 23.5 10C23.5 10.2833 23.404 10.5207 23.212 10.712C23.0207 10.904 22.7833 11 22.5 11H20.5V13C20.5 13.2833 20.404 13.5207 20.212 13.712C20.0207 13.904 19.7833 14 19.5 14ZM9.5 12C8.4 12 7.45833 11.6083 6.675 10.825C5.89167 10.0417 5.5 9.1 5.5 8C5.5 6.9 5.89167 5.95833 6.675 5.175C7.45833 4.39167 8.4 4 9.5 4C10.6 4 11.5417 4.39167 12.325 5.175C13.1083 5.95833 13.5 6.9 13.5 8C13.5 9.1 13.1083 10.0417 12.325 10.825C11.5417 11.6083 10.6 12 9.5 12ZM2.5 20C2.21667 20 1.97933 19.904 1.788 19.712C1.596 19.5207 1.5 19.2833 1.5 19V17.2C1.5 16.6333 1.646 16.1123 1.938 15.637C2.22933 15.1623 2.61667 14.8 3.1 14.55C4.13333 14.0333 5.18333 13.6457 6.25 13.387C7.31667 13.129 8.4 13 9.5 13C10.6 13 11.6833 13.129 12.75 13.387C13.8167 13.6457 14.8667 14.0333 15.9 14.55C16.3833 14.8 16.7707 15.1623 17.062 15.637C17.354 16.1123 17.5 16.6333 17.5 17.2V19C17.5 19.2833 17.404 19.5207 17.212 19.712C17.0207 19.904 16.7833 20 16.5 20H2.5ZM3.5 18H15.5V17.2C15.5 17.0167 15.4543 16.85 15.363 16.7C15.271 16.55 15.15 16.4333 15 16.35C14.1 15.9 13.1917 15.5623 12.275 15.337C11.3583 15.1123 10.4333 15 9.5 15C8.56667 15 7.64167 15.1123 6.725 15.337C5.80833 15.5623 4.9 15.9 4 16.35C3.85 16.4333 3.72933 16.55 3.638 16.7C3.546 16.85 3.5 17.0167 3.5 17.2V18ZM9.5 10C10.05 10 10.521 9.804 10.913 9.412C11.3043 9.02067 11.5 8.55 11.5 8C11.5 7.45 11.3043 6.97933 10.913 6.588C10.521 6.196 10.05 6 9.5 6C8.95 6 8.47933 6.196 8.088 6.588C7.696 6.97933 7.5 7.45 7.5 8C7.5 8.55 7.696 9.02067 8.088 9.412C8.47933 9.804 8.95 10 9.5 10Z" fill="url(#paint0_linear_1252_736)"/>
</g>
<defs>
<linearGradient id="paint0_linear_1252_736" x1="12.5269" y1="4" x2="12.5269" y2="20" gradientUnits="userSpaceOnUse">
<stop stop-color="#6379AC"/>
<stop offset="1" stop-color="#4B4996"/>
</linearGradient>
</defs>
</svg>
