<svg width="800" height="652" viewBox="0 0 800 652" fill="none" xmlns="http://www.w3.org/2000/svg">
<path d="M142.578 21.2734L148.67 28.6181L157.326 21.504L159.248 23.8203L150.592 30.9344L158.082 39.9649L155.231 42.3081L137.806 21.3003L150.782 10.6352L152.704 12.9515L142.578 21.2734Z" fill="#54545C"/>
<path d="M182.227 2.66277C181.99 1.23127 182.033 -0.036801 182.355 -1.14146C182.671 -2.25661 183.36 -3.17202 184.423 -3.88768C184.76 -4.11442 185.106 -4.29383 185.461 -4.42586C185.826 -4.56497 186.184 -4.63731 186.533 -4.64287L187.752 -2.41115C187.868 -2.10628 187.799 -1.86878 187.546 -1.69872C187.399 -1.59952 187.162 -1.48577 186.835 -1.35742C186.508 -1.22907 186.165 -1.04441 185.808 -0.803498C185.302 -0.463382 184.9 -0.0852111 184.6 0.330965C184.311 0.740055 184.108 1.19777 183.992 1.70418C183.88 2.19301 183.844 2.73756 183.884 3.33788C183.927 3.92062 184.035 4.55214 184.206 5.23246L191.06 15.3068L188.234 17.2094L177.386 1.26355L178.996 0.179414C179.301 -0.0260729 179.551 -0.110063 179.745 -0.072572C179.939 -0.0350796 180.154 0.111172 180.389 0.366169L182.227 2.66277Z" fill="#54545C"/>
<path d="M210.409 -19.1852C211.647 -19.8573 212.876 -20.2571 214.095 -20.3845C215.313 -20.512 216.482 -20.3884 217.6 -20.0137C218.718 -19.639 219.757 -19.0122 220.718 -18.1334C221.684 -17.2718 222.53 -16.1794 223.257 -14.8561C223.99 -13.5217 224.46 -12.2178 224.667 -10.9444C224.885 -9.67702 224.85 -8.4745 224.563 -7.33687C224.276 -6.19924 223.748 -5.15525 222.982 -4.20491C222.209 -3.26568 221.203 -2.46003 219.965 -1.78791C218.716 -1.10974 217.479 -0.698328 216.255 -0.553687C215.036 -0.426221 213.868 -0.54985 212.75 -0.924537C211.632 -1.29922 210.59 -1.91741 209.624 -2.77906C208.67 -3.64676 207.826 -4.74777 207.093 -6.08217C206.366 -7.40545 205.894 -8.70075 205.675 -9.96809C205.462 -11.2526 205.499 -12.4637 205.787 -13.6013C206.074 -14.7389 206.601 -15.7829 207.368 -16.7333C208.146 -17.6897 209.16 -18.507 210.409 -19.1852ZM218.692 -4.10643C220.365 -5.01469 221.309 -6.24886 221.523 -7.80894C221.732 -9.38014 221.287 -11.1666 220.187 -13.1682C219.082 -15.1809 217.807 -16.5247 216.365 -17.1997C214.923 -17.8748 213.365 -17.7582 211.692 -16.85C210.844 -16.3898 210.181 -15.8425 209.704 -15.2083C209.239 -14.5801 208.943 -13.8785 208.819 -13.1035C208.705 -12.3346 208.763 -11.4923 208.99 -10.5766C209.223 -9.67809 209.615 -8.72841 210.164 -7.72761C211.264 -5.726 212.535 -4.38771 213.977 -3.71267C215.424 -3.0548 216.996 -3.18605 218.692 -4.10643Z" fill="#54545C"/>
<path d="M241.019 -30.7691C241.219 -31.3639 241.46 -31.928 241.741 -32.4612C242.023 -32.9945 242.351 -33.4852 242.724 -33.9335C243.105 -34.3985 243.536 -34.8093 244.018 -35.166C244.507 -35.5393 245.067 -35.8601 245.698 -36.1285C246.668 -36.541 247.591 -36.7408 248.468 -36.7278C249.352 -36.7314 250.167 -36.5406 250.914 -36.1554C251.667 -35.7869 252.351 -35.2438 252.964 -34.5263C253.578 -33.8088 254.1 -32.9493 254.532 -31.9478L259.39 -20.6809L256.253 -19.3465L251.395 -30.6134C250.817 -31.9527 250.061 -32.8574 249.125 -33.3277C248.196 -33.8146 247.107 -33.7922 245.856 -33.2604C244.933 -32.8678 244.164 -32.2788 243.548 -31.4933C242.945 -30.7129 242.467 -29.8 242.116 -28.7549L247.734 -15.7236L244.597 -14.3893L236.967 -32.0845L238.843 -32.8821C239.287 -33.071 239.654 -32.9723 239.945 -32.5862L241.019 -30.7691Z" fill="#54545C"/>
<path d="M289.836 -30.978C288.383 -30.5173 287.133 -30.5664 286.085 -31.1252C285.05 -31.6879 284.287 -32.7293 283.797 -34.2496L280.181 -45.4705L277.965 -44.7679C277.771 -44.7065 277.59 -44.709 277.422 -44.7753C277.25 -44.8537 277.125 -45.0136 277.047 -45.2549L276.633 -46.5399L279.526 -47.8759L278.445 -53.7769C278.423 -53.9694 278.455 -54.1391 278.541 -54.2861C278.635 -54.4489 278.785 -54.563 278.991 -54.6283L280.626 -55.1466L282.662 -48.8303L287.983 -50.5177L288.736 -48.183L283.414 -46.4956L286.96 -35.4919C287.209 -34.7197 287.582 -34.2061 288.077 -33.9511C288.573 -33.696 289.118 -33.6626 289.711 -33.8508C290.05 -33.9583 290.327 -34.0926 290.542 -34.2538C290.766 -34.431 290.95 -34.6027 291.097 -34.7688C291.244 -34.935 291.364 -35.0795 291.458 -35.2024C291.56 -35.3411 291.659 -35.4259 291.756 -35.4566C291.926 -35.5103 292.11 -35.4558 292.31 -35.2929L293.75 -34.054C293.36 -33.3586 292.82 -32.7353 292.13 -32.1841C291.437 -31.645 290.672 -31.2429 289.836 -30.978Z" fill="#54545C"/>
<path d="M366.704 -49.2528L367.047 -46.2702L350.326 -44.3031L347.042 -71.3342L363.763 -73.3013L364.125 -70.3209L351.077 -68.786L352.168 -59.8071L362.735 -61.0501L363.083 -58.1829L352.517 -56.9398L353.637 -47.7157L366.704 -49.2528Z" fill="#54545C"/>
<path d="M385.37 -63.6679C385.778 -64.1457 386.212 -64.5797 386.673 -64.97C387.133 -65.3603 387.621 -65.6941 388.135 -65.9716C388.662 -66.262 389.216 -66.4834 389.797 -66.6357C390.391 -66.8009 391.031 -66.8912 391.717 -66.9064C392.772 -66.9299 393.705 -66.7733 394.515 -66.4366C395.337 -66.1128 396.023 -65.6341 396.573 -65.0003C397.136 -64.3794 397.569 -63.6226 397.871 -62.7299C398.174 -61.8372 398.339 -60.8464 398.366 -59.7576L398.677 -47.5084L395.264 -47.4324L394.953 -59.6817C394.916 -61.1377 394.551 -62.257 393.857 -63.0396C393.175 -63.8352 392.154 -64.2179 390.794 -64.1877C389.79 -64.1653 388.856 -63.9038 387.991 -63.4032C387.138 -62.9028 386.354 -62.233 385.638 -61.3936L385.997 -47.2263L382.584 -47.1503L382.096 -66.3883L384.136 -66.4337C384.619 -66.4445 384.924 -66.2169 385.05 -65.751L385.37 -63.6679Z" fill="#54545C"/>
<path d="M431.82 -60.7181C431.245 -61.6105 430.601 -62.2476 429.889 -62.6295C429.177 -63.024 428.365 -63.2545 427.451 -63.3209C425.663 -63.4509 424.242 -62.9131 423.188 -61.7074C422.135 -60.5017 421.525 -58.7178 421.359 -56.3557C421.271 -55.1052 421.303 -54.0237 421.456 -53.1112C421.609 -52.2114 421.874 -51.4557 422.252 -50.8442C422.631 -50.2454 423.115 -49.7912 423.705 -49.4817C424.295 -49.1722 424.977 -48.9893 425.751 -48.9331C426.867 -48.852 427.855 -49.034 428.715 -49.4794C429.588 -49.9238 430.405 -50.5817 431.168 -51.4531L431.82 -60.7181ZM436.14 -73.7538L434.177 -45.8449L432.16 -45.9915C431.679 -46.0265 431.391 -46.2824 431.297 -46.7589L431.156 -49.1115C430.262 -48.1862 429.268 -47.4587 428.172 -46.9289C427.077 -46.3991 425.838 -46.1845 424.456 -46.2849C423.352 -46.3652 422.365 -46.6464 421.494 -47.1287C420.623 -47.6237 419.9 -48.3046 419.323 -49.1718C418.747 -50.0389 418.331 -51.0975 418.074 -52.3476C417.818 -53.5978 417.746 -55.0186 417.858 -56.6102C417.957 -58.0249 418.24 -59.3247 418.706 -60.5097C419.173 -61.7073 419.793 -62.7286 420.566 -63.5738C421.339 -64.419 422.258 -65.0569 423.32 -65.4875C424.397 -65.9298 425.582 -66.1039 426.876 -66.0099C428.055 -65.9241 429.049 -65.6487 429.858 -65.1837C430.68 -64.7303 431.396 -64.126 432.006 -63.3707L432.754 -74L436.14 -73.7538Z" fill="#54545C"/>
<path d="M512.261 -44.3967C511.734 -42.4276 510.941 -40.7199 509.882 -39.2735C508.824 -37.8271 507.569 -36.6824 506.119 -35.8391C504.669 -34.9959 503.054 -34.4721 501.275 -34.2678C499.511 -34.0724 497.658 -34.235 495.717 -34.7556L485.859 -37.3998L492.896 -63.6891L502.754 -61.0449C504.695 -60.5243 506.379 -59.7318 507.805 -58.6675C509.248 -57.6121 510.385 -56.3502 511.216 -54.8819C512.051 -53.4258 512.565 -51.8065 512.76 -50.024C512.954 -48.2416 512.788 -46.3658 512.261 -44.3967ZM508.594 -45.3803C509.026 -46.9947 509.191 -48.4972 509.089 -49.8878C508.988 -51.2784 508.649 -52.5227 508.074 -53.6207C507.499 -54.7188 506.696 -55.6551 505.666 -56.4295C504.636 -57.204 503.408 -57.7824 501.983 -58.1646L495.7 -59.8499L490.205 -39.3213L496.488 -37.6358C497.913 -37.2536 499.265 -37.14 500.544 -37.295C501.823 -37.4501 502.985 -37.853 504.028 -38.5039C505.074 -39.167 505.989 -40.0753 506.772 -41.2286C507.554 -42.382 508.162 -43.7659 508.594 -45.3803Z" fill="#54545C"/>
<path d="M539.798 -32.7143C540.072 -33.4497 540.215 -34.1599 540.227 -34.8449C540.254 -35.5372 540.147 -36.1783 539.906 -36.7683C539.681 -37.3656 539.327 -37.8896 538.843 -38.3401C538.364 -38.8024 537.761 -39.169 537.034 -39.44C535.509 -40.0085 534.133 -40.0145 532.908 -39.458C531.698 -38.9088 530.694 -37.8913 529.895 -36.4054L539.798 -32.7143ZM539.217 -23.3028C538.647 -22.9749 538.021 -22.7352 537.34 -22.5836C536.664 -22.4439 535.968 -22.3791 535.252 -22.3892C534.548 -22.3948 533.843 -22.4685 533.135 -22.6104C532.424 -22.7406 531.74 -22.9279 531.085 -23.1722C529.834 -23.6386 528.755 -24.277 527.85 -25.0875C526.96 -25.9054 526.279 -26.8621 525.805 -27.9574C525.348 -29.0602 525.129 -30.2906 525.147 -31.6486C525.165 -33.0067 525.464 -34.4627 526.044 -36.0166C526.513 -37.2741 527.142 -38.3774 527.931 -39.3266C528.731 -40.2713 529.643 -41.0056 530.667 -41.5295C531.695 -42.0652 532.818 -42.363 534.034 -42.4229C535.256 -42.4946 536.522 -42.2862 537.833 -41.7976C538.917 -41.3934 539.85 -40.8364 540.63 -40.1266C541.427 -39.4243 542.03 -38.6048 542.441 -37.668C542.868 -36.7387 543.084 -35.6987 543.089 -34.5483C543.098 -33.4097 542.864 -32.1998 542.386 -30.9187C542.2 -30.4204 542.022 -30.1083 541.853 -29.9822C541.684 -29.8561 541.45 -29.8486 541.152 -29.9596L529.051 -34.4704C528.661 -33.3182 528.446 -32.2699 528.406 -31.3255C528.378 -30.3767 528.508 -29.5243 528.796 -28.7683C529.088 -28.0242 529.527 -27.381 530.112 -26.8387C530.701 -26.3082 531.425 -25.8831 532.283 -25.5633C533.081 -25.2657 533.8 -25.0993 534.438 -25.064C535.093 -25.0361 535.669 -25.0512 536.165 -25.1093C536.662 -25.1674 537.081 -25.2343 537.421 -25.31C537.778 -25.3932 538.058 -25.3971 538.261 -25.3216C538.523 -25.2239 538.688 -25.0475 538.755 -24.7926L539.217 -23.3028Z" fill="#54545C"/>
<path d="M580.21 -22.831L564.702 -8.9658L561.956 -10.2974L563.287 -31.0371L565.776 -29.8303C566.028 -29.7083 566.203 -29.5457 566.302 -29.3428C566.402 -29.1399 566.438 -28.9391 566.412 -28.7406L565.404 -15.4653C565.336 -14.9774 565.257 -14.5092 565.166 -14.0607C565.075 -13.6122 564.979 -13.1665 564.876 -12.7236C565.162 -13.0778 565.453 -13.4292 565.75 -13.7778C566.047 -14.1264 566.372 -14.4753 566.726 -14.8244L576.607 -23.797C576.764 -23.9459 576.951 -24.0385 577.166 -24.0747C577.387 -24.1222 577.607 -24.0933 577.824 -23.9879L580.21 -22.831Z" fill="#54545C"/>
<path d="M631.095 15.7802C629.59 15.5418 628.257 15.6226 627.099 16.0227C625.95 16.4303 625.018 17.1103 624.303 18.0626C623.809 18.7211 623.493 19.3949 623.357 20.0839C623.229 20.7627 623.234 21.4226 623.373 22.0635C623.511 22.7044 623.767 23.3061 624.139 23.8685C624.519 24.4208 624.974 24.8946 625.504 25.2898C626.645 26.1411 627.824 26.6973 629.043 26.9585C630.272 27.2272 631.49 27.2667 632.697 27.0769L631.095 15.7802ZM637.157 37.0443L634.513 35.0718C634.218 34.8514 634.005 34.6373 633.875 34.4295C633.745 34.2218 633.656 33.9267 633.61 33.5442L633.061 29.6721C631.411 29.8796 629.754 29.7894 628.09 29.4015C626.444 29.0111 624.873 28.2573 623.375 27.1399C622.56 26.5318 621.864 25.7983 621.285 24.9395C620.716 24.0883 620.315 23.1725 620.081 22.1921C619.856 21.2016 619.836 20.1909 620.022 19.16C620.208 18.129 620.655 17.1424 621.363 16.2003C621.895 15.4911 622.514 14.9098 623.22 14.4565C623.944 14.0007 624.722 13.6639 625.553 13.4462C626.384 13.2285 627.249 13.1235 628.149 13.1313C629.05 13.139 629.96 13.2494 630.881 13.4624C630.853 12.2085 630.965 11.1065 631.218 10.1567C631.478 9.19666 631.905 8.32157 632.498 7.53134C633.053 6.79176 633.707 6.19654 634.459 5.74577C635.221 5.30261 636.035 5.03301 636.902 4.9369C637.776 4.83066 638.678 4.91063 639.607 5.17677C640.553 5.44038 641.48 5.91041 642.386 6.58692C643.191 7.18741 643.825 7.86638 644.29 8.62386C644.762 9.37122 645.077 10.1363 645.236 10.9191C645.396 11.7018 645.4 12.4795 645.249 13.2521C645.115 14.0221 644.841 14.7263 644.425 15.3646L642.478 14.4333C642.081 14.2635 641.949 13.9202 642.083 13.4035C642.21 13.0869 642.298 12.7259 642.348 12.3206C642.408 11.923 642.399 11.5126 642.319 11.0895C642.249 10.6741 642.094 10.2574 641.851 9.83934C641.619 9.42894 641.269 9.0489 640.8 8.69924C640.291 8.31919 639.766 8.05441 639.227 7.90487C638.698 7.76292 638.175 7.72861 637.659 7.80199C637.161 7.87283 636.687 8.04886 636.237 8.32996C635.796 8.60092 635.403 8.96431 635.061 9.42021C634.795 9.77481 634.581 10.1446 634.419 10.5296C634.257 10.9146 634.137 11.3389 634.059 11.8025C633.991 12.2736 633.965 12.784 633.982 13.3337C633.998 13.8834 634.055 14.4952 634.153 15.169L635.667 26.2339C636.571 25.8338 637.418 25.3514 638.208 24.7867C639.005 24.2118 639.717 23.5811 640.344 22.8948C640.509 22.7175 640.684 22.6112 640.869 22.5758C641.055 22.5403 641.239 22.591 641.423 22.7278L643.088 23.9707C642.203 25.1281 641.16 26.1361 639.959 26.9946C638.766 27.843 637.464 28.5077 636.053 28.9887L637.157 37.0443Z" fill="#54545C"/>
<path d="M679.226 73.2774C679.989 74.1122 680.81 74.7302 681.692 75.1315C682.573 75.5328 683.473 75.7289 684.392 75.7196C685.319 75.7198 686.242 75.518 687.161 75.1144C688.089 74.7201 688.976 74.1401 689.822 73.3743L702.103 62.2579L704.582 64.9732L692.301 76.0896C691.135 77.1446 689.883 77.9355 688.544 78.4622C687.214 78.9984 685.865 79.2513 684.498 79.2209C683.149 79.1913 681.814 78.8666 680.493 78.2467C679.171 77.6269 677.946 76.6979 676.815 75.4599C675.685 74.2218 674.873 72.9185 674.379 71.5499C673.884 70.1813 673.682 68.8224 673.773 67.4731C673.872 66.1154 674.249 64.798 674.903 63.5209C675.565 62.2532 676.479 61.0918 677.645 60.0368L689.926 48.9204L692.405 51.6357L680.138 62.7393C679.292 63.5051 678.624 64.3243 678.133 65.1969C677.65 66.0789 677.361 66.9748 677.264 67.8844C677.176 68.8035 677.286 69.7232 677.594 70.6435C677.92 71.5647 678.464 72.4427 679.226 73.2774Z" fill="#54545C"/>
<path d="M708.699 114.493L706.501 111.571C706.333 111.348 706.256 111.128 706.268 110.913C706.299 110.701 706.355 110.501 706.436 110.313L711.226 97.6272C710.92 97.7279 710.643 97.7919 710.394 97.8193L697.553 98.5043C697.334 98.5089 697.118 98.4958 696.904 98.465C696.708 98.4368 696.534 98.3212 696.381 98.1183L694.321 95.3792L711.195 94.5159L716.415 79.3955L718.624 82.3326C718.784 82.5456 718.867 82.7294 718.872 82.8839C718.877 83.0384 718.844 83.2055 718.773 83.3852L714.296 95.6008C714.563 95.5127 714.878 95.445 715.239 95.3976L727.275 94.8135C727.479 94.7886 727.663 94.8016 727.828 94.8526C728.004 94.896 728.149 94.9937 728.263 95.1459L730.381 97.9612L714.446 98.5529L708.699 114.493Z" fill="#54545C"/>
<path d="M717.385 128.871C716.919 128.96 716.501 128.91 716.13 128.718C715.767 128.538 715.489 128.291 715.297 127.977L714.551 126.76L744.896 121.743C745.323 121.662 745.709 121.696 746.052 121.844C746.402 122.002 746.684 122.255 746.896 122.601L747.652 123.835L717.385 128.871Z" fill="#54545C"/>
<path d="M739.638 162.073C740.134 163.088 740.748 163.911 741.481 164.543C742.214 165.175 743.023 165.616 743.908 165.865C744.798 166.125 745.741 166.191 746.738 166.062C747.74 165.944 748.756 165.637 749.785 165.14L764.722 157.93L766.335 161.229L751.398 168.439C749.98 169.124 748.554 169.53 747.119 169.659C745.69 169.8 744.323 169.664 743.019 169.251C741.732 168.844 740.542 168.158 739.449 167.193C738.355 166.228 737.441 164.993 736.705 163.489C735.97 161.985 735.558 160.507 735.471 159.057C735.384 157.606 735.574 156.246 736.042 154.978C736.522 153.704 737.256 152.547 738.245 151.506C739.24 150.477 740.446 149.62 741.863 148.936L756.801 141.726L758.413 145.025L743.493 152.227C742.464 152.723 741.591 153.321 740.872 154.02C740.16 154.73 739.629 155.507 739.279 156.352C738.934 157.209 738.78 158.121 738.815 159.09C738.868 160.065 739.142 161.059 739.638 162.073Z" fill="#54545C"/>
<path d="M751.734 197.743L750.436 194.29L776.038 184.811L777.335 188.265L751.734 197.743Z" fill="#54545C"/>
<path d="M785.225 274.828C783.206 275.163 781.315 275.15 779.552 274.788C777.788 274.425 776.218 273.761 774.842 272.796C773.466 271.83 772.312 270.583 771.382 269.055C770.466 267.537 769.84 265.792 769.504 263.818L767.797 253.795L794.748 249.32L796.454 259.343C796.79 261.316 796.77 263.169 796.395 264.901C796.034 266.643 795.357 268.194 794.364 269.554C793.383 270.911 792.119 272.046 790.573 272.957C789.026 273.869 787.244 274.493 785.225 274.828ZM784.59 271.1C786.245 270.825 787.686 270.354 788.914 269.688C790.141 269.022 791.136 268.202 791.898 267.228C792.661 266.253 793.18 265.14 793.457 263.886C793.733 262.633 793.748 261.282 793.501 259.833L792.414 253.445L771.369 256.939L772.456 263.328C772.703 264.777 773.165 266.049 773.841 267.144C774.517 268.239 775.371 269.124 776.401 269.801C777.444 270.475 778.656 270.929 780.037 271.162C781.417 271.395 782.935 271.375 784.59 271.1Z" fill="#54545C"/>
<path d="M786.072 304.598C786.858 304.543 787.566 304.38 788.196 304.107C788.84 303.846 789.381 303.485 789.819 303.023C790.27 302.572 790.6 302.035 790.81 301.411C791.032 300.786 791.114 300.088 791.058 299.318C790.939 297.701 790.37 296.452 789.349 295.571C788.342 294.701 786.993 294.211 785.302 294.101L786.072 304.598ZM777.235 307.957C776.698 307.576 776.217 307.108 775.794 306.553C775.384 305.998 775.034 305.394 774.744 304.741C774.454 304.101 774.227 303.431 774.061 302.732C773.882 302.033 773.767 301.337 773.716 300.642C773.619 299.315 773.751 298.075 774.113 296.919C774.488 295.776 775.077 294.763 775.879 293.882C776.695 293.013 777.727 292.306 778.974 291.762C780.222 291.217 781.676 290.887 783.338 290.772C784.682 290.678 785.952 290.792 787.149 291.115C788.346 291.45 789.398 291.974 790.304 292.685C791.223 293.396 791.964 294.29 792.527 295.368C793.104 296.445 793.442 297.678 793.544 299.068C793.628 300.217 793.51 301.292 793.188 302.292C792.88 303.304 792.384 304.19 791.7 304.948C791.03 305.719 790.17 306.344 789.122 306.823C788.086 307.302 786.884 307.589 785.514 307.685C784.981 307.722 784.622 307.69 784.436 307.588C784.25 307.487 784.146 307.278 784.123 306.963L783.183 294.134C781.968 294.257 780.921 294.495 780.042 294.849C779.163 295.215 778.439 295.684 777.87 296.257C777.312 296.829 776.908 297.493 776.658 298.246C776.42 298.999 776.334 299.831 776.401 300.74C776.463 301.587 776.611 302.306 776.846 302.899C777.094 303.504 777.348 304.02 777.609 304.446C777.87 304.872 778.106 305.224 778.317 305.501C778.543 305.79 778.663 306.042 778.679 306.257C778.699 306.535 778.607 306.757 778.403 306.924L777.235 307.957Z" fill="#54545C"/>
<path d="M790.842 341.506C790.566 341.347 790.431 341.11 790.438 340.793C790.442 340.603 790.517 340.39 790.662 340.153C790.808 339.916 790.967 339.622 791.14 339.272C791.326 338.934 791.494 338.527 791.644 338.049C791.808 337.572 791.897 337.004 791.911 336.346C791.924 335.776 791.859 335.262 791.717 334.802C791.588 334.343 791.399 333.945 791.152 333.61C790.905 333.287 790.612 333.032 790.273 332.846C789.946 332.673 789.586 332.582 789.192 332.572C788.696 332.56 788.28 332.689 787.943 332.959C787.606 333.242 787.311 333.614 787.059 334.077C786.807 334.539 786.579 335.065 786.375 335.655C786.184 336.246 785.973 336.849 785.743 337.464C785.525 338.092 785.283 338.7 785.015 339.288C784.748 339.877 784.418 340.401 784.026 340.86C783.634 341.319 783.156 341.68 782.59 341.945C782.037 342.222 781.373 342.351 780.597 342.331C779.707 342.309 778.885 342.13 778.129 341.794C777.386 341.459 776.742 340.974 776.196 340.34C775.664 339.705 775.249 338.935 774.951 338.028C774.653 337.121 774.518 336.079 774.544 334.902C774.574 333.56 774.818 332.35 775.274 331.272C775.744 330.194 776.33 329.284 777.033 328.542L778.312 329.372C778.475 329.478 778.6 329.601 778.685 329.743C778.771 329.884 778.812 330.062 778.807 330.278C778.802 330.506 778.708 330.744 778.524 330.993C778.34 331.241 778.136 331.54 777.912 331.889C777.688 332.251 777.481 332.689 777.291 333.204C777.102 333.718 776.998 334.362 776.981 335.134C776.966 335.792 777.036 336.37 777.19 336.868C777.357 337.367 777.583 337.784 777.868 338.121C778.153 338.457 778.484 338.706 778.862 338.868C779.24 339.042 779.645 339.134 780.077 339.145C780.611 339.159 781.053 339.024 781.403 338.742C781.765 338.472 782.072 338.106 782.324 337.644C782.589 337.182 782.817 336.649 783.008 336.046C783.212 335.456 783.423 334.846 783.641 334.219C783.858 333.603 784.101 332.995 784.369 332.394C784.649 331.805 784.991 331.282 785.396 330.824C785.801 330.365 786.292 329.997 786.871 329.72C787.462 329.457 788.17 329.335 788.997 329.356C789.734 329.375 790.436 329.544 791.103 329.865C791.783 330.186 792.37 330.644 792.866 331.239C793.374 331.835 793.771 332.561 794.057 333.417C794.343 334.273 794.474 335.245 794.449 336.334C794.421 337.6 794.192 338.728 793.763 339.718C793.346 340.721 792.78 341.58 792.064 342.297L790.842 341.506Z" fill="#54545C"/>
<path d="M791.332 374.864L772.146 372.552L772.544 369.195L791.73 371.507L791.332 374.864ZM797.27 376.307C796.942 376.267 796.641 376.161 796.366 375.988C796.104 375.828 795.872 375.622 795.672 375.368C795.482 375.129 795.342 374.85 795.252 374.533C795.16 374.229 795.133 373.913 795.172 373.586C795.211 373.259 795.311 372.959 795.471 372.685C795.63 372.424 795.83 372.199 796.07 372.011C796.322 371.825 796.595 371.685 796.888 371.593C797.193 371.502 797.51 371.477 797.838 371.516C798.166 371.556 798.468 371.656 798.744 371.817C799.032 371.979 799.27 372.18 799.46 372.42C799.662 372.661 799.809 372.927 799.903 373.219C799.995 373.524 800.021 373.839 799.983 374.166C799.944 374.493 799.844 374.794 799.684 375.068C799.522 375.354 799.314 375.591 799.062 375.777C798.82 375.977 798.54 376.122 798.223 376.211C797.916 376.315 797.598 376.347 797.27 376.307Z" fill="#54545C"/>
<path d="M775.814 407.451C775.669 408.119 775.635 408.727 775.711 409.275C775.787 409.823 775.955 410.307 776.216 410.726C776.476 411.146 776.817 411.492 777.24 411.766C777.674 412.042 778.171 412.241 778.73 412.363C779.886 412.615 780.882 412.463 781.719 411.907C782.553 411.363 783.113 410.429 783.4 409.105C783.69 407.769 783.57 406.673 783.04 405.819C782.507 404.977 781.662 404.43 780.507 404.178C779.947 404.056 779.413 404.03 778.903 404.101C778.403 404.186 777.948 404.365 777.537 404.639C777.126 404.912 776.773 405.282 776.476 405.749C776.18 406.215 775.959 406.783 775.814 407.451ZM764.269 411.173C764.729 411.273 765.13 411.224 765.472 411.027C765.814 410.829 766.115 410.526 766.373 410.115C766.628 409.718 766.85 409.235 767.039 408.667C767.239 408.101 767.429 407.495 767.609 406.847C767.786 406.212 767.965 405.564 768.148 404.904C768.33 404.244 768.532 403.615 768.753 403.015C768.58 402.251 768.294 401.593 767.893 401.039C767.503 400.5 766.978 400.159 766.319 400.016C765.897 399.923 765.483 399.943 765.077 400.075C764.656 400.217 764.266 400.481 763.909 400.87C763.538 401.256 763.206 401.767 762.912 402.402C762.603 403.047 762.349 403.828 762.15 404.743C761.957 405.634 761.865 406.45 761.873 407.19C761.882 407.931 761.983 408.575 762.176 409.123C762.367 409.683 762.639 410.137 762.993 410.486C763.347 410.836 763.772 411.064 764.269 411.173ZM782.702 418.71L781.472 418.442C781.062 418.353 780.857 418.036 780.858 417.492L781.042 415.297C780.13 415.538 779.177 415.551 778.183 415.334C777.264 415.134 776.464 414.771 775.784 414.247C775.113 413.738 774.578 413.116 774.178 412.381C773.778 411.646 773.529 410.814 773.431 409.886C773.333 408.957 773.394 407.986 773.614 406.971C773.805 406.093 774.091 405.287 774.471 404.553C774.308 404.103 774.107 403.742 773.867 403.469C773.639 403.199 773.382 403.033 773.097 402.971C772.649 402.873 772.268 402.978 771.955 403.285C771.65 403.608 771.384 404.055 771.156 404.627C770.927 405.199 770.719 405.86 770.53 406.61C770.339 407.371 770.126 408.141 769.892 408.92C769.668 409.713 769.406 410.472 769.105 411.197C768.802 411.934 768.431 412.566 767.991 413.092C767.552 413.619 767.02 414.001 766.395 414.241C765.768 414.493 765.019 414.524 764.149 414.334C763.341 414.158 762.603 413.783 761.933 413.21C761.261 412.649 760.715 411.927 760.295 411.045C759.862 410.16 759.591 409.129 759.482 407.952C759.358 406.785 759.445 405.514 759.743 404.141C760.041 402.767 760.439 401.597 760.935 400.63C761.431 399.662 761.983 398.889 762.59 398.308C763.198 397.728 763.844 397.331 764.528 397.117C765.197 396.913 765.86 396.883 766.519 397.027C767.451 397.23 768.177 397.693 768.697 398.415C769.217 399.138 769.56 400.048 769.725 401.147C770.094 400.644 770.52 400.271 771.002 400.026C771.495 399.796 772.095 399.759 772.803 399.913C773.077 399.973 773.346 400.083 773.61 400.245C773.887 400.409 774.147 400.621 774.389 400.881C774.642 401.157 774.867 401.471 775.063 401.825C775.26 402.179 775.414 402.575 775.527 403.015C776.251 402.201 777.097 401.627 778.067 401.294C779.05 400.964 780.113 400.924 781.256 401.173C782.176 401.374 782.971 401.729 783.641 402.238C784.321 402.762 784.854 403.396 785.239 404.141C785.636 404.889 785.884 405.727 785.982 406.655C786.077 407.596 786.012 408.586 785.786 409.625C785.609 410.442 785.351 411.182 785.011 411.847C784.684 412.514 784.284 413.101 783.81 413.607L782.702 418.71Z" fill="#54545C"/>
<path d="M774.476 440.76C774.797 441.301 775.068 441.853 775.289 442.415C775.51 442.978 775.668 443.547 775.764 444.123C775.869 444.714 775.899 445.309 775.855 445.906C775.82 446.52 775.698 447.152 775.489 447.803C775.169 448.804 774.718 449.63 774.136 450.282C773.563 450.949 772.886 451.437 772.106 451.746C771.335 452.071 770.476 452.229 769.532 452.219C768.587 452.209 767.593 452.038 766.551 451.705L754.831 447.958L755.866 444.72L767.586 448.467C768.98 448.912 770.16 448.937 771.127 448.542C772.103 448.163 772.797 447.328 773.21 446.038C773.514 445.085 773.569 444.119 773.375 443.139C773.177 442.172 772.796 441.213 772.232 440.262L758.676 435.928L759.711 432.69L778.119 438.575L777.5 440.51C777.353 440.969 777.039 441.18 776.556 441.146L774.476 440.76Z" fill="#54545C"/>
<path d="M753.53 483.208C754.255 483.518 754.96 483.696 755.647 483.741C756.339 483.804 756.987 483.729 757.589 483.519C758.198 483.325 758.739 482.998 759.213 482.54C759.698 482.086 760.092 481.504 760.397 480.794C761.036 479.305 761.103 477.936 760.601 476.688C760.105 475.457 759.13 474.406 757.676 473.537L753.53 483.208ZM744.121 482.159C743.818 481.575 743.606 480.94 743.485 480.255C743.375 479.574 743.342 478.878 743.384 478.166C743.421 477.466 743.527 476.768 743.701 476.071C743.864 475.369 744.082 474.698 744.357 474.058C744.881 472.836 745.569 471.795 746.423 470.934C747.283 470.09 748.272 469.46 749.392 469.043C750.518 468.643 751.761 468.487 753.122 468.573C754.482 468.659 755.929 469.03 757.46 469.685C758.7 470.215 759.777 470.896 760.693 471.728C761.604 472.573 762.299 473.517 762.778 474.562C763.269 475.612 763.517 476.744 763.522 477.958C763.539 479.177 763.273 480.427 762.724 481.707C762.27 482.766 761.67 483.666 760.923 484.408C760.183 485.165 759.334 485.725 758.377 486.087C757.426 486.465 756.374 486.628 755.22 486.575C754.078 486.527 752.876 486.234 751.613 485.694C751.122 485.483 750.817 485.291 750.698 485.116C750.58 484.942 750.583 484.709 750.707 484.418L755.775 472.599C754.637 472.154 753.596 471.888 752.651 471.801C751.701 471.725 750.841 471.811 750.07 472.06C749.311 472.314 748.646 472.718 748.076 473.273C747.518 473.833 747.059 474.532 746.7 475.37C746.366 476.15 746.166 476.857 746.102 477.49C746.045 478.14 746.034 478.714 746.07 479.212C746.106 479.709 746.154 480.129 746.214 480.472C746.282 480.831 746.273 481.109 746.188 481.307C746.078 481.563 745.894 481.719 745.636 481.773L744.121 482.159Z" fill="#54545C"/>
<path d="M742.031 514.442C742.9 515.608 743.446 516.756 743.668 517.886C743.901 519.023 743.711 520.152 743.097 521.275C742.902 521.63 742.678 521.948 742.423 522.227C742.163 522.518 741.879 522.745 741.571 522.91L739.463 521.479C739.22 521.261 739.171 521.018 739.317 520.751C739.402 520.596 739.561 520.386 739.792 520.123C740.023 519.859 740.242 519.539 740.449 519.161C740.74 518.628 740.924 518.107 740.998 517.6C741.067 517.104 741.036 516.604 740.906 516.1C740.781 515.614 740.562 515.113 740.25 514.596C739.944 514.098 739.558 513.584 739.093 513.057L728.374 507.217L730.007 504.234L746.972 513.478L746.042 515.177C745.865 515.5 745.682 515.688 745.493 515.744C745.303 515.799 745.045 515.767 744.72 515.647L742.031 514.442Z" fill="#54545C"/>
<path d="M692.616 563.683C692.871 563.893 693.076 564.134 693.228 564.408C693.373 564.691 693.465 564.979 693.502 565.273C693.531 565.576 693.502 565.88 693.414 566.185C693.326 566.491 693.177 566.77 692.967 567.024C692.757 567.277 692.51 567.476 692.226 567.62C691.942 567.763 691.648 567.85 691.343 567.878C691.039 567.907 690.734 567.877 690.427 567.789C690.121 567.701 689.84 567.552 689.585 567.342C689.32 567.124 689.115 566.873 688.97 566.59C688.835 566.315 688.753 566.026 688.723 565.722C688.694 565.419 688.728 565.119 688.826 564.822C688.913 564.517 689.063 564.237 689.273 563.984C689.483 563.73 689.73 563.531 690.014 563.388C690.288 563.236 690.578 563.146 690.882 563.117C691.178 563.098 691.475 563.129 691.771 563.209C692.07 563.307 692.351 563.465 692.616 563.683Z" fill="#54545C"/>
<path d="M657.422 630.727L651.33 623.382L642.674 630.496L640.752 628.18L649.408 621.066L641.918 612.035L644.769 609.692L662.194 630.7L649.218 641.365L647.296 639.049L657.422 630.727Z" fill="#54545C"/>
<path d="M617.772 649.337C618.01 650.769 617.967 652.037 617.645 653.142C617.329 654.257 616.64 655.172 615.577 655.888C615.24 656.115 614.894 656.294 614.539 656.426C614.174 656.565 613.816 656.637 613.467 656.643L612.248 654.411C612.132 654.106 612.201 653.869 612.454 653.699C612.601 653.6 612.838 653.486 613.165 653.358C613.492 653.229 613.835 653.045 614.192 652.804C614.697 652.464 615.1 652.086 615.4 651.669C615.689 651.26 615.892 650.802 616.008 650.296C616.12 649.807 616.156 649.263 616.116 648.662C616.073 648.08 615.965 647.448 615.794 646.768L608.94 636.693L611.766 634.791L622.614 650.737L621.004 651.821C620.699 652.026 620.449 652.11 620.255 652.073C620.061 652.035 619.846 651.889 619.611 651.634L617.772 649.337Z" fill="#54545C"/>
<path d="M589.591 671.185C588.353 671.858 587.124 672.257 585.906 672.385C584.687 672.512 583.518 672.389 582.4 672.014C581.282 671.639 580.243 671.013 579.282 670.134C578.316 669.272 577.47 668.18 576.743 666.856C576.01 665.522 575.54 664.218 575.333 662.945C575.115 661.677 575.15 660.475 575.437 659.337C575.724 658.2 576.252 657.156 577.018 656.205C577.791 655.266 578.797 654.46 580.035 653.788C581.284 653.11 582.521 652.699 583.745 652.554C584.964 652.427 586.132 652.55 587.25 652.925C588.368 653.3 589.41 653.918 590.376 654.779C591.33 655.647 592.174 656.748 592.907 658.082C593.634 659.406 594.107 660.701 594.325 661.968C594.538 663.253 594.501 664.464 594.214 665.602C593.926 666.739 593.399 667.783 592.632 668.734C591.854 669.69 590.841 670.507 589.591 671.185ZM581.309 656.107C579.635 657.015 578.691 658.249 578.477 659.809C578.268 661.38 578.714 663.167 579.813 665.169C580.919 667.181 582.193 668.525 583.635 669.2C585.077 669.875 586.635 669.759 588.308 668.85C589.156 668.39 589.819 667.843 590.296 667.209C590.762 666.58 591.057 665.879 591.181 665.104C591.295 664.335 591.238 663.493 591.01 662.577C590.777 661.678 590.386 660.729 589.836 659.728C588.736 657.726 587.466 656.388 586.023 655.713C584.576 655.055 583.004 655.186 581.309 656.107Z" fill="#54545C"/>
<path d="M558.981 682.769C558.781 683.364 558.54 683.928 558.259 684.462C557.977 684.995 557.649 685.486 557.276 685.934C556.895 686.399 556.464 686.81 555.982 687.166C555.493 687.54 554.933 687.861 554.302 688.129C553.332 688.541 552.409 688.741 551.532 688.728C550.649 688.732 549.833 688.541 549.087 688.156C548.333 687.787 547.65 687.244 547.036 686.527C546.422 685.809 545.9 684.95 545.468 683.948L540.61 672.681L543.748 671.347L548.605 682.614C549.183 683.953 549.939 684.858 550.875 685.328C551.804 685.815 552.894 685.793 554.144 685.261C555.067 684.868 555.836 684.279 556.452 683.494C557.055 682.713 557.533 681.8 557.884 680.755L552.266 667.724L555.403 666.39L563.033 684.085L561.157 684.882C560.713 685.071 560.346 684.973 560.055 684.587L558.981 682.769Z" fill="#54545C"/>
<path d="M510.163 682.978C511.617 682.517 512.867 682.567 513.915 683.125C514.95 683.688 515.713 684.73 516.203 686.25L519.819 697.471L522.035 696.768C522.229 696.707 522.41 696.709 522.578 696.776C522.75 696.854 522.875 697.014 522.953 697.255L523.367 698.54L520.474 699.876L521.555 705.777C521.577 705.97 521.545 706.139 521.459 706.286C521.365 706.449 521.215 706.563 521.009 706.629L519.374 707.147L517.338 700.831L512.017 702.518L511.264 700.183L516.586 698.496L513.04 687.492C512.791 686.72 512.418 686.206 511.922 685.951C511.427 685.696 510.882 685.663 510.289 685.851C509.949 685.958 509.672 686.093 509.458 686.254C509.234 686.431 509.049 686.603 508.903 686.769C508.756 686.935 508.636 687.08 508.542 687.203C508.44 687.341 508.34 687.426 508.244 687.457C508.074 687.511 507.89 687.456 507.69 687.293L506.25 686.054C506.64 685.359 507.18 684.735 507.87 684.184C508.563 683.645 509.328 683.243 510.163 682.978Z" fill="#54545C"/>
<path d="M433.296 701.253L432.953 698.271L449.674 696.303L452.959 723.335L436.237 725.302L435.875 722.321L448.923 720.786L447.832 711.808L437.265 713.051L436.917 710.183L447.483 708.94L446.363 699.716L433.296 701.253Z" fill="#54545C"/>
<path d="M414.63 715.668C414.222 716.146 413.788 716.58 413.328 716.97C412.867 717.361 412.379 717.695 411.865 717.972C411.338 718.262 410.784 718.484 410.203 718.636C409.609 718.801 408.969 718.891 408.283 718.907C407.228 718.93 406.295 718.774 405.485 718.437C404.663 718.113 403.977 717.634 403.427 717.001C402.864 716.38 402.431 715.623 402.129 714.73C401.827 713.838 401.661 712.847 401.634 711.758L401.323 699.509L404.736 699.433L405.047 711.682C405.084 713.138 405.449 714.257 406.143 715.04C406.825 715.836 407.846 716.218 409.206 716.188C410.21 716.166 411.145 715.904 412.01 715.404C412.862 714.903 413.646 714.233 414.362 713.394L414.003 699.227L417.416 699.151L417.904 718.389L415.864 718.434C415.381 718.445 415.076 718.217 414.95 717.751L414.63 715.668Z" fill="#54545C"/>
<path d="M368.18 712.718C368.755 713.611 369.398 714.248 370.111 714.63C370.823 715.024 371.635 715.255 372.548 715.321C374.337 715.451 375.758 714.913 376.811 713.707C377.865 712.502 378.475 710.718 378.641 708.356C378.729 707.105 378.697 706.024 378.544 705.111C378.391 704.211 378.125 703.456 377.748 702.844C377.369 702.245 376.885 701.791 376.295 701.482C375.704 701.172 375.022 700.989 374.249 700.933C373.133 700.852 372.145 701.034 371.285 701.479C370.412 701.924 369.594 702.582 368.832 703.453L368.18 712.718ZM363.859 725.754L365.823 697.845L367.839 697.992C368.321 698.027 368.609 698.282 368.703 698.759L368.844 701.112C369.737 700.186 370.732 699.459 371.827 698.929C372.923 698.399 374.162 698.184 375.544 698.285C376.648 698.365 377.635 698.646 378.506 699.129C379.376 699.624 380.1 700.305 380.676 701.172C381.253 702.039 381.669 703.098 381.925 704.348C382.182 705.598 382.254 707.019 382.142 708.61C382.042 710.025 381.76 711.325 381.294 712.51C380.827 713.707 380.207 714.729 379.434 715.574C378.66 716.419 377.742 717.057 376.679 717.488C375.603 717.93 374.418 718.104 373.124 718.01C371.944 717.924 370.95 717.649 370.142 717.184C369.319 716.73 368.603 716.126 367.994 715.371L367.246 726L363.859 725.754Z" fill="#54545C"/>
<path d="M287.739 696.397C288.266 694.428 289.059 692.72 290.118 691.274C291.176 689.827 292.431 688.682 293.881 687.839C295.331 686.996 296.946 686.472 298.725 686.268C300.489 686.073 302.342 686.235 304.283 686.756L314.141 689.4L307.104 715.689L297.246 713.045C295.305 712.524 293.621 711.732 292.195 710.668C290.752 709.612 289.615 708.35 288.784 706.882C287.949 705.426 287.435 703.807 287.24 702.024C287.046 700.242 287.212 698.366 287.739 696.397ZM291.406 697.38C290.974 698.995 290.809 700.497 290.911 701.888C291.012 703.279 291.351 704.523 291.926 705.621C292.501 706.719 293.304 707.655 294.334 708.43C295.364 709.204 296.592 709.783 298.017 710.165L304.3 711.85L309.795 691.321L303.512 689.636C302.087 689.254 300.735 689.14 299.456 689.295C298.176 689.45 297.015 689.853 295.972 690.504C294.926 691.167 294.011 692.075 293.228 693.229C292.446 694.382 291.838 695.766 291.406 697.38Z" fill="#54545C"/>
<path d="M260.202 684.714C259.928 685.45 259.785 686.16 259.773 686.845C259.746 687.537 259.853 688.179 260.094 688.768C260.319 689.366 260.673 689.89 261.157 690.34C261.636 690.803 262.239 691.169 262.966 691.44C264.491 692.009 265.867 692.015 267.092 691.458C268.302 690.909 269.306 689.892 270.105 688.406L260.202 684.714ZM260.783 675.303C261.353 674.975 261.979 674.735 262.66 674.584C263.336 674.444 264.032 674.379 264.748 674.389C265.452 674.395 266.157 674.469 266.864 674.611C267.576 674.741 268.26 674.928 268.915 675.172C270.166 675.639 271.245 676.277 272.15 677.088C273.04 677.906 273.721 678.862 274.195 679.958C274.652 681.06 274.871 682.291 274.853 683.649C274.835 685.007 274.536 686.463 273.956 688.017C273.487 689.274 272.858 690.378 272.069 691.327C271.269 692.272 270.356 693.006 269.333 693.53C268.305 694.065 267.182 694.363 265.966 694.423C264.744 694.495 263.478 694.286 262.167 693.798C261.083 693.394 260.15 692.837 259.37 692.127C258.573 691.425 257.97 690.605 257.559 689.668C257.132 688.739 256.916 687.699 256.911 686.548C256.902 685.41 257.136 684.2 257.614 682.919C257.8 682.421 257.978 682.108 258.147 681.982C258.316 681.856 258.55 681.849 258.848 681.96L270.949 686.471C271.339 685.318 271.553 684.27 271.594 683.326C271.622 682.377 271.492 681.524 271.204 680.769C270.912 680.024 270.473 679.381 269.888 678.839C269.299 678.309 268.575 677.883 267.717 677.563C266.919 677.266 266.2 677.099 265.562 677.064C264.907 677.036 264.331 677.051 263.835 677.109C263.338 677.168 262.919 677.234 262.579 677.31C262.222 677.393 261.942 677.397 261.739 677.322C261.477 677.224 261.312 677.048 261.245 676.793L260.783 675.303Z" fill="#54545C"/>
<path d="M219.792 674.83L235.299 660.965L238.045 662.296L236.714 683.036L234.225 681.829C233.974 681.707 233.798 681.545 233.699 681.342C233.6 681.139 233.563 680.938 233.589 680.739L234.597 667.464C234.665 666.976 234.744 666.508 234.835 666.06C234.926 665.611 235.023 665.165 235.125 664.722C234.84 665.077 234.549 665.428 234.252 665.777C233.955 666.125 233.629 666.474 233.276 666.823L223.394 675.796C223.237 675.945 223.051 676.037 222.835 676.073C222.614 676.121 222.395 676.092 222.177 675.987L219.792 674.83Z" fill="#54545C"/>
<path d="M168.904 636.22C170.41 636.458 171.743 636.378 172.901 635.978C174.05 635.57 174.982 634.89 175.697 633.938C176.191 633.279 176.507 632.605 176.642 631.916C176.771 631.237 176.766 630.578 176.627 629.937C176.489 629.296 176.233 628.694 175.861 628.132C175.481 627.579 175.026 627.106 174.496 626.71C173.355 625.859 172.176 625.303 170.957 625.042C169.728 624.773 168.51 624.733 167.303 624.923L168.904 636.22ZM162.843 614.956L165.487 616.928C165.782 617.149 165.995 617.363 166.125 617.571C166.255 617.778 166.343 618.074 166.39 618.456L166.939 622.328C168.589 622.121 170.246 622.211 171.91 622.599C173.556 622.989 175.127 623.743 176.625 624.86C177.44 625.468 178.136 626.202 178.715 627.061C179.284 627.912 179.685 628.828 179.918 629.808C180.144 630.799 180.164 631.809 179.978 632.84C179.792 633.871 179.345 634.858 178.637 635.8C178.105 636.509 177.486 637.09 176.78 637.544C176.056 638 175.278 638.336 174.447 638.554C173.616 638.772 172.751 638.877 171.85 638.869C170.95 638.861 170.04 638.751 169.119 638.538C169.147 639.792 169.035 640.894 168.782 641.843C168.522 642.803 168.095 643.679 167.502 644.469C166.947 645.208 166.293 645.804 165.541 646.254C164.779 646.698 163.965 646.967 163.098 647.063C162.223 647.17 161.322 647.09 160.393 646.823C159.447 646.56 158.52 646.09 157.614 645.413C156.809 644.813 156.175 644.134 155.71 643.376C155.238 642.629 154.923 641.864 154.764 641.081C154.604 640.298 154.6 639.521 154.751 638.748C154.885 637.978 155.159 637.274 155.575 636.636L157.522 637.567C157.919 637.737 158.05 638.08 157.917 638.597C157.79 638.913 157.702 639.274 157.652 639.68C157.592 640.077 157.601 640.488 157.681 640.911C157.751 641.326 157.906 641.743 158.149 642.161C158.381 642.571 158.731 642.951 159.2 643.301C159.709 643.681 160.234 643.946 160.773 644.095C161.302 644.237 161.825 644.272 162.341 644.198C162.839 644.127 163.313 643.951 163.763 643.67C164.204 643.399 164.597 643.036 164.939 642.58C165.205 642.225 165.419 641.856 165.581 641.471C165.743 641.086 165.863 640.661 165.941 640.198C166.009 639.727 166.035 639.216 166.018 638.666C166.002 638.117 165.945 637.505 165.847 636.831L164.333 625.766C163.429 626.166 162.582 626.649 161.792 627.214C160.995 627.788 160.283 628.419 159.656 629.105C159.491 629.283 159.316 629.389 159.131 629.425C158.945 629.46 158.76 629.409 158.577 629.272L156.912 628.03C157.797 626.872 158.84 625.864 160.041 625.006C161.234 624.157 162.536 623.493 163.946 623.011L162.843 614.956Z" fill="#54545C"/>
<path d="M120.773 578.722C120.011 577.887 119.19 577.269 118.308 576.867C117.427 576.466 116.527 576.27 115.608 576.279C114.681 576.279 113.758 576.481 112.839 576.885C111.911 577.279 111.024 577.859 110.178 578.625L97.8975 589.742L95.4185 587.026L107.699 575.909C108.865 574.854 110.117 574.063 111.456 573.537C112.786 573 114.135 572.748 115.502 572.778C116.851 572.807 118.186 573.132 119.507 573.752C120.828 574.372 122.054 575.301 123.185 576.539C124.315 577.777 125.127 579.081 125.621 580.449C126.115 581.818 126.317 583.177 126.227 584.526C126.127 585.884 125.751 587.201 125.097 588.478C124.434 589.746 123.52 590.908 122.355 591.963L110.074 603.08L107.595 600.364L119.862 589.26C120.708 588.494 121.376 587.675 121.867 586.802C122.35 585.92 122.639 585.024 122.736 584.115C122.824 583.196 122.714 582.276 122.406 581.356C122.08 580.434 121.536 579.556 120.773 578.722Z" fill="#54545C"/>
<path d="M91.3011 537.508L93.4991 540.43C93.667 540.653 93.7446 540.872 93.7319 541.087C93.7014 541.3 93.6455 541.5 93.5641 541.687L88.7746 554.373C89.0798 554.273 89.3571 554.209 89.6063 554.181L102.448 553.496C102.666 553.492 102.883 553.505 103.096 553.535C103.292 553.564 103.466 553.679 103.619 553.882L105.68 556.621L88.8057 557.485L83.5856 572.605L81.3762 569.668C81.2159 569.455 81.1332 569.271 81.1281 569.117C81.123 568.962 81.156 568.795 81.2272 568.615L85.7039 556.4C85.4368 556.488 85.1228 556.556 84.7616 556.603L72.7253 557.187C72.5218 557.212 72.3374 557.199 72.172 557.148C71.9965 557.105 71.8515 557.007 71.7371 556.855L69.6192 554.039L85.5546 553.448L91.3011 537.508Z" fill="#54545C"/>
<path d="M82.6156 523.13C83.0816 523.04 83.4997 523.091 83.8699 523.282C84.2334 523.462 84.5113 523.709 84.7036 524.023L85.4497 525.24L55.1038 530.258C54.6769 530.338 54.2917 530.305 53.948 530.157C53.5978 529.998 53.3166 529.746 53.1043 529.399L52.3484 528.166L82.6156 523.13Z" fill="#54545C"/>
<path d="M60.3615 489.929C59.8657 488.915 59.2513 488.091 58.5184 487.459C57.7854 486.827 56.9766 486.387 56.0918 486.138C55.2014 485.877 54.2579 485.811 53.2611 485.941C52.2588 486.058 51.2431 486.365 50.2142 486.862L35.277 494.072L33.6642 490.773L48.6014 483.563C50.0191 482.879 51.4453 482.472 52.8801 482.343C54.3092 482.202 55.6758 482.338 56.9798 482.751C58.2668 483.158 59.4571 483.844 60.5507 484.809C61.6442 485.774 62.5587 487.009 63.2941 488.513C64.0294 490.017 64.4408 491.495 64.5283 492.946C64.6157 494.396 64.4254 495.756 63.9573 497.024C63.4778 498.298 62.7435 499.455 61.7544 500.496C60.7598 501.525 59.5536 502.382 58.1359 503.066L43.1987 510.277L41.586 506.978L56.506 499.776C57.535 499.279 58.4086 498.681 59.1268 497.983C59.8394 497.272 60.3707 496.495 60.7207 495.65C61.0651 494.793 61.2195 493.881 61.184 492.912C61.1315 491.937 60.8573 490.943 60.3615 489.929Z" fill="#54545C"/>
<path d="M48.2663 454.257L49.5641 457.711L23.9626 467.189L22.6648 463.735L48.2663 454.257Z" fill="#54545C"/>
<path d="M14.775 377.172C16.7937 376.837 18.6847 376.85 20.4482 377.213C22.2116 377.575 23.7816 378.239 25.1579 379.205C26.5343 380.171 27.6877 381.417 28.6183 382.945C29.5342 384.463 30.1602 386.208 30.4962 388.182L32.2029 398.205L5.25252 402.681L3.54584 392.657C3.20982 390.684 3.22955 388.831 3.60505 387.099C3.96589 385.357 4.64298 383.806 5.6363 382.446C6.61708 381.089 7.88075 379.955 9.4273 379.043C10.9738 378.131 12.7564 377.507 14.775 377.172ZM15.4099 380.9C13.7549 381.175 12.3137 381.646 11.0863 382.312C9.85889 382.978 8.864 383.798 8.10163 384.773C7.33926 385.747 6.81983 386.861 6.5433 388.114C6.26676 389.367 6.25184 390.718 6.49853 392.167L7.58634 398.556L28.6313 395.061L27.5435 388.672C27.2968 387.223 26.8353 385.951 26.1589 384.856C25.4826 383.762 24.6291 382.876 23.5986 382.199C22.5555 381.525 21.3437 381.071 19.9631 380.838C18.5826 380.605 17.0649 380.626 15.4099 380.9Z" fill="#54545C"/>
<path d="M13.9286 347.402C13.1423 347.457 12.434 347.621 11.8039 347.893C11.1601 348.154 10.6194 348.516 10.1816 348.978C9.73021 349.428 9.39991 349.966 9.19069 350.59C8.96879 351.215 8.88608 351.912 8.94255 352.683C9.06104 354.3 9.63058 355.549 10.6512 356.43C11.6582 357.299 13.0071 357.789 14.6978 357.9L13.9286 347.402ZM22.7648 344.043C23.3027 344.425 23.7831 344.893 24.2062 345.447C24.6166 346.003 24.9668 346.607 25.2568 347.259C25.5459 347.899 25.7734 348.569 25.9394 349.269C26.1181 349.967 26.2329 350.664 26.2838 351.359C26.381 352.685 26.2488 353.926 25.8873 355.081C25.5122 356.225 24.9235 357.237 24.1213 358.118C23.3055 358.988 22.2737 359.695 21.0261 360.239C19.7785 360.783 18.324 361.113 16.6626 361.229C15.3183 361.323 14.0479 361.208 12.8515 360.885C11.6542 360.55 10.6024 360.027 9.69626 359.315C8.77739 358.605 8.03624 357.711 7.47285 356.633C6.89678 355.556 6.55784 354.322 6.45601 352.933C6.37178 351.783 6.4906 350.708 6.81248 349.708C7.12074 348.696 7.61675 347.811 8.3005 347.052C8.97063 346.282 9.82988 345.657 10.8783 345.177C11.914 344.699 13.1167 344.412 14.4864 344.316C15.019 344.279 15.3783 344.311 15.5642 344.412C15.7501 344.514 15.8546 344.722 15.8777 345.038L16.8178 357.866C18.0325 357.743 19.0794 357.505 19.9586 357.152C20.8368 356.786 21.5609 356.316 22.1308 355.743C22.688 355.171 23.0919 354.508 23.3426 353.754C23.5806 353.001 23.6663 352.17 23.5996 351.26C23.5376 350.414 23.3893 349.694 23.1546 349.101C22.9063 348.496 22.6518 347.981 22.3912 347.555C22.1305 347.128 21.8944 346.777 21.6829 346.499C21.4577 346.21 21.3373 345.958 21.3215 345.744C21.3012 345.466 21.3932 345.243 21.5977 345.077L22.7648 344.043Z" fill="#54545C"/>
<path d="M9.1583 310.494C9.43455 310.653 9.56913 310.891 9.56203 311.207C9.55777 311.397 9.48301 311.611 9.33779 311.848C9.19256 312.085 9.03337 312.378 8.86016 312.729C8.67453 313.066 8.5064 313.474 8.35577 313.951C8.19244 314.428 8.10341 314.996 8.08864 315.655C8.07587 316.224 8.14062 316.739 8.28294 317.199C8.41255 317.658 8.60079 318.055 8.84765 318.391C9.09479 318.714 9.38798 318.968 9.72722 319.154C10.054 319.327 10.4145 319.418 10.8086 319.428C11.3043 319.441 11.7206 319.312 12.0574 319.042C12.3944 318.759 12.6889 318.386 12.941 317.924C13.193 317.461 13.421 316.935 13.625 316.345C13.8164 315.754 14.027 315.152 14.257 314.537C14.4746 313.909 14.7172 313.301 14.9848 312.712C15.2524 312.123 15.5821 311.599 15.974 311.141C16.3658 310.682 16.8446 310.32 17.4101 310.056C17.9633 309.778 18.6276 309.649 19.403 309.669C20.2928 309.691 21.1156 309.87 21.8712 310.206C22.6141 310.541 23.2582 311.026 23.8037 311.661C24.3364 312.295 24.7515 313.065 25.0492 313.972C25.3468 314.879 25.4824 315.921 25.456 317.099C25.4259 318.441 25.1826 319.651 24.7259 320.729C24.2566 321.806 23.6702 322.716 22.9667 323.459L21.688 322.628C21.525 322.523 21.4006 322.399 21.3147 322.258C21.2288 322.116 21.1883 321.938 21.1932 321.723C21.1983 321.495 21.2927 321.257 21.4763 321.008C21.66 320.759 21.8638 320.46 22.0878 320.111C22.3122 319.749 22.5192 319.311 22.7088 318.797C22.8984 318.282 23.0018 317.639 23.0192 316.866C23.0339 316.208 22.9642 315.63 22.81 315.132C22.6431 314.634 22.4172 314.216 22.1322 313.88C21.8472 313.543 21.5157 313.294 21.1378 313.133C20.7601 312.959 20.3552 312.866 19.923 312.855C19.3891 312.842 18.9472 312.976 18.5975 313.259C18.2353 313.528 17.9282 313.894 17.6762 314.357C17.4114 314.819 17.1833 315.351 16.9917 315.955C16.7876 316.545 16.5768 317.154 16.3592 317.782C16.1419 318.397 15.8993 319.005 15.6315 319.607C15.3512 320.195 15.0087 320.718 14.6042 321.177C14.1996 321.635 13.708 322.003 13.1295 322.28C12.5385 322.544 11.8298 322.665 11.0035 322.644C10.2662 322.626 9.56413 322.456 8.89722 322.135C8.21758 321.814 7.63007 321.356 7.13465 320.761C6.62652 320.165 6.22942 319.44 5.94336 318.584C5.6573 317.728 5.52647 316.755 5.55089 315.667C5.57928 314.401 5.80809 313.273 6.2373 312.283C6.65408 311.28 7.22029 310.42 7.93592 309.703L9.1583 310.494Z" fill="#54545C"/>
<path d="M8.66785 277.136L27.8537 279.448L27.4555 282.805L8.26971 280.493L8.66785 277.136ZM2.73006 275.693C3.05834 275.733 3.35949 275.839 3.63349 276.012C3.89636 276.172 4.12802 276.378 4.32845 276.632C4.51775 276.872 4.65764 277.15 4.74811 277.467C4.84008 277.771 4.86668 278.087 4.82791 278.414C4.78914 278.741 4.68947 279.041 4.52891 279.315C4.36984 279.577 4.1703 279.801 3.9303 279.989C3.67767 280.175 3.40502 280.315 3.11233 280.407C2.80701 280.498 2.49021 280.523 2.16192 280.484C1.83364 280.444 1.53175 280.344 1.25625 280.183C0.968131 280.021 0.729418 279.82 0.540118 279.58C0.338193 279.339 0.190501 279.073 0.0970409 278.781C0.00507368 278.477 -0.0215241 278.161 0.0172461 277.834C0.0560164 277.507 0.155675 277.207 0.316236 276.933C0.478289 276.646 0.685634 276.41 0.938258 276.223C1.17975 276.023 1.45947 275.878 1.77741 275.789C2.08422 275.685 2.40177 275.654 2.73006 275.693Z" fill="#54545C"/>
<path d="M24.1864 244.55C24.3314 243.882 24.3657 243.274 24.2894 242.726C24.2131 242.178 24.0448 241.694 23.7844 241.274C23.5241 240.855 23.1828 240.508 22.7606 240.235C22.326 239.959 21.8291 239.76 21.2699 239.638C20.1142 239.386 19.1181 239.538 18.2816 240.094C17.4478 240.638 16.8872 241.572 16.5999 242.896C16.3099 244.232 16.4302 245.327 16.9606 246.181C17.4937 247.023 18.338 247.57 19.4937 247.822C20.0529 247.944 20.5874 247.97 21.0972 247.9C21.5973 247.815 22.0527 247.635 22.4634 247.362C22.8741 247.089 23.2277 246.719 23.5241 246.252C23.8206 245.785 24.0414 245.218 24.1864 244.55ZM35.7312 240.828C35.2714 240.727 34.8704 240.776 34.5282 240.974C34.186 241.171 33.8858 241.475 33.6276 241.885C33.372 242.283 33.1501 242.766 32.9618 243.334C32.761 243.899 32.5708 244.506 32.3912 245.153C32.2143 245.789 32.0348 246.436 31.8525 247.096C31.6702 247.756 31.4685 248.386 31.2472 248.986C31.4199 249.749 31.7065 250.408 32.1069 250.961C32.4976 251.5 33.0222 251.841 33.6808 251.985C34.1033 252.077 34.5176 252.057 34.9236 251.926C35.3447 251.784 35.7341 251.519 36.0917 251.131C36.4618 250.745 36.7938 250.234 37.088 249.598C37.3972 248.953 37.6511 248.173 37.8498 247.257C38.0432 246.366 38.1356 245.551 38.1271 244.81C38.1186 244.07 38.0176 243.426 37.8241 242.878C37.6332 242.318 37.361 241.863 37.0073 241.514C36.6536 241.165 36.2282 240.936 35.7312 240.828ZM17.2984 233.29L18.5286 233.558C18.9387 233.648 19.1432 233.965 19.1423 234.509L18.9587 236.704C19.8702 236.462 20.823 236.45 21.8171 236.666C22.7367 236.867 23.5365 237.229 24.2167 237.753C24.8871 238.262 25.4223 238.884 25.8224 239.62C26.2225 240.355 26.4715 241.187 26.5693 242.115C26.6672 243.043 26.606 244.015 26.3859 245.029C26.1952 245.908 25.9097 246.714 25.5293 247.447C25.6919 247.897 25.8933 248.259 26.1334 248.532C26.3612 248.801 26.618 248.968 26.9038 249.03C27.3511 249.127 27.7318 249.023 28.0458 248.715C28.35 248.393 28.6163 247.946 28.8446 247.373C29.0729 246.801 29.2813 246.14 29.47 245.391C29.6613 244.629 29.8739 243.859 30.1079 243.081C30.3322 242.288 30.5945 241.528 30.895 240.803C31.1982 240.066 31.5695 239.434 32.0091 238.908C32.4486 238.382 32.9807 237.999 33.6053 237.76C34.2327 237.508 34.9813 237.476 35.8511 237.666C36.6588 237.842 37.3974 238.217 38.0668 238.791C38.7389 239.352 39.2851 240.074 39.7054 240.956C40.1381 241.841 40.4089 242.871 40.5178 244.049C40.6419 245.216 40.555 246.486 40.2569 247.86C39.9589 249.233 39.5617 250.403 39.0655 251.371C38.5692 252.338 38.0174 253.112 37.4099 253.692C36.8025 254.272 36.1567 254.669 35.4726 254.883C34.8036 255.087 34.1398 255.117 33.4812 254.974C32.5492 254.77 31.8232 254.308 31.3032 253.585C30.7833 252.863 30.4408 251.952 30.2757 250.854C29.9064 251.356 29.4804 251.73 28.9978 251.975C28.5055 252.204 27.9052 252.242 27.1969 252.087C26.9235 252.028 26.6546 251.917 26.3903 251.756C26.1135 251.592 25.8537 251.38 25.6109 251.119C25.3583 250.844 25.1337 250.529 24.9372 250.176C24.7407 249.822 24.586 249.425 24.4731 248.986C23.7498 249.8 22.903 250.373 21.9328 250.706C20.9502 251.036 19.8873 251.076 18.744 250.827C17.8245 250.627 17.0295 250.272 16.3591 249.763C15.6789 249.239 15.1463 248.604 14.7614 247.86C14.364 247.112 14.1163 246.274 14.0185 245.346C13.9233 244.405 13.9885 243.415 14.214 242.375C14.3912 241.559 14.6496 240.818 14.989 240.154C15.316 239.486 15.7166 238.9 16.1908 238.394L17.2984 233.29Z" fill="#54545C"/>
<path d="M25.5256 211.239C25.2046 210.698 24.9336 210.146 24.7128 209.584C24.492 209.021 24.3335 208.452 24.2371 207.877C24.1325 207.285 24.1022 206.69 24.1463 206.093C24.1821 205.48 24.3041 204.847 24.5123 204.196C24.8322 203.195 25.2832 202.369 25.8652 201.718C26.439 201.05 27.1158 200.562 27.8955 200.253C28.667 199.928 29.5252 199.771 30.4701 199.78C31.4151 199.79 32.4084 199.961 33.4503 200.294L45.1709 204.041L44.1358 207.279L32.4153 203.532C31.0221 203.087 29.8418 203.062 28.8743 203.457C27.8985 203.836 27.2044 204.671 26.7919 205.962C26.4874 206.914 26.4323 207.88 26.6267 208.86C26.8249 209.827 27.2059 210.786 27.7698 211.737L41.3257 216.071L40.2907 219.309L21.883 213.425L22.5017 211.489C22.6481 211.031 22.9628 210.819 23.4458 210.854L25.5256 211.239Z" fill="#54545C"/>
<path d="M46.4702 168.792C45.7453 168.482 45.0397 168.305 44.3536 168.259C43.6607 168.197 43.0132 168.271 42.4109 168.482C41.8019 168.676 41.2608 169.002 40.7874 169.461C40.3024 169.914 39.9076 170.496 39.6033 171.206C38.9646 172.696 38.8966 174.064 39.3993 175.312C39.8953 176.543 40.8701 177.594 42.3237 178.464L46.4702 168.792ZM55.8789 169.842C56.1819 170.426 56.3941 171.061 56.5153 171.746C56.6249 172.426 56.6585 173.122 56.6162 173.834C56.5789 174.534 56.4731 175.233 56.2989 175.93C56.1364 176.631 55.918 177.302 55.6435 177.942C55.1196 179.164 54.431 180.206 53.5776 181.066C52.7176 181.91 51.7279 182.541 50.6085 182.957C49.4823 183.357 48.239 183.514 46.8784 183.428C45.5178 183.341 44.0717 182.971 42.54 182.316C41.3006 181.786 40.2228 181.104 39.3068 180.272C38.3957 179.428 37.7007 178.483 37.2217 177.438C36.731 176.388 36.483 175.256 36.4778 174.042C36.4609 172.823 36.7269 171.573 37.2758 170.293C37.7298 169.234 38.3302 168.334 39.0769 167.593C39.8169 166.835 40.6656 166.275 41.6232 165.914C42.5741 165.535 43.6263 165.373 44.7799 165.425C45.9217 165.473 47.124 165.767 48.3868 166.307C48.8779 166.517 49.1828 166.709 49.3016 166.884C49.4204 167.059 49.4174 167.292 49.2927 167.583L44.2256 179.401C45.363 179.846 46.4042 180.112 47.3491 180.2C48.2991 180.275 49.1594 180.189 49.9302 179.94C50.6894 179.686 51.3539 179.282 51.924 178.727C52.4823 178.167 52.9411 177.468 53.3004 176.63C53.6347 175.851 53.8339 175.144 53.898 174.51C53.9554 173.86 53.9662 173.286 53.9304 172.789C53.8946 172.291 53.8464 171.871 53.7857 171.529C53.7184 171.169 53.7272 170.891 53.812 170.693C53.9218 170.437 54.106 170.282 54.3646 170.227L55.8789 169.842Z" fill="#54545C"/>
<path d="M57.969 137.559C57.0997 136.393 56.554 135.244 56.332 134.114C56.0988 132.977 56.2893 131.848 56.9033 130.726C57.0979 130.37 57.3224 130.053 57.5768 129.773C57.8374 129.482 58.1213 129.255 58.4286 129.09L60.5375 130.521C60.7801 130.74 60.8285 130.982 60.6826 131.249C60.5975 131.404 60.4393 131.614 60.2082 131.877C59.9771 132.141 59.7581 132.461 59.5514 132.839C59.2596 133.372 59.0763 133.893 59.0016 134.4C58.933 134.896 58.9638 135.396 59.094 135.9C59.2192 136.386 59.4376 136.888 59.7495 137.404C60.0563 137.903 60.4422 138.416 60.9073 138.943L71.6257 144.783L69.9933 147.766L53.0281 138.523L53.9583 136.823C54.1346 136.501 54.3176 136.312 54.5073 136.257C54.6969 136.201 54.9547 136.233 55.2805 136.353L57.969 137.559Z" fill="#54545C"/>
<path d="M107.384 88.3179C107.129 88.108 106.925 87.8662 106.772 87.5927C106.627 87.3094 106.536 87.0211 106.498 86.7277C106.469 86.4245 106.498 86.1204 106.586 85.8152C106.674 85.5101 106.823 85.2306 107.033 84.9769C107.243 84.7232 107.49 84.5245 107.774 84.3808C108.059 84.2371 108.353 84.151 108.657 84.1224C108.961 84.0937 109.267 84.1235 109.573 84.2116C109.88 84.2997 110.161 84.4488 110.416 84.6587C110.681 84.8767 110.886 85.1273 111.03 85.4106C111.165 85.6858 111.248 85.975 111.277 86.2781C111.306 86.5813 111.272 86.8814 111.175 87.1785C111.087 87.4837 110.938 87.7631 110.728 88.0168C110.517 88.2705 110.27 88.4692 109.986 88.6129C109.712 88.7647 109.423 88.8549 109.118 88.8835C108.822 88.9024 108.526 88.8717 108.229 88.7917C107.931 88.6938 107.649 88.5359 107.384 88.3179Z" fill="#54545C"/>
<path d="M164.116 118.741L171.88 111.008L174.259 113.377L166.494 121.11L164.116 118.741Z" fill="#54545C"/>
<path d="M191.944 91.0303L200.622 84.3293L202.685 86.9757L194.006 93.6767L191.944 91.0303Z" fill="#54545C"/>
<path d="M223.063 67.0186L232.521 61.4591L234.236 64.3407L224.778 69.9001L223.063 67.0186Z" fill="#54545C"/>
<path d="M256.964 47.1007L267.05 42.7688L268.39 45.8407L258.303 50.1726L256.964 47.1007Z" fill="#54545C"/>
<path d="M293.124 31.5779L303.679 28.5417L304.622 31.7557L294.067 34.7918L293.124 31.5779Z" fill="#54545C"/>
<path d="M330.968 20.7003L341.824 19.0074L342.356 22.3129L331.499 24.0058L330.968 20.7003Z" fill="#54545C"/>
<path d="M369.899 14.6389L380.886 14.3154L380.998 17.6602L370.011 17.9837L369.899 14.6389Z" fill="#54545C"/>
<path d="M409.306 13.4877L420.25 14.5382L419.94 17.8697L408.996 16.8192L409.306 13.4877Z" fill="#54545C"/>
<path d="M448.567 17.2634L459.295 19.6708L458.568 22.9364L447.84 20.5291L448.567 17.2634Z" fill="#54545C"/>
<path d="M487.06 25.9076L497.404 29.6334L496.271 32.7816L485.927 29.0558L487.06 25.9076Z" fill="#54545C"/>
<path d="M524.176 39.2855L533.973 44.2708L532.453 47.2516L522.656 42.2664L524.176 39.2855Z" fill="#54545C"/>
<path d="M559.337 57.1838L568.433 63.3497L566.549 66.1162L557.452 59.9502L559.337 57.1838Z" fill="#54545C"/>
<path d="M591.985 79.319L600.238 86.5687L598.019 89.0768L589.766 81.8272L591.985 79.319Z" fill="#54545C"/>
<path d="M621.605 105.345L628.884 113.564L626.366 115.774L619.087 107.555L621.605 105.345Z" fill="#54545C"/>
<path d="M647.729 134.851L653.92 143.91L651.143 145.788L644.952 136.728L647.729 134.851Z" fill="#54545C"/>
<path d="M669.948 167.371L674.953 177.128L671.96 178.643L666.955 168.885L669.948 167.371Z" fill="#54545C"/>
<path d="M687.912 202.392L691.653 212.694L688.492 213.822L684.751 203.52L687.912 202.392Z" fill="#54545C"/>
<path d="M701.335 239.365L703.752 250.05L700.473 250.774L698.056 240.089L701.335 239.365Z" fill="#54545C"/>
<path d="M710.008 277.701L711.062 288.601L707.717 288.909L706.663 278.01L710.008 277.701Z" fill="#54545C"/>
<path d="M713.792 316.802L713.467 327.745L710.109 327.634L710.434 316.691L713.792 316.802Z" fill="#54545C"/>
<path d="M712.625 356.048L710.926 366.861L707.607 366.332L709.307 355.519L712.625 356.048Z" fill="#54545C"/>
<path d="M706.532 394.822L703.484 405.334L700.257 404.395L703.305 393.883L706.532 394.822Z" fill="#54545C"/>
<path d="M695.602 432.513L691.253 442.558L688.168 441.224L692.518 431.179L695.602 432.513Z" fill="#54545C"/>
<path d="M680.011 468.524L674.429 477.943L671.536 476.236L677.118 466.816L680.011 468.524Z" fill="#54545C"/>
<path d="M660.004 502.281L653.278 510.927L650.621 508.872L657.348 500.227L660.004 502.281Z" fill="#54545C"/>
<path d="M635.892 533.267L628.127 541L625.749 538.631L633.514 530.898L635.892 533.267Z" fill="#54545C"/>
<path d="M608.06 560.981L599.38 567.68L597.317 565.034L605.998 558.335L608.06 560.981Z" fill="#54545C"/>
<path d="M576.945 584.99L567.487 590.549L565.773 587.668L575.231 582.108L576.945 584.99Z" fill="#54545C"/>
<path d="M543.04 604.911L532.954 609.243L531.614 606.171L541.701 601.839L543.04 604.911Z" fill="#54545C"/>
<path d="M506.88 620.434L496.325 623.47L495.382 620.256L505.937 617.22L506.88 620.434Z" fill="#54545C"/>
<path d="M469.036 631.31L458.179 633.003L457.647 629.698L468.504 628.005L469.036 631.31Z" fill="#54545C"/>
<path d="M430.104 637.372L419.117 637.695L419.005 634.35L429.992 634.027L430.104 637.372Z" fill="#54545C"/>
<path d="M390.7 638.52L379.756 637.469L380.066 634.138L391.01 635.188L390.7 638.52Z" fill="#54545C"/>
<path d="M351.444 634.741L340.716 632.333L341.443 629.068L352.171 631.475L351.444 634.741Z" fill="#54545C"/>
<path d="M312.95 626.097L302.606 622.372L303.739 619.223L314.083 622.949L312.95 626.097Z" fill="#54545C"/>
<path d="M275.832 612.719L266.035 607.733L267.556 604.752L277.353 609.738L275.832 612.719Z" fill="#54545C"/>
<path d="M240.67 594.823L231.574 588.657L233.458 585.891L242.555 592.057L240.67 594.823Z" fill="#54545C"/>
<path d="M208.026 572.684L199.773 565.435L201.992 562.927L210.245 570.176L208.026 572.684Z" fill="#54545C"/>
<path d="M178.405 546.659L171.127 538.44L173.645 536.229L180.924 544.449L178.405 546.659Z" fill="#54545C"/>
<path d="M152.28 517.153L146.089 508.093L148.867 506.216L155.058 515.276L152.28 517.153Z" fill="#54545C"/>
<path d="M130.062 484.634L125.057 474.876L128.05 473.361L133.055 483.119L130.062 484.634Z" fill="#54545C"/>
<path d="M112.098 449.613L108.357 439.31L111.518 438.182L115.259 448.484L112.098 449.613Z" fill="#54545C"/>
<path d="M98.6722 412.644L96.255 401.959L99.5339 401.235L101.951 411.92L98.6722 412.644Z" fill="#54545C"/>
<path d="M90.0021 374.304L88.9474 363.404L92.2924 363.095L93.3472 373.995L90.0021 374.304Z" fill="#54545C"/>
<path d="M86.2184 335.205L86.5431 324.262L89.9016 324.373L89.5768 335.316L86.2184 335.205Z" fill="#54545C"/>
<path d="M87.3779 295.96L89.0777 285.148L92.3965 285.677L90.6967 296.49L87.3779 295.96Z" fill="#54545C"/>
<path d="M93.472 257.189L96.5203 246.676L99.7473 247.615L96.6989 258.128L93.472 257.189Z" fill="#54545C"/>
<path d="M104.403 219.498L108.752 209.453L111.836 210.787L107.487 220.832L104.403 219.498Z" fill="#54545C"/>
<path d="M119.994 183.488L125.576 174.068L128.469 175.776L122.887 185.196L119.994 183.488Z" fill="#54545C"/>
<path d="M140.002 149.725L146.729 141.08L149.386 143.135L142.659 151.78L140.002 149.725Z" fill="#54545C"/>
<path d="M524.519 484.467L327.829 280.238L294.341 315.009L364.78 388.148L343.225 410.529L250.846 314.609L305.889 257.457L241.224 190.314L263.164 167.533L546.459 461.686L524.519 484.467ZM503.734 371.761L481.794 348.981L515.281 314.21L444.842 241.071L466.397 218.69L558.776 314.609L503.734 371.761Z" fill="#54545C"/>
</svg>
