<svg width="250" height="250" viewBox="0 0 250 250" fill="none" xmlns="http://www.w3.org/2000/svg">
<path d="M135.679 1.04407L135.397 4.00702L138.873 4.33992L138.784 5.27434L135.308 4.94144L134.961 8.5845L133.816 8.47485L134.623 0L139.834 0.499068L139.745 1.43349L135.679 1.04407Z" fill="#54545C"/>
<path d="M148.514 5.65647C148.778 5.28801 149.068 5.01725 149.383 4.84419C149.699 4.66724 150.052 4.61665 150.444 4.69242C150.569 4.71642 150.684 4.75291 150.792 4.80189C150.903 4.85162 150.997 4.91428 151.075 4.98987L150.851 5.75113C150.809 5.84386 150.741 5.88122 150.648 5.86322C150.594 5.85272 150.516 5.82567 150.416 5.78208C150.316 5.73849 150.2 5.70394 150.068 5.67844C149.881 5.64243 149.709 5.6374 149.551 5.66334C149.397 5.69003 149.252 5.74657 149.114 5.83296C148.982 5.91622 148.853 6.02857 148.73 6.17002C148.61 6.30833 148.494 6.47148 148.382 6.65946L147.664 10.3931L146.622 10.1916L147.758 4.28206L148.352 4.39684C148.464 4.41859 148.538 4.45498 148.572 4.50602C148.607 4.55705 148.622 4.63657 148.617 4.74458L148.514 5.65647Z" fill="#54545C"/>
<path d="M159.541 7.03055C159.962 7.1545 160.321 7.33648 160.617 7.57649C160.913 7.81649 161.143 8.10088 161.306 8.42966C161.47 8.75845 161.56 9.12558 161.577 9.53108C161.599 9.93389 161.544 10.3614 161.412 10.8137C161.278 11.2697 161.094 11.6612 160.858 11.9881C160.626 12.3161 160.353 12.5741 160.038 12.7622C159.723 12.9502 159.377 13.0649 158.998 13.1061C158.621 13.1436 158.221 13.1003 157.801 12.9763C157.376 12.8513 157.013 12.6701 156.712 12.4327C156.415 12.1927 156.186 11.9084 156.022 11.5796C155.859 11.2508 155.766 10.885 155.744 10.4822C155.726 10.0805 155.784 9.65161 155.917 9.19556C156.049 8.74331 156.232 8.35319 156.464 8.0252C156.7 7.69453 156.976 7.43515 157.291 7.24707C157.605 7.05899 157.952 6.94434 158.331 6.90311C158.713 6.863 159.117 6.90548 159.541 7.03055ZM158.033 12.1839C158.601 12.3514 159.082 12.2865 159.474 11.9891C159.866 11.6879 160.163 11.1952 160.363 10.5112C160.565 9.82328 160.581 9.2461 160.413 8.77962C160.245 8.31314 159.876 7.99615 159.308 7.82864C159.019 7.74377 158.753 7.71892 158.508 7.75408C158.266 7.79035 158.046 7.88038 157.848 8.02417C157.653 8.16907 157.48 8.36773 157.327 8.62015C157.18 8.86988 157.056 9.16576 156.956 9.5078C156.756 10.1919 156.74 10.7672 156.908 11.2336C157.081 11.6974 157.456 12.0142 158.033 12.1839Z" fill="#54545C"/>
<path d="M168.835 11.2064C169.011 11.119 169.188 11.0473 169.368 10.9915C169.548 10.9357 169.728 10.8994 169.909 10.8826C170.096 10.8635 170.281 10.8677 170.466 10.895C170.656 10.9201 170.85 10.9724 171.049 11.052C171.353 11.1742 171.6 11.3332 171.79 11.529C171.986 11.7226 172.123 11.9441 172.202 12.1935C172.286 12.4407 172.317 12.711 172.293 13.0045C172.27 13.298 172.195 13.6029 172.069 13.9192L170.649 17.477L169.663 17.0815L171.084 13.5236C171.252 13.1008 171.286 12.7344 171.184 12.4247C171.087 12.1127 170.842 11.878 170.45 11.7203C170.16 11.604 169.861 11.5648 169.552 11.6029C169.246 11.6425 168.94 11.7391 168.631 11.8926L166.989 16.0076L166.004 15.6121L168.234 10.0244L168.823 10.2608C168.963 10.3168 169.022 10.4194 169 10.5687L168.835 11.2064Z" fill="#54545C"/>
<path d="M179.622 21.9011C179.201 21.6832 178.936 21.3972 178.829 21.0433C178.726 20.6912 178.788 20.2933 179.016 19.8496L180.699 16.5751L180.057 16.2428C180 16.2137 179.961 16.1734 179.939 16.1217C179.918 16.0665 179.926 16.0037 179.962 15.9333L180.155 15.5583L181.087 15.8996L182.152 14.3582C182.19 14.3108 182.235 14.2804 182.286 14.2669C182.343 14.2516 182.401 14.2595 182.461 14.2903L182.935 14.5355L181.987 16.3787L183.531 17.1769L183.181 17.8582L181.637 17.06L179.987 20.2711C179.871 20.4965 179.839 20.6919 179.892 20.8573C179.945 21.0228 180.057 21.15 180.229 21.239C180.328 21.2898 180.418 21.3211 180.501 21.3328C180.589 21.3427 180.668 21.3455 180.737 21.341C180.806 21.3366 180.864 21.3311 180.912 21.3246C180.965 21.3165 181.006 21.3196 181.034 21.3342C181.083 21.3596 181.112 21.4122 181.12 21.492L181.163 22.0826C180.923 22.1505 180.667 22.1694 180.393 22.1394C180.122 22.1058 179.865 22.0264 179.622 21.9011Z" fill="#54545C"/>
<path d="M200.572 34.7765L199.988 35.5109L195.875 32.2664L201.124 25.5723L205.237 28.8168L204.658 29.5549L201.449 27.0232L199.705 29.2468L202.305 31.2971L201.748 32.0072L199.148 29.9569L197.357 32.2412L200.572 34.7765Z" fill="#54545C"/>
<path d="M207.863 35.699C208.058 35.6831 208.25 35.6828 208.437 35.6979C208.625 35.7131 208.806 35.7466 208.981 35.7985C209.161 35.8502 209.331 35.9232 209.493 36.0175C209.66 36.1116 209.821 36.2325 209.975 36.3801C210.212 36.6071 210.383 36.8468 210.487 37.0994C210.596 37.3518 210.641 37.6085 210.622 37.8696C210.609 38.1306 210.537 38.3929 210.406 38.6567C210.276 38.9205 210.093 39.1756 209.859 39.4223L207.221 42.1966L206.453 41.4625L209.091 38.6881C209.405 38.3583 209.571 38.0306 209.592 37.7051C209.617 37.3793 209.477 37.0702 209.171 36.7776C208.946 36.5616 208.682 36.4138 208.381 36.334C208.083 36.2571 207.763 36.2325 207.42 36.2603L204.369 39.4691L203.601 38.735L207.744 34.3777L208.203 34.8165C208.311 34.9204 208.328 35.0377 208.253 35.1684L207.863 35.699Z" fill="#54545C"/>
<path d="M217.431 46.5705C217.502 46.2469 217.501 45.9646 217.429 45.7235C217.359 45.4797 217.232 45.2501 217.045 45.0345C216.681 44.6123 216.249 44.4184 215.751 44.4529C215.253 44.4875 214.724 44.7473 214.166 45.2326C213.87 45.4895 213.639 45.7355 213.471 45.9707C213.306 46.2032 213.197 46.4286 213.145 46.6467C213.096 46.8623 213.102 47.0692 213.164 47.2674C213.225 47.4657 213.335 47.6561 213.493 47.8388C213.72 48.1023 213.978 48.2794 214.266 48.3703C214.556 48.4641 214.881 48.4986 215.241 48.4739L217.431 46.5705ZM221.262 44.6415L214.664 50.3749L214.253 49.8988C214.155 49.785 214.148 49.6652 214.233 49.5392L214.721 48.9886C214.32 48.9964 213.941 48.9383 213.583 48.8143C213.225 48.6903 212.905 48.4651 212.623 48.1387C212.398 47.8782 212.243 47.5989 212.157 47.3006C212.075 46.9998 212.067 46.6902 212.131 46.3718C212.196 46.0534 212.338 45.728 212.558 45.3954C212.778 45.0629 213.076 44.7331 213.452 44.4062C213.787 44.1155 214.136 43.8906 214.5 43.7313C214.867 43.5694 215.229 43.4802 215.586 43.4636C215.943 43.4471 216.286 43.5082 216.615 43.6469C216.95 43.7861 217.249 44.0083 217.513 44.3138C217.753 44.5922 217.911 44.8718 217.986 45.1525C218.067 45.4335 218.091 45.7246 218.058 46.0256L220.571 43.842L221.262 44.6415Z" fill="#54545C"/>
<path d="M231.525 67.8749C230.974 68.1939 230.422 68.3967 229.87 68.4833C229.317 68.5699 228.788 68.5468 228.283 68.414C227.777 68.2813 227.306 68.0417 226.87 67.6953C226.439 67.3503 226.067 66.9069 225.755 66.3648L224.17 63.6117L231.526 59.3523L233.111 62.1054C233.423 62.6475 233.618 63.193 233.697 63.7421C233.781 64.2925 233.752 64.8214 233.611 65.3287C233.473 65.8341 233.229 66.305 232.878 66.7415C232.527 67.1781 232.076 67.5558 231.525 67.8749ZM230.935 66.8508C231.387 66.5892 231.755 66.2937 232.04 65.9641C232.325 65.6345 232.525 65.2851 232.641 64.916C232.757 64.5469 232.787 64.1635 232.732 63.7657C232.676 63.3679 232.534 62.97 232.305 62.5721L231.295 60.8173L225.551 64.1433L226.561 65.8981C226.79 66.2961 227.062 66.6187 227.378 66.8659C227.694 67.1131 228.038 67.2795 228.411 67.3653C228.788 67.449 229.19 67.4496 229.617 67.367C230.044 67.2845 230.483 67.1124 230.935 66.8508Z" fill="#54545C"/>
<path d="M235.003 76.5144C235.225 76.4124 235.414 76.2869 235.568 76.1381C235.727 75.9912 235.845 75.826 235.922 75.6426C236.004 75.4611 236.042 75.2675 236.035 75.0616C236.032 74.8541 235.98 74.6404 235.88 74.4206C235.67 73.9594 235.369 73.6554 234.976 73.5086C234.589 73.3638 234.143 73.3677 233.639 73.5201L235.003 76.5144ZM232.796 78.4658C232.598 78.4128 232.407 78.3281 232.224 78.2117C232.044 78.0937 231.877 77.9549 231.721 77.7952C231.568 77.6391 231.429 77.4676 231.305 77.2806C231.177 77.0953 231.068 76.9035 230.978 76.7054C230.805 76.327 230.709 75.9487 230.689 75.5704C230.674 75.194 230.735 74.8328 230.873 74.4866C231.016 74.1424 231.24 73.8223 231.544 73.5263C231.848 73.2303 232.235 72.9744 232.706 72.7587C233.087 72.5842 233.469 72.4789 233.852 72.4427C234.237 72.4101 234.6 72.4486 234.941 72.5581C235.286 72.6659 235.598 72.8471 235.879 73.1016C236.164 73.3545 236.396 73.6791 236.577 74.0755C236.726 74.4033 236.808 74.7315 236.823 75.06C236.843 75.3905 236.795 75.7043 236.678 76.0016C236.567 76.3008 236.385 76.5781 236.132 76.8333C235.882 77.0869 235.564 77.3026 235.175 77.4805C235.024 77.5496 234.916 77.5795 234.851 77.5701C234.786 77.5607 234.733 77.511 234.692 77.4209L233.026 73.7618C232.686 73.9307 232.407 74.115 232.189 74.3148C231.974 74.5182 231.814 74.7351 231.71 74.9654C231.61 75.1941 231.565 75.4328 231.573 75.6813C231.586 75.9281 231.651 76.1813 231.769 76.4407C231.879 76.6821 232.001 76.8769 232.133 77.0252C232.271 77.1754 232.401 77.2988 232.523 77.3952C232.645 77.4917 232.752 77.569 232.844 77.6272C232.941 77.6874 233.003 77.7481 233.031 77.8093C233.067 77.8886 233.065 77.9638 233.023 78.0351L232.796 78.4658Z" fill="#54545C"/>
<path d="M241.711 87.5892L235.236 87.2402L234.926 86.3418L239.8 82.0531L240.081 82.8673C240.11 82.9496 240.112 83.0241 240.089 83.0908C240.066 83.1575 240.03 83.2099 239.981 83.248L236.826 85.9589C236.703 86.0517 236.582 86.1377 236.463 86.2168C236.344 86.2958 236.225 86.373 236.104 86.4483C236.245 86.4329 236.387 86.4194 236.529 86.4077C236.672 86.396 236.82 86.3905 236.975 86.3912L241.131 86.5832C241.199 86.5849 241.26 86.6054 241.316 86.6449C241.375 86.683 241.417 86.7377 241.441 86.8088L241.711 87.5892Z" fill="#54545C"/>
<path d="M244.377 107.315C244.098 106.931 243.787 106.656 243.444 106.489C243.101 106.326 242.746 106.272 242.378 106.325C242.124 106.361 241.906 106.441 241.724 106.563C241.546 106.685 241.401 106.832 241.29 107.004C241.179 107.176 241.102 107.365 241.06 107.571C241.021 107.777 241.017 107.981 241.046 108.185C241.109 108.624 241.246 109.007 241.456 109.333C241.667 109.662 241.926 109.939 242.234 110.163L244.377 107.315ZM241.013 113.346L240.867 112.329C240.851 112.215 240.851 112.121 240.869 112.046C240.886 111.972 240.932 111.887 241.006 111.792L241.741 110.816C241.332 110.499 240.987 110.114 240.707 109.663C240.431 109.214 240.252 108.702 240.169 108.126C240.124 107.812 240.133 107.497 240.195 107.18C240.258 106.866 240.372 106.576 240.537 106.308C240.706 106.04 240.925 105.812 241.194 105.625C241.463 105.438 241.779 105.319 242.143 105.266C242.417 105.227 242.681 105.235 242.937 105.29C243.197 105.348 243.442 105.445 243.673 105.58C243.904 105.714 244.118 105.882 244.314 106.081C244.51 106.281 244.686 106.506 244.842 106.756C245.113 106.472 245.381 106.254 245.646 106.099C245.916 105.945 246.203 105.845 246.508 105.801C246.793 105.76 247.069 105.772 247.334 105.838C247.599 105.908 247.838 106.027 248.05 106.197C248.266 106.366 248.447 106.582 248.592 106.845C248.742 107.112 248.842 107.419 248.892 107.768C248.937 108.078 248.926 108.367 248.861 108.637C248.8 108.906 248.7 109.144 248.562 109.352C248.424 109.56 248.253 109.733 248.05 109.87C247.85 110.011 247.634 110.106 247.402 110.156L247.179 109.522C247.129 109.397 247.176 109.292 247.32 109.207C247.417 109.165 247.517 109.105 247.617 109.026C247.718 108.952 247.807 108.859 247.883 108.748C247.959 108.641 248.017 108.515 248.056 108.369C248.095 108.227 248.102 108.066 248.076 107.886C248.048 107.69 247.992 107.516 247.906 107.364C247.821 107.216 247.713 107.094 247.584 106.997C247.458 106.903 247.315 106.837 247.154 106.8C246.997 106.763 246.831 106.757 246.655 106.782C246.518 106.802 246.389 106.837 246.268 106.886C246.147 106.936 246.027 107.003 245.908 107.088C245.789 107.177 245.67 107.284 245.553 107.409C245.435 107.534 245.312 107.682 245.185 107.853L243.073 110.63C243.361 110.741 243.654 110.82 243.952 110.869C244.255 110.918 244.551 110.935 244.84 110.921C244.916 110.918 244.978 110.934 245.026 110.967C245.075 111 245.104 111.051 245.114 111.122L245.206 111.763C244.756 111.824 244.304 111.817 243.85 111.742C243.4 111.667 242.967 111.528 242.55 111.324L241.013 113.346Z" fill="#54545C"/>
<path d="M242.265 130.606C242.248 130.959 242.293 131.276 242.398 131.558C242.503 131.841 242.658 132.082 242.862 132.283C243.066 132.487 243.314 132.645 243.605 132.758C243.896 132.875 244.22 132.942 244.575 132.959L249.733 133.206L249.678 134.351L244.521 134.104C244.031 134.081 243.581 133.98 243.17 133.802C242.759 133.628 242.406 133.387 242.112 133.079C241.822 132.776 241.6 132.411 241.446 131.983C241.292 131.555 241.228 131.08 241.252 130.558C241.277 130.036 241.386 129.569 241.58 129.158C241.774 128.747 242.029 128.403 242.347 128.124C242.669 127.846 243.043 127.638 243.469 127.5C243.895 127.366 244.353 127.31 244.842 127.333L250 127.58L249.946 128.725L244.794 128.479C244.438 128.462 244.11 128.496 243.809 128.581C243.509 128.669 243.247 128.804 243.025 128.983C242.802 129.167 242.623 129.394 242.488 129.665C242.356 129.941 242.282 130.254 242.265 130.606Z" fill="#54545C"/>
<path d="M239.645 146.196L239.807 145.067C239.819 144.981 239.85 144.915 239.901 144.87C239.954 144.83 240.011 144.798 240.07 144.775L243.926 143.026C243.837 142.981 243.762 142.934 243.701 142.886L240.724 140.212C240.675 140.164 240.631 140.114 240.59 140.06C240.553 140.011 240.541 139.947 240.552 139.869L240.704 138.81L244.607 142.332L249.096 140.14L248.933 141.275C248.921 141.358 248.899 141.416 248.866 141.452C248.833 141.487 248.789 141.517 248.733 141.541L245.05 143.254C245.128 143.293 245.212 143.348 245.302 143.417L248.079 145.936C248.13 145.975 248.167 146.018 248.192 146.066C248.221 146.114 248.232 146.168 248.223 146.227L248.067 147.315L244.43 143.939L239.645 146.196Z" fill="#54545C"/>
<path d="M238.38 151.283C238.257 151.201 238.176 151.097 238.137 150.974C238.097 150.854 238.09 150.738 238.117 150.627L238.222 150.194L246.007 155.762C246.119 155.838 246.196 155.93 246.239 156.038C246.281 156.151 246.287 156.268 246.258 156.391L246.152 156.83L238.38 151.283Z" fill="#54545C"/>
<path d="M235.941 163.514C235.826 163.847 235.779 164.164 235.801 164.465C235.822 164.766 235.903 165.042 236.043 165.291C236.181 165.545 236.374 165.767 236.622 165.958C236.869 166.152 237.16 166.308 237.496 166.424L242.375 168.118L242.001 169.202L237.122 167.508C236.659 167.347 236.255 167.123 235.911 166.836C235.566 166.553 235.295 166.222 235.099 165.844C234.906 165.471 234.796 165.057 234.768 164.604C234.741 164.15 234.812 163.676 234.983 163.182C235.153 162.688 235.389 162.271 235.691 161.931C235.992 161.591 236.334 161.333 236.717 161.156C237.104 160.98 237.521 160.886 237.969 160.873C238.415 160.865 238.87 160.941 239.333 161.102L244.212 162.795L243.838 163.879L238.964 162.187C238.628 162.071 238.304 162.01 237.992 162.007C237.678 162.007 237.389 162.062 237.126 162.171C236.861 162.285 236.625 162.452 236.419 162.674C236.215 162.901 236.056 163.181 235.941 163.514Z" fill="#54545C"/>
<path d="M230.722 174.056L231.2 173.007L238.926 176.546L238.449 177.595L230.722 174.056Z" fill="#54545C"/>
<path d="M221.062 198.453C220.544 198.083 220.131 197.664 219.823 197.196C219.515 196.728 219.316 196.236 219.227 195.72C219.137 195.204 219.159 194.674 219.292 194.132C219.425 193.595 219.673 193.072 220.035 192.562L221.874 189.972L228.792 194.913L226.954 197.503C226.592 198.013 226.178 198.418 225.713 198.718C225.248 199.023 224.757 199.217 224.238 199.299C223.722 199.383 223.194 199.355 222.652 199.217C222.11 199.078 221.58 198.823 221.062 198.453ZM221.746 197.49C222.171 197.793 222.592 198.007 223.009 198.129C223.426 198.252 223.827 198.29 224.21 198.243C224.592 198.195 224.953 198.063 225.291 197.847C225.628 197.631 225.93 197.336 226.196 196.962L227.368 195.311L221.965 191.453L220.793 193.103C220.528 193.478 220.348 193.86 220.255 194.251C220.162 194.642 220.154 195.025 220.231 195.401C220.312 195.78 220.478 196.147 220.731 196.502C220.983 196.857 221.321 197.187 221.746 197.49Z" fill="#54545C"/>
<path d="M214.672 205.216C214.857 205.377 215.049 205.497 215.248 205.575C215.447 205.659 215.646 205.698 215.844 205.693C216.043 205.692 216.235 205.646 216.419 205.554C216.605 205.465 216.778 205.329 216.936 205.147C217.267 204.763 217.417 204.362 217.387 203.943C217.358 203.529 217.169 203.124 216.822 202.728L214.672 205.216ZM211.986 204.014C211.952 203.811 211.949 203.602 211.979 203.387C212.011 203.174 212.068 202.963 212.148 202.755C212.226 202.55 212.324 202.352 212.442 202.161C212.557 201.968 212.685 201.788 212.828 201.624C213.099 201.309 213.402 201.064 213.737 200.889C214.072 200.719 214.425 200.624 214.797 200.606C215.168 200.594 215.551 200.664 215.946 200.819C216.341 200.973 216.734 201.22 217.125 201.56C217.441 201.835 217.696 202.14 217.888 202.475C218.077 202.812 218.193 203.159 218.235 203.516C218.28 203.875 218.246 204.235 218.131 204.597C218.02 204.962 217.822 205.309 217.538 205.639C217.302 205.911 217.039 206.122 216.747 206.272C216.456 206.428 216.151 206.515 215.833 206.532C215.515 206.555 215.188 206.504 214.852 206.379C214.518 206.257 214.19 206.055 213.867 205.775C213.742 205.666 213.67 205.58 213.652 205.517C213.633 205.454 213.656 205.384 213.721 205.31L216.348 202.269C216.053 202.029 215.77 201.851 215.499 201.736C215.225 201.623 214.962 201.568 214.71 201.569C214.461 201.573 214.226 201.63 214.004 201.742C213.785 201.856 213.583 202.02 213.396 202.236C213.223 202.437 213.097 202.628 213.017 202.811C212.938 202.999 212.88 203.169 212.844 203.321C212.807 203.472 212.781 203.602 212.766 203.71C212.752 203.823 212.723 203.905 212.679 203.956C212.622 204.022 212.553 204.051 212.471 204.042L211.986 204.014Z" fill="#54545C"/>
<path d="M207.568 214.419C207.542 214.323 207.565 214.241 207.637 214.173C207.68 214.132 207.743 214.101 207.828 214.081C207.912 214.06 208.012 214.03 208.127 213.991C208.243 213.957 208.37 213.904 208.508 213.832C208.65 213.762 208.795 213.657 208.943 213.514C209.072 213.391 209.172 213.263 209.242 213.131C209.315 213.001 209.361 212.871 209.381 212.743C209.398 212.617 209.39 212.497 209.356 212.381C209.322 212.271 209.263 212.171 209.179 212.082C209.072 211.97 208.952 211.907 208.818 211.893C208.682 211.881 208.535 211.899 208.377 211.946C208.22 211.992 208.053 212.058 207.878 212.144C207.705 212.232 207.526 212.319 207.339 212.404C207.153 212.495 206.965 212.576 206.776 212.647C206.587 212.718 206.399 212.762 206.211 212.777C206.024 212.792 205.838 212.766 205.656 212.7C205.473 212.64 205.298 212.522 205.132 212.347C204.941 212.147 204.799 211.926 204.707 211.686C204.618 211.448 204.583 211.199 204.603 210.939C204.626 210.682 204.705 210.42 204.84 210.154C204.975 209.889 205.175 209.628 205.441 209.374C205.744 209.084 206.065 208.871 206.404 208.733C206.745 208.598 207.075 208.526 207.394 208.517L207.492 208.982C207.504 209.041 207.505 209.096 207.492 209.146C207.48 209.196 207.449 209.244 207.401 209.291C207.349 209.34 207.276 209.372 207.18 209.386C207.085 209.401 206.974 209.422 206.848 209.45C206.719 209.48 206.576 209.532 206.421 209.604C206.265 209.675 206.1 209.795 205.926 209.962C205.777 210.104 205.665 210.247 205.589 210.391C205.516 210.538 205.473 210.68 205.461 210.817C205.45 210.954 205.468 211.082 205.515 211.2C205.56 211.322 205.628 211.432 205.721 211.529C205.836 211.649 205.963 211.717 206.102 211.731C206.241 211.752 206.39 211.738 206.547 211.692C206.708 211.648 206.875 211.58 207.051 211.489C207.226 211.404 207.407 211.316 207.594 211.225C207.777 211.137 207.965 211.056 208.157 210.982C208.349 210.913 208.539 210.873 208.73 210.861C208.92 210.849 209.109 210.876 209.298 210.942C209.486 211.013 209.669 211.143 209.846 211.329C210.004 211.495 210.121 211.687 210.197 211.905C210.276 212.125 210.304 212.356 210.281 212.596C210.262 212.84 210.189 213.087 210.062 213.339C209.936 213.591 209.75 213.835 209.504 214.07C209.218 214.344 208.919 214.542 208.606 214.667C208.293 214.796 207.978 214.862 207.662 214.863L207.568 214.419Z" fill="#54545C"/>
<path d="M200.307 221.896L196.596 217.164L197.425 216.51L201.136 221.242L200.307 221.896ZM201.294 223.521C201.231 223.44 201.188 223.351 201.166 223.252C201.144 223.159 201.138 223.062 201.15 222.962C201.161 222.868 201.192 222.775 201.242 222.685C201.289 222.598 201.353 222.522 201.434 222.459C201.515 222.395 201.603 222.351 201.699 222.325C201.792 222.303 201.885 222.297 201.979 222.308C202.076 222.323 202.167 222.352 202.252 222.396C202.339 222.443 202.414 222.507 202.478 222.588C202.541 222.669 202.586 222.757 202.611 222.854C202.638 222.953 202.646 223.05 202.635 223.144C202.626 223.242 202.6 223.333 202.556 223.418C202.509 223.506 202.445 223.582 202.364 223.645C202.284 223.709 202.195 223.753 202.099 223.779C202 223.806 201.903 223.813 201.806 223.798C201.708 223.79 201.615 223.76 201.525 223.71C201.435 223.665 201.358 223.602 201.294 223.521Z" fill="#54545C"/>
<path d="M189.694 225.68C189.514 225.796 189.372 225.923 189.268 226.061C189.164 226.199 189.094 226.343 189.059 226.493C189.023 226.642 189.022 226.794 189.054 226.947C189.089 227.104 189.154 227.257 189.25 227.407C189.449 227.717 189.702 227.903 190.009 227.964C190.312 228.027 190.642 227.944 190.997 227.715C191.356 227.484 191.572 227.215 191.644 226.91C191.713 226.607 191.648 226.3 191.449 225.99C191.353 225.84 191.241 225.717 191.113 225.62C190.985 225.529 190.845 225.468 190.694 225.438C190.543 225.408 190.384 225.412 190.215 225.45C190.047 225.488 189.873 225.565 189.694 225.68ZM186.331 223.963C186.41 224.086 186.509 224.163 186.628 224.195C186.747 224.227 186.88 224.226 187.028 224.192C187.172 224.16 187.327 224.102 187.494 224.018C187.663 223.938 187.839 223.846 188.022 223.742C188.201 223.641 188.384 223.537 188.57 223.431C188.755 223.326 188.939 223.231 189.12 223.147C189.251 222.94 189.333 222.732 189.367 222.521C189.4 222.316 189.36 222.126 189.247 221.949C189.175 221.836 189.079 221.749 188.961 221.689C188.837 221.627 188.693 221.6 188.528 221.607C188.361 221.611 188.176 221.651 187.97 221.727C187.76 221.801 187.532 221.918 187.286 222.076C187.046 222.23 186.846 222.39 186.684 222.556C186.522 222.721 186.402 222.886 186.324 223.049C186.242 223.215 186.202 223.375 186.202 223.53C186.203 223.685 186.246 223.829 186.331 223.963ZM188.722 229.683L188.51 229.353C188.44 229.243 188.465 229.128 188.585 229.009L189.111 228.564C188.857 228.417 188.644 228.21 188.473 227.943C188.315 227.697 188.219 227.441 188.186 227.175C188.151 226.915 188.17 226.66 188.245 226.41C188.319 226.159 188.448 225.921 188.632 225.694C188.815 225.467 189.043 225.266 189.316 225.091C189.552 224.938 189.793 224.823 190.038 224.745C190.102 224.61 190.138 224.486 190.145 224.373C190.154 224.263 190.135 224.17 190.086 224.093C190.009 223.973 189.902 223.912 189.765 223.911C189.627 223.915 189.469 223.956 189.293 224.032C189.116 224.108 188.924 224.208 188.717 224.332C188.507 224.458 188.29 224.582 188.066 224.702C187.842 224.828 187.616 224.938 187.39 225.032C187.16 225.128 186.939 225.186 186.726 225.206C186.513 225.225 186.312 225.193 186.121 225.108C185.928 225.026 185.756 224.868 185.607 224.635C185.468 224.418 185.388 224.173 185.367 223.899C185.344 223.627 185.383 223.347 185.485 223.06C185.585 222.769 185.754 222.482 185.99 222.198C186.22 221.913 186.52 221.651 186.889 221.413C187.258 221.176 187.604 221.004 187.927 220.9C188.25 220.795 188.542 220.746 188.804 220.751C189.066 220.757 189.296 220.811 189.493 220.915C189.685 221.017 189.838 221.156 189.951 221.333C190.112 221.583 190.169 221.845 190.124 222.119C190.079 222.393 189.953 222.669 189.747 222.948C189.939 222.918 190.115 222.93 190.275 222.982C190.434 223.039 190.575 223.163 190.696 223.353C190.743 223.426 190.778 223.51 190.801 223.604C190.825 223.701 190.836 223.805 190.832 223.916C190.826 224.032 190.806 224.151 190.771 224.273C190.736 224.394 190.683 224.516 190.611 224.637C190.95 224.617 191.263 224.676 191.55 224.816C191.839 224.96 192.081 225.185 192.278 225.491C192.436 225.738 192.532 225.991 192.568 226.251C192.601 226.516 192.578 226.774 192.499 227.023C192.421 227.276 192.29 227.515 192.107 227.742C191.92 227.971 191.687 228.175 191.407 228.355C191.188 228.496 190.968 228.603 190.746 228.675C190.527 228.751 190.309 228.792 190.093 228.8L188.722 229.683Z" fill="#54545C"/>
<path d="M182.041 232.745C181.992 232.935 181.93 233.116 181.854 233.289C181.778 233.462 181.688 233.622 181.582 233.771C181.474 233.925 181.349 234.063 181.208 234.185C181.064 234.312 180.898 234.425 180.708 234.523C180.416 234.674 180.135 234.757 179.863 234.773C179.589 234.794 179.332 234.753 179.093 234.65C178.851 234.552 178.627 234.398 178.422 234.188C178.216 233.978 178.035 233.722 177.879 233.419L176.128 230.012L177.072 229.525L178.823 232.931C179.031 233.336 179.285 233.601 179.585 233.727C179.883 233.858 180.221 233.826 180.596 233.632C180.874 233.488 181.099 233.287 181.273 233.028C181.443 232.771 181.571 232.475 181.657 232.141L179.632 228.201L180.575 227.713L183.325 233.063L182.761 233.355C182.628 233.424 182.512 233.401 182.413 233.287L182.041 232.745Z" fill="#54545C"/>
<path d="M168.055 237.513C168.146 237.741 168.262 237.936 168.403 238.097C168.542 238.263 168.701 238.389 168.88 238.475C169.056 238.566 169.248 238.613 169.453 238.616C169.66 238.622 169.875 238.581 170.099 238.491C170.569 238.302 170.886 238.015 171.051 237.629C171.214 237.247 171.232 236.801 171.104 236.289L168.055 237.513ZM166.217 235.211C166.279 235.016 166.373 234.829 166.497 234.651C166.624 234.476 166.77 234.315 166.937 234.167C167.099 234.021 167.277 233.89 167.469 233.774C167.66 233.655 167.856 233.555 168.058 233.474C168.443 233.319 168.825 233.24 169.203 233.238C169.578 233.241 169.935 233.319 170.274 233.474C170.61 233.633 170.918 233.872 171.198 234.19C171.479 234.509 171.715 234.909 171.907 235.39C172.063 235.78 172.15 236.168 172.167 236.553C172.181 236.94 172.125 237.302 172 237.638C171.876 237.978 171.68 238.283 171.413 238.552C171.148 238.825 170.813 239.043 170.41 239.205C170.076 239.339 169.745 239.405 169.417 239.405C169.087 239.409 168.776 239.346 168.486 239.216C168.193 239.09 167.925 238.894 167.683 238.629C167.442 238.367 167.243 238.038 167.084 237.641C167.023 237.486 166.998 237.377 167.011 237.312C167.023 237.247 167.075 237.196 167.167 237.159L170.893 235.664C170.741 235.315 170.57 235.027 170.382 234.8C170.189 234.574 169.981 234.404 169.757 234.289C169.533 234.178 169.298 234.121 169.05 234.119C168.803 234.119 168.548 234.173 168.284 234.279C168.038 234.378 167.838 234.49 167.684 234.616C167.528 234.747 167.399 234.871 167.297 234.989C167.195 235.107 167.112 235.21 167.05 235.299C166.985 235.393 166.922 235.453 166.86 235.478C166.779 235.51 166.704 235.504 166.635 235.459L166.217 235.211Z" fill="#54545C"/>
<path d="M158.625 241.883C158.559 242.332 158.425 242.706 158.224 243.004C158.025 243.307 157.733 243.514 157.35 243.627C157.229 243.663 157.109 243.683 156.992 243.689C156.87 243.696 156.757 243.684 156.653 243.653L156.505 242.873C156.5 242.771 156.543 242.707 156.634 242.68C156.687 242.664 156.768 242.653 156.878 242.645C156.987 242.638 157.106 242.615 157.234 242.577C157.417 242.524 157.572 242.449 157.7 242.354C157.825 242.259 157.929 242.142 158.011 242.002C158.091 241.867 158.154 241.708 158.199 241.525C158.242 241.348 158.27 241.15 158.285 240.931L157.216 237.282L158.235 236.982L159.925 242.757L159.345 242.928C159.235 242.96 159.153 242.962 159.099 242.932C159.045 242.903 158.996 242.839 158.951 242.741L158.625 241.883Z" fill="#54545C"/>
<path d="M136.875 241.889C136.885 241.991 136.876 242.089 136.85 242.184C136.819 242.278 136.775 242.362 136.719 242.435C136.658 242.508 136.584 242.569 136.498 242.617C136.411 242.665 136.316 242.694 136.214 242.704C136.112 242.714 136.014 242.703 135.919 242.672C135.825 242.642 135.741 242.596 135.668 242.535C135.595 242.475 135.534 242.401 135.486 242.314C135.438 242.227 135.409 242.132 135.4 242.03C135.39 241.924 135.4 241.823 135.431 241.729C135.462 241.638 135.507 241.556 135.568 241.483C135.628 241.409 135.702 241.35 135.789 241.306C135.876 241.258 135.971 241.229 136.073 241.22C136.175 241.21 136.273 241.22 136.368 241.251C136.462 241.278 136.545 241.322 136.618 241.382C136.688 241.443 136.746 241.515 136.794 241.598C136.838 241.685 136.865 241.782 136.875 241.889Z" fill="#54545C"/>
<path d="M114.321 248.956L114.603 245.993L111.127 245.66L111.216 244.726L114.692 245.059L115.039 241.416L116.183 241.525L115.377 250L110.165 249.501L110.254 248.567L114.321 248.956Z" fill="#54545C"/>
<path d="M101.486 244.344C101.222 244.712 100.932 244.983 100.617 245.156C100.301 245.333 99.9475 245.383 99.5556 245.308C99.4314 245.284 99.3156 245.247 99.2083 245.198C99.0971 245.148 99.0025 245.086 98.9245 245.01L99.1492 244.249C99.1912 244.156 99.2588 244.119 99.3519 244.137C99.4062 244.147 99.4835 244.174 99.5838 244.218C99.6841 244.262 99.8003 244.296 99.9322 244.322C100.118 244.358 100.291 244.363 100.449 244.337C100.603 244.31 100.748 244.253 100.886 244.167C101.018 244.084 101.147 243.971 101.27 243.83C101.39 243.692 101.505 243.529 101.618 243.341L102.336 239.607L103.377 239.808L102.242 245.718L101.648 245.603C101.536 245.581 101.462 245.545 101.428 245.494C101.393 245.443 101.378 245.363 101.383 245.255L101.486 244.344Z" fill="#54545C"/>
<path d="M90.4587 242.97C90.0378 242.846 89.6791 242.664 89.3828 242.424C89.0865 242.184 88.8567 241.899 88.6935 241.57C88.5303 241.242 88.44 240.874 88.4228 240.469C88.4007 240.066 88.4559 239.639 88.5883 239.186C88.7218 238.73 88.9064 238.339 89.1421 238.012C89.3741 237.684 89.6473 237.426 89.9619 237.238C90.2765 237.05 90.6231 236.935 91.0017 236.894C91.3793 236.857 91.7785 236.9 92.1994 237.024C92.6241 237.149 92.9871 237.33 93.2883 237.567C93.5846 237.807 93.8144 238.092 93.9776 238.42C94.1409 238.749 94.2335 239.115 94.2557 239.518C94.274 239.92 94.2164 240.348 94.0829 240.805C93.9505 241.257 93.7683 241.647 93.5363 241.975C93.2995 242.306 93.0238 242.565 92.7092 242.753C92.3947 242.941 92.0481 243.056 91.6694 243.097C91.287 243.137 90.8834 243.095 90.4587 242.97ZM91.9674 237.816C91.3986 237.649 90.9183 237.714 90.5264 238.011C90.1334 238.312 89.8368 238.805 89.6365 239.489C89.4351 240.177 89.4186 240.754 89.5868 241.22C89.755 241.687 90.1235 242.004 90.6923 242.171C90.9805 242.256 91.2472 242.281 91.4922 242.246C91.7335 242.21 91.9535 242.12 92.1521 241.976C92.3469 241.831 92.5204 241.632 92.6725 241.38C92.8198 241.13 92.9435 240.834 93.0436 240.492C93.2439 239.808 93.2599 239.233 93.0917 238.766C92.9186 238.303 92.5438 237.986 91.9674 237.816Z" fill="#54545C"/>
<path d="M81.1648 238.794C80.9894 238.881 80.8118 238.953 80.632 239.009C80.4522 239.064 80.2717 239.101 80.0905 239.118C79.9041 239.137 79.7185 239.132 79.5335 239.105C79.3435 239.08 79.1494 239.028 78.9513 238.948C78.6468 238.826 78.3995 238.667 78.2095 238.471C78.0143 238.277 77.8771 238.056 77.7979 237.807C77.7135 237.559 77.6831 237.289 77.7066 236.996C77.7301 236.702 77.805 236.397 77.9312 236.081L79.3514 232.523L80.3364 232.919L78.9163 236.476C78.7475 236.899 78.7141 237.266 78.816 237.575C78.9129 237.887 79.1576 238.122 79.5501 238.28C79.84 238.396 80.1393 238.435 80.4483 238.397C80.7535 238.358 81.0602 238.261 81.3685 238.107L83.011 233.992L83.9961 234.388L81.7656 239.976L81.1768 239.739C81.0374 239.683 80.9783 239.581 80.9996 239.431L81.1648 238.794Z" fill="#54545C"/>
<path d="M70.3778 228.099C70.7992 228.317 71.0635 228.603 71.1705 228.957C71.2741 229.309 71.2118 229.707 70.9838 230.15L69.3006 233.425L69.9434 233.757C69.9996 233.786 70.0388 233.827 70.0612 233.878C70.0817 233.933 70.0739 233.996 70.0377 234.067L69.8449 234.442L68.9134 234.1L67.8476 235.642C67.8099 235.689 67.7654 235.72 67.714 235.733C67.6572 235.748 67.599 235.741 67.5393 235.71L67.0651 235.465L68.0126 233.621L66.4689 232.823L66.8191 232.142L68.3628 232.94L70.0134 229.729C70.1292 229.504 70.1608 229.308 70.108 229.143C70.0552 228.977 69.9428 228.85 69.7706 228.761C69.6723 228.71 69.5817 228.679 69.4987 228.667C69.4105 228.657 69.3319 228.654 69.2629 228.659C69.194 228.663 69.1356 228.669 69.0878 228.675C69.0347 228.684 68.9941 228.68 68.966 228.666C68.9168 228.64 68.8883 228.588 68.8804 228.508L68.8372 227.917C69.0766 227.85 69.3331 227.831 69.6066 227.861C69.8783 227.894 70.1354 227.974 70.3778 228.099Z" fill="#54545C"/>
<path d="M49.4281 215.224L50.0115 214.489L54.1251 217.734L48.8762 224.428L44.7627 221.183L45.3414 220.445L48.5512 222.977L50.2947 220.753L47.6952 218.703L48.2519 217.993L50.8515 220.043L52.6426 217.759L49.4281 215.224Z" fill="#54545C"/>
<path d="M42.1367 214.301C41.9415 214.317 41.7501 214.317 41.5625 214.302C41.3749 214.287 41.1939 214.253 41.0194 214.202C40.8393 214.15 40.6685 214.077 40.507 213.983C40.3399 213.888 40.1792 213.768 40.0248 213.62C39.7875 213.393 39.6169 213.153 39.5131 212.901C39.4037 212.648 39.3585 212.392 39.3774 212.13C39.3908 211.869 39.4628 211.607 39.5935 211.343C39.7241 211.08 39.9067 210.824 40.1411 210.578L42.7787 207.803L43.5465 208.538L40.9088 211.312C40.5953 211.642 40.4285 211.969 40.4083 212.295C40.3825 212.621 40.5225 212.93 40.8285 213.222C41.0544 213.438 41.3178 213.586 41.6186 213.666C41.9167 213.743 42.2372 213.768 42.5802 213.74L45.6309 210.531L46.3986 211.265L42.2561 215.622L41.7972 215.184C41.6885 215.08 41.6718 214.962 41.7469 214.832L42.1367 214.301Z" fill="#54545C"/>
<path d="M32.5685 203.429C32.4978 203.753 32.4986 204.035 32.571 204.276C32.6405 204.52 32.7683 204.75 32.9546 204.965C33.3193 205.388 33.7508 205.581 34.249 205.547C34.7472 205.512 35.2754 205.253 35.8338 204.767C36.1294 204.51 36.3612 204.264 36.5292 204.029C36.6943 203.797 36.8028 203.571 36.8548 203.353C36.9038 203.138 36.8975 202.931 36.8361 202.732C36.7746 202.534 36.6649 202.344 36.5071 202.161C36.2795 201.898 36.0219 201.72 35.7343 201.63C35.4441 201.536 35.1189 201.501 34.7586 201.526L32.5685 203.429ZM28.7381 205.358L35.3354 199.625L35.7467 200.101C35.8451 200.215 35.8519 200.335 35.7673 200.461L35.2785 201.011C35.6795 201.004 36.0591 201.062 36.4171 201.186C36.7752 201.31 37.0952 201.535 37.3772 201.861C37.6022 202.122 37.7573 202.401 37.8425 202.699C37.9246 203 37.9333 203.31 37.8686 203.628C37.8039 203.946 37.6616 204.272 37.4418 204.605C37.222 204.937 36.924 205.267 36.5478 205.594C36.2134 205.884 35.8641 206.109 35.4998 206.269C35.1326 206.431 34.7705 206.52 34.4136 206.536C34.0568 206.553 33.7138 206.492 33.3849 206.353C33.0503 206.214 32.7511 205.992 32.4872 205.686C32.2466 205.408 32.0887 205.128 32.0135 204.847C31.9328 204.566 31.9087 204.275 31.9414 203.974L29.4288 206.158L28.7381 205.358Z" fill="#54545C"/>
<path d="M18.4753 182.125C19.0263 181.806 19.578 181.603 20.1304 181.517C20.6828 181.43 21.2117 181.453 21.7171 181.586C22.2224 181.719 22.6934 181.958 23.1301 182.305C23.5614 182.65 23.933 183.093 24.245 183.635L25.8299 186.388L18.4741 190.648L16.8892 187.895C16.5772 187.353 16.3818 186.807 16.303 186.258C16.2188 185.707 16.2474 185.179 16.3889 184.671C16.5269 184.166 16.7714 183.695 17.1224 183.258C17.4734 182.822 17.9243 182.444 18.4753 182.125ZM19.0648 183.149C18.6131 183.411 18.2448 183.706 17.96 184.036C17.6752 184.366 17.4748 184.715 17.3588 185.084C17.2427 185.453 17.2125 185.837 17.2681 186.234C17.3237 186.632 17.466 187.03 17.6951 187.428L18.7053 189.183L24.4493 185.857L23.4391 184.102C23.2101 183.704 22.9377 183.381 22.622 183.134C22.3063 182.887 21.9618 182.72 21.5885 182.635C21.2118 182.551 20.8099 182.55 20.3829 182.633C19.9559 182.716 19.5165 182.888 19.0648 183.149Z" fill="#54545C"/>
<path d="M14.9973 173.486C14.7745 173.588 14.5861 173.713 14.4323 173.862C14.2733 174.009 14.1552 174.174 14.078 174.357C13.9955 174.539 13.9577 174.733 13.9646 174.938C13.9678 175.146 14.0195 175.36 14.1196 175.579C14.3296 176.041 14.6309 176.345 15.0236 176.491C15.411 176.636 15.8567 176.632 16.3608 176.48L14.9973 173.486ZM17.2041 171.534C17.4021 171.587 17.5927 171.672 17.776 171.788C17.9557 171.906 18.1232 172.045 18.2784 172.205C18.4321 172.361 18.571 172.532 18.6952 172.719C18.823 172.905 18.9321 173.096 19.0223 173.295C19.1946 173.673 19.2908 174.051 19.311 174.43C19.326 174.806 19.2646 175.167 19.1268 175.513C18.9838 175.858 18.7603 176.178 18.4563 176.474C18.1523 176.77 17.7648 177.026 17.2939 177.241C16.9129 177.416 16.5308 177.521 16.1476 177.557C15.7627 177.59 15.3998 177.551 15.0589 177.442C14.7144 177.334 14.4016 177.153 14.1207 176.898C13.8361 176.646 13.6036 176.321 13.4231 175.925C13.2738 175.597 13.1917 175.268 13.1768 174.94C13.1566 174.61 13.2049 174.296 13.3215 173.998C13.4329 173.699 13.6151 173.422 13.8681 173.167C14.1176 172.913 14.4364 172.697 14.8246 172.52C14.9756 172.45 15.0836 172.42 15.1487 172.43C15.2138 172.439 15.2669 172.489 15.3079 172.579L16.974 176.238C17.3142 176.069 17.593 175.885 17.8105 175.685C18.0263 175.482 18.1861 175.265 18.2897 175.035C18.3898 174.806 18.4353 174.567 18.4264 174.319C18.414 174.072 18.3487 173.819 18.2305 173.559C18.1206 173.318 17.9993 173.123 17.8666 172.975C17.7287 172.825 17.5987 172.701 17.4766 172.605C17.3544 172.508 17.2475 172.431 17.1559 172.373C17.059 172.313 16.9966 172.252 16.9687 172.191C16.9326 172.111 16.9353 172.036 16.9767 171.965L17.2041 171.534Z" fill="#54545C"/>
<path d="M8.28977 162.411L14.7648 162.76L15.0748 163.658L10.2002 167.947L9.91926 167.133C9.89084 167.05 9.88813 166.976 9.91113 166.909C9.93413 166.843 9.97041 166.79 10.02 166.752L13.1745 164.041C13.2972 163.948 13.4181 163.862 13.5371 163.783C13.6562 163.704 13.776 163.627 13.8963 163.552C13.7553 163.567 13.6136 163.581 13.4713 163.592C13.3289 163.604 13.1803 163.61 13.0253 163.609L8.86906 163.417C8.80155 163.415 8.74008 163.395 8.68465 163.355C8.62549 163.317 8.58364 163.262 8.55909 163.191L8.28977 162.411Z" fill="#54545C"/>
<path d="M5.62286 142.685C5.90151 143.069 6.21249 143.344 6.5558 143.511C6.89856 143.674 7.2538 143.728 7.62153 143.675C7.87581 143.639 8.09401 143.559 8.27613 143.437C8.45433 143.315 8.59898 143.168 8.71007 142.996C8.82116 142.824 8.89786 142.635 8.94018 142.429C8.97858 142.223 8.98317 142.019 8.95395 141.815C8.89101 141.376 8.75433 140.993 8.54391 140.667C8.33294 140.338 8.07366 140.061 7.76607 139.837L5.62286 142.685ZM8.98678 136.654L9.13262 137.671C9.14892 137.785 9.14844 137.879 9.13117 137.954C9.1139 138.028 9.06814 138.113 8.99387 138.208L8.25937 139.184C8.6682 139.501 9.0128 139.886 9.29318 140.337C9.56908 140.786 9.74834 141.298 9.83096 141.874C9.87592 142.188 9.86722 142.503 9.80487 142.82C9.74196 143.134 9.62789 143.424 9.46265 143.692C9.29351 143.96 9.07459 144.188 8.80589 144.375C8.53719 144.562 8.22093 144.681 7.85711 144.734C7.58327 144.773 7.31861 144.765 7.06314 144.71C6.80319 144.652 6.55774 144.555 6.3268 144.42C6.09586 144.286 5.88222 144.118 5.68587 143.919C5.48953 143.719 5.31357 143.494 5.158 143.244C4.88714 143.528 4.61902 143.746 4.35365 143.901C4.08437 144.055 3.79716 144.155 3.49202 144.199C3.20644 144.24 2.93116 144.228 2.66618 144.162C2.40063 144.092 2.16187 143.972 1.94991 143.803C1.73403 143.634 1.55332 143.418 1.4078 143.155C1.25779 142.888 1.15778 142.581 1.10776 142.232C1.06337 141.922 1.07376 141.633 1.13894 141.363C1.20021 141.094 1.29979 140.856 1.43768 140.648C1.57558 140.44 1.74647 140.267 1.95037 140.13C2.1498 139.989 2.36575 139.894 2.59823 139.844L2.8209 140.478C2.87074 140.603 2.82387 140.708 2.6803 140.793C2.58252 140.835 2.48335 140.895 2.38281 140.974C2.2817 141.048 2.19318 141.141 2.11726 141.252C2.04077 141.359 1.98302 141.485 1.94401 141.631C1.90444 141.773 1.89758 141.934 1.92343 142.114C1.95153 142.31 2.0084 142.484 2.09403 142.636C2.1791 142.784 2.28651 142.906 2.41626 143.004C2.54154 143.097 2.68467 143.163 2.84567 143.2C3.00276 143.237 3.16933 143.243 3.34537 143.218C3.48229 143.198 3.6111 143.163 3.73179 143.114C3.85248 143.064 3.97259 142.997 4.09214 142.912C4.21112 142.823 4.32953 142.716 4.44736 142.591C4.5652 142.466 4.68777 142.318 4.81507 142.147L6.92647 139.37C6.6391 139.259 6.34616 139.18 6.04765 139.131C5.74523 139.082 5.44926 139.065 5.15975 139.079C5.0843 139.082 5.02224 139.066 4.97359 139.033C4.92494 139 4.89555 138.949 4.88544 138.878L4.79355 138.237C5.244 138.176 5.69618 138.183 6.15009 138.258C6.60008 138.333 7.03336 138.472 7.44992 138.676L8.98678 136.654Z" fill="#54545C"/>
<path d="M7.73507 119.393C7.75181 119.041 7.70754 118.724 7.60227 118.441C7.497 118.159 7.34228 117.917 7.13812 117.717C6.93415 117.513 6.68647 117.355 6.39508 117.242C6.10388 117.125 5.78063 117.058 5.42532 117.041L0.267422 116.794L0.321865 115.649L5.47976 115.895C5.9693 115.919 6.41954 116.02 6.8305 116.198C7.24164 116.372 7.59422 116.613 7.88823 116.92C8.17849 117.224 8.40051 117.589 8.55428 118.017C8.70805 118.444 8.77252 118.919 8.7477 119.442C8.72288 119.964 8.61364 120.43 8.42 120.841C8.22636 121.253 7.97059 121.597 7.65269 121.875C7.33084 122.153 6.95691 122.362 6.53092 122.5C6.10511 122.634 5.64743 122.69 5.1579 122.666L0 122.42L0.0544435 121.275L5.20642 121.521C5.56173 121.538 5.88978 121.504 6.19057 121.419C6.49155 121.33 6.75315 121.196 6.97536 121.016C7.19776 120.833 7.37673 120.605 7.51228 120.334C7.64407 120.059 7.71833 119.745 7.73507 119.393Z" fill="#54545C"/>
<path d="M10.3551 103.804L10.1932 104.933C10.1809 105.019 10.1495 105.085 10.0992 105.13C10.0455 105.17 9.98902 105.202 9.92975 105.225L6.07345 106.974C6.16284 107.019 6.23798 107.066 6.29887 107.115L9.27558 109.789C9.32472 109.836 9.3694 109.886 9.4096 109.94C9.44645 109.989 9.45925 110.053 9.44801 110.132L9.29627 111.19L5.39297 107.668L0.904171 109.86L1.06687 108.725C1.07867 108.643 1.10108 108.584 1.13408 108.549C1.16709 108.513 1.21127 108.484 1.26662 108.46L4.95019 106.746C4.87197 106.707 4.78789 106.653 4.69796 106.584L1.92067 104.064C1.87039 104.025 1.8327 103.982 1.80759 103.934C1.77856 103.886 1.76826 103.832 1.77669 103.774L1.93265 102.686L5.56946 106.061L10.3551 103.804Z" fill="#54545C"/>
<path d="M11.6204 98.7169C11.7427 98.7996 11.8235 98.9028 11.8627 99.0265C11.9028 99.1463 11.9094 99.262 11.8824 99.3736L11.7777 99.8067L3.9926 94.2382C3.88087 94.1621 3.80353 94.0699 3.76058 93.9617C3.71857 93.8496 3.71245 93.7319 3.74225 93.6088L3.84839 93.1699L11.6204 98.7169Z" fill="#54545C"/>
<path d="M14.0585 86.486C14.1735 86.1528 14.2201 85.8358 14.1985 85.5349C14.1769 85.234 14.0962 84.9587 13.9566 84.709C13.8182 84.4556 13.6251 84.2335 13.3773 84.0427C13.1308 83.8481 12.8395 83.6925 12.5034 83.5758L7.62406 81.8821L7.99801 80.7985L12.8773 82.4922C13.3404 82.653 13.7441 82.8769 14.0883 83.164C14.4337 83.4474 14.7044 83.7782 14.9001 84.1563C15.0933 84.5294 15.2037 84.9428 15.2311 85.3966C15.2585 85.8504 15.1869 86.3244 15.0164 86.8185C14.8459 87.3126 14.61 87.7295 14.3088 88.0692C14.0076 88.4089 13.6654 88.6674 13.2822 88.8446C12.8953 89.0204 12.4781 89.1145 12.0306 89.1268C11.5843 89.1354 11.1296 89.0593 10.6666 88.8986L5.78725 87.2049L6.1612 86.1212L11.0349 87.813C11.371 87.9297 11.6953 87.9898 12.0077 87.9935C12.3213 87.9934 12.61 87.9385 12.8737 87.8288C13.1387 87.7154 13.3742 87.5478 13.5804 87.326C13.7842 87.0991 13.9435 86.8191 14.0585 86.486Z" fill="#54545C"/>
<path d="M19.2776 75.9445L18.8001 76.993L11.0734 73.454L11.5509 72.4054L19.2776 75.9445Z" fill="#54545C"/>
<path d="M28.9377 51.5468C29.4559 51.9168 29.869 52.3359 30.177 52.8039C30.485 53.2719 30.6837 53.764 30.7732 54.2802C30.8626 54.7964 30.8409 55.3257 30.7082 55.8679C30.5744 56.4047 30.3266 56.928 29.9645 57.4379L28.1258 60.0277L21.2075 55.0867L23.0462 52.4969C23.4082 51.987 23.8219 51.5821 24.2871 51.2821C24.7514 50.9766 25.243 50.7829 25.7618 50.7012C26.2775 50.6171 26.8062 50.6445 27.3479 50.7834C27.8896 50.9222 28.4195 51.1767 28.9377 51.5468ZM28.2538 52.5101C27.8289 52.2066 27.4079 51.9935 26.9907 51.8706C26.5734 51.7477 26.1733 51.71 25.7904 51.7575C25.4074 51.805 25.0471 51.9367 24.7094 52.1527C24.3717 52.3687 24.07 52.6639 23.8042 53.0383L22.6322 54.6889L28.0346 58.5473L29.2066 56.8966C29.4724 56.5222 29.6518 56.1397 29.7449 55.749C29.8379 55.3583 29.8458 54.9749 29.7685 54.5987C29.688 54.2202 29.5216 53.8533 29.2694 53.4981C29.0172 53.1428 28.6786 52.8135 28.2538 52.5101Z" fill="#54545C"/>
<path d="M35.328 44.784C35.1429 44.6231 34.9509 44.5034 34.752 44.425C34.5528 44.341 34.3539 44.3019 34.1555 44.3076C33.9567 44.3079 33.7653 44.3539 33.5814 44.4457C33.3945 44.5349 33.2222 44.6709 33.0644 44.8535C32.7332 45.2368 32.5826 45.638 32.6126 46.0572C32.6421 46.4708 32.8306 46.8758 33.1782 47.2723L35.328 44.784ZM38.0142 45.9861C38.0483 46.1887 38.0506 46.3978 38.0212 46.6134C37.9888 46.8264 37.9324 47.0369 37.852 47.2449C37.7742 47.4499 37.6763 47.6479 37.5583 47.8389C37.4433 48.0326 37.3147 48.2117 37.1724 48.3764C36.9007 48.6908 36.5976 48.9359 36.2628 49.1115C35.9277 49.2816 35.5745 49.3757 35.2033 49.3939C34.8317 49.4065 34.4485 49.3357 34.0538 49.1814C33.6591 49.0271 33.2662 48.78 32.8751 48.44C32.5585 48.165 32.3043 47.8602 32.1124 47.5256C31.9231 47.1881 31.8073 46.841 31.765 46.4845C31.7198 46.1254 31.7543 45.7648 31.8685 45.4027C31.9797 45.038 32.1776 44.691 32.4621 44.3616C32.6975 44.0891 32.9611 43.8778 33.2529 43.7277C33.5443 43.572 33.849 43.4855 34.167 43.4684C34.4847 43.4456 34.8118 43.4966 35.1484 43.6213C35.482 43.7435 35.81 43.9447 36.1325 44.2249C36.2579 44.3339 36.3299 44.4201 36.3484 44.4833C36.3669 44.5466 36.3438 44.6157 36.2792 44.6905L33.6521 47.7313C33.9465 47.9714 34.2294 48.1492 34.5009 48.2645C34.775 48.3769 35.038 48.4325 35.29 48.4313C35.539 48.4275 35.7744 48.3699 35.9961 48.2585C36.2148 48.1445 36.4173 47.9797 36.6035 47.7641C36.7769 47.5635 36.9032 47.3719 36.9826 47.1892C37.0616 47.001 37.1195 46.8311 37.1563 46.6796C37.1931 46.5281 37.2189 46.3984 37.2336 46.2906C37.2479 46.1772 37.277 46.0951 37.321 46.0442C37.3779 45.9783 37.4473 45.9495 37.5291 45.9577L38.0142 45.9861Z" fill="#54545C"/>
<path d="M42.4319 35.581C42.4575 35.6769 42.4346 35.759 42.3631 35.8274C42.3202 35.8684 42.2566 35.8991 42.1723 35.9195C42.088 35.9399 41.9881 35.9698 41.8726 36.0091C41.7572 36.0427 41.6302 36.0958 41.4916 36.1681C41.3502 36.2376 41.2052 36.3435 41.0565 36.4856C40.9278 36.6087 40.8284 36.7366 40.7582 36.8695C40.6852 36.9995 40.6389 37.1287 40.619 37.2571C40.6021 37.3828 40.6104 37.5035 40.644 37.6192C40.6777 37.7293 40.7368 37.8288 40.8213 37.9177C40.9276 38.0296 41.0477 38.0927 41.1815 38.1071C41.3181 38.1188 41.4652 38.1013 41.6228 38.0546C41.7804 38.0079 41.9468 37.9418 42.1221 37.8563C42.2947 37.7679 42.4742 37.6811 42.6606 37.5959C42.8472 37.505 43.035 37.424 43.2239 37.3529C43.4128 37.2817 43.601 37.2386 43.7886 37.2234C43.9762 37.2083 44.1614 37.2337 44.3443 37.2997C44.5273 37.3601 44.7019 37.4778 44.8682 37.6527C45.059 37.8535 45.2005 38.074 45.2926 38.3145C45.382 38.552 45.4166 38.8009 45.3964 39.061C45.3735 39.3183 45.2947 39.5799 45.1598 39.8457C45.025 40.1115 44.8246 40.3716 44.5587 40.6259C44.2556 40.9157 43.9347 41.1295 43.5962 41.2671C43.2548 41.4019 42.9248 41.4739 42.606 41.4831L42.5081 41.0184C42.4955 40.9592 42.4954 40.9046 42.5078 40.8544C42.5202 40.8043 42.5506 40.7559 42.5992 40.7095C42.6507 40.6602 42.7241 40.6284 42.8195 40.6138C42.9148 40.5993 43.0257 40.5781 43.1521 40.5503C43.2814 40.5197 43.4237 40.4685 43.5791 40.3965C43.7345 40.3246 43.8994 40.2052 44.0738 40.0384C44.2225 39.8962 44.3349 39.7531 44.411 39.6092C44.4843 39.4624 44.5268 39.3205 44.5384 39.1835C44.5501 39.0464 44.5322 38.9185 44.4847 38.7996C44.4401 38.6781 44.3714 38.5685 44.2787 38.471C44.1642 38.3506 44.0373 38.2831 43.8979 38.2686C43.7587 38.2484 43.6103 38.2617 43.4527 38.3084C43.2924 38.3522 43.1245 38.4197 42.9491 38.5108C42.7738 38.5963 42.5929 38.6845 42.4063 38.7753C42.2226 38.8634 42.0348 38.9444 41.843 39.0183C41.6514 39.0866 41.4604 39.1269 41.2701 39.1391C41.0798 39.1514 40.8904 39.1245 40.702 39.0583C40.5137 38.9866 40.3309 38.8575 40.1537 38.6711C39.9956 38.5048 39.8786 38.3128 39.8027 38.0952C39.7241 37.8748 39.6961 37.6443 39.7186 37.4038C39.7383 37.1604 39.8113 36.9128 39.9374 36.6607C40.0636 36.4087 40.2496 36.1651 40.4955 35.93C40.7814 35.6565 41.0809 35.4577 41.3941 35.3334C41.7073 35.2036 42.0218 35.1382 42.3376 35.1373L42.4319 35.581Z" fill="#54545C"/>
<path d="M49.6932 28.1039L53.4036 32.836L52.5744 33.49L48.8639 28.7579L49.6932 28.1039ZM48.7054 26.4787C48.7689 26.5597 48.8117 26.6495 48.8337 26.748C48.8563 26.841 48.8617 26.9376 48.8497 27.0378C48.8384 27.1324 48.8077 27.2246 48.7576 27.3146C48.7106 27.402 48.6467 27.4776 48.566 27.5413C48.4852 27.605 48.3969 27.6494 48.3011 27.6746C48.2083 27.6974 48.1148 27.7031 48.0205 27.6918C47.9237 27.6774 47.833 27.6482 47.7482 27.6042C47.661 27.557 47.5856 27.493 47.5221 27.412C47.4586 27.331 47.4143 27.2425 47.3892 27.1464C47.3617 27.0471 47.3536 26.9502 47.3648 26.8556C47.3737 26.7579 47.4001 26.6666 47.444 26.5815C47.491 26.4941 47.5549 26.4185 47.6356 26.3548C47.7164 26.2911 47.8047 26.2466 47.9005 26.2214C47.9995 26.1938 48.0973 26.1872 48.1941 26.2016C48.2915 26.2104 48.385 26.24 48.4747 26.2902C48.565 26.3349 48.6419 26.3978 48.7054 26.4787Z" fill="#54545C"/>
<path d="M60.3062 24.3197C60.4857 24.204 60.6276 24.0772 60.7318 23.9394C60.8361 23.8015 60.9059 23.6576 60.9413 23.5076C60.9767 23.3577 60.9782 23.206 60.9457 23.0527C60.9111 22.8961 60.8458 22.7428 60.7497 22.5928C60.5511 22.2829 60.2983 22.0973 59.9914 22.0361C59.6878 21.9728 59.3581 22.0558 59.0025 22.285C58.6435 22.5164 58.4279 22.7848 58.3559 23.0903C58.2872 23.3935 58.3522 23.7002 58.5508 24.0101C58.6469 24.1601 58.7588 24.2834 58.8865 24.38C59.0153 24.4712 59.1551 24.5318 59.3059 24.5618C59.4566 24.5918 59.6161 24.5878 59.7845 24.55C59.9528 24.5121 60.1267 24.4354 60.3062 24.3197ZM63.6686 26.0375C63.5895 25.9142 63.4906 25.8367 63.3716 25.805C63.2527 25.7734 63.1195 25.7745 62.9721 25.8083C62.828 25.8399 62.6725 25.8978 62.5056 25.9818C62.3365 26.0625 62.1607 26.1546 61.9781 26.2582C61.7989 26.3596 61.6163 26.4632 61.4304 26.5689C61.2445 26.6746 61.061 26.7693 60.8798 26.8531C60.7492 27.0598 60.6667 27.2683 60.6325 27.4787C60.5994 27.6837 60.6395 27.8745 60.7527 28.0511C60.8253 28.1644 60.9208 28.2512 61.0392 28.3114C61.1631 28.3729 61.3074 28.4 61.4719 28.3928C61.6385 28.389 61.8244 28.3493 62.0295 28.2736C62.2401 28.1991 62.4684 28.0825 62.7144 27.924C62.9537 27.7697 63.1542 27.6099 63.316 27.4444C63.4777 27.279 63.5977 27.1145 63.6761 26.9509C63.7578 26.7852 63.7983 26.6249 63.7977 26.4699C63.797 26.3149 63.754 26.1708 63.6686 26.0375ZM61.2781 20.3168L61.4895 20.6467C61.56 20.7567 61.535 20.8717 61.4146 20.9916L60.8892 21.4362C61.1432 21.5833 61.3556 21.7902 61.5265 22.0568C61.6845 22.3034 61.7804 22.5595 61.8143 22.8249C61.8494 23.0848 61.8297 23.34 61.7553 23.5905C61.6809 23.8409 61.552 24.0794 61.3684 24.3061C61.1848 24.5327 60.9568 24.7339 60.6842 24.9095C60.4482 25.0617 60.2073 25.1769 59.9616 25.2552C59.8979 25.3904 59.8624 25.5146 59.855 25.6276C59.8455 25.7374 59.8653 25.8306 59.9144 25.9072C59.9913 26.0272 60.0982 26.0878 60.2352 26.089C60.3733 26.0847 60.5307 26.0445 60.7074 25.9683C60.884 25.8921 61.0758 25.792 61.2829 25.668C61.4933 25.5418 61.7101 25.4185 61.9336 25.298C62.1582 25.1721 62.3836 25.0621 62.6099 24.9681C62.8395 24.8719 63.0607 24.814 63.2737 24.7945C63.4866 24.775 63.6883 24.8075 63.8786 24.892C64.0723 24.9743 64.2439 25.1322 64.3934 25.3655C64.5322 25.5821 64.6119 25.8274 64.6325 26.1014C64.6564 26.3733 64.6171 26.6528 64.5147 26.9402C64.4144 27.2308 64.2463 27.5182 64.0102 27.8022C63.7796 28.0874 63.4798 28.3489 63.1109 28.5867C62.7419 28.8245 62.396 28.9957 62.0731 29.1002C61.7502 29.2047 61.4578 29.2542 61.196 29.2488C60.9342 29.2433 60.7044 29.1889 60.5067 29.0856C60.3144 28.9835 60.1617 28.8441 60.0485 28.6675C59.8883 28.4175 59.8309 28.1555 59.876 27.8815C59.9212 27.6075 60.047 27.331 60.2534 27.052C60.0611 27.0818 59.8848 27.0706 59.7246 27.0185C59.5656 26.9609 59.4252 26.8371 59.3035 26.6471C59.2565 26.5738 59.2217 26.4903 59.1992 26.3965C59.1746 26.2993 59.1643 26.1953 59.1683 26.0844C59.1736 25.968 59.1937 25.8491 59.2286 25.7276C59.2635 25.6062 59.3171 25.4846 59.3893 25.3627C59.0503 25.3834 58.7373 25.3238 58.4504 25.1838C58.1613 25.0405 57.9185 24.8156 57.722 24.509C57.564 24.2623 57.4675 24.0091 57.4324 23.7491C57.3985 23.4837 57.4215 23.2263 57.5013 22.9771C57.5791 22.7245 57.7097 22.4849 57.8933 22.2583C58.0802 22.0295 58.3132 21.8251 58.5924 21.6452C58.8118 21.5037 59.0323 21.397 59.2538 21.3248C59.4732 21.2494 59.6909 21.2079 59.9069 21.2006L61.2781 20.3168Z" fill="#54545C"/>
<path d="M67.9595 17.2556C68.0085 17.0654 68.0708 16.8839 68.1464 16.7111C68.2221 16.5383 68.3129 16.3777 68.4189 16.2293C68.5266 16.0755 68.6513 15.9375 68.793 15.8153C68.9363 15.6877 69.1028 15.5748 69.2925 15.4767C69.584 15.326 69.8658 15.2427 70.1377 15.2269C70.4114 15.2057 70.6681 15.2468 70.9079 15.3501C71.1495 15.4481 71.3731 15.6021 71.5789 15.8121C71.7847 16.0221 71.9654 16.2785 72.121 16.5813L73.8721 19.9879L72.929 20.4755L71.1779 17.069C70.9698 16.6641 70.7157 16.3988 70.4155 16.2732C70.117 16.1423 69.7799 16.174 69.404 16.3684C69.1266 16.5118 68.901 16.7131 68.7275 16.9722C68.5574 17.2295 68.4293 17.5253 68.3432 17.8595L70.3685 21.7994L69.4254 22.287L66.6753 16.9369L67.2391 16.6454C67.3725 16.5764 67.4886 16.5989 67.5871 16.7128L67.9595 17.2556Z" fill="#54545C"/>
<path d="M81.9448 12.4869C81.8538 12.2589 81.7378 12.0644 81.5969 11.9034C81.4582 11.7372 81.2994 11.6111 81.1203 11.5251C80.9435 11.434 80.7523 11.387 80.5468 11.3842C80.3399 11.3777 80.1246 11.4193 79.9008 11.5092C79.4312 11.6977 79.1138 11.9852 78.9487 12.3714C78.7859 12.7526 78.7683 13.1991 78.896 13.711L81.9448 12.4869ZM83.7831 14.7888C83.7208 14.9845 83.6272 15.1714 83.5025 15.3495C83.3763 15.5239 83.2299 15.6851 83.0634 15.833C82.9005 15.9795 82.7229 16.1105 82.5307 16.2261C82.3399 16.3454 82.1436 16.4455 81.9418 16.5265C81.5566 16.6812 81.175 16.7597 80.7971 16.7621C80.4214 16.7594 80.0644 16.6809 79.7262 16.5265C79.3901 16.3671 79.0819 16.1282 78.8015 15.8098C78.5212 15.4914 78.2849 15.0914 78.0926 14.6096C77.937 14.2198 77.8504 13.8322 77.8327 13.4467C77.8188 13.0598 77.8745 12.6982 78 12.362C78.1239 12.0221 78.3195 11.7174 78.5865 11.4481C78.8522 11.175 79.1867 10.9575 79.5903 10.7954C79.9242 10.6614 80.2551 10.5946 80.5831 10.5952C80.9133 10.5906 81.2237 10.6537 81.5143 10.7845C81.8071 10.9102 82.0746 11.1057 82.3167 11.3711C82.5574 11.6329 82.7571 11.9624 82.9156 12.3595C82.9772 12.514 83.0018 12.6235 82.9894 12.6883C82.9769 12.753 82.9248 12.8038 82.8331 12.8406L79.1074 14.3366C79.2593 14.6852 79.4296 14.9731 79.6182 15.2003C79.8105 15.426 80.0189 15.5962 80.2434 15.7109C80.4665 15.8218 80.702 15.8787 80.9501 15.8815C81.1966 15.8807 81.452 15.8272 81.7161 15.7211C81.9619 15.6224 82.1619 15.5102 82.316 15.3843C82.4722 15.2533 82.6014 15.1289 82.7034 15.0111C82.8053 14.8934 82.8875 14.79 82.9499 14.701C83.0145 14.6068 83.0779 14.5471 83.1403 14.5221C83.221 14.4897 83.2958 14.4959 83.3648 14.5407L83.7831 14.7888Z" fill="#54545C"/>
<path d="M91.3747 8.11696C91.441 7.66812 91.5746 7.2944 91.7755 6.9958C91.9753 6.69341 92.2667 6.48581 92.6497 6.37303C92.771 6.33729 92.8906 6.31653 93.0083 6.31075C93.1299 6.30385 93.2426 6.31607 93.3465 6.34739L93.4945 7.12735C93.4996 7.22906 93.4566 7.29332 93.3656 7.32012C93.3125 7.33575 93.2315 7.34725 93.1224 7.35459C93.0133 7.36194 92.8943 7.3846 92.7654 7.42257C92.5834 7.47617 92.4281 7.55079 92.2996 7.64643C92.1749 7.74096 92.0712 7.85818 91.9886 7.99809C91.9087 8.13309 91.846 8.29189 91.8006 8.47451C91.7579 8.65221 91.7295 8.85048 91.7153 9.06932L92.7834 12.7177L91.7653 13.0176L90.0746 7.24282L90.6548 7.07196C90.7648 7.03958 90.8467 7.03814 90.9007 7.06766C90.9546 7.09719 91.0042 7.16102 91.0494 7.25916L91.3747 8.11696Z" fill="#54545C"/>
<path d="M113.125 8.11147C113.115 8.00896 113.124 7.91067 113.15 7.81659C113.181 7.72214 113.225 7.63839 113.281 7.56533C113.342 7.4919 113.415 7.43114 113.502 7.38305C113.589 7.33495 113.683 7.30601 113.786 7.29621C113.888 7.28641 113.986 7.2969 114.081 7.32766C114.175 7.35842 114.259 7.40411 114.332 7.46473C114.405 7.52535 114.466 7.59912 114.514 7.68603C114.562 7.77295 114.591 7.86766 114.6 7.97017C114.61 8.07662 114.6 8.17707 114.569 8.27152C114.538 8.36203 114.493 8.444 114.432 8.51743C114.372 8.59086 114.298 8.64966 114.211 8.69381C114.124 8.7419 114.029 8.77084 113.927 8.78064C113.825 8.79044 113.726 8.77996 113.632 8.74919C113.538 8.72238 113.455 8.67866 113.382 8.61804C113.312 8.55704 113.254 8.48506 113.206 8.40208C113.162 8.31479 113.135 8.21792 113.125 8.11147Z" fill="#54545C"/>
<path d="M118.886 27.3145H122.303V28.3611H118.886V27.3145Z" fill="#54545C"/>
<path d="M131.131 27.3156L134.52 27.7448L134.39 28.7832L131 28.354L131.131 27.3156Z" fill="#54545C"/>
<path d="M143.282 28.8581L146.591 29.7109L146.332 30.7247L143.023 29.8719L143.282 28.8581Z" fill="#54545C"/>
<path d="M155.141 31.917L158.317 33.1792L157.933 34.1525L154.757 32.8903L155.141 31.917Z" fill="#54545C"/>
<path d="M166.526 36.4438L169.519 38.0954L169.017 39.0129L166.024 37.3613L166.526 36.4438Z" fill="#54545C"/>
<path d="M177.256 42.3672L180.018 44.3819L179.405 45.2291L176.642 43.2144L177.256 42.3672Z" fill="#54545C"/>
<path d="M187.16 49.594L189.649 51.9399L188.935 52.7034L186.446 50.3575L187.16 49.594Z" fill="#54545C"/>
<path d="M196.085 58.01L198.261 60.6499L197.457 61.3177L195.281 58.6778L196.085 58.01Z" fill="#54545C"/>
<path d="M203.889 67.4823L205.718 70.3746L204.836 70.936L203.008 68.0437L203.889 67.4823Z" fill="#54545C"/>
<path d="M210.449 77.8612L211.902 80.9602L210.957 81.4064L209.504 78.3074L210.449 77.8612Z" fill="#54545C"/>
<path d="M215.66 88.9829L216.714 92.2398L215.721 92.5637L214.667 89.3068L215.66 88.9829Z" fill="#54545C"/>
<path d="M219.442 100.673L220.081 104.036L219.056 104.233L218.416 100.869L219.442 100.673Z" fill="#54545C"/>
<path d="M221.736 112.746L221.95 116.163L220.907 116.229L220.693 112.812L221.736 112.746Z" fill="#54545C"/>
<path d="M222.503 125.013L222.289 128.43L221.247 128.364L221.461 124.947L222.503 125.013Z" fill="#54545C"/>
<path d="M221.733 137.279L221.094 140.642L220.068 140.446L220.707 137.082L221.733 137.279Z" fill="#54545C"/>
<path d="M219.437 149.351L218.383 152.608L217.39 152.284L218.444 149.027L219.437 149.351Z" fill="#54545C"/>
<path d="M215.653 161.04L214.2 164.139L213.256 163.693L214.708 160.594L215.653 161.04Z" fill="#54545C"/>
<path d="M210.439 172.161L208.61 175.054L207.729 174.492L209.557 171.6L210.439 172.161Z" fill="#54545C"/>
<path d="M203.878 182.538L201.702 185.178L200.898 184.511L203.074 181.871L203.878 182.538Z" fill="#54545C"/>
<path d="M196.073 192.009L193.584 194.355L192.87 193.591L195.358 191.246L196.073 192.009Z" fill="#54545C"/>
<path d="M187.146 200.422L184.384 202.437L183.77 201.59L186.533 199.575L187.146 200.422Z" fill="#54545C"/>
<path d="M177.24 207.647L174.247 209.299L173.745 208.381L176.738 206.73L177.24 207.647Z" fill="#54545C"/>
<path d="M166.509 213.569L163.333 214.831L162.949 213.858L166.125 212.595L166.509 213.569Z" fill="#54545C"/>
<path d="M155.123 218.093L151.814 218.946L151.555 217.932L154.864 217.08L155.123 218.093Z" fill="#54545C"/>
<path d="M143.264 221.149L139.874 221.579L139.743 220.541L143.133 220.111L143.264 221.149Z" fill="#54545C"/>
<path d="M131.114 222.689H127.697V221.642H131.114V222.689Z" fill="#54545C"/>
<path d="M118.868 222.688L115.478 222.258L115.609 221.219L118.998 221.649L118.868 222.688Z" fill="#54545C"/>
<path d="M106.718 221.146L103.409 220.293L103.668 219.279L106.977 220.132L106.718 221.146Z" fill="#54545C"/>
<path d="M94.8572 218.086L91.6811 216.824L92.065 215.851L95.2412 217.113L94.8572 218.086Z" fill="#54545C"/>
<path d="M83.4721 213.56L80.4791 211.908L80.9816 210.991L83.9746 212.642L83.4721 213.56Z" fill="#54545C"/>
<path d="M72.7427 207.636L69.9801 205.621L70.5933 204.774L73.356 206.789L72.7427 207.636Z" fill="#54545C"/>
<path d="M62.8378 200.409L60.349 198.063L61.0633 197.3L63.5522 199.645L62.8378 200.409Z" fill="#54545C"/>
<path d="M53.9147 191.993L51.7388 189.353L52.543 188.685L54.7188 191.325L53.9147 191.993Z" fill="#54545C"/>
<path d="M46.1122 182.521L44.2836 179.629L45.165 179.067L46.9937 181.96L46.1122 182.521Z" fill="#54545C"/>
<path d="M39.5523 172.142L38.0994 169.043L39.0442 168.597L40.497 171.696L39.5523 172.142Z" fill="#54545C"/>
<path d="M34.341 161.02L33.2867 157.763L34.2798 157.439L35.3341 160.696L34.341 161.02Z" fill="#54545C"/>
<path d="M30.5578 149.33L29.9186 145.967L30.9444 145.77L31.5836 149.134L30.5578 149.33Z" fill="#54545C"/>
<path d="M28.2661 137.257L28.0519 133.84L29.0942 133.774L29.3085 137.191L28.2661 137.257Z" fill="#54545C"/>
<path d="M27.4984 124.99L27.7126 121.573L28.7549 121.639L28.5407 125.056L27.4984 124.99Z" fill="#54545C"/>
<path d="M28.2684 112.724L28.9077 109.361L29.9336 109.557L29.2942 112.921L28.2684 112.724Z" fill="#54545C"/>
<path d="M30.5639 100.652L31.6181 97.395L32.6113 97.7189L31.557 100.976L30.5639 100.652Z" fill="#54545C"/>
<path d="M34.348 88.9629L35.8008 85.8639L36.7456 86.3101L35.2927 89.4091L34.348 88.9629Z" fill="#54545C"/>
<path d="M39.5607 77.8421L41.3893 74.9498L42.2707 75.5113L40.4421 78.4036L39.5607 77.8421Z" fill="#54545C"/>
<path d="M46.123 67.4646L48.2988 64.8246L49.103 65.4924L46.9272 68.1324L46.123 67.4646Z" fill="#54545C"/>
<path d="M53.9279 57.9947L56.4167 55.6488L57.131 56.4123L54.6422 58.7582L53.9279 57.9947Z" fill="#54545C"/>
<path d="M62.8525 49.5803L65.6152 47.5656L66.2284 48.4128L63.4657 50.4275L62.8525 49.5803Z" fill="#54545C"/>
<path d="M72.7585 42.356L75.7515 40.7044L76.254 41.6219L73.261 43.2735L72.7585 42.356Z" fill="#54545C"/>
<path d="M83.4897 36.4348L86.6658 35.1725L87.0497 36.1459L83.8736 37.4081L83.4897 36.4348Z" fill="#54545C"/>
<path d="M94.8752 31.9101L98.1844 31.0573L98.4437 32.0711L95.1346 32.9239L94.8752 31.9101Z" fill="#54545C"/>
<path d="M106.736 28.8539L110.126 28.4241L110.256 29.4624L106.867 29.8923L106.736 28.8539Z" fill="#54545C"/>
<path d="M163.745 174.508L102.543 110.703L92.1236 121.566L114.041 144.416L107.334 151.408L78.5898 121.441L95.7166 103.586L75.5956 82.6094L82.4224 75.4923L170.572 167.39L163.745 174.508ZM157.278 139.297L150.451 132.179L160.871 121.317L138.953 98.4668L145.66 91.4746L174.404 121.441L157.278 139.297Z" fill="url(#paint0_linear_297_239)"/>
<defs>
<linearGradient id="paint0_linear_297_239" x1="0" y1="125" x2="250" y2="125" gradientUnits="userSpaceOnUse">
<stop stop-color="#6379AC"/>
<stop offset="1" stop-color="#4B4996"/>
</linearGradient>
</defs>
</svg>
