<svg width="200" height="60" viewBox="0 0 200 60" fill="none" xmlns="http://www.w3.org/2000/svg">
<mask id="mask0_582_393" style="mask-type:alpha" maskUnits="userSpaceOnUse" x="0" y="10" width="40" height="40">
<rect y="10" width="40" height="40" fill="#D9D9D9"/>
</mask>
<g mask="url(#mask0_582_393)">
<path d="M35.6848 49.1111L10.9091 24.4812L6.69091 28.6745L15.5636 37.4951L12.8485 40.1942L1.21212 28.6263L8.14545 21.7338L0 13.6363L2.76364 10.8889L38.4485 46.3638L35.6848 49.1111ZM33.0667 35.5189L30.303 32.7715L34.5212 28.5781L25.6485 19.7576L28.3636 17.0585L40 28.6263L33.0667 35.5189Z" fill="url(#paint0_linear_582_393)"/>
</g>
<path d="M58.92 38L52.032 30.368V38H49.848V21.272H52.032V29.024L58.944 21.272H61.704L54.12 29.648L61.776 38H58.92ZM63.3992 31.376C63.3992 30.032 63.6712 28.856 64.2152 27.848C64.7592 26.824 65.5032 26.032 66.4472 25.472C67.4072 24.912 68.4712 24.632 69.6392 24.632C70.7912 24.632 71.7912 24.88 72.6392 25.376C73.4872 25.872 74.1192 26.496 74.5352 27.248V24.848H76.7432V38H74.5352V35.552C74.1032 36.32 73.4552 36.96 72.5912 37.472C71.7432 37.968 70.7512 38.216 69.6152 38.216C68.4472 38.216 67.3912 37.928 66.4472 37.352C65.5032 36.776 64.7592 35.968 64.2152 34.928C63.6712 33.888 63.3992 32.704 63.3992 31.376ZM74.5352 31.4C74.5352 30.408 74.3352 29.544 73.9352 28.808C73.5352 28.072 72.9912 27.512 72.3032 27.128C71.6312 26.728 70.8872 26.528 70.0712 26.528C69.2552 26.528 68.5112 26.72 67.8392 27.104C67.1672 27.488 66.6312 28.048 66.2312 28.784C65.8312 29.52 65.6312 30.384 65.6312 31.376C65.6312 32.384 65.8312 33.264 66.2312 34.016C66.6312 34.752 67.1672 35.32 67.8392 35.72C68.5112 36.104 69.2552 36.296 70.0712 36.296C70.8872 36.296 71.6312 36.104 72.3032 35.72C72.9912 35.32 73.5352 34.752 73.9352 34.016C74.3352 33.264 74.5352 32.392 74.5352 31.4ZM81.5619 22.712C81.1459 22.712 80.7939 22.568 80.5059 22.28C80.2179 21.992 80.0739 21.64 80.0739 21.224C80.0739 20.808 80.2179 20.456 80.5059 20.168C80.7939 19.88 81.1459 19.736 81.5619 19.736C81.9619 19.736 82.2979 19.88 82.5699 20.168C82.8579 20.456 83.0019 20.808 83.0019 21.224C83.0019 21.64 82.8579 21.992 82.5699 22.28C82.2979 22.568 81.9619 22.712 81.5619 22.712ZM82.6179 24.848V38H80.4339V24.848H82.6179ZM92.0762 38.216C90.8442 38.216 89.7242 37.936 88.7162 37.376C87.7242 36.816 86.9402 36.024 86.3642 35C85.8042 33.96 85.5242 32.76 85.5242 31.4C85.5242 30.056 85.8122 28.872 86.3882 27.848C86.9802 26.808 87.7802 26.016 88.7882 25.472C89.7962 24.912 90.9242 24.632 92.1722 24.632C93.4202 24.632 94.5482 24.912 95.5562 25.472C96.5642 26.016 97.3562 26.8 97.9322 27.824C98.5242 28.848 98.8202 30.04 98.8202 31.4C98.8202 32.76 98.5162 33.96 97.9082 35C97.3162 36.024 96.5082 36.816 95.4842 37.376C94.4602 37.936 93.3242 38.216 92.0762 38.216ZM92.0762 36.296C92.8602 36.296 93.5962 36.112 94.2842 35.744C94.9722 35.376 95.5242 34.824 95.9402 34.088C96.3722 33.352 96.5882 32.456 96.5882 31.4C96.5882 30.344 96.3802 29.448 95.9642 28.712C95.5482 27.976 95.0042 27.432 94.3322 27.08C93.6602 26.712 92.9322 26.528 92.1482 26.528C91.3482 26.528 90.6122 26.712 89.9402 27.08C89.2842 27.432 88.7562 27.976 88.3562 28.712C87.9562 29.448 87.7562 30.344 87.7562 31.4C87.7562 32.472 87.9482 33.376 88.3322 34.112C88.7322 34.848 89.2602 35.4 89.9162 35.768C90.5722 36.12 91.2922 36.296 92.0762 36.296ZM197.497 38.144C197.081 38.144 196.729 38 196.441 37.712C196.153 37.424 196.009 37.072 196.009 36.656C196.009 36.24 196.153 35.888 196.441 35.6C196.729 35.312 197.081 35.168 197.497 35.168C197.897 35.168 198.233 35.312 198.505 35.6C198.793 35.888 198.937 36.24 198.937 36.656C198.937 37.072 198.793 37.424 198.505 37.712C198.233 38 197.897 38.144 197.497 38.144Z" fill="#EBEBFF"/>
<path d="M103.876 36.224H109.732V38H101.692V21.272H103.876V36.224ZM117.787 38.216C116.555 38.216 115.435 37.936 114.427 37.376C113.435 36.816 112.651 36.024 112.075 35C111.515 33.96 111.235 32.76 111.235 31.4C111.235 30.056 111.523 28.872 112.099 27.848C112.691 26.808 113.491 26.016 114.499 25.472C115.507 24.912 116.635 24.632 117.883 24.632C119.131 24.632 120.259 24.912 121.267 25.472C122.275 26.016 123.067 26.8 123.643 27.824C124.235 28.848 124.531 30.04 124.531 31.4C124.531 32.76 124.227 33.96 123.619 35C123.027 36.024 122.219 36.816 121.195 37.376C120.171 37.936 119.035 38.216 117.787 38.216ZM117.787 36.296C118.571 36.296 119.307 36.112 119.995 35.744C120.683 35.376 121.235 34.824 121.651 34.088C122.083 33.352 122.299 32.456 122.299 31.4C122.299 30.344 122.091 29.448 121.675 28.712C121.259 27.976 120.715 27.432 120.043 27.08C119.371 26.712 118.643 26.528 117.859 26.528C117.059 26.528 116.323 26.712 115.651 27.08C114.995 27.432 114.467 27.976 114.067 28.712C113.667 29.448 113.467 30.344 113.467 31.4C113.467 32.472 113.659 33.376 114.043 34.112C114.443 34.848 114.971 35.4 115.627 35.768C116.283 36.12 117.003 36.296 117.787 36.296ZM139.067 24.848V38H136.883V36.056C136.467 36.728 135.883 37.256 135.131 37.64C134.395 38.008 133.579 38.192 132.683 38.192C131.659 38.192 130.739 37.984 129.923 37.568C129.107 37.136 128.459 36.496 127.979 35.648C127.515 34.8 127.283 33.768 127.283 32.552V24.848H129.443V32.264C129.443 33.56 129.771 34.56 130.427 35.264C131.083 35.952 131.979 36.296 133.115 36.296C134.283 36.296 135.203 35.936 135.875 35.216C136.547 34.496 136.883 33.448 136.883 32.072V24.848H139.067ZM144.938 26.984C145.322 26.232 145.866 25.648 146.57 25.232C147.29 24.816 148.162 24.608 149.186 24.608V26.864H148.61C146.162 26.864 144.938 28.192 144.938 30.848V38H142.754V24.848H144.938V26.984ZM163.707 30.92C163.707 31.336 163.683 31.776 163.635 32.24H153.123C153.203 33.536 153.643 34.552 154.443 35.288C155.259 36.008 156.243 36.368 157.395 36.368C158.339 36.368 159.123 36.152 159.747 35.72C160.387 35.272 160.835 34.68 161.091 33.944H163.443C163.091 35.208 162.387 36.24 161.331 37.04C160.275 37.824 158.963 38.216 157.395 38.216C156.147 38.216 155.027 37.936 154.035 37.376C153.059 36.816 152.291 36.024 151.731 35C151.171 33.96 150.891 32.76 150.891 31.4C150.891 30.04 151.163 28.848 151.707 27.824C152.251 26.8 153.011 26.016 153.987 25.472C154.979 24.912 156.115 24.632 157.395 24.632C158.643 24.632 159.747 24.904 160.707 25.448C161.667 25.992 162.403 26.744 162.915 27.704C163.443 28.648 163.707 29.72 163.707 30.92ZM161.451 30.464C161.451 29.632 161.267 28.92 160.899 28.328C160.531 27.72 160.027 27.264 159.387 26.96C158.763 26.64 158.067 26.48 157.299 26.48C156.195 26.48 155.251 26.832 154.467 27.536C153.699 28.24 153.259 29.216 153.147 30.464H161.451ZM167.718 22.712C167.302 22.712 166.95 22.568 166.662 22.28C166.374 21.992 166.23 21.64 166.23 21.224C166.23 20.808 166.374 20.456 166.662 20.168C166.95 19.88 167.302 19.736 167.718 19.736C168.118 19.736 168.454 19.88 168.726 20.168C169.014 20.456 169.158 20.808 169.158 21.224C169.158 21.64 169.014 21.992 168.726 22.28C168.454 22.568 168.118 22.712 167.718 22.712ZM168.774 24.848V38H166.59V24.848H168.774ZM174.68 26.984C175.064 26.232 175.608 25.648 176.312 25.232C177.032 24.816 177.904 24.608 178.928 24.608V26.864H178.352C175.904 26.864 174.68 28.192 174.68 30.848V38H172.496V24.848H174.68V26.984ZM187.186 38.216C185.954 38.216 184.834 37.936 183.826 37.376C182.834 36.816 182.05 36.024 181.474 35C180.914 33.96 180.634 32.76 180.634 31.4C180.634 30.056 180.922 28.872 181.498 27.848C182.09 26.808 182.89 26.016 183.898 25.472C184.906 24.912 186.034 24.632 187.282 24.632C188.53 24.632 189.658 24.912 190.666 25.472C191.674 26.016 192.466 26.8 193.042 27.824C193.634 28.848 193.93 30.04 193.93 31.4C193.93 32.76 193.626 33.96 193.018 35C192.426 36.024 191.618 36.816 190.594 37.376C189.57 37.936 188.434 38.216 187.186 38.216ZM187.186 36.296C187.97 36.296 188.706 36.112 189.394 35.744C190.082 35.376 190.634 34.824 191.05 34.088C191.482 33.352 191.698 32.456 191.698 31.4C191.698 30.344 191.49 29.448 191.074 28.712C190.658 27.976 190.114 27.432 189.442 27.08C188.77 26.712 188.042 26.528 187.258 26.528C186.458 26.528 185.722 26.712 185.05 27.08C184.394 27.432 183.866 27.976 183.466 28.712C183.066 29.448 182.866 30.344 182.866 31.4C182.866 32.472 183.058 33.376 183.442 34.112C183.842 34.848 184.37 35.4 185.026 35.768C185.682 36.12 186.402 36.296 187.186 36.296Z" fill="url(#paint1_linear_582_393)"/>
<defs>
<linearGradient id="paint0_linear_582_393" x1="0" y1="30" x2="40" y2="30" gradientUnits="userSpaceOnUse">
<stop stop-color="#6379AC"/>
<stop offset="1" stop-color="#4B4996"/>
</linearGradient>
<linearGradient id="paint1_linear_582_393" x1="48" y1="30" x2="200" y2="30" gradientUnits="userSpaceOnUse">
<stop stop-color="#6379AC"/>
<stop offset="1" stop-color="#4B4996"/>
</linearGradient>
</defs>
</svg>
