<svg width="200" height="40" viewBox="0 0 200 40" fill="none" xmlns="http://www.w3.org/2000/svg">
<mask id="mask0_582_373" style="mask-type:alpha" maskUnits="userSpaceOnUse" x="0" y="0" width="40" height="40">
<rect width="40" height="40" fill="#D9D9D9"/>
</mask>
<g mask="url(#mask0_582_373)">
<path d="M35.6848 39.1111L10.9091 14.4812L6.69091 18.6745L15.5636 27.495L12.8485 30.1942L1.21212 18.6263L8.14545 11.7338L0 3.63626L2.76364 0.888885L38.4485 36.3637L35.6848 39.1111ZM33.0667 25.5188L30.303 22.7715L34.5212 18.5781L25.6485 9.7576L28.3636 7.05842L40 18.6263L33.0667 25.5188Z" fill="url(#paint0_linear_582_373)"/>
</g>
<path d="M58.92 28L52.032 20.368V28H49.848V11.272H52.032V19.024L58.944 11.272H61.704L54.12 19.648L61.776 28H58.92ZM63.3992 21.376C63.3992 20.032 63.6712 18.856 64.2152 17.848C64.7592 16.824 65.5032 16.032 66.4472 15.472C67.4072 14.912 68.4712 14.632 69.6392 14.632C70.7912 14.632 71.7912 14.88 72.6392 15.376C73.4872 15.872 74.1192 16.496 74.5352 17.248V14.848H76.7432V28H74.5352V25.552C74.1032 26.32 73.4552 26.96 72.5912 27.472C71.7432 27.968 70.7512 28.216 69.6152 28.216C68.4472 28.216 67.3912 27.928 66.4472 27.352C65.5032 26.776 64.7592 25.968 64.2152 24.928C63.6712 23.888 63.3992 22.704 63.3992 21.376ZM74.5352 21.4C74.5352 20.408 74.3352 19.544 73.9352 18.808C73.5352 18.072 72.9912 17.512 72.3032 17.128C71.6312 16.728 70.8872 16.528 70.0712 16.528C69.2552 16.528 68.5112 16.72 67.8392 17.104C67.1672 17.488 66.6312 18.048 66.2312 18.784C65.8312 19.52 65.6312 20.384 65.6312 21.376C65.6312 22.384 65.8312 23.264 66.2312 24.016C66.6312 24.752 67.1672 25.32 67.8392 25.72C68.5112 26.104 69.2552 26.296 70.0712 26.296C70.8872 26.296 71.6312 26.104 72.3032 25.72C72.9912 25.32 73.5352 24.752 73.9352 24.016C74.3352 23.264 74.5352 22.392 74.5352 21.4ZM81.5619 12.712C81.1459 12.712 80.7939 12.568 80.5059 12.28C80.2179 11.992 80.0739 11.64 80.0739 11.224C80.0739 10.808 80.2179 10.456 80.5059 10.168C80.7939 9.88 81.1459 9.736 81.5619 9.736C81.9619 9.736 82.2979 9.88 82.5699 10.168C82.8579 10.456 83.0019 10.808 83.0019 11.224C83.0019 11.64 82.8579 11.992 82.5699 12.28C82.2979 12.568 81.9619 12.712 81.5619 12.712ZM82.6179 14.848V28H80.4339V14.848H82.6179ZM92.0762 28.216C90.8442 28.216 89.7242 27.936 88.7162 27.376C87.7242 26.816 86.9402 26.024 86.3642 25C85.8042 23.96 85.5242 22.76 85.5242 21.4C85.5242 20.056 85.8122 18.872 86.3882 17.848C86.9802 16.808 87.7802 16.016 88.7882 15.472C89.7962 14.912 90.9242 14.632 92.1722 14.632C93.4202 14.632 94.5482 14.912 95.5562 15.472C96.5642 16.016 97.3562 16.8 97.9322 17.824C98.5242 18.848 98.8202 20.04 98.8202 21.4C98.8202 22.76 98.5162 23.96 97.9082 25C97.3162 26.024 96.5082 26.816 95.4842 27.376C94.4602 27.936 93.3242 28.216 92.0762 28.216ZM92.0762 26.296C92.8602 26.296 93.5962 26.112 94.2842 25.744C94.9722 25.376 95.5242 24.824 95.9402 24.088C96.3722 23.352 96.5882 22.456 96.5882 21.4C96.5882 20.344 96.3802 19.448 95.9642 18.712C95.5482 17.976 95.0042 17.432 94.3322 17.08C93.6602 16.712 92.9322 16.528 92.1482 16.528C91.3482 16.528 90.6122 16.712 89.9402 17.08C89.2842 17.432 88.7562 17.976 88.3562 18.712C87.9562 19.448 87.7562 20.344 87.7562 21.4C87.7562 22.472 87.9482 23.376 88.3322 24.112C88.7322 24.848 89.2602 25.4 89.9162 25.768C90.5722 26.12 91.2922 26.296 92.0762 26.296ZM197.497 28.144C197.081 28.144 196.729 28 196.441 27.712C196.153 27.424 196.009 27.072 196.009 26.656C196.009 26.24 196.153 25.888 196.441 25.6C196.729 25.312 197.081 25.168 197.497 25.168C197.897 25.168 198.233 25.312 198.505 25.6C198.793 25.888 198.937 26.24 198.937 26.656C198.937 27.072 198.793 27.424 198.505 27.712C198.233 28 197.897 28.144 197.497 28.144Z" fill="#EBEBFF"/>
<path d="M103.876 26.224H109.732V28H101.692V11.272H103.876V26.224ZM117.787 28.216C116.555 28.216 115.435 27.936 114.427 27.376C113.435 26.816 112.651 26.024 112.075 25C111.515 23.96 111.235 22.76 111.235 21.4C111.235 20.056 111.523 18.872 112.099 17.848C112.691 16.808 113.491 16.016 114.499 15.472C115.507 14.912 116.635 14.632 117.883 14.632C119.131 14.632 120.259 14.912 121.267 15.472C122.275 16.016 123.067 16.8 123.643 17.824C124.235 18.848 124.531 20.04 124.531 21.4C124.531 22.76 124.227 23.96 123.619 25C123.027 26.024 122.219 26.816 121.195 27.376C120.171 27.936 119.035 28.216 117.787 28.216ZM117.787 26.296C118.571 26.296 119.307 26.112 119.995 25.744C120.683 25.376 121.235 24.824 121.651 24.088C122.083 23.352 122.299 22.456 122.299 21.4C122.299 20.344 122.091 19.448 121.675 18.712C121.259 17.976 120.715 17.432 120.043 17.08C119.371 16.712 118.643 16.528 117.859 16.528C117.059 16.528 116.323 16.712 115.651 17.08C114.995 17.432 114.467 17.976 114.067 18.712C113.667 19.448 113.467 20.344 113.467 21.4C113.467 22.472 113.659 23.376 114.043 24.112C114.443 24.848 114.971 25.4 115.627 25.768C116.283 26.12 117.003 26.296 117.787 26.296ZM139.067 14.848V28H136.883V26.056C136.467 26.728 135.883 27.256 135.131 27.64C134.395 28.008 133.579 28.192 132.683 28.192C131.659 28.192 130.739 27.984 129.923 27.568C129.107 27.136 128.459 26.496 127.979 25.648C127.515 24.8 127.283 23.768 127.283 22.552V14.848H129.443V22.264C129.443 23.56 129.771 24.56 130.427 25.264C131.083 25.952 131.979 26.296 133.115 26.296C134.283 26.296 135.203 25.936 135.875 25.216C136.547 24.496 136.883 23.448 136.883 22.072V14.848H139.067ZM144.938 16.984C145.322 16.232 145.866 15.648 146.57 15.232C147.29 14.816 148.162 14.608 149.186 14.608V16.864H148.61C146.162 16.864 144.938 18.192 144.938 20.848V28H142.754V14.848H144.938V16.984ZM163.707 20.92C163.707 21.336 163.683 21.776 163.635 22.24H153.123C153.203 23.536 153.643 24.552 154.443 25.288C155.259 26.008 156.243 26.368 157.395 26.368C158.339 26.368 159.123 26.152 159.747 25.72C160.387 25.272 160.835 24.68 161.091 23.944H163.443C163.091 25.208 162.387 26.24 161.331 27.04C160.275 27.824 158.963 28.216 157.395 28.216C156.147 28.216 155.027 27.936 154.035 27.376C153.059 26.816 152.291 26.024 151.731 25C151.171 23.96 150.891 22.76 150.891 21.4C150.891 20.04 151.163 18.848 151.707 17.824C152.251 16.8 153.011 16.016 153.987 15.472C154.979 14.912 156.115 14.632 157.395 14.632C158.643 14.632 159.747 14.904 160.707 15.448C161.667 15.992 162.403 16.744 162.915 17.704C163.443 18.648 163.707 19.72 163.707 20.92ZM161.451 20.464C161.451 19.632 161.267 18.92 160.899 18.328C160.531 17.72 160.027 17.264 159.387 16.96C158.763 16.64 158.067 16.48 157.299 16.48C156.195 16.48 155.251 16.832 154.467 17.536C153.699 18.24 153.259 19.216 153.147 20.464H161.451ZM167.718 12.712C167.302 12.712 166.95 12.568 166.662 12.28C166.374 11.992 166.23 11.64 166.23 11.224C166.23 10.808 166.374 10.456 166.662 10.168C166.95 9.88 167.302 9.736 167.718 9.736C168.118 9.736 168.454 9.88 168.726 10.168C169.014 10.456 169.158 10.808 169.158 11.224C169.158 11.64 169.014 11.992 168.726 12.28C168.454 12.568 168.118 12.712 167.718 12.712ZM168.774 14.848V28H166.59V14.848H168.774ZM174.68 16.984C175.064 16.232 175.608 15.648 176.312 15.232C177.032 14.816 177.904 14.608 178.928 14.608V16.864H178.352C175.904 16.864 174.68 18.192 174.68 20.848V28H172.496V14.848H174.68V16.984ZM187.186 28.216C185.954 28.216 184.834 27.936 183.826 27.376C182.834 26.816 182.05 26.024 181.474 25C180.914 23.96 180.634 22.76 180.634 21.4C180.634 20.056 180.922 18.872 181.498 17.848C182.09 16.808 182.89 16.016 183.898 15.472C184.906 14.912 186.034 14.632 187.282 14.632C188.53 14.632 189.658 14.912 190.666 15.472C191.674 16.016 192.466 16.8 193.042 17.824C193.634 18.848 193.93 20.04 193.93 21.4C193.93 22.76 193.626 23.96 193.018 25C192.426 26.024 191.618 26.816 190.594 27.376C189.57 27.936 188.434 28.216 187.186 28.216ZM187.186 26.296C187.97 26.296 188.706 26.112 189.394 25.744C190.082 25.376 190.634 24.824 191.05 24.088C191.482 23.352 191.698 22.456 191.698 21.4C191.698 20.344 191.49 19.448 191.074 18.712C190.658 17.976 190.114 17.432 189.442 17.08C188.77 16.712 188.042 16.528 187.258 16.528C186.458 16.528 185.722 16.712 185.05 17.08C184.394 17.432 183.866 17.976 183.466 18.712C183.066 19.448 182.866 20.344 182.866 21.4C182.866 22.472 183.058 23.376 183.442 24.112C183.842 24.848 184.37 25.4 185.026 25.768C185.682 26.12 186.402 26.296 187.186 26.296Z" fill="url(#paint1_linear_582_373)"/>
<defs>
<linearGradient id="paint0_linear_582_373" x1="0" y1="20" x2="40" y2="20" gradientUnits="userSpaceOnUse">
<stop stop-color="#6379AC"/>
<stop offset="1" stop-color="#4B4996"/>
</linearGradient>
<linearGradient id="paint1_linear_582_373" x1="48" y1="20" x2="200" y2="20" gradientUnits="userSpaceOnUse">
<stop stop-color="#6379AC"/>
<stop offset="1" stop-color="#4B4996"/>
</linearGradient>
</defs>
</svg>
