<svg width="200" height="45" viewBox="0 0 200 45" fill="none" xmlns="http://www.w3.org/2000/svg">
<path d="M58.92 30L52.032 22.368V30H49.848V13.272H52.032V21.024L58.944 13.272H61.704L54.12 21.648L61.776 30H58.92ZM63.3992 23.376C63.3992 22.032 63.6712 20.856 64.2152 19.848C64.7592 18.824 65.5032 18.032 66.4472 17.472C67.4072 16.912 68.4712 16.632 69.6392 16.632C70.7912 16.632 71.7912 16.88 72.6392 17.376C73.4872 17.872 74.1192 18.496 74.5352 19.248V16.848H76.7432V30H74.5352V27.552C74.1032 28.32 73.4552 28.96 72.5912 29.472C71.7432 29.968 70.7512 30.216 69.6152 30.216C68.4472 30.216 67.3912 29.928 66.4472 29.352C65.5032 28.776 64.7592 27.968 64.2152 26.928C63.6712 25.888 63.3992 24.704 63.3992 23.376ZM74.5352 23.4C74.5352 22.408 74.3352 21.544 73.9352 20.808C73.5352 20.072 72.9912 19.512 72.3032 19.128C71.6312 18.728 70.8872 18.528 70.0712 18.528C69.2552 18.528 68.5112 18.72 67.8392 19.104C67.1672 19.488 66.6312 20.048 66.2312 20.784C65.8312 21.52 65.6312 22.384 65.6312 23.376C65.6312 24.384 65.8312 25.264 66.2312 26.016C66.6312 26.752 67.1672 27.32 67.8392 27.72C68.5112 28.104 69.2552 28.296 70.0712 28.296C70.8872 28.296 71.6312 28.104 72.3032 27.72C72.9912 27.32 73.5352 26.752 73.9352 26.016C74.3352 25.264 74.5352 24.392 74.5352 23.4ZM81.5619 14.712C81.1459 14.712 80.7939 14.568 80.5059 14.28C80.2179 13.992 80.0739 13.64 80.0739 13.224C80.0739 12.808 80.2179 12.456 80.5059 12.168C80.7939 11.88 81.1459 11.736 81.5619 11.736C81.9619 11.736 82.2979 11.88 82.5699 12.168C82.8579 12.456 83.0019 12.808 83.0019 13.224C83.0019 13.64 82.8579 13.992 82.5699 14.28C82.2979 14.568 81.9619 14.712 81.5619 14.712ZM82.6179 16.848V30H80.4339V16.848H82.6179ZM92.0762 30.216C90.8442 30.216 89.7242 29.936 88.7162 29.376C87.7242 28.816 86.9402 28.024 86.3642 27C85.8042 25.96 85.5242 24.76 85.5242 23.4C85.5242 22.056 85.8122 20.872 86.3882 19.848C86.9802 18.808 87.7802 18.016 88.7882 17.472C89.7962 16.912 90.9242 16.632 92.1722 16.632C93.4202 16.632 94.5482 16.912 95.5562 17.472C96.5642 18.016 97.3562 18.8 97.9322 19.824C98.5242 20.848 98.8202 22.04 98.8202 23.4C98.8202 24.76 98.5162 25.96 97.9082 27C97.3162 28.024 96.5082 28.816 95.4842 29.376C94.4602 29.936 93.3242 30.216 92.0762 30.216ZM92.0762 28.296C92.8602 28.296 93.5962 28.112 94.2842 27.744C94.9722 27.376 95.5242 26.824 95.9402 26.088C96.3722 25.352 96.5882 24.456 96.5882 23.4C96.5882 22.344 96.3802 21.448 95.9642 20.712C95.5482 19.976 95.0042 19.432 94.3322 19.08C93.6602 18.712 92.9322 18.528 92.1482 18.528C91.3482 18.528 90.6122 18.712 89.9402 19.08C89.2842 19.432 88.7562 19.976 88.3562 20.712C87.9562 21.448 87.7562 22.344 87.7562 23.4C87.7562 24.472 87.9482 25.376 88.3322 26.112C88.7322 26.848 89.2602 27.4 89.9162 27.768C90.5722 28.12 91.2922 28.296 92.0762 28.296ZM197.497 30.144C197.081 30.144 196.729 30 196.441 29.712C196.153 29.424 196.009 29.072 196.009 28.656C196.009 28.24 196.153 27.888 196.441 27.6C196.729 27.312 197.081 27.168 197.497 27.168C197.897 27.168 198.233 27.312 198.505 27.6C198.793 27.888 198.937 28.24 198.937 28.656C198.937 29.072 198.793 29.424 198.505 29.712C198.233 30 197.897 30.144 197.497 30.144Z" fill="#EBEBFF"/>
<path d="M103.876 28.224H109.732V30H101.692V13.272H103.876V28.224ZM117.787 30.216C116.555 30.216 115.435 29.936 114.427 29.376C113.435 28.816 112.651 28.024 112.075 27C111.515 25.96 111.235 24.76 111.235 23.4C111.235 22.056 111.523 20.872 112.099 19.848C112.691 18.808 113.491 18.016 114.499 17.472C115.507 16.912 116.635 16.632 117.883 16.632C119.131 16.632 120.259 16.912 121.267 17.472C122.275 18.016 123.067 18.8 123.643 19.824C124.235 20.848 124.531 22.04 124.531 23.4C124.531 24.76 124.227 25.96 123.619 27C123.027 28.024 122.219 28.816 121.195 29.376C120.171 29.936 119.035 30.216 117.787 30.216ZM117.787 28.296C118.571 28.296 119.307 28.112 119.995 27.744C120.683 27.376 121.235 26.824 121.651 26.088C122.083 25.352 122.299 24.456 122.299 23.4C122.299 22.344 122.091 21.448 121.675 20.712C121.259 19.976 120.715 19.432 120.043 19.08C119.371 18.712 118.643 18.528 117.859 18.528C117.059 18.528 116.323 18.712 115.651 19.08C114.995 19.432 114.467 19.976 114.067 20.712C113.667 21.448 113.467 22.344 113.467 23.4C113.467 24.472 113.659 25.376 114.043 26.112C114.443 26.848 114.971 27.4 115.627 27.768C116.283 28.12 117.003 28.296 117.787 28.296ZM139.067 16.848V30H136.883V28.056C136.467 28.728 135.883 29.256 135.131 29.64C134.395 30.008 133.579 30.192 132.683 30.192C131.659 30.192 130.739 29.984 129.923 29.568C129.107 29.136 128.459 28.496 127.979 27.648C127.515 26.8 127.283 25.768 127.283 24.552V16.848H129.443V24.264C129.443 25.56 129.771 26.56 130.427 27.264C131.083 27.952 131.979 28.296 133.115 28.296C134.283 28.296 135.203 27.936 135.875 27.216C136.547 26.496 136.883 25.448 136.883 24.072V16.848H139.067ZM144.938 18.984C145.322 18.232 145.866 17.648 146.57 17.232C147.29 16.816 148.162 16.608 149.186 16.608V18.864H148.61C146.162 18.864 144.938 20.192 144.938 22.848V30H142.754V16.848H144.938V18.984ZM163.707 22.92C163.707 23.336 163.683 23.776 163.635 24.24H153.123C153.203 25.536 153.643 26.552 154.443 27.288C155.259 28.008 156.243 28.368 157.395 28.368C158.339 28.368 159.123 28.152 159.747 27.72C160.387 27.272 160.835 26.68 161.091 25.944H163.443C163.091 27.208 162.387 28.24 161.331 29.04C160.275 29.824 158.963 30.216 157.395 30.216C156.147 30.216 155.027 29.936 154.035 29.376C153.059 28.816 152.291 28.024 151.731 27C151.171 25.96 150.891 24.76 150.891 23.4C150.891 22.04 151.163 20.848 151.707 19.824C152.251 18.8 153.011 18.016 153.987 17.472C154.979 16.912 156.115 16.632 157.395 16.632C158.643 16.632 159.747 16.904 160.707 17.448C161.667 17.992 162.403 18.744 162.915 19.704C163.443 20.648 163.707 21.72 163.707 22.92ZM161.451 22.464C161.451 21.632 161.267 20.92 160.899 20.328C160.531 19.72 160.027 19.264 159.387 18.96C158.763 18.64 158.067 18.48 157.299 18.48C156.195 18.48 155.251 18.832 154.467 19.536C153.699 20.24 153.259 21.216 153.147 22.464H161.451ZM167.718 14.712C167.302 14.712 166.95 14.568 166.662 14.28C166.374 13.992 166.23 13.64 166.23 13.224C166.23 12.808 166.374 12.456 166.662 12.168C166.95 11.88 167.302 11.736 167.718 11.736C168.118 11.736 168.454 11.88 168.726 12.168C169.014 12.456 169.158 12.808 169.158 13.224C169.158 13.64 169.014 13.992 168.726 14.28C168.454 14.568 168.118 14.712 167.718 14.712ZM168.774 16.848V30H166.59V16.848H168.774ZM174.68 18.984C175.064 18.232 175.608 17.648 176.312 17.232C177.032 16.816 177.904 16.608 178.928 16.608V18.864H178.352C175.904 18.864 174.68 20.192 174.68 22.848V30H172.496V16.848H174.68V18.984ZM187.186 30.216C185.954 30.216 184.834 29.936 183.826 29.376C182.834 28.816 182.05 28.024 181.474 27C180.914 25.96 180.634 24.76 180.634 23.4C180.634 22.056 180.922 20.872 181.498 19.848C182.09 18.808 182.89 18.016 183.898 17.472C184.906 16.912 186.034 16.632 187.282 16.632C188.53 16.632 189.658 16.912 190.666 17.472C191.674 18.016 192.466 18.8 193.042 19.824C193.634 20.848 193.93 22.04 193.93 23.4C193.93 24.76 193.626 25.96 193.018 27C192.426 28.024 191.618 28.816 190.594 29.376C189.57 29.936 188.434 30.216 187.186 30.216ZM187.186 28.296C187.97 28.296 188.706 28.112 189.394 27.744C190.082 27.376 190.634 26.824 191.05 26.088C191.482 25.352 191.698 24.456 191.698 23.4C191.698 22.344 191.49 21.448 191.074 20.712C190.658 19.976 190.114 19.432 189.442 19.08C188.77 18.712 188.042 18.528 187.258 18.528C186.458 18.528 185.722 18.712 185.05 19.08C184.394 19.432 183.866 19.976 183.466 20.712C183.066 21.448 182.866 22.344 182.866 23.4C182.866 24.472 183.058 25.376 183.442 26.112C183.842 26.848 184.37 27.4 185.026 27.768C185.682 28.12 186.402 28.296 187.186 28.296Z" fill="url(#paint0_linear_181_937)"/>
<mask id="mask0_181_937" style="mask-type:alpha" maskUnits="userSpaceOnUse" x="0" y="0" width="45" height="45">
<rect width="45" height="45" fill="#D9D9D9"/>
</mask>
<g mask="url(#mask0_181_937)">
<path d="M40.1455 44L12.2727 16.2913L7.52727 21.0088L17.5091 30.9319L14.4545 33.9685L1.36364 20.9546L9.16364 13.2005L0 4.09079L3.10909 1L43.2545 40.9092L40.1455 44ZM37.2 28.7087L34.0909 25.6179L38.8364 20.9004L28.8545 10.9773L31.9091 7.94073L45 20.9546L37.2 28.7087Z" fill="url(#paint1_linear_181_937)"/>
</g>
<defs>
<linearGradient id="paint0_linear_181_937" x1="48" y1="22" x2="200" y2="22" gradientUnits="userSpaceOnUse">
<stop stop-color="#6379AC"/>
<stop offset="1" stop-color="#4B4996"/>
</linearGradient>
<linearGradient id="paint1_linear_181_937" x1="0" y1="22.5" x2="45" y2="22.5" gradientUnits="userSpaceOnUse">
<stop stop-color="#6379AC"/>
<stop offset="1" stop-color="#4B4996"/>
</linearGradient>
</defs>
</svg>
