<svg width="336" height="241" viewBox="0 0 336 241" fill="none" xmlns="http://www.w3.org/2000/svg">
<g clip-path="url(#clip0_181_608)">
<g filter="url(#filter0_d_181_608)">
<path d="M308.484 3.32019H9.81063C6.22464 3.32019 3.31763 6.22967 3.31763 9.81869V191.683C3.31763 195.272 6.22464 198.182 9.81063 198.182H308.484C312.07 198.182 314.977 195.272 314.977 191.683V9.81869C314.977 6.22967 312.07 3.32019 308.484 3.32019Z" fill="black"/>
</g>
<path d="M308.484 3.32019H9.81063C6.22464 3.32019 3.31763 6.22967 3.31763 9.81869V191.683C3.31763 195.272 6.22464 198.182 9.81063 198.182H308.484C312.07 198.182 314.977 195.272 314.977 191.683V9.81869C314.977 6.22967 312.07 3.32019 308.484 3.32019Z" fill="white"/>
<g filter="url(#filter1_d_181_608)">
<path d="M9.81015 3.32019H308.484C312.07 3.32019 314.976 6.2296 314.976 9.81821V24.1053H3.31763V9.81869C3.31763 6.2296 6.22457 3.32019 9.81015 3.32019Z" fill="black"/>
</g>
<path d="M9.81015 3.32019H308.484C312.07 3.32019 314.976 6.2296 314.976 9.81821V24.1053H3.31763V9.81869C3.31763 6.2296 6.22457 3.32019 9.81015 3.32019Z" fill="#00252E"/>
<path d="M89.9981 9.81531H28.3153C27.4188 9.81531 26.6921 10.5426 26.6921 11.4398V15.9851C26.6921 16.8823 27.4188 17.6096 28.3153 17.6096H89.9981C90.8945 17.6096 91.6212 16.8823 91.6212 15.9851V11.4398C91.6212 10.5426 90.8945 9.81531 89.9981 9.81531Z" fill="#E1E8EE"/>
<path d="M293.551 10.4652H284.46C284.101 10.4652 283.811 10.7559 283.811 11.1145V11.115C283.811 11.4736 284.101 11.7643 284.46 11.7643H293.551C293.909 11.7643 294.199 11.4736 294.199 11.115V11.1145C294.199 10.7559 293.909 10.4652 293.551 10.4652Z" fill="#D8D8D8"/>
<path d="M293.551 13.0635H284.46C284.101 13.0635 283.811 13.3542 283.811 13.7128V13.7133C283.811 14.0719 284.101 14.3626 284.46 14.3626H293.551C293.909 14.3626 294.199 14.0719 294.199 13.7133V13.7128C294.199 13.3542 293.909 13.0635 293.551 13.0635Z" fill="#D8D8D8"/>
<path d="M293.551 15.6617H284.46C284.101 15.6617 283.811 15.9525 283.811 16.3111V16.3115C283.811 16.6702 284.101 16.9609 284.46 16.9609H293.551C293.909 16.9609 294.199 16.6702 294.199 16.3115V16.3111C294.199 15.9525 293.909 15.6617 293.551 15.6617Z" fill="#D8D8D8"/>
<path d="M42.2751 79.3167C50.8814 79.3167 57.8582 72.3373 57.8582 63.7276C57.8582 55.118 50.8814 48.1385 42.2751 48.1385C33.6689 48.1385 26.6921 55.118 26.6921 63.7276C26.6921 72.3373 33.6689 79.3167 42.2751 79.3167Z" fill="url(#paint0_linear_181_608)"/>
<path d="M112.399 52.0359H77.012C76.4741 52.0359 76.0381 52.4723 76.0381 53.0106V56.2577C76.0381 56.796 76.4741 57.2324 77.012 57.2324H112.399C112.936 57.2324 113.372 56.796 113.372 56.2577V53.0106C113.372 52.4723 112.936 52.0359 112.399 52.0359Z" fill="#E1E8EE"/>
<path d="M204.922 62.4285H77.012C76.4741 62.4285 76.0381 62.8649 76.0381 63.4032V64.052C76.0381 64.5903 76.4741 65.0267 77.012 65.0267H204.922C205.46 65.0267 205.896 64.5903 205.896 64.052V63.4032C205.896 62.8649 205.46 62.4285 204.922 62.4285Z" fill="#E1E8EE"/>
<path d="M194.101 67.625H77.012C76.4741 67.625 76.0381 68.0614 76.0381 68.5997V69.2486C76.0381 69.7869 76.4741 70.2233 77.012 70.2233H194.101C194.638 70.2233 195.075 69.7869 195.075 69.2486V68.5997C195.075 68.0614 194.638 67.625 194.101 67.625Z" fill="#E1E8EE"/>
<path d="M183.279 72.821H77.012C76.4741 72.821 76.0381 73.2574 76.0381 73.7957V74.4446C76.0381 74.9829 76.4741 75.4193 77.012 75.4193H183.279C183.817 75.4193 184.253 74.9829 184.253 74.4446V73.7957C184.253 73.2574 183.817 72.821 183.279 72.821Z" fill="#E1E8EE"/>
<path d="M225.375 67.625C227.526 67.625 229.27 65.8801 229.27 63.7276C229.27 61.5751 227.526 59.8302 225.375 59.8302C223.223 59.8302 221.479 61.5751 221.479 63.7276C221.479 65.8801 223.223 67.625 225.375 67.625Z" fill="#A7B9C8"/>
<path d="M246.152 67.625C248.304 67.625 250.048 65.8801 250.048 63.7276C250.048 61.5751 248.304 59.8302 246.152 59.8302C244.001 59.8302 242.257 61.5751 242.257 63.7276C242.257 65.8801 244.001 67.625 246.152 67.625Z" fill="#A7B9C8"/>
<path d="M235.764 67.625C237.915 67.625 239.659 65.8801 239.659 63.7276C239.659 61.5751 237.915 59.8302 235.764 59.8302C233.612 59.8302 231.868 61.5751 231.868 63.7276C231.868 65.8801 233.612 67.625 235.764 67.625Z" fill="#A7B9C8"/>
<path d="M256.541 67.625C258.692 67.625 260.436 65.8801 260.436 63.7276C260.436 61.5751 258.692 59.8302 256.541 59.8302C254.389 59.8302 252.645 61.5751 252.645 63.7276C252.645 65.8801 254.389 67.625 256.541 67.625Z" fill="#A7B9C8"/>
<path d="M266.93 67.625C269.081 67.625 270.825 65.8801 270.825 63.7276C270.825 61.5751 269.081 59.8302 266.93 59.8302C264.778 59.8302 263.034 61.5751 263.034 63.7276C263.034 65.8801 264.778 67.625 266.93 67.625Z" fill="#A7B9C8"/>
<path d="M41.3013 121.537C49.3697 121.537 55.9104 114.993 55.9104 106.922C55.9104 98.8503 49.3697 92.307 41.3013 92.307C33.2329 92.307 26.6921 98.8503 26.6921 106.922C26.6921 114.993 33.2329 121.537 41.3013 121.537Z" fill="url(#paint1_linear_181_608)"/>
<path d="M111.424 95.2297H76.0376C75.4997 95.2297 75.0637 95.6661 75.0637 96.2044V99.4516C75.0637 99.9899 75.4997 100.426 76.0376 100.426H111.424C111.962 100.426 112.398 99.9899 112.398 99.4516V96.2044C112.398 95.6661 111.962 95.2297 111.424 95.2297Z" fill="#E1E8EE"/>
<path d="M203.948 105.622H76.0376C75.4997 105.622 75.0637 106.059 75.0637 106.597V107.246C75.0637 107.784 75.4997 108.221 76.0376 108.221H203.948C204.486 108.221 204.922 107.784 204.922 107.246V106.597C204.922 106.059 204.486 105.622 203.948 105.622Z" fill="#E1E8EE"/>
<path d="M193.126 110.819H76.0376C75.4997 110.819 75.0637 111.255 75.0637 111.794V112.442C75.0637 112.981 75.4997 113.417 76.0376 113.417H193.126C193.664 113.417 194.1 112.981 194.1 112.442V111.794C194.1 111.255 193.664 110.819 193.126 110.819Z" fill="#E1E8EE"/>
<path d="M182.305 116.015H76.0376C75.4997 116.015 75.0637 116.451 75.0637 116.99V117.638C75.0637 118.177 75.4997 118.613 76.0376 118.613H182.305C182.842 118.613 183.278 118.177 183.278 117.638V116.99C183.278 116.451 182.842 116.015 182.305 116.015Z" fill="#E1E8EE"/>
<path d="M224.401 110.819C226.552 110.819 228.296 109.074 228.296 106.922C228.296 104.769 226.552 103.025 224.401 103.025C222.249 103.025 220.505 104.769 220.505 106.922C220.505 109.074 222.249 110.819 224.401 110.819Z" fill="#A7B9C8"/>
<path d="M245.178 110.819C247.33 110.819 249.074 109.074 249.074 106.922C249.074 104.769 247.33 103.025 245.178 103.025C243.027 103.025 241.283 104.769 241.283 106.922C241.283 109.074 243.027 110.819 245.178 110.819Z" fill="#A7B9C8"/>
<path d="M234.79 110.819C236.941 110.819 238.685 109.074 238.685 106.922C238.685 104.769 236.941 103.025 234.79 103.025C232.638 103.025 230.894 104.769 230.894 106.922C230.894 109.074 232.638 110.819 234.79 110.819Z" fill="#A7B9C8"/>
<path d="M41.3013 167.979C49.3697 167.979 55.9104 161.436 55.9104 153.364C55.9104 145.293 49.3697 138.75 41.3013 138.75C33.2329 138.75 26.6921 145.293 26.6921 153.364C26.6921 161.436 33.2329 167.979 41.3013 167.979Z" fill="url(#paint2_linear_181_608)"/>
<path d="M111.424 141.672H76.0376C75.4997 141.672 75.0637 142.109 75.0637 142.647V145.894C75.0637 146.432 75.4997 146.869 76.0376 146.869H111.424C111.962 146.869 112.398 146.432 112.398 145.894V142.647C112.398 142.109 111.962 141.672 111.424 141.672Z" fill="#E1E8EE"/>
<path d="M203.948 152.065H76.0376C75.4997 152.065 75.0637 152.501 75.0637 153.04V153.688C75.0637 154.227 75.4997 154.663 76.0376 154.663H203.948C204.486 154.663 204.922 154.227 204.922 153.688V153.04C204.922 152.501 204.486 152.065 203.948 152.065Z" fill="#E1E8EE"/>
<path d="M193.126 157.261H76.0376C75.4997 157.261 75.0637 157.698 75.0637 158.236V158.885C75.0637 159.423 75.4997 159.86 76.0376 159.86H193.126C193.664 159.86 194.1 159.423 194.1 158.885V158.236C194.1 157.698 193.664 157.261 193.126 157.261Z" fill="#E1E8EE"/>
<path d="M182.305 162.457H76.0376C75.4997 162.457 75.0637 162.894 75.0637 163.432V164.081C75.0637 164.619 75.4997 165.056 76.0376 165.056H182.305C182.842 165.056 183.278 164.619 183.278 164.081V163.432C183.278 162.894 182.842 162.457 182.305 162.457Z" fill="#E1E8EE"/>
<path d="M224.401 157.262C226.552 157.262 228.296 155.517 228.296 153.364C228.296 151.212 226.552 149.467 224.401 149.467C222.249 149.467 220.505 151.212 220.505 153.364C220.505 155.517 222.249 157.262 224.401 157.262Z" fill="#A7B9C8"/>
<path d="M245.178 157.262C247.33 157.262 249.074 155.517 249.074 153.364C249.074 151.212 247.33 149.467 245.178 149.467C243.027 149.467 241.283 151.212 241.283 153.364C241.283 155.517 243.027 157.262 245.178 157.262Z" fill="#A7B9C8"/>
<path d="M234.79 157.262C236.941 157.262 238.685 155.517 238.685 153.364C238.685 151.212 236.941 149.467 234.79 149.467C232.638 149.467 230.894 151.212 230.894 153.364C230.894 155.517 232.638 157.262 234.79 157.262Z" fill="#A7B9C8"/>
<path d="M255.567 157.262C257.718 157.262 259.462 155.517 259.462 153.364C259.462 151.212 257.718 149.467 255.567 149.467C253.415 149.467 251.671 151.212 251.671 153.364C251.671 155.517 253.415 157.262 255.567 157.262Z" fill="#A7B9C8"/>
<g filter="url(#filter2_d_181_608)">
<path d="M234.811 70.8721H327.616C330.676 70.8721 333.157 73.3546 333.157 76.4172V231.609C333.157 234.671 330.676 237.154 327.616 237.154H234.811C231.751 237.154 229.27 234.671 229.27 231.609V76.4172C229.27 73.3546 231.751 70.8721 234.811 70.8721Z" fill="black"/>
</g>
<path d="M234.811 70.8721H327.616C330.676 70.8721 333.157 73.3546 333.157 76.4172V231.609C333.157 234.671 330.676 237.154 327.616 237.154H234.811C231.751 237.154 229.27 234.671 229.27 231.609V76.4172C229.27 73.3546 231.751 70.8721 234.811 70.8721Z" fill="white"/>
<g filter="url(#filter3_d_181_608)">
<path d="M234.811 70.8721H327.616C330.676 70.8721 333.157 73.3546 333.157 76.4172V88.6088H229.27V76.4172C229.27 73.3546 231.751 70.8721 234.811 70.8721Z" fill="black"/>
</g>
<path d="M234.811 70.8721H327.616C330.676 70.8721 333.157 73.3546 333.157 76.4172V88.6088H229.27V76.4172C229.27 73.3546 231.751 70.8721 234.811 70.8721Z" fill="#00252E"/>
<path d="M272.08 76.9694H241.088C240.323 76.9694 239.702 77.5901 239.702 78.3558V82.2342C239.702 82.9999 240.323 83.6206 241.088 83.6206H272.08C272.845 83.6206 273.465 82.9999 273.465 82.2342V78.3558C273.465 77.5901 272.845 76.9694 272.08 76.9694Z" fill="#E1E8EE"/>
<path d="M321.521 77.5238H313.764C313.458 77.5238 313.21 77.7719 313.21 78.078C313.21 78.3841 313.458 78.6323 313.764 78.6323H321.521C321.827 78.6323 322.075 78.3841 322.075 78.078C322.075 77.7719 321.827 77.5238 321.521 77.5238Z" fill="#D8D8D8"/>
<path d="M321.521 79.7407H313.764C313.458 79.7407 313.21 79.9889 313.21 80.295C313.21 80.601 313.458 80.8492 313.764 80.8492H321.521C321.827 80.8492 322.075 80.601 322.075 80.295C322.075 79.9889 321.827 79.7407 321.521 79.7407Z" fill="#D8D8D8"/>
<path d="M321.521 81.9581H313.764C313.458 81.9581 313.21 82.2063 313.21 82.5124C313.21 82.8185 313.458 83.0666 313.764 83.0666H321.521C321.827 83.0666 322.075 82.8185 322.075 82.5124C322.075 82.2063 321.827 81.9581 321.521 81.9581Z" fill="#D8D8D8"/>
<path d="M244.529 115.691C247.219 115.691 249.399 113.509 249.399 110.819C249.399 108.128 247.219 105.947 244.529 105.947C241.839 105.947 239.659 108.128 239.659 110.819C239.659 113.509 241.839 115.691 244.529 115.691Z" fill="url(#paint3_linear_181_608)"/>
<path d="M272.962 106.922H254.892C254.727 106.922 254.593 107.055 254.593 107.22V108.355C254.593 108.52 254.727 108.654 254.892 108.654H272.962C273.127 108.654 273.26 108.52 273.26 108.355V107.22C273.26 107.055 273.127 106.922 272.962 106.922Z" fill="#E1E8EE"/>
<path d="M319.224 110.386H254.892C254.727 110.386 254.593 110.52 254.593 110.685V110.953C254.593 111.118 254.727 111.252 254.892 111.252H319.224C319.388 111.252 319.522 111.118 319.522 110.953V110.685C319.522 110.52 319.388 110.386 319.224 110.386Z" fill="#E1E8EE"/>
<path d="M313.813 112.118H254.892C254.727 112.118 254.593 112.252 254.593 112.417V112.685C254.593 112.85 254.727 112.984 254.892 112.984H313.813C313.978 112.984 314.111 112.85 314.111 112.685V112.417C314.111 112.252 313.978 112.118 313.813 112.118Z" fill="#E1E8EE"/>
<path d="M308.402 113.85H254.892C254.727 113.85 254.593 113.984 254.593 114.149V114.417C254.593 114.582 254.727 114.716 254.892 114.716H308.402C308.567 114.716 308.7 114.582 308.7 114.417V114.149C308.7 113.984 308.567 113.85 308.402 113.85Z" fill="#E1E8EE"/>
<path d="M244.529 160.509C247.219 160.509 249.399 158.328 249.399 155.637C249.399 152.947 247.219 150.766 244.529 150.766C241.839 150.766 239.659 152.947 239.659 155.637C239.659 158.328 241.839 160.509 244.529 160.509Z" fill="url(#paint4_linear_181_608)"/>
<path d="M272.962 151.74H254.892C254.727 151.74 254.593 151.874 254.593 152.039V153.173C254.593 153.338 254.727 153.472 254.892 153.472H272.962C273.127 153.472 273.26 153.338 273.26 153.173V152.039C273.26 151.874 273.127 151.74 272.962 151.74Z" fill="#E1E8EE"/>
<path d="M319.224 155.204H254.892C254.727 155.204 254.593 155.338 254.593 155.503V155.771C254.593 155.936 254.727 156.07 254.892 156.07H319.224C319.388 156.07 319.522 155.936 319.522 155.771V155.503C319.522 155.338 319.388 155.204 319.224 155.204Z" fill="#E1E8EE"/>
<path d="M313.813 156.936H254.892C254.727 156.936 254.593 157.07 254.593 157.235V157.504C254.593 157.669 254.727 157.802 254.892 157.802H313.813C313.978 157.802 314.111 157.669 314.111 157.504V157.235C314.111 157.07 313.978 156.936 313.813 156.936Z" fill="#E1E8EE"/>
<path d="M308.402 158.668H254.892C254.727 158.668 254.593 158.802 254.593 158.967V159.235C254.593 159.4 254.727 159.534 254.892 159.534H308.402C308.567 159.534 308.7 159.4 308.7 159.235V158.967C308.7 158.802 308.567 158.668 308.402 158.668Z" fill="#E1E8EE"/>
<path d="M272.962 121.861H254.892C254.727 121.861 254.593 121.995 254.593 122.16V123.295C254.593 123.46 254.727 123.593 254.892 123.593H272.962C273.127 123.593 273.26 123.46 273.26 123.295V122.16C273.26 121.995 273.127 121.861 272.962 121.861Z" fill="#E1E8EE"/>
<path d="M319.224 125.326H254.892C254.727 125.326 254.593 125.459 254.593 125.624V125.893C254.593 126.058 254.727 126.192 254.892 126.192H319.224C319.388 126.192 319.522 126.058 319.522 125.893V125.624C319.522 125.459 319.388 125.326 319.224 125.326Z" fill="#E1E8EE"/>
<path d="M313.813 127.058H254.892C254.727 127.058 254.593 127.192 254.593 127.357V127.625C254.593 127.79 254.727 127.924 254.892 127.924H313.813C313.978 127.924 314.111 127.79 314.111 127.625V127.357C314.111 127.192 313.978 127.058 313.813 127.058Z" fill="#E1E8EE"/>
<path d="M308.402 128.789H254.892C254.727 128.789 254.593 128.923 254.593 129.088V129.357C254.593 129.522 254.727 129.656 254.892 129.656H308.402C308.567 129.656 308.7 129.522 308.7 129.357V129.088C308.7 128.923 308.567 128.789 308.402 128.789Z" fill="#E1E8EE"/>
<path d="M244.529 130.63C247.219 130.63 249.399 128.449 249.399 125.759C249.399 123.068 247.219 120.887 244.529 120.887C241.839 120.887 239.659 123.068 239.659 125.759C239.659 128.449 241.839 130.63 244.529 130.63Z" fill="url(#paint5_linear_181_608)"/>
<path d="M272.962 166.679H254.892C254.727 166.679 254.593 166.813 254.593 166.978V168.112C254.593 168.277 254.727 168.411 254.892 168.411H272.962C273.127 168.411 273.26 168.277 273.26 168.112V166.978C273.26 166.813 273.127 166.679 272.962 166.679Z" fill="#E1E8EE"/>
<path d="M319.224 170.143H254.892C254.727 170.143 254.593 170.277 254.593 170.442V170.711C254.593 170.876 254.727 171.01 254.892 171.01H319.224C319.388 171.01 319.522 170.876 319.522 170.711V170.442C319.522 170.277 319.388 170.143 319.224 170.143Z" fill="#E1E8EE"/>
<path d="M313.813 171.876H254.892C254.727 171.876 254.593 172.009 254.593 172.174V172.443C254.593 172.608 254.727 172.742 254.892 172.742H313.813C313.978 172.742 314.111 172.608 314.111 172.443V172.174C314.111 172.009 313.978 171.876 313.813 171.876Z" fill="#E1E8EE"/>
<path d="M308.402 173.607H254.892C254.727 173.607 254.593 173.741 254.593 173.906V174.175C254.593 174.34 254.727 174.473 254.892 174.473H308.402C308.567 174.473 308.7 174.34 308.7 174.175V173.906C308.7 173.741 308.567 173.607 308.402 173.607Z" fill="#E1E8EE"/>
<path d="M244.529 175.448C247.219 175.448 249.399 173.267 249.399 170.576C249.399 167.886 247.219 165.705 244.529 165.705C241.839 165.705 239.659 167.886 239.659 170.576C239.659 173.267 241.839 175.448 244.529 175.448Z" fill="url(#paint6_linear_181_608)"/>
<path d="M272.962 136.801H254.892C254.727 136.801 254.593 136.934 254.593 137.099V138.234C254.593 138.399 254.727 138.533 254.892 138.533H272.962C273.127 138.533 273.26 138.399 273.26 138.234V137.099C273.26 136.934 273.127 136.801 272.962 136.801Z" fill="#E1E8EE"/>
<path d="M319.224 140.265H254.892C254.727 140.265 254.593 140.399 254.593 140.564V140.832C254.593 140.997 254.727 141.131 254.892 141.131H319.224C319.388 141.131 319.522 140.997 319.522 140.832V140.564C319.522 140.399 319.388 140.265 319.224 140.265Z" fill="#E1E8EE"/>
<path d="M313.813 141.997H254.892C254.727 141.997 254.593 142.131 254.593 142.296V142.564C254.593 142.729 254.727 142.863 254.892 142.863H313.813C313.978 142.863 314.111 142.729 314.111 142.564V142.296C314.111 142.131 313.978 141.997 313.813 141.997Z" fill="#E1E8EE"/>
<path d="M308.402 143.729H254.892C254.727 143.729 254.593 143.863 254.593 144.028V144.296C254.593 144.461 254.727 144.595 254.892 144.595H308.402C308.567 144.595 308.7 144.461 308.7 144.296V144.028C308.7 143.863 308.567 143.729 308.402 143.729Z" fill="#E1E8EE"/>
<path d="M244.529 145.57C247.219 145.57 249.399 143.388 249.399 140.698C249.399 138.007 247.219 135.826 244.529 135.826C241.839 135.826 239.659 138.007 239.659 140.698C239.659 143.388 241.839 145.57 244.529 145.57Z" fill="url(#paint7_linear_181_608)"/>
<path d="M272.962 181.618H254.892C254.727 181.618 254.593 181.752 254.593 181.917V183.052C254.593 183.217 254.727 183.351 254.892 183.351H272.962C273.127 183.351 273.26 183.217 273.26 183.052V181.917C273.26 181.752 273.127 181.618 272.962 181.618Z" fill="#E1E8EE"/>
<path d="M319.224 185.083H254.892C254.727 185.083 254.593 185.217 254.593 185.382V185.65C254.593 185.815 254.727 185.949 254.892 185.949H319.224C319.388 185.949 319.522 185.815 319.522 185.65V185.382C319.522 185.217 319.388 185.083 319.224 185.083Z" fill="#E1E8EE"/>
<path d="M313.813 186.815H254.892C254.727 186.815 254.593 186.949 254.593 187.114V187.382C254.593 187.547 254.727 187.681 254.892 187.681H313.813C313.978 187.681 314.111 187.547 314.111 187.382V187.114C314.111 186.949 313.978 186.815 313.813 186.815Z" fill="#E1E8EE"/>
<path d="M308.402 188.547H254.892C254.727 188.547 254.593 188.68 254.593 188.845V189.114C254.593 189.279 254.727 189.413 254.892 189.413H308.402C308.567 189.413 308.7 189.279 308.7 189.114V188.845C308.7 188.68 308.567 188.547 308.402 188.547Z" fill="#E1E8EE"/>
<path d="M244.529 190.387C247.219 190.387 249.399 188.206 249.399 185.516C249.399 182.825 247.219 180.644 244.529 180.644C241.839 180.644 239.659 182.825 239.659 185.516C239.659 188.206 241.839 190.387 244.529 190.387Z" fill="url(#paint8_linear_181_608)"/>
<path d="M244.529 205.327C247.219 205.327 249.399 203.146 249.399 200.455C249.399 197.765 247.219 195.584 244.529 195.584C241.839 195.584 239.659 197.765 239.659 200.455C239.659 203.146 241.839 205.327 244.529 205.327Z" fill="url(#paint9_linear_181_608)"/>
<path d="M272.962 196.558H254.892C254.727 196.558 254.593 196.692 254.593 196.857V197.991C254.593 198.156 254.727 198.29 254.892 198.29H272.962C273.127 198.29 273.26 198.156 273.26 197.991V196.857C273.26 196.692 273.127 196.558 272.962 196.558Z" fill="#E1E8EE"/>
<path d="M319.224 200.022H254.892C254.727 200.022 254.593 200.156 254.593 200.321V200.59C254.593 200.755 254.727 200.889 254.892 200.889H319.224C319.388 200.889 319.522 200.755 319.522 200.59V200.321C319.522 200.156 319.388 200.022 319.224 200.022Z" fill="#E1E8EE"/>
<path d="M313.813 201.755H254.892C254.727 201.755 254.593 201.888 254.593 202.053V202.322C254.593 202.487 254.727 202.621 254.892 202.621H313.813C313.978 202.621 314.111 202.487 314.111 202.322V202.053C314.111 201.888 313.978 201.755 313.813 201.755Z" fill="#E1E8EE"/>
<path d="M308.402 203.486H254.892C254.727 203.486 254.593 203.62 254.593 203.785V204.054C254.593 204.219 254.727 204.352 254.892 204.352H308.402C308.567 204.352 308.7 204.219 308.7 204.054V203.785C308.7 203.62 308.567 203.486 308.402 203.486Z" fill="#E1E8EE"/>
<path d="M272.962 211.497H254.892C254.727 211.497 254.593 211.631 254.593 211.796V212.931C254.593 213.096 254.727 213.23 254.892 213.23H272.962C273.127 213.23 273.26 213.096 273.26 212.931V211.796C273.26 211.631 273.127 211.497 272.962 211.497Z" fill="#E1E8EE"/>
<path d="M319.224 214.962H254.892C254.727 214.962 254.593 215.096 254.593 215.261V215.529C254.593 215.694 254.727 215.828 254.892 215.828H319.224C319.388 215.828 319.522 215.694 319.522 215.529V215.261C319.522 215.096 319.388 214.962 319.224 214.962Z" fill="#E1E8EE"/>
<path d="M313.813 216.694H254.892C254.727 216.694 254.593 216.828 254.593 216.993V217.261C254.593 217.426 254.727 217.56 254.892 217.56H313.813C313.978 217.56 314.111 217.426 314.111 217.261V216.993C314.111 216.828 313.978 216.694 313.813 216.694Z" fill="#E1E8EE"/>
<path d="M308.402 218.426H254.892C254.727 218.426 254.593 218.559 254.593 218.724V218.993C254.593 219.158 254.727 219.292 254.892 219.292H308.402C308.567 219.292 308.7 219.158 308.7 218.993V218.724C308.7 218.559 308.567 218.426 308.402 218.426Z" fill="#E1E8EE"/>
<path d="M244.529 220.266C247.219 220.266 249.399 218.085 249.399 215.395C249.399 212.704 247.219 210.523 244.529 210.523C241.839 210.523 239.659 212.704 239.659 215.395C239.659 218.085 241.839 220.266 244.529 220.266Z" fill="url(#paint10_linear_181_608)"/>
</g>
<g filter="url(#filter4_d_181_608)">
<path d="M24.5693 209.976C19.913 209.973 15.0557 211.006 10.1504 212.345C9.52794 212.469 8.91891 212.87 8.59903 213.366C8.30358 213.833 8.19564 214.302 8.10346 214.796C7.62679 217.423 7.68509 220.004 7.78358 222.86C7.80485 223.514 7.90649 224.293 8.21455 224.763C8.54073 225.238 9.09461 225.541 9.75879 225.641C10.6121 225.768 11.4606 225.866 12.3107 225.953L12.1232 231.115C12.0917 231.524 12.2981 231.866 12.551 232.063C12.7787 232.233 13.0316 232.309 13.2893 232.327C13.8061 232.366 14.4159 232.145 14.7177 231.582C16.0413 229.073 16.8718 227.968 18.5247 226.301C22.8423 226.408 26.6092 226.171 30.8724 225.859C32.3804 225.823 33.4172 224.608 33.6914 223.638C34.5069 221.127 34.6361 218.028 34.7219 214.893C34.759 213.651 34.3217 212.433 33.5464 211.788C32.8082 211.2 31.9187 210.988 31.1001 210.77C28.8286 210.264 26.5579 209.992 24.5693 209.976ZM30.7739 211.939C31.5925 212.158 32.3158 212.369 32.7672 212.733C33.5283 213.526 33.5031 214.057 33.4944 214.914C33.4078 217.952 33.2604 220.903 32.5616 223.139C32.2598 223.972 31.7398 224.566 30.7495 224.653C26.4035 224.971 22.6335 225.217 18.2663 225.092C18.1816 225.09 18.0972 225.104 18.0184 225.135C17.9395 225.166 17.8679 225.212 17.8078 225.271C15.9728 227.095 15.0344 228.365 13.6344 231.015C13.6028 231.075 13.5319 231.112 13.4437 231.118C13.3885 231.115 13.3633 231.069 13.3602 231.03L13.5477 225.431C13.5484 225.28 13.4932 225.134 13.3925 225.02C13.2917 224.906 13.1523 224.831 13.0001 224.811C11.9803 224.714 10.9634 224.591 9.95024 224.441C9.51297 224.377 9.35303 224.259 9.23327 224.084C9.0237 223.593 9.02685 223.29 9.01188 222.82C8.91261 219.985 8.86691 217.51 9.30655 215.047C9.34988 214.681 9.48855 214.308 9.63588 214C9.88012 213.623 10.252 213.569 10.627 213.466C15.4221 212.163 20.1131 211.188 24.5323 211.185C26.699 211.26 28.9704 211.476 30.7739 211.939ZM14.2095 216.741C13.5477 217.52 13.6123 218.577 14.1228 219.285C14.3907 219.658 14.8067 219.955 15.3118 220.022C15.9704 220.076 16.3888 219.813 16.8379 219.513C17.6533 218.816 17.7361 217.598 17.1152 216.717C16.9651 216.501 16.7663 216.323 16.5345 216.196C16.3027 216.069 16.0441 215.996 15.779 215.983C15.0715 215.989 14.5916 216.299 14.2095 216.741ZM21.3556 216.105C20.6977 216.126 20.1651 216.574 19.8389 217.059C19.4686 217.61 19.2512 218.304 19.5521 218.985C20.1312 220.291 22.1316 220.276 22.929 218.946C23.2945 218.334 23.2024 217.637 22.929 217.135C22.6548 216.628 22.2419 216.217 21.6424 216.123C21.5476 216.108 21.4515 216.102 21.3556 216.105ZM27.1575 216.226C26.9511 216.221 26.7449 216.243 26.5445 216.293C25.7535 216.502 25.0799 217.304 25.1815 218.332C25.2335 218.85 25.4738 219.355 25.9111 219.7C26.3476 220.049 26.9787 220.204 27.6468 220.07C28.4126 219.915 28.8901 219.306 29.0469 218.719C29.2068 218.131 29.1674 217.534 28.7979 217.05C28.6064 216.798 28.359 216.593 28.0747 216.451C27.7904 216.308 27.4767 216.231 27.1575 216.226ZM15.7262 217.189C15.8712 217.192 15.9878 217.237 16.1075 217.407C16.3754 217.789 16.3013 218.365 16.0311 218.598C15.7632 218.828 15.5938 218.85 15.4741 218.834C15.3567 218.816 15.2369 218.737 15.129 218.589C14.9257 218.304 14.8642 217.844 15.1353 217.513C15.2771 217.326 15.5418 217.207 15.7262 217.189ZM21.4415 217.323C21.4627 217.326 21.7212 217.474 21.8448 217.701C21.9678 217.928 21.989 218.138 21.8724 218.332C21.5242 218.913 20.7852 218.755 20.6748 218.504C20.6315 218.407 20.663 218.019 20.8655 217.72C21.0688 217.416 21.3217 217.304 21.4415 217.323ZM27.8091 217.765C27.8461 217.817 27.9383 218.146 27.8674 218.407C27.7965 218.67 27.6799 218.831 27.3962 218.888C27.0338 218.964 26.8305 218.888 26.6761 218.767C26.5256 218.646 26.4209 218.44 26.3996 218.219C26.3444 217.674 26.5438 217.547 26.8613 217.464C27.2276 217.374 27.6429 217.531 27.8091 217.765ZM42.4408 212.418C42.4497 212.265 42.5105 212.118 42.6133 212.003C42.6646 211.942 42.7293 211.894 42.8023 211.862C42.8754 211.83 42.9549 211.815 43.0349 211.818H47.1499C47.2886 211.818 47.4336 211.875 47.5809 211.988C47.6498 212.037 47.7057 212.102 47.7441 212.177C47.7825 212.252 47.8022 212.334 47.8015 212.418V218.883H54.6876V212.418C54.687 212.338 54.7029 212.259 54.7343 212.185C54.7657 212.111 54.8119 212.044 54.8703 211.988C54.9286 211.932 54.9979 211.888 55.0738 211.859C55.1498 211.83 55.2309 211.816 55.3124 211.819H59.3707C59.5559 211.819 59.7158 211.864 59.8545 211.954C59.9932 212.045 60.0633 212.191 60.0633 212.39V231.469C60.0633 231.67 60.0018 231.818 59.8821 231.918C59.7623 232.018 59.6047 232.069 59.4109 232.069H55.3116C55.147 232.075 54.9859 232.021 54.8593 231.918C54.7451 231.818 54.6868 231.67 54.6868 231.469V223.724H47.8023V231.469C47.8023 231.66 47.7409 231.809 47.6148 231.911C47.4911 232.018 47.3225 232.069 47.1098 232.069H43.0349C42.6472 232.069 42.4502 231.891 42.4408 231.536V212.418ZM80.3456 231.836C80.2365 231.93 80.1051 231.996 79.9635 232.027C79.8382 232.054 79.7104 232.068 79.5822 232.069H77.4896C77.3233 232.069 77.1815 232.039 77.0618 231.981C76.9443 231.923 76.8405 231.842 76.7569 231.742C76.671 231.638 76.6005 231.523 76.5473 231.4C76.4914 231.272 76.4451 231.14 76.4086 231.006L75.9808 229.261C75.8429 229.543 75.6396 229.861 75.3781 230.222C75.092 230.601 74.7543 230.941 74.3743 231.23C73.9321 231.564 73.4416 231.83 72.9191 232.021C72.3558 232.236 71.7097 232.342 70.9801 232.342C69.9275 232.342 68.971 232.142 68.1122 231.742C67.2706 231.355 66.5216 230.798 65.9141 230.106C65.3113 229.416 64.8425 228.607 64.5109 227.686C64.174 226.737 64.0053 225.738 64.0121 224.732V215.802C64.0121 215.457 64.0862 215.193 64.2406 215.017C64.3903 214.839 64.6346 214.75 64.9662 214.75H68.1674C68.5637 214.75 68.8347 214.817 68.986 214.947C69.1333 215.081 69.2066 215.335 69.2066 215.72V224.596C69.2066 224.987 69.2964 225.356 69.4745 225.707C69.8398 226.412 70.4489 226.966 71.1921 227.268C71.5679 227.423 71.9492 227.5 72.3376 227.5C72.6693 227.5 73.0144 227.423 73.3682 227.268C73.7251 227.113 74.0513 226.907 74.353 226.65C74.6516 226.389 74.9006 226.084 75.0952 225.735C75.289 225.383 75.3844 225.013 75.3844 224.623V215.759C75.3844 215.605 75.4151 215.45 75.4734 215.296C75.5252 215.154 75.6197 215.03 75.7444 214.942C75.8642 214.869 75.9784 214.818 76.0832 214.79C76.1904 214.763 76.3133 214.751 76.452 214.751H79.5822C79.9793 214.751 80.2653 214.844 80.441 215.036C80.6159 215.226 80.7057 215.484 80.7057 215.802V231.061C80.7057 231.233 80.6655 231.39 80.5852 231.536C80.5122 231.678 80.4003 231.796 80.2621 231.878L80.3456 231.836ZM96.4294 229.955C96.1796 230.2 95.9031 230.464 95.6045 230.746C95.3027 231.027 94.9734 231.291 94.6133 231.536C94.2533 231.781 93.8649 231.984 93.4496 232.145C93.0201 232.305 92.564 232.385 92.1047 232.381C90.8496 232.381 89.6922 232.151 88.6365 231.687C87.6048 231.242 86.6759 230.595 85.9065 229.785C85.143 228.979 84.5498 228.031 84.118 226.94C83.691 225.85 83.4751 224.678 83.4751 223.424C83.4751 222.16 83.691 220.985 84.1188 219.897C84.549 218.813 85.143 217.868 85.9073 217.062C86.6751 216.252 87.6042 215.607 88.6365 215.166C89.6922 214.708 90.8496 214.478 92.1047 214.478C92.5788 214.472 93.0503 214.546 93.4993 214.696C93.9041 214.834 94.2898 215.021 94.6472 215.254C94.9947 215.484 95.3122 215.738 95.6045 216.026C95.8936 216.311 96.171 216.592 96.4294 216.865V210.63C96.4294 210.34 96.5184 210.095 96.6973 209.895C96.8785 209.695 97.1495 209.595 97.5088 209.595H100.627C100.747 209.595 100.873 209.622 101.005 209.671C101.141 209.722 101.264 209.792 101.375 209.882C101.485 209.973 101.575 210.082 101.643 210.21C101.714 210.337 101.748 210.476 101.748 210.631V231.018C101.748 231.718 101.375 232.069 100.627 232.069H97.909C97.7247 232.069 97.5828 232.046 97.482 231.999C97.3812 231.956 97.2931 231.889 97.2259 231.803C97.1473 231.704 97.0841 231.593 97.0384 231.476C96.9833 231.345 96.9124 231.191 96.8289 231.018L96.4294 229.955ZM88.4608 223.424C88.4608 224.023 88.5561 224.584 88.7476 225.108C88.923 225.609 89.1981 226.07 89.5567 226.465C89.9073 226.847 90.3289 227.15 90.8252 227.371C91.3169 227.595 91.8652 227.704 92.4648 227.704C93.0557 227.704 93.6127 227.601 94.1359 227.392C94.6559 227.182 95.1121 226.895 95.4989 226.526C95.8898 226.152 96.2071 225.71 96.4349 225.223C96.6708 224.717 96.8046 224.17 96.8289 223.614V223.424C96.8289 222.842 96.7186 222.287 96.4972 221.76C96.2821 221.244 95.9699 220.772 95.5769 220.37C95.182 219.968 94.7116 219.646 94.1918 219.422C93.6478 219.186 93.0591 219.068 92.4648 219.073C91.8652 219.073 91.3169 219.189 90.8244 219.422C90.3386 219.646 89.9066 219.97 89.5567 220.37C89.2002 220.779 88.9257 221.251 88.7476 221.76C88.5553 222.294 88.4583 222.857 88.4608 223.424ZM117.831 229.955C117.582 230.2 117.308 230.464 117.006 230.746C116.707 231.027 116.378 231.291 116.018 231.536C115.658 231.781 115.27 231.984 114.852 232.145C114.424 232.305 113.968 232.385 113.51 232.381C112.255 232.381 111.097 232.151 110.038 231.687C109.008 231.241 108.081 230.594 107.312 229.785C106.548 228.979 105.952 228.031 105.524 226.94C105.093 225.85 104.88 224.678 104.88 223.424C104.88 222.16 105.093 220.985 105.524 219.897C105.93 218.848 106.537 217.886 107.312 217.062C108.08 216.253 109.007 215.608 110.038 215.166C111.097 214.708 112.255 214.478 113.51 214.478C114.018 214.478 114.483 214.551 114.901 214.696C115.307 214.834 115.693 215.021 116.052 215.254C116.397 215.484 116.717 215.738 117.006 216.026C117.298 216.311 117.573 216.592 117.831 216.865V210.63C117.831 210.34 117.924 210.095 118.102 209.895C118.283 209.695 118.551 209.595 118.912 209.595H122.029C122.149 209.595 122.275 209.622 122.41 209.671C122.543 209.722 122.666 209.792 122.777 209.882C122.887 209.973 122.98 210.082 123.048 210.21C123.119 210.337 123.153 210.476 123.153 210.631V231.018C123.153 231.718 122.777 232.069 122.029 232.069H119.314C119.13 232.069 118.986 232.046 118.884 231.999C118.784 231.955 118.696 231.888 118.628 231.803C118.55 231.703 118.487 231.593 118.44 231.476C118.385 231.345 118.317 231.191 118.234 231.018L117.831 229.955ZM109.866 223.424C109.866 224.023 109.961 224.584 110.15 225.108C110.327 225.608 110.603 226.069 110.961 226.465C111.312 226.847 111.734 227.15 112.226 227.371C112.723 227.595 113.27 227.704 113.87 227.704C114.442 227.709 115.008 227.602 115.539 227.392C116.047 227.193 116.511 226.899 116.905 226.526C117.295 226.152 117.612 225.71 117.84 225.223C118.076 224.717 118.21 224.17 118.234 223.614V223.424C118.234 222.284 117.784 221.188 116.978 220.37C116.585 219.967 116.114 219.645 115.594 219.422C115.051 219.186 114.463 219.067 113.87 219.073C113.27 219.073 112.722 219.189 112.226 219.422C111.742 219.647 111.311 219.97 110.962 220.37C110.605 220.78 110.33 221.251 110.15 221.76C109.96 222.295 109.864 222.857 109.866 223.424ZM126.837 210.645C126.837 210.355 126.91 210.11 127.057 209.909C127.206 209.709 127.461 209.61 127.822 209.61H131.216C131.308 209.61 131.403 209.633 131.505 209.685C131.607 209.734 131.702 209.803 131.789 209.895C131.878 209.985 131.952 210.095 132.009 210.222C132.071 210.349 132.102 210.491 132.102 210.645V231.018C132.102 231.363 132.001 231.627 131.804 231.803C131.603 231.981 131.348 232.069 131.035 232.069H127.821C127.461 232.069 127.206 231.981 127.058 231.803C126.91 231.627 126.836 231.363 126.836 231.018L126.837 210.645ZM150.165 229.998C149.362 230.728 148.434 231.311 147.423 231.721C146.407 232.136 145.33 232.342 144.195 232.342C142.929 232.342 141.736 232.115 140.609 231.66C139.506 231.223 138.499 230.581 137.642 229.77C136.788 228.96 136.101 227.996 135.62 226.929C135.121 225.838 134.872 224.65 134.872 223.369C134.872 222.569 134.971 221.793 135.171 221.043C135.368 220.294 135.651 219.592 136.014 218.937C136.38 218.283 136.826 217.676 137.343 217.129C138.393 216.025 139.727 215.222 141.203 214.805C141.959 214.587 142.76 214.478 143.6 214.478C144.366 214.478 145.108 214.578 145.832 214.778C147.253 215.17 148.549 215.911 149.599 216.932C150.119 217.433 150.574 217.994 150.956 218.604C151.334 219.206 151.627 219.852 151.836 220.539C152.043 221.224 152.147 221.933 152.147 222.66C152.147 223.133 152.141 223.517 152.125 223.817C152.113 224.118 152.043 224.356 151.913 224.536C151.783 224.711 151.568 224.835 151.267 224.902C150.968 224.971 150.525 225.005 149.943 225.005H139.968C140.061 225.586 140.249 226.074 140.532 226.465C140.812 226.856 141.138 227.168 141.507 227.398C141.877 227.631 142.271 227.795 142.687 227.894C143.071 227.991 143.465 228.042 143.862 228.046C144.195 228.046 144.536 228.013 144.886 227.943C145.232 227.878 145.573 227.787 145.905 227.671C146.217 227.565 146.518 227.433 146.807 227.277C147.078 227.125 147.3 226.968 147.466 226.804C147.613 226.686 147.74 226.598 147.844 226.54C147.948 226.481 148.066 226.449 148.186 226.45C148.306 226.45 148.429 226.492 148.552 226.574C148.678 226.656 148.817 226.774 148.974 226.929L150.442 228.564C150.544 228.682 150.608 228.788 150.635 228.885C150.664 228.979 150.679 229.079 150.679 229.179C150.682 229.348 150.628 229.513 150.525 229.649C150.423 229.779 150.304 229.897 150.165 229.998ZM143.502 218.637C143.142 218.637 142.794 218.707 142.456 218.85C142.12 218.989 141.803 219.176 141.507 219.413C141.211 219.651 140.944 219.921 140.711 220.219C140.486 220.503 140.293 220.809 140.135 221.133H147.217C147.03 220.792 146.819 220.464 146.586 220.152C146.363 219.856 146.102 219.589 145.81 219.358C145.51 219.128 145.173 218.948 144.813 218.828C144.437 218.701 144.001 218.637 143.502 218.637Z" fill="white"/>
</g>
<defs>
<filter id="filter0_d_181_608" x="-3.68237" y="-3.67981" width="325.659" height="208.862" filterUnits="userSpaceOnUse" color-interpolation-filters="sRGB">
<feFlood flood-opacity="0" result="BackgroundImageFix"/>
<feColorMatrix in="SourceAlpha" type="matrix" values="0 0 0 0 0 0 0 0 0 0 0 0 0 0 0 0 0 0 127 0" result="hardAlpha"/>
<feOffset/>
<feGaussianBlur stdDeviation="3.5"/>
<feColorMatrix type="matrix" values="0 0 0 0 0 0 0 0 0 0.145098 0 0 0 0 0.180392 0 0 0 0.181839 0"/>
<feBlend mode="normal" in2="BackgroundImageFix" result="effect1_dropShadow_181_608"/>
<feBlend mode="normal" in="SourceGraphic" in2="effect1_dropShadow_181_608" result="shape"/>
</filter>
<filter id="filter1_d_181_608" x="-3.68237" y="-3.67981" width="325.659" height="34.7852" filterUnits="userSpaceOnUse" color-interpolation-filters="sRGB">
<feFlood flood-opacity="0" result="BackgroundImageFix"/>
<feColorMatrix in="SourceAlpha" type="matrix" values="0 0 0 0 0 0 0 0 0 0 0 0 0 0 0 0 0 0 127 0" result="hardAlpha"/>
<feOffset/>
<feGaussianBlur stdDeviation="3.5"/>
<feColorMatrix type="matrix" values="0 0 0 0 0 0 0 0 0 0.145098 0 0 0 0 0.180392 0 0 0 0.181839 0"/>
<feBlend mode="normal" in2="BackgroundImageFix" result="effect1_dropShadow_181_608"/>
<feBlend mode="normal" in="SourceGraphic" in2="effect1_dropShadow_181_608" result="shape"/>
</filter>
<filter id="filter2_d_181_608" x="223.27" y="64.8721" width="115.886" height="178.282" filterUnits="userSpaceOnUse" color-interpolation-filters="sRGB">
<feFlood flood-opacity="0" result="BackgroundImageFix"/>
<feColorMatrix in="SourceAlpha" type="matrix" values="0 0 0 0 0 0 0 0 0 0 0 0 0 0 0 0 0 0 127 0" result="hardAlpha"/>
<feOffset/>
<feGaussianBlur stdDeviation="3"/>
<feColorMatrix type="matrix" values="0 0 0 0 0 0 0 0 0 0.145098 0 0 0 0 0.180392 0 0 0 0.181839 0"/>
<feBlend mode="normal" in2="BackgroundImageFix" result="effect1_dropShadow_181_608"/>
<feBlend mode="normal" in="SourceGraphic" in2="effect1_dropShadow_181_608" result="shape"/>
</filter>
<filter id="filter3_d_181_608" x="223.27" y="64.8721" width="115.886" height="29.7368" filterUnits="userSpaceOnUse" color-interpolation-filters="sRGB">
<feFlood flood-opacity="0" result="BackgroundImageFix"/>
<feColorMatrix in="SourceAlpha" type="matrix" values="0 0 0 0 0 0 0 0 0 0 0 0 0 0 0 0 0 0 127 0" result="hardAlpha"/>
<feOffset/>
<feGaussianBlur stdDeviation="3"/>
<feColorMatrix type="matrix" values="0 0 0 0 0 0 0 0 0 0.145098 0 0 0 0 0.180392 0 0 0 0.181839 0"/>
<feBlend mode="normal" in2="BackgroundImageFix" result="effect1_dropShadow_181_608"/>
<feBlend mode="normal" in="SourceGraphic" in2="effect1_dropShadow_181_608" result="shape"/>
</filter>
<filter id="filter4_d_181_608" x="-3.99976" y="202" width="164" height="46" filterUnits="userSpaceOnUse" color-interpolation-filters="sRGB">
<feFlood flood-opacity="0" result="BackgroundImageFix"/>
<feColorMatrix in="SourceAlpha" type="matrix" values="0 0 0 0 0 0 0 0 0 0 0 0 0 0 0 0 0 0 127 0" result="hardAlpha"/>
<feOffset dy="4"/>
<feGaussianBlur stdDeviation="2"/>
<feComposite in2="hardAlpha" operator="out"/>
<feColorMatrix type="matrix" values="0 0 0 0 0 0 0 0 0 0 0 0 0 0 0 0 0 0 0.25 0"/>
<feBlend mode="normal" in2="BackgroundImageFix" result="effect1_dropShadow_181_608"/>
<feBlend mode="normal" in="SourceGraphic" in2="effect1_dropShadow_181_608" result="shape"/>
</filter>
<linearGradient id="paint0_linear_181_608" x1="31.3081" y1="41.1665" x2="50.3896" y2="85.3618" gradientUnits="userSpaceOnUse">
<stop stop-color="#FAD961"/>
<stop offset="1" stop-color="#FF52C1"/>
</linearGradient>
<linearGradient id="paint1_linear_181_608" x1="41.3013" y1="92.307" x2="41.3013" y2="121.537" gradientUnits="userSpaceOnUse">
<stop stop-color="#00C7FA"/>
<stop offset="1" stop-color="#007DFA"/>
</linearGradient>
<linearGradient id="paint2_linear_181_608" x1="35.1575" y1="138.75" x2="53.0578" y2="171.26" gradientUnits="userSpaceOnUse">
<stop stop-color="#FF52C1"/>
<stop offset="1" stop-color="#9952FF"/>
</linearGradient>
<linearGradient id="paint3_linear_181_608" x1="241.102" y1="103.768" x2="247.065" y2="117.58" gradientUnits="userSpaceOnUse">
<stop stop-color="#FAD961"/>
<stop offset="1" stop-color="#FF52C1"/>
</linearGradient>
<linearGradient id="paint4_linear_181_608" x1="241.102" y1="148.587" x2="247.065" y2="162.398" gradientUnits="userSpaceOnUse">
<stop stop-color="#FAD961"/>
<stop offset="1" stop-color="#FF52C1"/>
</linearGradient>
<linearGradient id="paint5_linear_181_608" x1="244.529" y1="120.887" x2="244.529" y2="130.63" gradientUnits="userSpaceOnUse">
<stop stop-color="#00C7FA"/>
<stop offset="1" stop-color="#007DFA"/>
</linearGradient>
<linearGradient id="paint6_linear_181_608" x1="244.529" y1="165.705" x2="244.529" y2="175.448" gradientUnits="userSpaceOnUse">
<stop stop-color="#00C7FA"/>
<stop offset="1" stop-color="#007DFA"/>
</linearGradient>
<linearGradient id="paint7_linear_181_608" x1="242.481" y1="135.826" x2="248.448" y2="146.663" gradientUnits="userSpaceOnUse">
<stop stop-color="#FF52C1"/>
<stop offset="1" stop-color="#9952FF"/>
</linearGradient>
<linearGradient id="paint8_linear_181_608" x1="242.481" y1="180.644" x2="248.448" y2="191.481" gradientUnits="userSpaceOnUse">
<stop stop-color="#FF52C1"/>
<stop offset="1" stop-color="#9952FF"/>
</linearGradient>
<linearGradient id="paint9_linear_181_608" x1="241.102" y1="193.405" x2="247.065" y2="207.216" gradientUnits="userSpaceOnUse">
<stop stop-color="#FAD961"/>
<stop offset="1" stop-color="#FF52C1"/>
</linearGradient>
<linearGradient id="paint10_linear_181_608" x1="244.529" y1="210.523" x2="244.529" y2="220.266" gradientUnits="userSpaceOnUse">
<stop stop-color="#00C7FA"/>
<stop offset="1" stop-color="#007DFA"/>
</linearGradient>
<clipPath id="clip0_181_608">
<rect width="336" height="240" fill="white" transform="translate(0.000244141)"/>
</clipPath>
</defs>
</svg>
