<svg width="184" height="184" viewBox="0 0 184 184" fill="none" xmlns="http://www.w3.org/2000/svg">
<g clip-path="url(#clip0_758_3638)">
<circle cx="92" cy="92" r="91.5" fill="#09090A" stroke="#EBEBFF"/>
<path d="M40.5156 31.0547L41.7341 32.5236L43.4653 31.1008L43.8495 31.564L42.1183 32.9869L43.6165 34.793L43.0463 35.2616L39.5612 31.0601L42.1565 28.927L42.5407 29.3903L40.5156 31.0547Z" fill="#54545C"/>
<path d="M48.4455 27.3326C48.398 27.0463 48.4065 26.7926 48.4711 26.5717C48.5341 26.3487 48.672 26.1656 48.8846 26.0225C48.9519 25.9771 49.0211 25.9412 49.0921 25.9148C49.1653 25.887 49.2368 25.8725 49.3066 25.8714L49.5504 26.3178C49.5735 26.3787 49.5598 26.4262 49.5093 26.4603C49.4798 26.4801 49.4324 26.5028 49.367 26.5285C49.3016 26.5542 49.2331 26.5911 49.1615 26.6393C49.0605 26.7073 48.98 26.783 48.92 26.8662C48.8621 26.948 48.8216 27.0396 48.7984 27.1408C48.7759 27.2386 48.7687 27.3475 48.7767 27.4676C48.7855 27.5841 48.8069 27.7104 48.8412 27.8465L50.212 29.8614L49.6469 30.2419L47.4771 27.0527L47.7992 26.8359C47.8602 26.7948 47.9102 26.778 47.949 26.7855C47.9879 26.793 48.0308 26.8222 48.0778 26.8732L48.4455 27.3326Z" fill="#54545C"/>
<path d="M54.0818 22.963C54.3294 22.8285 54.5751 22.7486 54.8189 22.7231C55.0627 22.6976 55.2964 22.7223 55.52 22.7973C55.7436 22.8722 55.9515 22.9976 56.1436 23.1733C56.3367 23.3456 56.506 23.5641 56.6513 23.8288C56.7979 24.0957 56.8919 24.3564 56.9334 24.6111C56.977 24.8646 56.9701 25.1051 56.9126 25.3326C56.8551 25.5602 56.7497 25.7689 56.5963 25.959C56.4418 26.1469 56.2407 26.308 55.993 26.4424C55.7431 26.5781 55.4958 26.6603 55.251 26.6893C55.0073 26.7148 54.7736 26.69 54.55 26.6151C54.3264 26.5402 54.118 26.4165 53.9249 26.2442C53.734 26.0706 53.5652 25.8504 53.4186 25.5836C53.2732 25.3189 53.1787 25.0598 53.1351 24.8064C53.0924 24.5495 53.0998 24.3073 53.1573 24.0797C53.2148 23.8522 53.3202 23.6434 53.4736 23.4533C53.6292 23.2621 53.8319 23.0986 54.0818 22.963ZM55.7383 25.9787C56.073 25.7971 56.2617 25.5502 56.3047 25.2382C56.3464 24.924 56.2573 24.5667 56.0374 24.1664C55.8163 23.7638 55.5615 23.4951 55.273 23.36C54.9845 23.225 54.673 23.2484 54.3383 23.43C54.1688 23.522 54.0363 23.6315 53.9409 23.7583C53.8477 23.884 53.7887 24.0243 53.7638 24.1793C53.7411 24.3331 53.7525 24.5015 53.7981 24.6847C53.8447 24.8644 53.9229 25.0543 54.0328 25.2545C54.2527 25.6548 54.5069 25.9225 54.7954 26.0575C55.0849 26.189 55.3992 26.1628 55.7383 25.9787Z" fill="#54545C"/>
<path d="M60.2038 20.6462C60.2438 20.5272 60.292 20.4144 60.3483 20.3078C60.4046 20.2011 60.4702 20.103 60.5449 20.0133C60.621 19.9203 60.7072 19.8381 60.8037 19.7668C60.9015 19.6921 61.0134 19.628 61.1396 19.5743C61.3336 19.4918 61.5183 19.4518 61.6936 19.4544C61.8703 19.4537 62.0333 19.4919 62.1827 19.5689C62.3334 19.6426 62.4701 19.7512 62.5928 19.8947C62.7155 20.0382 62.8201 20.2101 62.9064 20.4104L63.878 22.6638L63.2505 22.9307L62.2789 20.6773C62.1635 20.4095 62.0122 20.2285 61.825 20.1345C61.6392 20.0371 61.4213 20.0416 61.1713 20.1479C60.9866 20.2264 60.8328 20.3442 60.7097 20.5013C60.5889 20.6574 60.4934 20.84 60.4231 21.049L61.5468 23.6553L60.9194 23.9221L59.3935 20.3831L59.7686 20.2236C59.8574 20.1858 59.9309 20.2055 59.9891 20.2828L60.2038 20.6462Z" fill="#54545C"/>
<path d="M69.9673 20.6044C69.6767 20.6965 69.4266 20.6867 69.2171 20.575C69.01 20.4624 68.8574 20.2541 68.7594 19.9501L68.0362 17.7059L67.593 17.8464C67.5542 17.8587 67.5181 17.8582 67.4844 17.8449C67.45 17.8293 67.425 17.7973 67.4095 17.749L67.3266 17.492L67.9052 17.2248L67.689 16.0446C67.6846 16.0061 67.691 15.9722 67.7082 15.9428C67.7271 15.9102 67.7571 15.8874 67.7983 15.8743L68.1252 15.7707L68.5323 17.0339L69.5967 16.6965L69.7472 17.1634L68.6828 17.5009L69.3921 19.7016C69.4418 19.8561 69.5163 19.9588 69.6155 20.0098C69.7147 20.0608 69.8236 20.0675 69.9423 20.0298C70.0101 20.0083 70.0655 19.9815 70.1085 19.9492C70.1531 19.9138 70.1901 19.8795 70.2194 19.8462C70.2487 19.813 70.2728 19.7841 70.2916 19.7595C70.312 19.7318 70.3319 19.7148 70.3513 19.7087C70.3852 19.6979 70.4221 19.7088 70.4619 19.7414L70.75 19.9892C70.672 20.1283 70.564 20.2529 70.4261 20.3632C70.2873 20.471 70.1344 20.5514 69.9673 20.6044Z" fill="#54545C"/>
<path d="M85.3408 16.9494L85.4094 17.546L82.0652 17.9394L81.4083 12.5332L84.7525 12.1397L84.825 12.7358L82.2155 13.0428L82.4337 14.8386L84.547 14.59L84.6167 15.1634L82.5033 15.412L82.7275 17.2569L85.3408 16.9494Z" fill="#54545C"/>
<path d="M89.074 14.0664C89.1556 13.9709 89.2424 13.8841 89.3345 13.806C89.4267 13.7279 89.5242 13.6612 89.6271 13.6057C89.7324 13.5476 89.8432 13.5033 89.9595 13.4729C90.0782 13.4398 90.2062 13.4218 90.3435 13.4187C90.5545 13.414 90.741 13.4453 90.9029 13.5127C91.0674 13.5774 91.2046 13.6732 91.3147 13.7999C91.4272 13.9241 91.5137 14.0755 91.5742 14.254C91.6347 14.4326 91.6677 14.6307 91.6732 14.8485L91.7354 17.2983L91.0528 17.3135L90.9906 14.8637C90.9833 14.5725 90.9102 14.3486 90.7714 14.1921C90.6351 14.033 90.4309 13.9564 90.1589 13.9625C89.958 13.9669 89.7711 14.0192 89.5981 14.1194C89.4277 14.2194 89.2708 14.3534 89.1276 14.5213L89.1995 17.3547L88.5168 17.3699L88.4192 13.5223L88.8273 13.5133C88.9239 13.5111 88.9848 13.5566 89.01 13.6498L89.074 14.0664Z" fill="#54545C"/>
<path d="M98.3639 14.6564C98.249 14.4779 98.1203 14.3505 97.9778 14.2741C97.8354 14.1952 97.673 14.1491 97.4903 14.1358C97.1326 14.1098 96.8484 14.2174 96.6377 14.4585C96.4269 14.6997 96.305 15.0564 96.2717 15.5289C96.2541 15.779 96.2606 15.9953 96.2911 16.1778C96.3218 16.3577 96.3749 16.5089 96.4504 16.6312C96.5261 16.7509 96.623 16.8418 96.741 16.9037C96.8591 16.9656 96.9955 17.0021 97.1502 17.0134C97.3734 17.0296 97.571 16.9932 97.743 16.9041C97.9176 16.8152 98.0811 16.6837 98.2336 16.5094L98.3639 14.6564ZM99.2281 12.0492L98.8354 17.631L98.4321 17.6017C98.3357 17.5947 98.2781 17.5435 98.2593 17.4482L98.2312 16.9777C98.0525 17.1628 97.8536 17.3083 97.6345 17.4142C97.4154 17.5202 97.1676 17.5631 96.8911 17.543C96.6704 17.527 96.473 17.4707 96.2987 17.3743C96.1247 17.2753 95.98 17.1391 95.8647 16.9656C95.7494 16.7922 95.6661 16.5805 95.6149 16.3305C95.5636 16.0804 95.5492 15.7963 95.5716 15.478C95.5915 15.195 95.648 14.9351 95.7412 14.6981C95.8345 14.4585 95.9585 14.2543 96.1132 14.0852C96.2679 13.9162 96.4515 13.7886 96.6641 13.7025C96.8794 13.614 97.1164 13.5792 97.3752 13.598C97.6111 13.6152 97.8099 13.6703 97.9716 13.7633C98.1361 13.8539 98.2793 13.9748 98.4012 14.1259L98.5508 12L99.2281 12.0492Z" fill="#54545C"/>
<path d="M114.452 17.9207C114.347 18.3145 114.188 18.656 113.976 18.9453C113.765 19.2346 113.514 19.4635 113.224 19.6322C112.934 19.8008 112.611 19.9056 112.255 19.9464C111.902 19.9855 111.532 19.953 111.143 19.8489L109.172 19.32L110.579 14.0622L112.551 14.591C112.939 14.6951 113.276 14.8536 113.561 15.0665C113.85 15.2776 114.077 15.53 114.243 15.8236C114.41 16.1148 114.513 16.4387 114.552 16.7952C114.591 17.1517 114.558 17.5268 114.452 17.9207ZM113.719 17.7239C113.805 17.4011 113.838 17.1006 113.818 16.8224C113.798 16.5443 113.73 16.2955 113.615 16.0759C113.5 15.8562 113.339 15.669 113.133 15.5141C112.927 15.3592 112.682 15.2435 112.397 15.1671L111.14 14.83L110.041 18.9357L111.298 19.2728C111.583 19.3493 111.853 19.372 112.109 19.341C112.365 19.31 112.597 19.2294 112.806 19.0992C113.015 18.9666 113.198 18.7849 113.354 18.5543C113.511 18.3236 113.632 18.0468 113.719 17.7239Z" fill="#54545C"/>
<path d="M119.96 20.2571C120.014 20.1101 120.043 19.968 120.045 19.831C120.051 19.6926 120.029 19.5643 119.981 19.4463C119.936 19.3269 119.865 19.2221 119.769 19.132C119.673 19.0395 119.552 18.9662 119.407 18.912C119.102 18.7983 118.827 18.7971 118.582 18.9084C118.34 19.0182 118.139 19.2217 117.979 19.5189L119.96 20.2571ZM119.843 22.1394C119.729 22.205 119.604 22.253 119.468 22.2833C119.333 22.3112 119.194 22.3242 119.05 22.3222C118.91 22.321 118.769 22.3063 118.627 22.2779C118.485 22.2519 118.348 22.2144 118.217 22.1656C117.967 22.0723 117.751 21.9446 117.57 21.7825C117.392 21.6189 117.256 21.4276 117.161 21.2085C117.07 20.988 117.026 20.7419 117.029 20.4703C117.033 20.1987 117.093 19.9075 117.209 19.5967C117.303 19.3452 117.428 19.1245 117.586 18.9347C117.746 18.7457 117.929 18.5989 118.133 18.4941C118.339 18.387 118.564 18.3274 118.807 18.3154C119.051 18.3011 119.304 18.3428 119.567 18.4405C119.783 18.5213 119.97 18.6327 120.126 18.7747C120.285 18.9151 120.406 19.079 120.488 19.2664C120.574 19.4523 120.617 19.6603 120.618 19.8903C120.62 20.1181 120.573 20.36 120.477 20.6163C120.44 20.7159 120.404 20.7783 120.371 20.8036C120.337 20.8288 120.29 20.8303 120.23 20.8081L117.81 19.9059C117.732 20.1364 117.689 20.346 117.681 20.5349C117.676 20.7247 117.702 20.8951 117.759 21.0463C117.818 21.1952 117.905 21.3238 118.022 21.4323C118.14 21.5384 118.285 21.6234 118.457 21.6873C118.616 21.7469 118.76 21.7801 118.888 21.7872C119.019 21.7928 119.134 21.7898 119.233 21.7781C119.332 21.7665 119.416 21.7531 119.484 21.738C119.556 21.7214 119.612 21.7206 119.652 21.7357C119.705 21.7552 119.738 21.7905 119.751 21.8415L119.843 22.1394Z" fill="#54545C"/>
<path d="M128.042 22.2338L124.94 25.0068L124.391 24.7405L124.657 20.5926L125.155 20.8339C125.206 20.8583 125.241 20.8909 125.26 20.9314C125.28 20.972 125.288 21.0122 125.282 21.0519L125.081 23.7069C125.067 23.8045 125.051 23.8982 125.033 23.9879C125.015 24.0776 124.996 24.1667 124.975 24.2553C125.032 24.1844 125.091 24.1142 125.15 24.0444C125.209 23.9747 125.274 23.9049 125.345 23.8351L127.321 22.0406C127.353 22.0108 127.39 21.9923 127.433 21.9851C127.478 21.9756 127.521 21.9813 127.565 22.0024L128.042 22.2338Z" fill="#54545C"/>
<path d="M138.219 29.956C137.918 29.9084 137.652 29.9245 137.42 30.0045C137.19 30.0861 137.004 30.2221 136.861 30.4125C136.762 30.5442 136.699 30.679 136.672 30.8168C136.646 30.9525 136.647 31.0845 136.675 31.2127C136.702 31.3409 136.753 31.4612 136.828 31.5737C136.904 31.6842 136.995 31.7789 137.101 31.858C137.329 32.0282 137.565 32.1395 137.809 32.1917C138.054 32.2454 138.298 32.2533 138.539 32.2154L138.219 29.956ZM139.431 34.2089L138.903 33.8144C138.844 33.7703 138.801 33.7275 138.775 33.6859C138.749 33.6444 138.731 33.5853 138.722 33.5088L138.612 32.7344C138.282 32.7759 137.951 32.7579 137.618 32.6803C137.289 32.6022 136.975 32.4515 136.675 32.228C136.512 32.1064 136.373 31.9597 136.257 31.7879C136.143 31.6177 136.063 31.4345 136.016 31.2384C135.971 31.0403 135.967 30.8382 136.004 30.632C136.042 30.4258 136.131 30.2285 136.273 30.04C136.379 29.8982 136.503 29.782 136.644 29.6913C136.789 29.6001 136.944 29.5328 137.111 29.4892C137.277 29.4457 137.45 29.4247 137.63 29.4263C137.81 29.4278 137.992 29.4499 138.176 29.4925C138.171 29.2417 138.193 29.0213 138.244 28.8313C138.296 28.6393 138.381 28.4643 138.5 28.3063C138.611 28.1584 138.741 28.0393 138.892 27.9492C139.044 27.8605 139.207 27.8066 139.38 27.7874C139.555 27.7661 139.736 27.7821 139.921 27.8354C140.111 27.8881 140.296 27.9821 140.477 28.1174C140.638 28.2375 140.765 28.3733 140.858 28.5248C140.952 28.6742 141.015 28.8273 141.047 28.9838C141.079 29.1404 141.08 29.2959 141.05 29.4504C141.023 29.6044 140.968 29.7453 140.885 29.8729L140.496 29.6867C140.416 29.6527 140.39 29.584 140.417 29.4807C140.442 29.4174 140.46 29.3452 140.47 29.2641C140.482 29.1846 140.48 29.1025 140.464 29.0179C140.45 28.9348 140.419 28.8515 140.37 28.7679C140.324 28.6858 140.254 28.6098 140.16 28.5398C140.058 28.4638 139.953 28.4109 139.845 28.381C139.74 28.3526 139.635 28.3457 139.532 28.3604C139.432 28.3746 139.337 28.4098 139.247 28.466C139.159 28.5202 139.081 28.5929 139.012 28.684C138.959 28.755 138.916 28.8289 138.884 28.9059C138.851 28.9829 138.827 29.0678 138.812 29.1605C138.798 29.2547 138.793 29.3568 138.796 29.4667C138.8 29.5767 138.811 29.699 138.831 29.8338L139.133 32.0468C139.314 31.9668 139.484 31.8703 139.642 31.7573C139.801 31.6424 139.943 31.5162 140.069 31.379C140.102 31.3435 140.137 31.3222 140.174 31.3151C140.211 31.3081 140.248 31.3182 140.285 31.3456L140.618 31.5941C140.441 31.8256 140.232 32.0272 139.992 32.1989C139.753 32.3686 139.493 32.5015 139.211 32.5977L139.431 34.2089Z" fill="#54545C"/>
<path d="M147.845 41.4555C147.998 41.6224 148.162 41.746 148.338 41.8263C148.515 41.9066 148.695 41.9458 148.878 41.9439C149.064 41.944 149.248 41.9036 149.432 41.8229C149.618 41.744 149.795 41.628 149.964 41.4749L152.421 39.2516L152.916 39.7946L150.46 42.0179C150.227 42.2289 149.977 42.3871 149.709 42.4924C149.443 42.5997 149.173 42.6503 148.9 42.6442C148.63 42.6383 148.363 42.5733 148.099 42.4493C147.834 42.3254 147.589 42.1396 147.363 41.892C147.137 41.6444 146.975 41.3837 146.876 41.11C146.777 40.8363 146.736 40.5645 146.755 40.2946C146.774 40.0231 146.85 39.7596 146.981 39.5042C147.113 39.2506 147.296 39.0184 147.529 38.8074L149.985 36.5841L150.481 37.1271L148.028 39.3479C147.858 39.501 147.725 39.6649 147.627 39.8394C147.53 40.0158 147.472 40.195 147.453 40.3769C147.435 40.5607 147.457 40.7446 147.519 40.9287C147.584 41.1129 147.693 41.2885 147.845 41.4555Z" fill="#54545C"/>
<path d="M153.74 49.6985L153.3 49.1142C153.267 49.0695 153.251 49.0257 153.254 48.9826C153.26 48.9401 153.271 48.9001 153.287 48.8627L154.245 46.3254C154.184 46.3456 154.129 46.3584 154.079 46.3638L151.511 46.5009C151.467 46.5018 151.424 46.4992 151.381 46.493C151.342 46.4874 151.307 46.4642 151.276 46.4237L150.864 45.8758L154.239 45.7032L155.283 42.6791L155.725 43.2665C155.757 43.3091 155.773 43.3459 155.774 43.3768C155.775 43.4077 155.769 43.4411 155.755 43.477L154.859 45.9202C154.913 45.9025 154.976 45.889 155.048 45.8795L157.455 45.7627C157.496 45.7577 157.533 45.7603 157.566 45.7705C157.601 45.7792 157.63 45.7987 157.653 45.8292L158.076 46.3922L154.889 46.5106L153.74 49.6985Z" fill="#54545C"/>
<path d="M155.477 52.5741C155.384 52.5921 155.3 52.5819 155.226 52.5437C155.153 52.5076 155.098 52.4582 155.059 52.3955L154.91 52.152L160.979 51.1486C161.065 51.1325 161.142 51.1392 161.21 51.1688C161.281 51.2005 161.337 51.251 161.379 51.3202L161.53 51.5669L155.477 52.5741Z" fill="#54545C"/>
<path d="M159.928 59.2147C160.027 59.4175 160.15 59.5822 160.296 59.7086C160.443 59.835 160.605 59.9231 160.782 59.9729C160.96 60.025 161.148 60.0381 161.348 60.0123C161.548 59.9888 161.751 59.9274 161.957 59.828L164.944 58.386L165.267 59.0458L162.28 60.4879C161.996 60.6247 161.711 60.7061 161.424 60.7319C161.138 60.76 160.865 60.7328 160.604 60.6502C160.346 60.5688 160.108 60.4316 159.89 60.2386C159.671 60.0456 159.488 59.7986 159.341 59.4978C159.194 59.197 159.112 58.9015 159.094 58.6113C159.077 58.3212 159.115 58.0493 159.208 57.7956C159.304 57.5409 159.451 57.3094 159.649 57.1013C159.848 56.8954 160.089 56.724 160.373 56.5871L163.36 55.1451L163.683 55.8049L160.699 57.2453C160.493 57.3446 160.318 57.4642 160.174 57.6039C160.032 57.746 159.926 57.9015 159.856 58.0705C159.787 58.2418 159.756 58.4243 159.763 58.618C159.774 58.813 159.828 59.0119 159.928 59.2147Z" fill="#54545C"/>
<path d="M162.347 66.3487L162.087 65.6579L167.208 63.7623L167.467 64.453L162.347 66.3487Z" fill="#54545C"/>
<path d="M169.045 81.7656C168.641 81.8326 168.263 81.8299 167.91 81.7575C167.558 81.6851 167.244 81.5523 166.968 81.3591C166.693 81.1659 166.462 80.9165 166.276 80.611C166.093 80.3074 165.968 79.9583 165.901 79.5636L165.559 77.559L170.95 76.6639L171.291 78.6686C171.358 79.0633 171.354 79.4338 171.279 79.7802C171.207 80.1287 171.071 80.4389 170.873 80.7107C170.677 80.9822 170.424 81.2091 170.115 81.3915C169.805 81.5739 169.449 81.6985 169.045 81.7656ZM168.918 81.0199C169.249 80.965 169.537 80.8709 169.783 80.7376C170.028 80.6044 170.227 80.4404 170.38 80.2455C170.532 80.0506 170.636 79.8279 170.691 79.5773C170.747 79.3266 170.75 79.0564 170.7 78.7666L170.483 77.4889L166.274 78.1878L166.491 79.4656C166.541 79.7554 166.633 80.0097 166.768 80.2287C166.903 80.4477 167.074 80.6249 167.28 80.7602C167.489 80.8951 167.731 80.9858 168.007 81.0325C168.283 81.0791 168.587 81.0749 168.918 81.0199Z" fill="#54545C"/>
<path d="M169.214 87.7197C169.372 87.7087 169.513 87.6759 169.639 87.6214C169.768 87.5693 169.876 87.497 169.964 87.4045C170.054 87.3144 170.12 87.207 170.162 87.0822C170.206 86.9572 170.223 86.8176 170.212 86.6635C170.188 86.3401 170.074 86.0903 169.87 85.9141C169.668 85.7402 169.399 85.6422 169.061 85.6201L169.214 87.7197ZM167.447 88.3915C167.34 88.3152 167.243 88.2216 167.159 88.1107C167.077 87.9996 167.007 87.8788 166.949 87.7482C166.891 87.6202 166.845 87.4863 166.812 87.3464C166.776 87.2067 166.753 87.0673 166.743 86.9284C166.724 86.6631 166.75 86.4149 166.823 86.1839C166.898 85.9552 167.015 85.7527 167.176 85.5764C167.339 85.4025 167.545 85.2612 167.795 85.1523C168.044 85.0435 168.335 84.9775 168.668 84.9543C168.936 84.9355 169.19 84.9584 169.43 85.023C169.669 85.0901 169.88 85.1948 170.061 85.337C170.245 85.4791 170.393 85.658 170.505 85.8736C170.621 86.089 170.688 86.3357 170.709 86.6136C170.726 86.8435 170.702 87.0584 170.638 87.2585C170.576 87.4608 170.477 87.6379 170.34 87.7897C170.206 87.9438 170.034 88.0688 169.824 88.1646C169.617 88.2604 169.377 88.3178 169.103 88.3369C168.996 88.3443 168.924 88.3379 168.887 88.3177C168.85 88.2974 168.829 88.2557 168.825 88.1925L168.637 85.6269C168.394 85.6515 168.184 85.6991 168.008 85.7697C167.833 85.8429 167.688 85.9368 167.574 86.0515C167.462 86.1659 167.382 86.2985 167.332 86.4493C167.284 86.5999 167.267 86.7661 167.28 86.948C167.293 87.1173 167.322 87.2613 167.369 87.3799C167.419 87.5008 167.47 87.604 167.522 87.6892C167.574 87.7744 167.621 87.8448 167.663 87.9003C167.709 87.9581 167.733 88.0084 167.736 88.0514C167.74 88.107 167.721 88.1514 167.681 88.1847L167.447 88.3915Z" fill="#54545C"/>
<path d="M170.168 95.1013C170.113 95.0695 170.086 95.0219 170.088 94.9586C170.089 94.9206 170.103 94.8779 170.132 94.8305C170.162 94.7831 170.193 94.7244 170.228 94.6543C170.265 94.5868 170.299 94.5054 170.329 94.4098C170.362 94.3144 170.379 94.2008 170.382 94.0692C170.385 93.9552 170.372 93.8523 170.343 93.7604C170.318 93.6685 170.28 93.589 170.23 93.5219C170.181 93.4573 170.122 93.4064 170.055 93.3693C169.989 93.3347 169.917 93.3164 169.838 93.3144C169.739 93.3119 169.656 93.3377 169.589 93.3918C169.521 93.4483 169.462 93.5228 169.412 93.6153C169.361 93.7078 169.316 93.813 169.275 93.9311C169.237 94.0492 169.195 94.1698 169.149 94.2927C169.105 94.4183 169.057 94.54 169.003 94.6577C168.95 94.7754 168.884 94.8802 168.805 94.9719C168.727 95.0637 168.631 95.136 168.518 95.1889C168.407 95.2444 168.275 95.2702 168.119 95.2663C167.941 95.2618 167.777 95.226 167.626 95.1589C167.477 95.0918 167.348 94.9948 167.239 94.8679C167.133 94.7411 167.05 94.587 166.99 94.4056C166.931 94.2242 166.904 94.0158 166.909 93.7803C166.915 93.5119 166.964 93.2699 167.055 93.0544C167.149 92.8388 167.266 92.6568 167.407 92.5084L167.662 92.6744C167.695 92.6955 167.72 92.7202 167.737 92.7485C167.754 92.7768 167.762 92.8125 167.761 92.8555C167.76 92.9011 167.742 92.9488 167.705 92.9985C167.668 93.0482 167.627 93.108 167.582 93.1778C167.538 93.2502 167.496 93.3378 167.458 93.4407C167.42 93.5436 167.4 93.6723 167.396 93.8268C167.393 93.9585 167.407 94.0741 167.438 94.1737C167.471 94.2733 167.517 94.3568 167.574 94.4241C167.631 94.4914 167.697 94.5412 167.772 94.5735C167.848 94.6083 167.929 94.6269 168.015 94.629C168.122 94.6317 168.211 94.6048 168.281 94.5483C168.353 94.4944 168.414 94.4212 168.465 94.3287C168.518 94.2363 168.563 94.1298 168.602 94.0091C168.643 93.8911 168.685 93.7693 168.728 93.6437C168.772 93.5207 168.82 93.399 168.874 93.2787C168.93 93.1611 168.998 93.0564 169.079 92.9647C169.16 92.873 169.258 92.7995 169.374 92.7441C169.492 92.6913 169.634 92.667 169.799 92.6712C169.947 92.6749 170.087 92.7088 170.221 92.773C170.357 92.8372 170.474 92.9289 170.573 93.0479C170.675 93.167 170.754 93.3121 170.811 93.4833C170.869 93.6545 170.895 93.849 170.89 94.0667C170.884 94.32 170.838 94.5455 170.753 94.7435C170.669 94.9441 170.556 95.1161 170.413 95.2594L170.168 95.1013Z" fill="#54545C"/>
<path d="M170.266 101.773L166.429 101.31L166.509 100.639L170.346 101.101L170.266 101.773ZM171.454 102.061C171.388 102.053 171.328 102.032 171.273 101.998C171.221 101.966 171.174 101.924 171.134 101.874C171.096 101.826 171.068 101.77 171.05 101.707C171.032 101.646 171.027 101.583 171.034 101.517C171.042 101.452 171.062 101.392 171.094 101.337C171.126 101.285 171.166 101.24 171.214 101.202C171.264 101.165 171.319 101.137 171.378 101.119C171.439 101.1 171.502 101.095 171.568 101.103C171.633 101.111 171.694 101.131 171.749 101.163C171.806 101.196 171.854 101.236 171.892 101.284C171.932 101.332 171.962 101.385 171.981 101.444C171.999 101.505 172.004 101.568 171.997 101.633C171.989 101.699 171.969 101.759 171.937 101.813C171.904 101.871 171.863 101.918 171.812 101.955C171.764 101.995 171.708 102.024 171.645 102.042C171.583 102.063 171.52 102.069 171.454 102.061Z" fill="#54545C"/>
<path d="M167.163 108.29C167.134 108.424 167.127 108.545 167.142 108.655C167.157 108.765 167.191 108.861 167.243 108.945C167.295 109.029 167.363 109.098 167.448 109.153C167.535 109.208 167.634 109.248 167.746 109.273C167.977 109.323 168.176 109.293 168.344 109.181C168.511 109.073 168.623 108.886 168.68 108.621C168.738 108.354 168.714 108.135 168.608 107.964C168.501 107.795 168.332 107.686 168.101 107.636C167.989 107.611 167.883 107.606 167.781 107.62C167.681 107.637 167.59 107.673 167.507 107.728C167.425 107.782 167.355 107.856 167.295 107.95C167.236 108.043 167.192 108.157 167.163 108.29ZM164.854 109.035C164.946 109.055 165.026 109.045 165.094 109.005C165.163 108.966 165.223 108.905 165.275 108.823C165.326 108.744 165.37 108.647 165.408 108.533C165.448 108.42 165.486 108.299 165.522 108.169C165.557 108.042 165.593 107.913 165.63 107.781C165.666 107.649 165.706 107.523 165.751 107.403C165.716 107.25 165.659 107.119 165.579 107.008C165.501 106.9 165.396 106.832 165.264 106.803C165.179 106.785 165.097 106.789 165.015 106.815C164.931 106.843 164.853 106.896 164.782 106.974C164.708 107.051 164.641 107.153 164.582 107.28C164.521 107.409 164.47 107.566 164.43 107.749C164.391 107.927 164.373 108.09 164.375 108.238C164.376 108.386 164.397 108.515 164.435 108.625C164.473 108.737 164.528 108.827 164.599 108.897C164.669 108.967 164.754 109.013 164.854 109.035ZM168.54 110.542L168.294 110.488C168.212 110.471 168.171 110.407 168.172 110.298L168.208 109.859C168.026 109.908 167.835 109.91 167.637 109.867C167.453 109.827 167.293 109.754 167.157 109.649C167.023 109.548 166.916 109.423 166.836 109.276C166.756 109.129 166.706 108.963 166.686 108.777C166.667 108.591 166.679 108.397 166.723 108.194C166.761 108.019 166.818 107.857 166.894 107.711C166.862 107.621 166.821 107.548 166.773 107.494C166.728 107.44 166.676 107.407 166.619 107.394C166.53 107.375 166.454 107.396 166.391 107.457C166.33 107.522 166.277 107.611 166.231 107.725C166.186 107.84 166.144 107.972 166.106 108.122C166.068 108.274 166.025 108.428 165.979 108.584C165.934 108.743 165.881 108.894 165.821 109.039C165.76 109.187 165.686 109.313 165.598 109.418C165.51 109.524 165.404 109.6 165.279 109.648C165.154 109.699 165.004 109.705 164.83 109.667C164.668 109.632 164.521 109.557 164.387 109.442C164.252 109.33 164.143 109.185 164.059 109.009C163.972 108.832 163.918 108.626 163.896 108.39C163.872 108.157 163.889 107.903 163.949 107.628C164.008 107.353 164.088 107.119 164.187 106.926C164.286 106.732 164.397 106.578 164.518 106.462C164.64 106.346 164.769 106.266 164.906 106.223C165.039 106.183 165.172 106.177 165.304 106.205C165.49 106.246 165.635 106.339 165.739 106.483C165.843 106.628 165.912 106.81 165.945 107.029C166.019 106.929 166.104 106.854 166.201 106.805C166.299 106.759 166.419 106.752 166.561 106.783C166.615 106.795 166.669 106.817 166.722 106.849C166.777 106.882 166.829 106.924 166.878 106.976C166.928 107.031 166.973 107.094 167.013 107.165C167.052 107.236 167.083 107.315 167.105 107.403C167.25 107.24 167.419 107.125 167.613 107.059C167.81 106.993 168.023 106.985 168.251 107.035C168.435 107.075 168.594 107.146 168.728 107.248C168.864 107.352 168.971 107.479 169.048 107.628C169.127 107.778 169.177 107.945 169.196 108.131C169.215 108.319 169.202 108.517 169.157 108.725C169.122 108.888 169.07 109.036 169.002 109.169C168.937 109.303 168.857 109.42 168.762 109.521L168.54 110.542Z" fill="#54545C"/>
<path d="M166.895 114.952C166.959 115.06 167.014 115.171 167.058 115.283C167.102 115.396 167.134 115.509 167.153 115.625C167.174 115.743 167.18 115.862 167.171 115.981C167.164 116.104 167.14 116.23 167.098 116.361C167.034 116.561 166.944 116.726 166.827 116.856C166.713 116.99 166.577 117.087 166.421 117.149C166.267 117.214 166.095 117.246 165.906 117.244C165.717 117.242 165.519 117.208 165.31 117.141L162.966 116.392L163.173 115.744L165.517 116.493C165.796 116.582 166.032 116.587 166.225 116.508C166.421 116.433 166.559 116.266 166.642 116.008C166.703 115.817 166.714 115.624 166.675 115.428C166.635 115.234 166.559 115.043 166.446 114.852L163.735 113.986L163.942 113.338L167.624 114.515L167.5 114.902C167.471 114.994 167.408 115.036 167.311 115.029L166.895 114.952Z" fill="#54545C"/>
<path d="M162.706 123.442C162.851 123.504 162.992 123.539 163.129 123.548C163.268 123.561 163.397 123.546 163.518 123.504C163.64 123.465 163.748 123.4 163.843 123.308C163.94 123.217 164.018 123.101 164.079 122.959C164.207 122.661 164.221 122.387 164.12 122.138C164.021 121.891 163.826 121.681 163.535 121.507L162.706 123.442ZM160.824 123.232C160.764 123.115 160.721 122.988 160.697 122.851C160.675 122.715 160.668 122.576 160.677 122.433C160.684 122.293 160.705 122.153 160.74 122.014C160.773 121.874 160.816 121.74 160.871 121.612C160.976 121.367 161.114 121.159 161.285 120.987C161.457 120.818 161.654 120.692 161.878 120.609C162.104 120.529 162.352 120.497 162.624 120.515C162.896 120.532 163.186 120.606 163.492 120.737C163.74 120.843 163.955 120.979 164.139 121.146C164.321 121.315 164.46 121.503 164.556 121.712C164.654 121.922 164.703 122.149 164.704 122.392C164.708 122.635 164.655 122.885 164.545 123.141C164.454 123.353 164.334 123.533 164.185 123.681C164.037 123.833 163.867 123.945 163.675 124.017C163.485 124.093 163.275 124.126 163.044 124.115C162.816 124.105 162.575 124.047 162.323 123.939C162.224 123.897 162.163 123.858 162.14 123.823C162.116 123.788 162.117 123.742 162.141 123.684L163.155 121.32C162.927 121.231 162.719 121.178 162.53 121.16C162.34 121.145 162.168 121.162 162.014 121.212C161.862 121.263 161.729 121.344 161.615 121.455C161.504 121.567 161.412 121.706 161.34 121.874C161.273 122.03 161.233 122.171 161.22 122.298C161.209 122.428 161.207 122.543 161.214 122.642C161.221 122.742 161.231 122.826 161.243 122.894C161.256 122.966 161.255 123.022 161.238 123.061C161.216 123.113 161.179 123.144 161.127 123.155L160.824 123.232Z" fill="#54545C"/>
<path d="M160.406 129.688C160.58 129.922 160.689 130.151 160.734 130.377C160.78 130.605 160.742 130.83 160.619 131.055C160.58 131.126 160.536 131.19 160.485 131.245C160.433 131.304 160.376 131.349 160.314 131.382L159.893 131.096C159.844 131.052 159.834 131.004 159.863 130.95C159.88 130.919 159.912 130.877 159.958 130.825C160.005 130.772 160.048 130.708 160.09 130.632C160.148 130.526 160.185 130.421 160.2 130.32C160.213 130.221 160.207 130.121 160.181 130.02C160.156 129.923 160.112 129.822 160.05 129.719C159.989 129.62 159.912 129.517 159.819 129.411L157.675 128.243L158.001 127.647L161.394 129.496L161.208 129.835C161.173 129.9 161.136 129.938 161.099 129.949C161.061 129.96 161.009 129.953 160.944 129.929L160.406 129.688Z" fill="#54545C"/>
<path d="M150.523 139.537C150.574 139.579 150.615 139.627 150.646 139.682C150.675 139.738 150.693 139.796 150.7 139.855C150.706 139.915 150.7 139.976 150.683 140.037C150.665 140.098 150.636 140.154 150.593 140.205C150.551 140.255 150.502 140.295 150.445 140.324C150.388 140.353 150.33 140.37 150.269 140.376C150.208 140.381 150.147 140.375 150.085 140.358C150.024 140.34 149.968 140.31 149.917 140.268C149.864 140.225 149.823 140.175 149.794 140.118C149.767 140.063 149.751 140.005 149.745 139.944C149.739 139.884 149.746 139.824 149.765 139.764C149.783 139.703 149.813 139.647 149.855 139.597C149.897 139.546 149.946 139.506 150.003 139.478C150.058 139.447 150.116 139.429 150.176 139.423C150.236 139.42 150.295 139.426 150.354 139.442C150.414 139.461 150.47 139.493 150.523 139.537Z" fill="#54545C"/>
<path d="M143.484 152.945L142.266 151.476L140.535 152.899L140.15 152.436L141.882 151.013L140.384 149.207L140.954 148.738L144.439 152.94L141.844 155.073L141.459 154.61L143.484 152.945Z" fill="#54545C"/>
<path d="M135.554 156.667C135.602 156.954 135.593 157.207 135.529 157.428C135.466 157.651 135.328 157.834 135.115 157.978C135.048 158.023 134.979 158.059 134.908 158.085C134.835 158.113 134.763 158.127 134.693 158.129L134.45 157.682C134.427 157.621 134.44 157.574 134.491 157.54C134.52 157.52 134.568 157.497 134.633 157.472C134.698 157.446 134.767 157.409 134.838 157.361C134.94 157.293 135.02 157.217 135.08 157.134C135.138 157.052 135.178 156.96 135.202 156.859C135.224 156.761 135.231 156.653 135.223 156.532C135.215 156.416 135.193 156.29 135.159 156.154L133.788 154.139L134.353 153.758L136.523 156.947L136.201 157.164C136.14 157.205 136.09 157.222 136.051 157.215C136.012 157.207 135.969 157.178 135.922 157.127L135.554 156.667Z" fill="#54545C"/>
<path d="M129.918 161.037C129.671 161.172 129.425 161.251 129.181 161.277C128.937 161.302 128.704 161.278 128.48 161.203C128.256 161.128 128.049 161.003 127.856 160.827C127.663 160.654 127.494 160.436 127.349 160.171C127.202 159.904 127.108 159.644 127.067 159.389C127.023 159.135 127.03 158.895 127.087 158.667C127.145 158.44 127.25 158.231 127.404 158.041C127.558 157.853 127.759 157.692 128.007 157.558C128.257 157.422 128.504 157.34 128.749 157.311C128.993 157.285 129.226 157.31 129.45 157.385C129.674 157.46 129.882 157.584 130.075 157.756C130.266 157.929 130.435 158.15 130.581 158.416C130.727 158.681 130.821 158.94 130.865 159.194C130.908 159.451 130.9 159.693 130.843 159.92C130.785 160.148 130.68 160.357 130.526 160.547C130.371 160.738 130.168 160.901 129.918 161.037ZM128.262 158.021C127.927 158.203 127.738 158.45 127.695 158.762C127.654 159.076 127.743 159.433 127.963 159.834C128.184 160.236 128.439 160.505 128.727 160.64C129.015 160.775 129.327 160.752 129.662 160.57C129.831 160.478 129.964 160.369 130.059 160.242C130.152 160.116 130.211 159.976 130.236 159.821C130.259 159.667 130.248 159.499 130.202 159.315C130.155 159.136 130.077 158.946 129.967 158.746C129.747 158.345 129.493 158.078 129.205 157.943C128.915 157.811 128.601 157.837 128.262 158.021Z" fill="#54545C"/>
<path d="M123.796 163.354C123.756 163.473 123.708 163.586 123.652 163.692C123.595 163.799 123.53 163.897 123.455 163.987C123.379 164.08 123.293 164.162 123.196 164.233C123.099 164.308 122.987 164.372 122.86 164.426C122.666 164.508 122.482 164.548 122.306 164.546C122.13 164.546 121.967 164.508 121.817 164.431C121.667 164.357 121.53 164.249 121.407 164.105C121.284 163.962 121.18 163.79 121.094 163.59L120.122 161.336L120.75 161.069L121.721 163.323C121.837 163.591 121.988 163.772 122.175 163.866C122.361 163.963 122.579 163.958 122.829 163.852C123.013 163.774 123.167 163.656 123.29 163.499C123.411 163.343 123.507 163.16 123.577 162.951L122.453 160.345L123.081 160.078L124.607 163.617L124.231 163.776C124.143 163.814 124.069 163.795 124.011 163.717L123.796 163.354Z" fill="#54545C"/>
<path d="M114.033 163.396C114.323 163.303 114.573 163.313 114.783 163.425C114.99 163.538 115.143 163.746 115.241 164.05L115.964 166.294L116.407 166.154C116.446 166.141 116.482 166.142 116.516 166.155C116.55 166.171 116.575 166.203 116.591 166.251L116.673 166.508L116.095 166.775L116.311 167.955C116.315 167.994 116.309 168.028 116.292 168.057C116.273 168.09 116.243 168.113 116.202 168.126L115.875 168.229L115.468 166.966L114.403 167.304L114.253 166.837L115.317 166.499L114.608 164.298C114.558 164.144 114.484 164.041 114.385 163.99C114.285 163.939 114.176 163.933 114.058 163.97C113.99 163.992 113.935 164.019 113.892 164.051C113.847 164.086 113.81 164.121 113.781 164.154C113.751 164.187 113.727 164.216 113.708 164.241C113.688 164.268 113.668 164.285 113.649 164.291C113.615 164.302 113.578 164.291 113.538 164.259L113.25 164.011C113.328 163.872 113.436 163.747 113.574 163.637C113.713 163.529 113.866 163.449 114.033 163.396Z" fill="#54545C"/>
<path d="M98.6593 167.051L98.5906 166.454L101.935 166.061L102.592 171.467L99.2475 171.86L99.1751 171.264L101.785 170.957L101.566 169.161L99.453 169.41L99.3833 168.837L101.497 168.588L101.273 166.743L98.6593 167.051Z" fill="#54545C"/>
<path d="M94.926 169.934C94.8445 170.029 94.7576 170.116 94.6655 170.194C94.5734 170.272 94.4759 170.339 94.373 170.394C94.2676 170.452 94.1568 170.497 94.0406 170.527C93.9218 170.56 93.7938 170.578 93.6566 170.581C93.4455 170.586 93.259 170.555 93.0971 170.487C92.9326 170.423 92.7954 170.327 92.6853 170.2C92.5728 170.076 92.4863 169.925 92.4258 169.746C92.3653 169.568 92.3323 169.369 92.3268 169.152L92.2646 166.702L92.9472 166.687L93.0094 169.136C93.0168 169.428 93.0899 169.651 93.2287 169.808C93.365 169.967 93.5691 170.044 93.8412 170.038C94.042 170.033 94.2289 169.981 94.4019 169.881C94.5723 169.781 94.7292 169.647 94.8725 169.479L94.8006 166.645L95.4832 166.63L95.5808 170.478L95.1728 170.487C95.0762 170.489 95.0152 170.443 94.99 170.35L94.926 169.934Z" fill="#54545C"/>
<path d="M85.636 169.344C85.751 169.522 85.8797 169.65 86.0222 169.726C86.1645 169.805 86.327 169.851 86.5097 169.864C86.8673 169.89 87.1515 169.783 87.3623 169.541C87.573 169.3 87.695 168.944 87.7282 168.471C87.7458 168.221 87.7394 168.005 87.7089 167.822C87.6782 167.642 87.6251 167.491 87.5495 167.369C87.4738 167.249 87.3769 167.158 87.2589 167.096C87.1409 167.034 87.0045 166.998 86.8498 166.987C86.6265 166.97 86.4289 167.007 86.2569 167.096C86.0824 167.185 85.9189 167.316 85.7664 167.491L85.636 169.344ZM84.7719 171.951L85.1645 166.369L85.5679 166.398C85.6643 166.405 85.7218 166.456 85.7406 166.552L85.7687 167.022C85.9475 166.837 86.1464 166.692 86.3655 166.586C86.5845 166.48 86.8323 166.437 87.1088 166.457C87.3295 166.473 87.527 166.529 87.7012 166.626C87.8753 166.725 88.02 166.861 88.1353 167.034C88.2505 167.208 88.3338 167.42 88.3851 167.67C88.4363 167.92 88.4508 168.204 88.4284 168.522C88.4085 168.805 88.3519 169.065 88.2588 169.302C88.1654 169.541 88.0414 169.746 87.8867 169.915C87.7321 170.084 87.5484 170.211 87.3359 170.297C87.1206 170.386 86.8836 170.421 86.6248 170.402C86.3889 170.385 86.1901 170.33 86.0283 170.237C85.8639 170.146 85.7207 170.025 85.5987 169.874L85.4492 172L84.7719 171.951Z" fill="#54545C"/>
<path d="M69.5479 166.079C69.6533 165.686 69.8118 165.344 70.0236 165.055C70.2353 164.765 70.4862 164.536 70.7762 164.368C71.0662 164.199 71.3892 164.094 71.7451 164.054C72.0979 164.014 72.4684 164.047 72.8565 164.151L74.8282 164.68L73.4208 169.938L71.4492 169.409C71.061 169.305 70.7243 169.146 70.4389 168.934C70.1505 168.722 69.9231 168.47 69.7568 168.176C69.5898 167.885 69.4869 167.561 69.4481 167.205C69.4092 166.848 69.4424 166.473 69.5479 166.079ZM70.2812 166.276C70.1948 166.599 70.1618 166.899 70.1821 167.178C70.2025 167.456 70.2702 167.705 70.3852 167.924C70.5002 168.144 70.6607 168.331 70.8668 168.486C71.0729 168.641 71.3184 168.757 71.6034 168.833L72.8601 169.17L73.959 165.064L72.7024 164.727C72.4174 164.651 72.1469 164.628 71.8911 164.659C71.6353 164.69 71.4031 164.771 71.1944 164.901C70.9851 165.033 70.8022 165.215 70.6457 165.446C70.4891 165.676 70.3677 165.953 70.2812 166.276Z" fill="#54545C"/>
<path d="M64.0404 163.743C63.9855 163.89 63.9569 164.032 63.9547 164.169C63.9492 164.307 63.9705 164.436 64.0188 164.554C64.0638 164.673 64.1347 164.778 64.2314 164.868C64.3272 164.961 64.4478 165.034 64.5931 165.088C64.8982 165.202 65.1733 165.203 65.4185 165.092C65.6604 164.982 65.8612 164.778 66.021 164.481L64.0404 163.743ZM64.1565 161.861C64.2706 161.795 64.3957 161.747 64.5319 161.717C64.6672 161.689 64.8065 161.676 64.9496 161.678C65.0904 161.679 65.2314 161.694 65.3729 161.722C65.5152 161.748 65.6519 161.786 65.783 161.834C66.0333 161.928 66.249 162.055 66.4301 162.218C66.6079 162.381 66.7442 162.572 66.8389 162.792C66.9304 163.012 66.9743 163.258 66.9706 163.53C66.967 163.801 66.9072 164.093 66.7912 164.403C66.6973 164.655 66.5716 164.876 66.4138 165.065C66.2537 165.254 66.0713 165.401 65.8666 165.506C65.661 165.613 65.4365 165.673 65.1931 165.685C64.9488 165.699 64.6956 165.657 64.4335 165.56C64.2166 165.479 64.0301 165.367 63.874 165.225C63.7147 165.085 63.5939 164.921 63.5118 164.734C63.4264 164.548 63.3833 164.34 63.3823 164.11C63.3804 163.882 63.4272 163.64 63.5229 163.384C63.5601 163.284 63.5956 163.222 63.6294 163.196C63.6633 163.171 63.71 163.17 63.7696 163.192L66.1899 164.094C66.2677 163.864 66.3107 163.654 66.3187 163.465C66.3244 163.275 66.2984 163.105 66.2408 162.954C66.1824 162.805 66.0946 162.676 65.9776 162.568C65.8598 162.462 65.715 162.377 65.5434 162.313C65.3837 162.253 65.2401 162.22 65.1124 162.213C64.9814 162.207 64.8663 162.21 64.7669 162.222C64.6676 162.233 64.5838 162.247 64.5157 162.262C64.4444 162.279 64.3884 162.279 64.3479 162.264C64.2955 162.245 64.2625 162.21 64.2489 162.159L64.1565 161.861Z" fill="#54545C"/>
<path d="M55.9583 161.766L59.0599 158.993L59.6091 159.259L59.3428 163.407L58.8451 163.166C58.7947 163.141 58.7596 163.109 58.7398 163.068C58.7199 163.028 58.7126 162.988 58.7178 162.948L58.9194 160.293C58.933 160.195 58.9489 160.102 58.967 160.012C58.9852 159.922 59.0046 159.833 59.025 159.744C58.9679 159.815 58.9097 159.886 58.8503 159.955C58.791 160.025 58.7259 160.095 58.6551 160.165L56.6789 161.959C56.6474 161.989 56.6101 162.007 56.567 162.015C56.5228 162.024 56.4789 162.018 56.4354 161.997L55.9583 161.766Z" fill="#54545C"/>
<path d="M45.7809 154.044C46.0821 154.092 46.3485 154.076 46.5802 153.995C46.81 153.914 46.9963 153.778 47.1394 153.588C47.2383 153.456 47.3013 153.321 47.3285 153.183C47.3542 153.047 47.3531 152.915 47.3254 152.787C47.2977 152.659 47.2466 152.539 47.1721 152.426C47.0961 152.316 47.0052 152.221 46.8992 152.142C46.6711 151.972 46.4351 151.861 46.1914 151.808C45.9457 151.755 45.7021 151.747 45.4606 151.785L45.7809 154.044ZM44.5687 149.791L45.0974 150.186C45.1564 150.23 45.199 150.273 45.225 150.314C45.251 150.356 45.2687 150.415 45.278 150.491L45.3878 151.266C45.7178 151.224 46.0492 151.242 46.3819 151.32C46.7111 151.398 47.0255 151.549 47.3249 151.772C47.4879 151.894 47.6273 152.04 47.7431 152.212C47.8568 152.382 47.937 152.566 47.9837 152.762C48.0288 152.96 48.0328 153.162 47.9956 153.368C47.9584 153.574 47.869 153.772 47.7275 153.96C47.621 154.102 47.4971 154.218 47.3559 154.309C47.2112 154.4 47.0557 154.467 46.8895 154.511C46.7232 154.554 46.5501 154.575 46.3701 154.574C46.1901 154.572 46.0079 154.55 45.8238 154.508C45.8294 154.758 45.8069 154.979 45.7564 155.169C45.7044 155.361 45.6191 155.536 45.5004 155.694C45.3893 155.842 45.2586 155.961 45.1083 156.051C44.9559 156.14 44.793 156.193 44.6196 156.213C44.4447 156.234 44.2644 156.218 44.0786 156.165C43.8894 156.112 43.7041 156.018 43.5228 155.883C43.3618 155.763 43.2349 155.627 43.142 155.475C43.0477 155.326 42.9846 155.173 42.9527 155.016C42.9209 154.86 42.9201 154.704 42.9503 154.55C42.9769 154.396 43.0318 154.255 43.115 154.127L43.5044 154.313C43.5838 154.347 43.6101 154.416 43.5833 154.519C43.558 154.583 43.5404 154.655 43.5304 154.736C43.5183 154.815 43.5203 154.898 43.5362 154.982C43.5501 155.065 43.5813 155.149 43.6298 155.232C43.6762 155.314 43.7463 155.39 43.84 155.46C43.9419 155.536 44.0467 155.589 44.1546 155.619C44.2604 155.647 44.365 155.654 44.4682 155.64C44.5678 155.625 44.6626 155.59 44.7525 155.534C44.8409 155.48 44.9193 155.407 44.9878 155.316C45.041 155.245 45.0839 155.171 45.1163 155.094C45.1487 155.017 45.1726 154.932 45.1882 154.84C45.2018 154.745 45.2069 154.643 45.2036 154.533C45.2004 154.423 45.1889 154.301 45.1693 154.166L44.8667 151.953C44.6858 152.033 44.5164 152.13 44.3584 152.243C44.199 152.358 44.0566 152.484 43.9312 152.621C43.8983 152.657 43.8632 152.678 43.8261 152.685C43.789 152.692 43.7521 152.682 43.7154 152.654L43.3823 152.406C43.5594 152.174 43.768 151.973 44.0082 151.801C44.2469 151.631 44.5072 151.499 44.7893 151.402L44.5687 149.791Z" fill="#54545C"/>
<path d="M36.1547 142.544C36.0023 142.377 35.8379 142.254 35.6616 142.173C35.4854 142.093 35.3053 142.054 35.1216 142.056C34.9362 142.056 34.7516 142.096 34.5678 142.177C34.3822 142.256 34.2049 142.372 34.0357 142.525L31.5795 144.748L31.0837 144.205L33.5399 141.982C33.773 141.771 34.0234 141.613 34.2912 141.507C34.5573 141.4 34.827 141.35 35.1004 141.356C35.3702 141.361 35.6372 141.426 35.9014 141.55C36.1657 141.674 36.4108 141.86 36.6369 142.108C36.863 142.355 37.0254 142.616 37.1242 142.89C37.223 143.164 37.2634 143.435 37.2454 143.705C37.2255 143.977 37.1502 144.24 37.0194 144.496C36.8869 144.749 36.7041 144.982 36.471 145.193L34.0148 147.416L33.519 146.873L35.9724 144.652C36.1416 144.499 36.2753 144.335 36.3734 144.16C36.4699 143.984 36.5278 143.805 36.5471 143.623C36.5647 143.439 36.5427 143.255 36.4811 143.071C36.4159 142.887 36.3071 142.711 36.1547 142.544Z" fill="#54545C"/>
<path d="M30.2602 134.302L30.6998 134.886C30.7334 134.931 30.7489 134.974 30.7464 135.017C30.7403 135.06 30.7291 135.1 30.7128 135.137L29.7549 137.675C29.816 137.655 29.8714 137.642 29.9213 137.636L32.4895 137.499C32.5333 137.498 32.5765 137.501 32.6192 137.507C32.6584 137.513 32.6933 137.536 32.7238 137.576L33.1359 138.124L29.7611 138.297L28.7171 141.321L28.2752 140.734C28.2432 140.691 28.2266 140.654 28.2256 140.623C28.2246 140.592 28.2312 140.559 28.2454 140.523L29.1408 138.08C29.0874 138.098 29.0246 138.111 28.9523 138.121L26.5451 138.237C26.5044 138.242 26.4675 138.24 26.4344 138.23C26.3993 138.221 26.3703 138.201 26.3474 138.171L25.9238 137.608L29.1109 137.49L30.2602 134.302Z" fill="#54545C"/>
<path d="M28.5231 131.426C28.6163 131.408 28.6999 131.418 28.774 131.456C28.8467 131.492 28.9023 131.542 28.9407 131.605L29.0899 131.848L23.0208 132.851C22.9354 132.868 22.8583 132.861 22.7896 132.831C22.7196 132.8 22.6633 132.749 22.6209 132.68L22.4697 132.433L28.5231 131.426Z" fill="#54545C"/>
<path d="M24.0723 124.786C23.9731 124.583 23.8503 124.418 23.7037 124.292C23.5571 124.165 23.3953 124.077 23.2184 124.028C23.0403 123.975 22.8516 123.962 22.6522 123.988C22.4518 124.012 22.2486 124.073 22.0428 124.172L19.0554 125.614L18.7328 124.955L21.7203 123.513C22.0038 123.376 22.2891 123.294 22.576 123.269C22.8618 123.24 23.1352 123.268 23.396 123.35C23.6534 123.432 23.8914 123.569 24.1101 123.762C24.3289 123.955 24.5117 124.202 24.6588 124.503C24.8059 124.803 24.8882 125.099 24.9057 125.389C24.9231 125.679 24.8851 125.951 24.7915 126.205C24.6956 126.46 24.5487 126.691 24.3509 126.899C24.152 127.105 23.9107 127.276 23.6272 127.413L20.6397 128.855L20.3172 128.196L23.3012 126.755C23.507 126.656 23.6817 126.536 23.8254 126.396C23.9679 126.254 24.0741 126.099 24.1441 125.93C24.213 125.759 24.2439 125.576 24.2368 125.382C24.2263 125.187 24.1715 124.989 24.0723 124.786Z" fill="#54545C"/>
<path d="M21.6533 117.651L21.9128 118.342L16.7925 120.238L16.533 119.547L21.6533 117.651Z" fill="#54545C"/>
<path d="M14.955 102.234C15.3587 102.167 15.7369 102.17 16.0896 102.243C16.4423 102.315 16.7563 102.448 17.0316 102.641C17.3069 102.834 17.5375 103.083 17.7237 103.389C17.9068 103.693 18.032 104.042 18.0992 104.436L18.4406 106.441L13.0505 107.336L12.7092 105.331C12.642 104.937 12.6459 104.566 12.721 104.22C12.7932 103.871 12.9286 103.561 13.1273 103.289C13.3234 103.018 13.5762 102.791 13.8855 102.609C14.1948 102.426 14.5513 102.301 14.955 102.234ZM15.082 102.98C14.751 103.035 14.4627 103.129 14.2173 103.262C13.9718 103.396 13.7728 103.56 13.6203 103.755C13.4679 103.949 13.364 104.172 13.3087 104.423C13.2534 104.673 13.2504 104.944 13.2997 105.233L13.5173 106.511L17.7263 105.812L17.5087 104.534C17.4594 104.245 17.3671 103.99 17.2318 103.771C17.0965 103.552 16.9258 103.375 16.7197 103.24C16.5111 103.105 16.2687 103.014 15.9926 102.968C15.7165 102.921 15.413 102.925 15.082 102.98Z" fill="#54545C"/>
<path d="M14.7857 96.2804C14.6285 96.2914 14.4868 96.3242 14.3608 96.3787C14.232 96.4308 14.1239 96.5031 14.0363 96.5956C13.946 96.6857 13.88 96.7931 13.8381 96.9179C13.7938 97.0429 13.7772 97.1825 13.7885 97.3366C13.8122 97.66 13.9261 97.9098 14.1302 98.086C14.3316 98.2599 14.6014 98.3578 14.9396 98.38L14.7857 96.2804ZM16.553 95.6086C16.6605 95.6849 16.7566 95.7785 16.8412 95.8894C16.9233 96.0005 16.9934 96.1213 17.0514 96.2519C17.1092 96.3799 17.1547 96.5138 17.1879 96.6537C17.2236 96.7934 17.2466 96.9328 17.2568 97.0717C17.2762 97.337 17.2498 97.5852 17.1775 97.8162C17.1024 98.0449 16.9847 98.2474 16.8243 98.4237C16.6611 98.5976 16.4547 98.7389 16.2052 98.8478C15.9557 98.9566 15.6648 99.0226 15.3325 99.0458C15.0637 99.0646 14.8096 99.0417 14.5703 98.9771C14.3308 98.91 14.1205 98.8053 13.9393 98.6631C13.7555 98.521 13.6072 98.3421 13.4946 98.1265C13.3794 97.9111 13.3116 97.6644 13.2912 97.3865C13.2744 97.1566 13.2981 96.9417 13.3625 96.7416C13.4241 96.5392 13.5234 96.3622 13.6601 96.2104C13.7941 96.0563 13.966 95.9313 14.1757 95.8354C14.3828 95.7397 14.6233 95.6823 14.8973 95.6632C15.0038 95.6558 15.0757 95.6622 15.1128 95.6824C15.15 95.7027 15.1709 95.7444 15.1755 95.8076L15.3636 98.3732C15.6065 98.3487 15.8159 98.301 15.9917 98.2304C16.1674 98.1572 16.3122 98.0633 16.4262 97.9486C16.5376 97.8342 16.6184 97.7016 16.6685 97.5508C16.7161 97.4002 16.7333 97.234 16.7199 97.0521C16.7075 96.8828 16.6779 96.7388 16.6309 96.6202C16.5813 96.4992 16.5304 96.3961 16.4782 96.3109C16.4261 96.2257 16.3789 96.1553 16.3366 96.0999C16.2915 96.0421 16.2675 95.9917 16.2643 95.9487C16.2602 95.8931 16.2786 95.8487 16.3195 95.8154L16.553 95.6086Z" fill="#54545C"/>
<path d="M13.8317 88.8988C13.8869 88.9306 13.9138 88.9781 13.9124 89.0415C13.9116 89.0794 13.8966 89.1221 13.8676 89.1695C13.8385 89.2169 13.8067 89.2757 13.772 89.3457C13.7349 89.4132 13.7013 89.4947 13.6712 89.5902C13.6385 89.6857 13.6207 89.7992 13.6177 89.9309C13.6152 90.0448 13.6281 90.1478 13.6566 90.2397C13.6825 90.3316 13.7202 90.411 13.7695 90.4782C13.819 90.5427 13.8776 90.5936 13.9454 90.6308C14.0108 90.6654 14.0829 90.6837 14.1617 90.6856C14.2609 90.6881 14.3441 90.6624 14.4115 90.6083C14.4789 90.5517 14.5378 90.4772 14.5882 90.3848C14.6386 90.2923 14.6842 90.187 14.725 90.069C14.7633 89.9509 14.8054 89.8303 14.8514 89.7073C14.8949 89.5817 14.9434 89.4601 14.997 89.3424C15.0505 89.2246 15.1164 89.1199 15.1948 89.0281C15.2732 88.9364 15.3689 88.864 15.482 88.8111C15.5927 88.7557 15.7255 88.7299 15.8806 88.7338C16.0586 88.7382 16.2231 88.7741 16.3742 88.8412C16.5228 88.9083 16.6516 89.0053 16.7607 89.1321C16.8673 89.259 16.9503 89.4131 17.0098 89.5945C17.0694 89.7758 17.0965 89.9843 17.0912 90.2197C17.0852 90.4881 17.0365 90.7301 16.9452 90.9457C16.8513 91.1612 16.734 91.3432 16.5933 91.4917L16.3376 91.3257C16.305 91.3046 16.2801 91.2799 16.2629 91.2516C16.2458 91.2233 16.2377 91.1876 16.2386 91.1445C16.2397 91.099 16.2585 91.0513 16.2953 91.0016C16.332 90.9518 16.3728 90.892 16.4176 90.8222C16.4624 90.7499 16.5038 90.6623 16.5418 90.5593C16.5797 90.4564 16.6004 90.3277 16.6038 90.1733C16.6068 90.0416 16.5928 89.926 16.562 89.8264C16.5286 89.7267 16.4834 89.6433 16.4264 89.576C16.3694 89.5087 16.3031 89.4588 16.2276 89.4265C16.152 89.3917 16.071 89.3732 15.9846 89.371C15.8778 89.3683 15.7894 89.3953 15.7195 89.4518C15.6471 89.5057 15.5856 89.5789 15.5352 89.6713C15.4823 89.7637 15.4367 89.8703 15.3983 89.9909C15.3575 90.109 15.3154 90.2308 15.2718 90.3564C15.2284 90.4794 15.1799 90.6011 15.1263 90.7213C15.0702 90.839 15.0017 90.9437 14.9208 91.0354C14.8399 91.1271 14.7416 91.2006 14.6259 91.256C14.5077 91.3087 14.366 91.333 14.2007 91.3289C14.0532 91.3251 13.9128 91.2912 13.7794 91.2271C13.6435 91.1628 13.526 91.0712 13.4269 90.9522C13.3253 90.8331 13.2459 90.6879 13.1887 90.5167C13.1315 90.3456 13.1053 90.1511 13.1102 89.9333C13.1159 89.6801 13.1616 89.4545 13.2475 89.2565C13.3308 89.0559 13.4441 88.884 13.5872 88.7406L13.8317 88.8988Z" fill="#54545C"/>
<path d="M13.7336 82.2271L17.5707 82.6896L17.4911 83.3611L13.6539 82.8986L13.7336 82.2271ZM12.546 81.9386C12.6117 81.9465 12.6719 81.9678 12.7267 82.0025C12.7793 82.0343 12.8256 82.0756 12.8657 82.1264C12.9036 82.1743 12.9315 82.23 12.9496 82.2934C12.968 82.3542 12.9733 82.4174 12.9656 82.4828C12.9578 82.5481 12.9379 82.6082 12.9058 82.663C12.874 82.7153 12.8341 82.7602 12.7861 82.7978C12.7355 82.8351 12.681 82.8629 12.6225 82.8814C12.5614 82.8995 12.498 82.9047 12.4324 82.8968C12.3667 82.8888 12.3063 82.8688 12.2513 82.8366C12.1936 82.8042 12.1459 82.764 12.108 82.7161C12.0676 82.6679 12.0381 82.6146 12.0194 82.5562C12.001 82.4953 11.9957 82.4322 12.0034 82.3668C12.0112 82.3014 12.0311 82.2413 12.0632 82.1865C12.0957 82.1292 12.1371 82.0819 12.1877 82.0447C12.2359 82.0046 12.2919 81.9756 12.3555 81.9577C12.4168 81.9371 12.4804 81.9307 12.546 81.9386Z" fill="#54545C"/>
<path d="M16.8373 75.71C16.8663 75.5763 16.8731 75.4547 16.8579 75.3451C16.8426 75.2356 16.809 75.1388 16.7569 75.0549C16.7048 74.971 16.6366 74.9017 16.5521 74.847C16.4652 74.7917 16.3658 74.7519 16.254 74.7275C16.0228 74.6771 15.8236 74.7075 15.6563 74.8188C15.4896 74.9276 15.3774 75.1143 15.32 75.3791C15.262 75.6464 15.286 75.8654 15.3921 76.0363C15.4987 76.2047 15.6676 76.3141 15.8987 76.3645C16.0106 76.3889 16.1175 76.394 16.2194 76.38C16.3195 76.3629 16.4105 76.327 16.4927 76.2724C16.5748 76.2177 16.6455 76.1437 16.7048 76.0504C16.7641 75.9571 16.8083 75.8436 16.8373 75.71ZM19.1462 74.9655C19.0543 74.9455 18.9741 74.9552 18.9056 74.9947C18.8372 75.0342 18.7772 75.095 18.7255 75.177C18.6744 75.2566 18.63 75.3532 18.5924 75.4668C18.5522 75.5798 18.5142 75.7011 18.4783 75.8307C18.4429 75.9577 18.407 76.0872 18.3705 76.2192C18.334 76.3512 18.2937 76.4772 18.2494 76.5971C18.284 76.7498 18.3413 76.8815 18.4214 76.9923C18.4995 77.1 18.6044 77.1683 18.7362 77.197C18.8207 77.2154 18.9035 77.2114 18.9847 77.1851C19.0689 77.1568 19.1468 77.1038 19.2183 77.0261C19.2924 76.949 19.3588 76.8468 19.4176 76.7197C19.4794 76.5906 19.5302 76.4345 19.57 76.2514C19.6086 76.0732 19.6271 75.9101 19.6254 75.762C19.6237 75.6139 19.6035 75.4851 19.5648 75.3756C19.5266 75.2636 19.4722 75.1727 19.4015 75.1028C19.3307 75.033 19.2456 74.9872 19.1462 74.9655ZM15.4597 73.458L15.7057 73.5117C15.7877 73.5296 15.8286 73.5929 15.8285 73.7017L15.7917 74.1408C15.974 74.0924 16.1646 74.0899 16.3634 74.1333C16.5473 74.1734 16.7073 74.2458 16.8433 74.3506C16.9774 74.4525 17.0845 74.5769 17.1645 74.7239C17.2445 74.8709 17.2943 75.0373 17.3139 75.223C17.3334 75.4087 17.3212 75.603 17.2772 75.8059C17.239 75.9816 17.1819 76.1428 17.1059 76.2895C17.1384 76.3795 17.1787 76.4518 17.2267 76.5063C17.2722 76.5603 17.3236 76.5935 17.3808 76.606C17.4702 76.6255 17.5464 76.6045 17.6092 76.5431C17.67 76.4786 17.7233 76.3891 17.7689 76.2747C17.8146 76.1602 17.8563 76.0281 17.894 75.8782C17.9323 75.7258 17.9748 75.5718 18.0216 75.4162C18.0664 75.2575 18.1189 75.1057 18.179 74.9607C18.2396 74.8132 18.3139 74.6869 18.4018 74.5816C18.4897 74.4764 18.5961 74.3998 18.7211 74.3519C18.8465 74.3015 18.9963 74.2953 19.1702 74.3332C19.3318 74.3684 19.4795 74.4434 19.6134 74.5581C19.7478 74.6704 19.857 74.8147 19.9411 74.9911C20.0276 75.1681 20.0818 75.3743 20.1036 75.6097C20.1284 75.8432 20.111 76.0973 20.0514 76.3719C19.9918 76.6466 19.9123 76.8807 19.8131 77.0742C19.7138 77.2676 19.6035 77.4224 19.482 77.5384C19.3605 77.6545 19.2313 77.7339 19.0945 77.7766C18.9607 77.8174 18.828 77.8235 18.6962 77.7947C18.5098 77.7541 18.3646 77.6615 18.2607 77.517C18.1567 77.3726 18.0882 77.1905 18.0551 76.9707C17.9813 77.0713 17.8961 77.146 17.7996 77.1949C17.7011 77.2408 17.581 77.2483 17.4394 77.2174C17.3847 77.2055 17.3309 77.1834 17.2781 77.1512C17.2227 77.1184 17.1707 77.0759 17.1222 77.0239C17.0717 76.9688 17.0267 76.9059 16.9874 76.8351C16.9481 76.7643 16.9172 76.685 16.8946 76.5972C16.75 76.76 16.5806 76.8747 16.3866 76.9412C16.19 77.0072 15.9775 77.0153 15.7488 76.9654C15.5649 76.9253 15.4059 76.8544 15.2718 76.7526C15.1358 76.6478 15.0293 76.5209 14.9523 76.3719C14.8728 76.2224 14.8233 76.0548 14.8037 75.8691C14.7847 75.6809 14.7977 75.4829 14.8428 75.2751C14.8782 75.1117 14.9299 74.9636 14.9978 74.8307C15.0632 74.6972 15.1433 74.5799 15.2382 74.4788L15.4597 73.458Z" fill="#54545C"/>
<path d="M17.1051 69.0479C17.0409 68.9396 16.9867 68.8293 16.9426 68.7168C16.8984 68.6043 16.8667 68.4905 16.8474 68.3753C16.8265 68.257 16.8204 68.1381 16.8293 68.0186C16.8364 67.8959 16.8608 67.7695 16.9025 67.6392C16.9664 67.439 17.0566 67.2738 17.173 67.1435C17.2878 67.0101 17.4232 66.9124 17.5791 66.8506C17.7334 66.7856 17.905 66.7541 18.094 66.756C18.283 66.758 18.4817 66.7922 18.6901 66.8588L21.0342 67.6082L20.8272 68.2559L18.4831 67.5065C18.2044 67.4174 17.9684 67.4124 17.7749 67.4914C17.5797 67.5673 17.4409 67.7342 17.3584 67.9923C17.2975 68.1829 17.2865 68.3761 17.3253 68.5719C17.365 68.7654 17.4412 68.9572 17.554 69.1475L20.2651 70.0142L20.0581 70.6619L16.3766 69.4849L16.5003 69.0978C16.5296 69.0061 16.5926 68.9638 16.6892 68.9707L17.1051 69.0479Z" fill="#54545C"/>
<path d="M21.294 60.5585C21.1491 60.4965 21.0079 60.4609 20.8707 60.4518C20.7321 60.4394 20.6026 60.4542 20.4822 60.4963C20.3604 60.5351 20.2522 60.6004 20.1575 60.6921C20.0605 60.7828 19.9815 60.8992 19.9207 61.0412C19.7929 61.3391 19.7793 61.6129 19.8799 61.8624C19.9791 62.1087 20.174 62.3188 20.4647 62.4927L21.294 60.5585ZM23.1758 60.7683C23.2364 60.8852 23.2788 61.0121 23.3031 61.1492C23.325 61.2852 23.3317 61.4245 23.3232 61.5668C23.3158 61.7069 23.2946 61.8466 23.2598 61.9859C23.2273 62.1263 23.1836 62.2604 23.1287 62.3885C23.0239 62.6328 22.8862 62.8411 22.7155 63.0133C22.5435 63.1821 22.3456 63.3081 22.1217 63.3914C21.8965 63.4714 21.6478 63.5027 21.3757 63.4855C21.1036 63.4683 20.8143 63.3942 20.508 63.2631C20.2601 63.1571 20.0446 63.0209 19.8614 62.8544C19.6792 62.6856 19.5401 62.4966 19.4443 62.2876C19.3462 62.0777 19.2966 61.8512 19.2956 61.6084C19.2922 61.3646 19.3454 61.1146 19.4552 60.8586C19.546 60.6468 19.666 60.4668 19.8154 60.3186C19.9634 60.167 20.1331 60.0551 20.3246 59.9827C20.5148 59.9071 20.7253 59.8745 20.956 59.885C21.1843 59.8946 21.4248 59.9534 21.6774 60.0614C21.7756 60.1034 21.8366 60.1419 21.8603 60.1768C21.8841 60.2118 21.8835 60.2583 21.8585 60.3165L20.8451 62.6802C21.0726 62.7692 21.2808 62.8225 21.4698 62.8399C21.6598 62.8551 21.8319 62.8378 21.986 62.788C22.1379 62.7373 22.2708 62.6564 22.3848 62.5454C22.4965 62.4334 22.5882 62.2936 22.6601 62.126C22.7269 61.9701 22.7668 61.8288 22.7796 61.702C22.7911 61.572 22.7932 61.4572 22.7861 61.3577C22.7789 61.2583 22.7693 61.1743 22.7571 61.1057C22.7437 61.0339 22.7454 60.9782 22.7624 60.9386C22.7844 60.8874 22.8212 60.8563 22.8729 60.8454L23.1758 60.7683Z" fill="#54545C"/>
<path d="M23.5938 54.3117C23.4199 54.0785 23.3108 53.8489 23.2664 53.6228C23.2198 53.3954 23.2579 53.1696 23.3807 52.9451C23.4196 52.874 23.4645 52.8105 23.5154 52.7546C23.5675 52.6964 23.6243 52.651 23.6857 52.6181L24.1075 52.9042C24.156 52.9479 24.1657 52.9964 24.1365 53.0498C24.1195 53.0809 24.0879 53.1228 24.0416 53.1755C23.9954 53.2282 23.9516 53.2923 23.9103 53.3678C23.8519 53.4745 23.8153 53.5786 23.8003 53.68C23.7866 53.7793 23.7928 53.8793 23.8188 53.98C23.8438 54.0773 23.8875 54.1775 23.9499 54.2808C24.0113 54.3805 24.0884 54.4832 24.1815 54.5886L26.3251 55.7567L25.9987 56.3533L22.6056 54.5045L22.7917 54.1645C22.8269 54.1001 22.8635 54.0624 22.9015 54.0513C22.9394 54.0402 22.9909 54.0467 23.0561 54.0707L23.5938 54.3117Z" fill="#54545C"/>
<path d="M33.4768 44.4636C33.4258 44.4216 33.385 44.3732 33.3544 44.3185C33.3254 44.2619 33.3072 44.2042 33.2997 44.1455C33.2938 44.0849 33.2996 44.0241 33.3172 43.963C33.3348 43.902 33.3646 43.8461 33.4066 43.7954C33.4486 43.7446 33.4981 43.7049 33.5549 43.6762C33.6117 43.6474 33.6705 43.6302 33.7314 43.6245C33.7922 43.6187 33.8533 43.6247 33.9146 43.6423C33.9759 43.6599 34.0321 43.6897 34.0831 43.7317C34.1361 43.7753 34.1771 43.8255 34.2061 43.8821C34.2331 43.9372 34.2495 43.995 34.2554 44.0556C34.2613 44.1163 34.2545 44.1763 34.2349 44.2357C34.2174 44.2967 34.1876 44.3526 34.1455 44.4034C34.1035 44.4541 34.054 44.4938 33.9972 44.5226C33.9424 44.5529 33.8845 44.571 33.8237 44.5767C33.7644 44.5805 33.7052 44.5743 33.6458 44.5583C33.5861 44.5388 33.5298 44.5072 33.4768 44.4636Z" fill="#54545C"/>
<path d="M44.8232 50.5482L46.3761 49.0015L46.8518 49.4753L45.2988 51.022L44.8232 50.5482Z" fill="#54545C"/>
<path d="M50.3887 45.0061L52.1245 43.6659L52.5369 44.1951L50.8012 45.5353L50.3887 45.0061Z" fill="#54545C"/>
<path d="M56.6126 40.2037L58.5042 39.0918L58.8471 39.6681L56.9555 40.78L56.6126 40.2037Z" fill="#54545C"/>
<path d="M63.3928 36.2201L65.4101 35.3538L65.6779 35.9681L63.6607 36.8345L63.3928 36.2201Z" fill="#54545C"/>
<path d="M70.6248 33.1156L72.7358 32.5083L72.9244 33.1511L70.8134 33.7584L70.6248 33.1156Z" fill="#54545C"/>
<path d="M78.1935 30.9401L80.3649 30.6015L80.4712 31.2626L78.2999 31.6012L78.1935 30.9401Z" fill="#54545C"/>
<path d="M85.9799 29.7278L88.1773 29.6631L88.1997 30.332L86.0023 30.3967L85.9799 29.7278Z" fill="#54545C"/>
<path d="M93.8612 29.4975L96.05 29.7076L95.988 30.3739L93.7992 30.1638L93.8612 29.4975Z" fill="#54545C"/>
<path d="M101.713 30.2527L103.859 30.7342L103.714 31.3873L101.568 30.9058L101.713 30.2527Z" fill="#54545C"/>
<path d="M109.412 31.9815L111.481 32.7267L111.254 33.3563L109.185 32.6112L109.412 31.9815Z" fill="#54545C"/>
<path d="M116.835 34.6571L118.795 35.6542L118.491 36.2503L116.531 35.2533L116.835 34.6571Z" fill="#54545C"/>
<path d="M123.867 38.2367L125.687 39.4699L125.31 40.0232L123.49 38.79L123.867 38.2367Z" fill="#54545C"/>
<path d="M130.397 42.6638L132.048 44.1137L131.604 44.6154L129.953 43.1654L130.397 42.6638Z" fill="#54545C"/>
<path d="M136.321 47.869L137.777 49.5129L137.273 49.9549L135.817 48.3111L136.321 47.869Z" fill="#54545C"/>
<path d="M141.546 53.7701L142.784 55.5821L142.229 55.9575L140.99 54.1456L141.546 53.7701Z" fill="#54545C"/>
<path d="M145.99 60.2741L146.991 62.2257L146.392 62.5286L145.391 60.5771L145.99 60.2741Z" fill="#54545C"/>
<path d="M149.582 67.2784L150.331 69.3389L149.698 69.5645L148.95 67.504L149.582 67.2784Z" fill="#54545C"/>
<path d="M152.267 74.6729L152.75 76.81L152.095 76.9548L151.611 74.8178L152.267 74.6729Z" fill="#54545C"/>
<path d="M154.002 82.3402L154.213 84.5201L153.544 84.5819L153.333 82.4019L154.002 82.3402Z" fill="#54545C"/>
<path d="M154.758 90.1605L154.693 92.349L154.022 92.3267L154.087 90.1382L154.758 90.1605Z" fill="#54545C"/>
<path d="M154.525 98.0097L154.185 100.172L153.521 100.066L153.861 97.9037L154.525 98.0097Z" fill="#54545C"/>
<path d="M153.306 105.764L152.697 107.867L152.051 107.679L152.661 105.577L153.306 105.764Z" fill="#54545C"/>
<path d="M151.12 113.303L150.251 115.312L149.634 115.045L150.504 113.036L151.12 113.303Z" fill="#54545C"/>
<path d="M148.002 120.505L146.886 122.389L146.307 122.047L147.424 120.163L148.002 120.505Z" fill="#54545C"/>
<path d="M144.001 127.256L142.656 128.985L142.124 128.574L143.47 126.845L144.001 127.256Z" fill="#54545C"/>
<path d="M139.178 133.453L137.626 135L137.15 134.526L138.703 132.98L139.178 133.453Z" fill="#54545C"/>
<path d="M133.612 138.996L131.876 140.336L131.463 139.807L133.2 138.467L133.612 138.996Z" fill="#54545C"/>
<path d="M127.389 143.798L125.497 144.91L125.155 144.334L127.046 143.222L127.389 143.798Z" fill="#54545C"/>
<path d="M120.608 147.782L118.591 148.649L118.323 148.034L120.34 147.168L120.608 147.782Z" fill="#54545C"/>
<path d="M113.376 150.887L111.265 151.494L111.076 150.851L113.187 150.244L113.376 150.887Z" fill="#54545C"/>
<path d="M105.807 153.062L103.636 153.401L103.529 152.74L105.701 152.401L105.807 153.062Z" fill="#54545C"/>
<path d="M98.0207 154.274L95.8233 154.339L95.8009 153.67L97.9983 153.605L98.0207 154.274Z" fill="#54545C"/>
<path d="M90.1401 154.504L87.9513 154.294L88.0133 153.628L90.2021 153.838L90.1401 154.504Z" fill="#54545C"/>
<path d="M82.2888 153.748L80.1431 153.267L80.2886 152.614L82.4342 153.095L82.2888 153.748Z" fill="#54545C"/>
<path d="M74.5901 152.019L72.5213 151.274L72.7478 150.645L74.8167 151.39L74.5901 152.019Z" fill="#54545C"/>
<path d="M67.1664 149.344L65.207 148.347L65.5112 147.75L67.4706 148.748L67.1664 149.344Z" fill="#54545C"/>
<path d="M60.134 145.765L58.3147 144.531L58.6917 143.978L60.5109 145.211L60.134 145.765Z" fill="#54545C"/>
<path d="M53.6051 141.337L51.9546 139.887L52.3985 139.385L54.049 140.835L53.6051 141.337Z" fill="#54545C"/>
<path d="M47.6811 136.132L46.2253 134.488L46.729 134.046L48.1847 135.69L47.6811 136.132Z" fill="#54545C"/>
<path d="M42.456 130.231L41.2179 128.419L41.7734 128.043L43.0115 129.855L42.456 130.231Z" fill="#54545C"/>
<path d="M38.0124 123.727L37.0113 121.775L37.6099 121.472L38.611 123.424L38.0124 123.727Z" fill="#54545C"/>
<path d="M34.4197 116.723L33.6715 114.662L34.3037 114.436L35.0519 116.497L34.4197 116.723Z" fill="#54545C"/>
<path d="M31.7344 109.329L31.251 107.192L31.9068 107.047L32.3902 109.184L31.7344 109.329Z" fill="#54545C"/>
<path d="M30.0004 101.661L29.7895 99.4807L30.4585 99.419L30.6694 101.599L30.0004 101.661Z" fill="#54545C"/>
<path d="M29.2437 93.8409L29.3086 91.6524L29.9803 91.6747L29.9154 93.8632L29.2437 93.8409Z" fill="#54545C"/>
<path d="M29.4756 85.9921L29.8155 83.8295L30.4793 83.9354L30.1393 86.098L29.4756 85.9921Z" fill="#54545C"/>
<path d="M30.6944 78.2377L31.3041 76.1352L31.9495 76.3231L31.3398 78.4255L30.6944 78.2377Z" fill="#54545C"/>
<path d="M32.8805 70.6997L33.7504 68.6905L34.3673 68.9573L33.4974 70.9665L32.8805 70.6997Z" fill="#54545C"/>
<path d="M35.9988 63.4976L37.1152 61.6136L37.6938 61.9551L36.5775 63.8391L35.9988 63.4976Z" fill="#54545C"/>
<path d="M40.0005 56.7451L41.3458 55.0161L41.8771 55.4269L40.5318 57.156L40.0005 56.7451Z" fill="#54545C"/>
<path d="M116.904 123.693L77.5658 82.8476L70.8683 89.8018L84.9561 104.43L80.6451 108.906L62.1693 89.7219L73.1778 78.2915L60.2447 64.8627L64.6327 60.3065L121.292 119.137L116.904 123.693ZM112.747 101.152L108.359 96.5961L115.056 89.6419L100.968 75.0142L105.279 70.538L123.755 89.7219L112.747 101.152Z" fill="url(#paint0_linear_758_3638)"/>
</g>
<defs>
<linearGradient id="paint0_linear_758_3638" x1="12" y1="92" x2="172" y2="92" gradientUnits="userSpaceOnUse">
<stop stop-color="#6379AC"/>
<stop offset="1" stop-color="#4B4996"/>
</linearGradient>
<clipPath id="clip0_758_3638">
<rect width="184" height="184" fill="white"/>
</clipPath>
</defs>
</svg>
