<svg width="260" height="260" viewBox="0 0 260 260" fill="none" xmlns="http://www.w3.org/2000/svg">
<g clip-path="url(#clip0_582_378)">
<path d="M141.106 1.08583L140.813 4.1673L144.428 4.51351L144.336 5.48531L140.721 5.1391L140.36 8.92788L139.169 8.81385L140.008 0L145.428 0.519031L145.335 1.49083L141.106 1.08583Z" fill="#54545C"/>
<path d="M154.455 5.88273C154.729 5.49953 155.03 5.21794 155.358 5.03796C155.686 4.85393 156.054 4.80132 156.462 4.88011C156.591 4.90508 156.712 4.94303 156.823 4.99397C156.939 5.04569 157.037 5.11085 157.118 5.18947L156.885 5.98118C156.841 6.07761 156.771 6.11647 156.674 6.09775C156.617 6.08682 156.537 6.0587 156.433 6.01336C156.328 5.96803 156.208 5.9321 156.07 5.90557C155.877 5.86813 155.698 5.86289 155.533 5.88987C155.373 5.91763 155.222 5.97644 155.079 6.06628C154.941 6.15286 154.807 6.26971 154.679 6.41682C154.555 6.56067 154.434 6.73034 154.317 6.92584L153.571 10.8088L152.487 10.5993L153.668 4.45334L154.286 4.57271C154.403 4.59533 154.479 4.63318 154.515 4.68626C154.551 4.73933 154.567 4.82203 154.562 4.93436L154.455 5.88273Z" fill="#54545C"/>
<path d="M165.923 7.31177C166.361 7.44068 166.734 7.62994 167.042 7.87955C167.35 8.12915 167.589 8.42492 167.759 8.76685C167.928 9.10878 168.022 9.49061 168.04 9.91232C168.063 10.3312 168.006 10.7759 167.868 11.2462C167.729 11.7205 167.537 12.1276 167.292 12.4676C167.051 12.8087 166.767 13.077 166.44 13.2726C166.112 13.4682 165.752 13.5875 165.358 13.6304C164.965 13.6693 164.55 13.6243 164.113 13.4954C163.671 13.3653 163.293 13.1769 162.98 12.9301C162.672 12.6805 162.433 12.3847 162.263 12.0428C162.093 11.7008 161.997 11.3204 161.974 10.9015C161.955 10.4837 162.015 10.0377 162.154 9.56339C162.291 9.09304 162.481 8.68732 162.722 8.34621C162.968 8.00231 163.255 7.73256 163.582 7.53695C163.909 7.34135 164.27 7.22212 164.664 7.17924C165.061 7.13752 165.481 7.1817 165.923 7.31177ZM164.354 12.6713C164.945 12.8455 165.445 12.778 165.852 12.4687C166.261 12.1554 166.57 11.643 166.778 10.9316C166.987 10.2162 167.005 9.61595 166.83 9.13081C166.655 8.64567 166.271 8.31599 165.68 8.14179C165.38 8.05352 165.103 8.02767 164.848 8.06424C164.597 8.10197 164.368 8.1956 164.162 8.34514C163.959 8.49584 163.779 8.70244 163.62 8.96495C163.467 9.22467 163.339 9.53239 163.235 9.88811C163.026 10.5996 163.01 11.1978 163.185 11.683C163.365 12.1653 163.754 12.4948 164.354 12.6713Z" fill="#54545C"/>
<path d="M175.589 11.6547C175.771 11.5637 175.956 11.4892 176.143 11.4312C176.33 11.3731 176.517 11.3354 176.706 11.3179C176.9 11.2981 177.093 11.3024 177.285 11.3308C177.483 11.3569 177.685 11.4113 177.891 11.494C178.207 11.6212 178.464 11.7866 178.662 11.9902C178.865 12.1915 179.008 12.4218 179.09 12.6812C179.178 12.9383 179.21 13.2195 179.185 13.5247C179.161 13.83 179.083 14.147 178.951 14.4759L177.474 18.1761L176.45 17.7647L177.927 14.0646C178.103 13.6248 178.137 13.2438 178.031 12.9217C177.931 12.5972 177.676 12.3531 177.268 12.1891C176.966 12.0681 176.655 12.0274 176.334 12.067C176.016 12.1082 175.697 12.2086 175.377 12.3684L173.668 16.6479L172.644 16.2365L174.964 10.4253L175.576 10.6712C175.721 10.7294 175.782 10.8362 175.76 10.9915L175.589 11.6547Z" fill="#54545C"/>
<path d="M186.807 22.7771C186.369 22.5505 186.094 22.2531 185.983 21.885C185.875 21.5188 185.94 21.105 186.177 20.6436L187.927 17.2381L187.259 16.8925C187.2 16.8623 187.16 16.8203 187.136 16.7666C187.115 16.7092 187.123 16.6439 187.161 16.5706L187.361 16.1806L188.33 16.5356L189.438 14.9325C189.478 14.8833 189.524 14.8516 189.577 14.8375C189.636 14.8217 189.697 14.8298 189.759 14.8619L190.252 15.1169L189.267 17.0339L190.872 17.864L190.508 18.5725L188.903 17.7424L187.186 21.082C187.066 21.3163 187.033 21.5196 187.088 21.6916C187.142 21.8637 187.259 21.996 187.438 22.0885C187.541 22.1414 187.635 22.1739 187.721 22.1861C187.813 22.1964 187.895 22.1993 187.966 22.1947C188.038 22.1901 188.099 22.1844 188.149 22.1776C188.204 22.1691 188.246 22.1724 188.275 22.1875C188.326 22.214 188.356 22.2687 188.364 22.3517L188.409 22.9659C188.16 23.0365 187.894 23.0562 187.609 23.025C187.326 22.9901 187.059 22.9075 186.807 22.7771Z" fill="#54545C"/>
<path d="M208.595 36.1675L207.988 36.9313L203.71 33.5571L209.169 26.5952L213.447 29.9695L212.845 30.7371L209.507 28.1042L207.693 30.4167L210.397 32.549L209.818 33.2874L207.114 31.1551L205.252 33.5308L208.595 36.1675Z" fill="#54545C"/>
<path d="M216.178 37.127C216.381 37.1105 216.58 37.1101 216.775 37.1258C216.97 37.1416 217.158 37.1765 217.34 37.2304C217.527 37.2842 217.705 37.3602 217.873 37.4582C218.046 37.556 218.214 37.6817 218.374 37.8353C218.621 38.0713 218.798 38.3207 218.906 38.5833C219.02 38.8459 219.067 39.1129 219.047 39.3844C219.033 39.6558 218.959 39.9287 218.823 40.203C218.687 40.4773 218.497 40.7427 218.253 40.9991L215.51 43.8845L214.712 43.121L217.455 40.2356C217.781 39.8926 217.954 39.5519 217.975 39.2133C218.002 38.8745 217.856 38.553 217.538 38.2487C217.303 38.0241 217.029 37.8703 216.717 37.7874C216.407 37.7074 216.073 37.6818 215.716 37.7107L212.544 41.0479L211.745 40.2844L216.054 35.7528L216.531 36.2092C216.644 36.3172 216.661 36.4392 216.583 36.5752L216.178 37.127Z" fill="#54545C"/>
<path d="M226.129 48.4333C226.202 48.0968 226.201 47.8032 226.126 47.5524C226.054 47.2989 225.921 47.0601 225.727 46.8358C225.348 46.3968 224.899 46.1952 224.381 46.2311C223.863 46.267 223.313 46.5372 222.733 47.0419C222.425 47.3091 222.184 47.5649 222.009 47.8095C221.838 48.0513 221.725 48.2857 221.671 48.5126C221.62 48.7368 221.626 48.952 221.69 49.1581C221.754 49.3643 221.868 49.5623 222.032 49.7523C222.269 50.0263 222.537 50.2106 222.836 50.3051C223.138 50.4026 223.476 50.4386 223.851 50.4128L226.129 48.4333ZM230.112 46.4271L223.251 52.3899L222.823 51.8948C222.721 51.7764 222.714 51.6518 222.802 51.5208L223.31 50.9481C222.893 50.9562 222.498 50.8958 222.126 50.7668C221.754 50.6379 221.421 50.4037 221.128 50.0643C220.894 49.7934 220.732 49.5028 220.644 49.1927C220.558 48.8798 220.549 48.5578 220.617 48.2267C220.684 47.8956 220.832 47.5571 221.06 47.2112C221.289 46.8654 221.599 46.5224 221.99 46.1824C222.338 45.8801 222.701 45.6462 223.08 45.4805C223.462 45.3122 223.839 45.2194 224.21 45.2022C224.581 45.185 224.937 45.2485 225.28 45.3928C225.628 45.5375 225.939 45.7687 226.213 46.0863C226.463 46.3759 226.628 46.6667 226.706 46.9586C226.79 47.2509 226.815 47.5536 226.781 47.8666L229.394 45.5957L230.112 46.4271Z" fill="#54545C"/>
<path d="M240.786 70.5899C240.213 70.9217 239.639 71.1326 239.064 71.2227C238.49 71.3127 237.94 71.2887 237.414 71.1506C236.889 71.0125 236.399 70.7633 235.945 70.4031C235.496 70.0444 235.11 69.5831 234.785 69.0194L233.137 66.1561L240.787 61.7264L242.435 64.5896C242.76 65.1534 242.963 65.7207 243.045 66.2917C243.132 66.8642 243.103 67.4143 242.955 67.9419C242.812 68.4674 242.558 68.9572 242.193 69.4112C241.828 69.8652 241.359 70.2581 240.786 70.5899ZM240.173 69.5248C240.642 69.2528 241.025 68.9454 241.321 68.6026C241.618 68.2599 241.826 67.8966 241.947 67.5127C242.067 67.1288 242.099 66.73 242.041 66.3163C241.983 65.9026 241.835 65.4888 241.597 65.075L240.546 63.25L234.573 66.7091L235.623 68.5341C235.861 68.9479 236.145 69.2834 236.473 69.5405C236.801 69.7976 237.16 69.9707 237.548 70.0599C237.94 70.147 238.358 70.1476 238.802 70.0617C239.246 69.9758 239.703 69.7969 240.173 69.5248Z" fill="#54545C"/>
<path d="M244.403 79.575C244.634 79.4688 244.83 79.3384 244.99 79.1836C245.156 79.0308 245.279 78.8591 245.359 78.6683C245.445 78.4796 245.484 78.2782 245.477 78.0641C245.473 77.8482 245.42 77.626 245.316 77.3974C245.097 76.9178 244.784 76.6016 244.375 76.449C243.972 76.2984 243.509 76.3024 242.985 76.4609L244.403 79.575ZM242.108 81.6045C241.902 81.5493 241.704 81.4612 241.513 81.3402C241.326 81.2175 241.152 81.0731 240.99 80.907C240.831 80.7447 240.686 80.5663 240.557 80.3718C240.424 80.1791 240.311 79.9797 240.217 79.7736C240.038 79.3801 239.937 78.9867 239.916 78.5932C239.901 78.2018 239.965 77.8261 240.108 77.4661C240.257 77.1081 240.489 76.7752 240.805 76.4673C241.122 76.1595 241.524 75.8934 242.014 75.6691C242.41 75.4876 242.808 75.378 243.206 75.3404C243.607 75.3065 243.984 75.3465 244.339 75.4604C244.697 75.5725 245.022 75.761 245.314 76.0257C245.61 76.2887 245.852 76.6263 246.04 77.0385C246.195 77.3795 246.281 77.7208 246.296 78.0624C246.317 78.4061 246.267 78.7325 246.146 79.0417C246.03 79.3529 245.84 79.6412 245.577 79.9067C245.318 80.1704 244.986 80.3947 244.582 80.5797C244.425 80.6516 244.313 80.6827 244.245 80.6729C244.178 80.6632 244.122 80.6114 244.08 80.5178L242.347 76.7123C241.993 76.8879 241.703 77.0796 241.477 77.2874C241.253 77.4989 241.086 77.7245 240.979 77.964C240.875 78.2019 240.827 78.4501 240.836 78.7085C240.849 78.9652 240.917 79.2285 241.04 79.4983C241.155 79.7494 241.281 79.952 241.419 80.1062C241.562 80.2624 241.697 80.3907 241.824 80.4911C241.951 80.5914 242.062 80.6718 242.158 80.7323C242.259 80.7948 242.323 80.858 242.352 80.9217C242.39 81.0041 242.387 81.0824 242.344 81.1565L242.108 81.6045Z" fill="#54545C"/>
<path d="M251.379 91.0928L244.645 90.7298L244.323 89.7955L249.392 85.3353L249.684 86.182C249.714 86.2676 249.717 86.3451 249.693 86.4144C249.669 86.4838 249.631 86.5383 249.58 86.578L246.299 89.3972C246.171 89.4938 246.046 89.5832 245.922 89.6655C245.798 89.7477 245.674 89.8279 245.548 89.9063C245.695 89.8902 245.842 89.8761 245.99 89.864C246.138 89.8518 246.293 89.8461 246.454 89.8468L250.777 90.0465C250.847 90.0483 250.911 90.0697 250.969 90.1107C251.03 90.1504 251.074 90.2072 251.099 90.2811L251.379 91.0928Z" fill="#54545C"/>
<path d="M254.152 111.607C253.862 111.208 253.539 110.922 253.182 110.749C252.825 110.579 252.456 110.522 252.074 110.578C251.809 110.616 251.582 110.698 251.393 110.826C251.207 110.952 251.057 111.105 250.941 111.284C250.826 111.463 250.746 111.66 250.702 111.874C250.662 112.088 250.657 112.301 250.688 112.513C250.753 112.969 250.895 113.367 251.114 113.706C251.334 114.049 251.603 114.337 251.923 114.569L254.152 111.607ZM250.654 117.88L250.502 116.822C250.485 116.703 250.486 116.606 250.503 116.528C250.521 116.451 250.569 116.363 250.646 116.264L251.41 115.249C250.985 114.919 250.627 114.519 250.335 114.049C250.048 113.583 249.862 113.05 249.776 112.451C249.729 112.125 249.738 111.797 249.803 111.467C249.868 111.141 249.987 110.839 250.159 110.56C250.335 110.281 250.562 110.044 250.842 109.85C251.121 109.656 251.45 109.531 251.829 109.477C252.113 109.436 252.389 109.444 252.654 109.501C252.925 109.562 253.18 109.663 253.42 109.803C253.66 109.943 253.882 110.117 254.087 110.325C254.291 110.533 254.474 110.766 254.636 111.026C254.917 110.731 255.196 110.504 255.472 110.343C255.752 110.182 256.051 110.079 256.368 110.033C256.665 109.99 256.952 110.003 257.227 110.072C257.503 110.144 257.752 110.269 257.972 110.445C258.197 110.621 258.384 110.845 258.536 111.119C258.692 111.396 258.796 111.716 258.848 112.079C258.894 112.401 258.883 112.702 258.815 112.982C258.752 113.262 258.648 113.51 258.505 113.726C258.361 113.943 258.184 114.122 257.972 114.265C257.764 114.412 257.54 114.511 257.298 114.562L257.066 113.903C257.014 113.773 257.063 113.664 257.212 113.576C257.314 113.532 257.417 113.469 257.522 113.387C257.627 113.31 257.719 113.213 257.798 113.098C257.878 112.987 257.938 112.855 257.978 112.704C258.019 112.556 258.026 112.389 258 112.201C257.97 111.997 257.911 111.817 257.822 111.659C257.734 111.505 257.622 111.378 257.487 111.276C257.357 111.179 257.208 111.111 257.04 111.072C256.877 111.033 256.704 111.027 256.521 111.054C256.378 111.074 256.244 111.11 256.119 111.162C255.993 111.213 255.868 111.283 255.744 111.372C255.62 111.464 255.497 111.576 255.375 111.706C255.252 111.836 255.125 111.989 254.992 112.167L252.796 115.055C253.095 115.17 253.4 115.253 253.71 115.304C254.025 115.354 254.333 115.372 254.634 115.358C254.712 115.355 254.777 115.371 254.827 115.405C254.878 115.44 254.909 115.493 254.919 115.567L255.015 116.233C254.546 116.297 254.076 116.29 253.604 116.212C253.136 116.134 252.685 115.989 252.252 115.777L250.654 117.88Z" fill="#54545C"/>
<path d="M251.956 135.831C251.938 136.197 251.984 136.527 252.094 136.821C252.203 137.115 252.364 137.366 252.577 137.574C252.789 137.786 253.046 137.951 253.349 138.068C253.652 138.19 253.988 138.26 254.358 138.277L259.722 138.534L259.666 139.725L254.301 139.469C253.792 139.444 253.324 139.339 252.897 139.154C252.469 138.973 252.102 138.722 251.796 138.403C251.495 138.087 251.264 137.707 251.104 137.262C250.944 136.817 250.877 136.324 250.903 135.78C250.928 135.237 251.042 134.752 251.243 134.325C251.445 133.897 251.711 133.539 252.041 133.249C252.376 132.96 252.765 132.744 253.208 132.6C253.651 132.46 254.127 132.402 254.636 132.427L260 132.683L259.943 133.874L254.585 133.618C254.216 133.601 253.875 133.636 253.562 133.724C253.249 133.816 252.977 133.956 252.746 134.143C252.514 134.334 252.328 134.57 252.187 134.852C252.05 135.138 251.973 135.465 251.956 135.831Z" fill="#54545C"/>
<path d="M249.231 152.044L249.399 150.87C249.412 150.78 249.444 150.712 249.497 150.665C249.553 150.623 249.611 150.59 249.673 150.566L253.684 148.747C253.591 148.7 253.512 148.652 253.449 148.601L250.353 145.82C250.302 145.771 250.256 145.719 250.214 145.663C250.176 145.611 250.162 145.545 250.174 145.463L250.332 144.362L254.391 148.025L259.06 145.746L258.89 146.926C258.878 147.012 258.855 147.073 258.82 147.11C258.786 147.146 258.74 147.177 258.683 147.202L254.852 148.984C254.933 149.025 255.021 149.081 255.114 149.153L258.002 151.773C258.055 151.814 258.094 151.859 258.12 151.909C258.15 151.959 258.161 152.015 258.152 152.076L257.99 153.207L254.208 149.697L249.231 152.044Z" fill="#54545C"/>
<path d="M247.915 157.335C247.787 157.249 247.703 157.141 247.663 157.013C247.621 156.888 247.614 156.768 247.642 156.652L247.751 156.201L255.848 161.992C255.964 162.072 256.044 162.167 256.089 162.28C256.133 162.397 256.139 162.519 256.108 162.647L255.998 163.103L247.915 157.335Z" fill="#54545C"/>
<path d="M245.378 170.055C245.259 170.401 245.21 170.731 245.233 171.044C245.255 171.357 245.339 171.643 245.484 171.903C245.628 172.166 245.829 172.397 246.087 172.596C246.343 172.798 246.646 172.96 246.996 173.081L252.07 174.843L251.681 175.97L246.607 174.208C246.125 174.041 245.705 173.808 245.348 173.51C244.988 173.215 244.707 172.871 244.503 172.478C244.302 172.09 244.187 171.66 244.159 171.188C244.13 170.716 244.205 170.223 244.382 169.709C244.56 169.195 244.805 168.762 245.118 168.408C245.431 168.055 245.787 167.786 246.186 167.602C246.588 167.419 247.022 167.321 247.487 167.308C247.952 167.299 248.424 167.379 248.906 167.546L253.981 169.307L253.592 170.434L248.523 168.675C248.173 168.553 247.836 168.491 247.511 168.487C247.185 168.487 246.885 168.544 246.611 168.658C246.335 168.776 246.09 168.951 245.876 169.181C245.664 169.417 245.498 169.708 245.378 170.055Z" fill="#54545C"/>
<path d="M239.951 181.018L240.448 179.927L248.484 183.608L247.987 184.698L239.951 181.018Z" fill="#54545C"/>
<path d="M229.905 206.391C229.366 206.006 228.936 205.571 228.616 205.084C228.296 204.597 228.089 204.085 227.996 203.549C227.903 203.012 227.925 202.461 228.063 201.897C228.202 201.339 228.46 200.795 228.837 200.265L230.749 197.571L237.944 202.71L236.032 205.403C235.655 205.933 235.225 206.355 234.741 206.667C234.258 206.984 233.747 207.186 233.208 207.271C232.671 207.358 232.122 207.33 231.558 207.185C230.995 207.041 230.444 206.776 229.905 206.391ZM230.616 205.39C231.058 205.705 231.496 205.927 231.93 206.055C232.364 206.182 232.78 206.222 233.178 206.172C233.576 206.123 233.951 205.986 234.302 205.761C234.653 205.537 234.967 205.23 235.244 204.84L236.462 203.123L230.844 199.111L229.625 200.828C229.349 201.217 229.162 201.615 229.065 202.021C228.968 202.427 228.96 202.826 229.041 203.217C229.124 203.611 229.297 203.993 229.56 204.362C229.822 204.731 230.174 205.074 230.616 205.39Z" fill="#54545C"/>
<path d="M223.259 213.425C223.451 213.592 223.651 213.717 223.858 213.798C224.065 213.886 224.272 213.926 224.478 213.92C224.685 213.92 224.884 213.872 225.075 213.777C225.27 213.684 225.449 213.542 225.613 213.352C225.957 212.954 226.114 212.537 226.083 212.101C226.052 211.671 225.856 211.249 225.495 210.837L223.259 213.425ZM220.465 212.175C220.43 211.964 220.427 211.746 220.458 211.522C220.492 211.301 220.55 211.082 220.634 210.865C220.715 210.652 220.817 210.446 220.939 210.248C221.059 210.046 221.193 209.86 221.341 209.689C221.623 209.362 221.938 209.107 222.287 208.924C222.635 208.747 223.002 208.649 223.388 208.63C223.775 208.617 224.173 208.691 224.584 208.852C224.994 209.012 225.403 209.269 225.81 209.623C226.139 209.909 226.403 210.226 226.603 210.574C226.8 210.925 226.92 211.285 226.964 211.656C227.011 212.03 226.975 212.405 226.857 212.781C226.741 213.161 226.535 213.522 226.239 213.864C225.994 214.147 225.72 214.367 225.417 214.523C225.114 214.685 224.797 214.775 224.466 214.793C224.136 214.817 223.796 214.764 223.446 214.634C223.099 214.507 222.757 214.298 222.422 214.006C222.292 213.893 222.217 213.803 222.198 213.737C222.178 213.672 222.202 213.6 222.27 213.522L225.002 210.36C224.696 210.11 224.401 209.925 224.119 209.805C223.834 209.688 223.56 209.63 223.298 209.632C223.039 209.636 222.795 209.695 222.564 209.811C222.337 209.93 222.126 210.101 221.932 210.325C221.752 210.534 221.621 210.733 221.538 210.923C221.456 211.119 221.396 211.296 221.357 211.453C221.319 211.611 221.292 211.746 221.277 211.858C221.262 211.976 221.232 212.061 221.186 212.114C221.127 212.183 221.055 212.213 220.97 212.204L220.465 212.175Z" fill="#54545C"/>
<path d="M215.871 222.996C215.844 222.896 215.868 222.811 215.942 222.74C215.987 222.697 216.053 222.665 216.141 222.644C216.228 222.623 216.332 222.592 216.452 222.551C216.572 222.516 216.704 222.46 216.849 222.385C216.996 222.313 217.147 222.203 217.301 222.055C217.435 221.927 217.538 221.794 217.611 221.656C217.687 221.521 217.736 221.386 217.756 221.253C217.774 221.122 217.765 220.996 217.73 220.876C217.695 220.762 217.634 220.658 217.546 220.566C217.435 220.449 217.31 220.384 217.171 220.369C217.029 220.357 216.876 220.375 216.712 220.423C216.548 220.472 216.375 220.541 216.193 220.63C216.013 220.721 215.827 220.812 215.633 220.9C215.439 220.995 215.244 221.079 215.047 221.153C214.851 221.227 214.655 221.272 214.46 221.288C214.265 221.303 214.072 221.277 213.882 221.208C213.692 221.146 213.51 221.023 213.337 220.841C213.138 220.632 212.991 220.403 212.896 220.153C212.803 219.906 212.767 219.647 212.788 219.377C212.811 219.109 212.893 218.837 213.034 218.561C213.174 218.284 213.382 218.014 213.659 217.749C213.974 217.448 214.308 217.225 214.66 217.082C215.015 216.942 215.358 216.867 215.69 216.858L215.792 217.341C215.805 217.402 215.805 217.459 215.792 217.511C215.779 217.564 215.747 217.614 215.697 217.662C215.643 217.713 215.567 217.747 215.468 217.762C215.368 217.777 215.253 217.799 215.122 217.828C214.987 217.86 214.839 217.913 214.678 217.988C214.516 218.063 214.345 218.187 214.163 218.36C214.008 218.508 213.892 218.657 213.813 218.806C213.736 218.959 213.692 219.107 213.68 219.249C213.668 219.392 213.686 219.525 213.736 219.648C213.782 219.775 213.854 219.889 213.95 219.99C214.069 220.115 214.201 220.186 214.346 220.201C214.491 220.222 214.645 220.208 214.809 220.159C214.976 220.114 215.15 220.044 215.333 219.949C215.515 219.86 215.703 219.768 215.897 219.674C216.088 219.582 216.284 219.498 216.483 219.421C216.682 219.35 216.881 219.308 217.079 219.295C217.277 219.283 217.474 219.311 217.67 219.379C217.866 219.454 218.056 219.588 218.24 219.782C218.404 219.955 218.526 220.155 218.605 220.381C218.687 220.61 218.716 220.85 218.693 221.1C218.672 221.353 218.596 221.611 218.465 221.873C218.334 222.135 218.14 222.388 217.885 222.633C217.587 222.917 217.276 223.124 216.95 223.253C216.624 223.388 216.297 223.456 215.969 223.457L215.871 222.996Z" fill="#54545C"/>
<path d="M208.319 230.772L204.46 225.851L205.323 225.17L209.181 230.092L208.319 230.772ZM209.346 232.462C209.28 232.378 209.236 232.285 209.213 232.182C209.189 232.085 209.184 231.985 209.196 231.881C209.208 231.782 209.24 231.686 209.292 231.593C209.341 231.502 209.407 231.423 209.491 231.357C209.575 231.291 209.667 231.245 209.767 231.218C209.863 231.195 209.961 231.189 210.059 231.201C210.159 231.215 210.254 231.246 210.342 231.292C210.432 231.341 210.511 231.407 210.577 231.491C210.643 231.576 210.689 231.668 210.715 231.768C210.744 231.871 210.752 231.972 210.74 232.07C210.731 232.172 210.704 232.267 210.658 232.355C210.609 232.446 210.543 232.525 210.459 232.591C210.375 232.657 210.283 232.703 210.183 232.73C210.08 232.758 209.979 232.765 209.878 232.75C209.777 232.741 209.679 232.71 209.586 232.658C209.492 232.612 209.412 232.546 209.346 232.462Z" fill="#54545C"/>
<path d="M197.281 234.708C197.095 234.828 196.947 234.96 196.839 235.103C196.73 235.247 196.658 235.396 196.621 235.552C196.584 235.708 196.583 235.866 196.616 236.025C196.652 236.188 196.72 236.348 196.82 236.504C197.027 236.826 197.29 237.019 197.609 237.083C197.925 237.148 198.267 237.062 198.637 236.824C199.011 236.583 199.235 236.304 199.31 235.986C199.381 235.671 199.314 235.352 199.107 235.03C199.007 234.874 198.891 234.745 198.758 234.645C198.624 234.55 198.479 234.487 198.322 234.456C198.165 234.425 197.999 234.429 197.824 234.468C197.649 234.508 197.468 234.587 197.281 234.708ZM193.785 232.921C193.867 233.049 193.97 233.13 194.093 233.163C194.217 233.196 194.356 233.195 194.509 233.16C194.659 233.127 194.821 233.066 194.994 232.979C195.17 232.895 195.353 232.799 195.543 232.692C195.729 232.586 195.919 232.478 196.112 232.369C196.306 232.259 196.497 232.16 196.685 232.073C196.821 231.858 196.906 231.641 196.942 231.422C196.976 231.209 196.935 231.011 196.817 230.827C196.742 230.709 196.642 230.619 196.519 230.556C196.39 230.492 196.24 230.464 196.069 230.472C195.896 230.476 195.703 230.517 195.489 230.596C195.27 230.673 195.033 230.794 194.777 230.959C194.528 231.12 194.319 231.286 194.151 231.458C193.983 231.63 193.858 231.801 193.777 231.971C193.692 232.144 193.65 232.31 193.65 232.471C193.651 232.633 193.696 232.783 193.785 232.921ZM196.271 238.871L196.051 238.528C195.978 238.413 196.003 238.294 196.129 238.169L196.675 237.706C196.411 237.553 196.19 237.338 196.012 237.061C195.848 236.805 195.748 236.538 195.713 236.262C195.677 235.992 195.697 235.727 195.774 235.466C195.852 235.206 195.986 234.958 196.177 234.722C196.368 234.486 196.605 234.277 196.888 234.094C197.134 233.936 197.384 233.816 197.64 233.735C197.706 233.594 197.743 233.465 197.751 233.347C197.761 233.233 197.74 233.136 197.689 233.057C197.609 232.932 197.498 232.869 197.355 232.868C197.212 232.872 197.048 232.914 196.864 232.993C196.681 233.072 196.481 233.176 196.266 233.305C196.047 233.437 195.821 233.565 195.589 233.69C195.355 233.821 195.121 233.936 194.886 234.033C194.647 234.133 194.417 234.194 194.195 234.214C193.974 234.234 193.764 234.2 193.566 234.113C193.365 234.027 193.186 233.863 193.031 233.62C192.886 233.395 192.804 233.14 192.782 232.855C192.757 232.572 192.798 232.281 192.905 231.982C193.009 231.68 193.184 231.381 193.429 231.086C193.669 230.789 193.981 230.517 194.365 230.27C194.748 230.023 195.108 229.845 195.444 229.736C195.78 229.627 196.084 229.576 196.356 229.581C196.628 229.587 196.867 229.644 197.073 229.751C197.273 229.857 197.432 230.002 197.549 230.186C197.716 230.446 197.776 230.718 197.729 231.003C197.682 231.288 197.551 231.576 197.336 231.866C197.536 231.835 197.72 231.847 197.886 231.901C198.052 231.961 198.198 232.09 198.324 232.287C198.373 232.363 198.409 232.45 198.433 232.548C198.458 232.649 198.469 232.757 198.465 232.872C198.459 232.993 198.438 233.117 198.402 233.243C198.366 233.37 198.31 233.496 198.235 233.623C198.588 233.601 198.913 233.663 199.212 233.809C199.512 233.958 199.765 234.192 199.969 234.511C200.133 234.767 200.234 235.031 200.27 235.301C200.305 235.577 200.282 235.845 200.198 236.104C200.118 236.367 199.982 236.616 199.791 236.852C199.597 237.089 199.354 237.302 199.064 237.489C198.836 237.636 198.606 237.747 198.376 237.822C198.148 237.901 197.921 237.944 197.697 237.952L196.271 238.871Z" fill="#54545C"/>
<path d="M189.323 242.054C189.272 242.252 189.207 242.441 189.128 242.621C189.05 242.8 188.955 242.967 188.845 243.122C188.733 243.282 188.603 243.425 188.456 243.552C188.307 243.685 188.134 243.802 187.936 243.904C187.633 244.061 187.34 244.148 187.057 244.164C186.773 244.186 186.506 244.143 186.256 244.036C186.005 243.934 185.772 243.774 185.558 243.556C185.344 243.337 185.157 243.07 184.995 242.756L183.174 239.213L184.154 238.706L185.975 242.248C186.192 242.67 186.456 242.945 186.768 243.076C187.079 243.212 187.429 243.179 187.82 242.977C188.109 242.828 188.343 242.618 188.524 242.349C188.701 242.081 188.834 241.774 188.924 241.426L186.817 237.329L187.798 236.822L190.658 242.386L190.072 242.689C189.933 242.761 189.812 242.737 189.71 242.619L189.323 242.054Z" fill="#54545C"/>
<path d="M174.777 247.014C174.872 247.251 174.993 247.453 175.139 247.621C175.283 247.793 175.449 247.925 175.635 248.014C175.819 248.109 176.018 248.158 176.231 248.161C176.446 248.167 176.67 248.124 176.903 248.031C177.392 247.834 177.722 247.536 177.893 247.134C178.063 246.737 178.081 246.273 177.948 245.741L174.777 247.014ZM172.865 244.62C172.93 244.416 173.028 244.222 173.157 244.037C173.289 243.855 173.441 243.688 173.614 243.534C173.783 243.381 173.968 243.245 174.168 243.125C174.366 243.001 174.571 242.897 174.78 242.812C175.181 242.652 175.578 242.57 175.971 242.567C176.362 242.57 176.733 242.652 177.085 242.812C177.434 242.978 177.755 243.227 178.046 243.558C178.338 243.889 178.584 244.305 178.784 244.806C178.945 245.211 179.036 245.615 179.054 246.015C179.068 246.418 179.01 246.794 178.88 247.144C178.751 247.497 178.548 247.814 178.27 248.094C177.994 248.378 177.646 248.604 177.226 248.773C176.879 248.912 176.535 248.982 176.193 248.981C175.85 248.986 175.527 248.92 175.225 248.784C174.921 248.654 174.642 248.45 174.391 248.174C174.14 247.902 173.933 247.559 173.768 247.146C173.704 246.986 173.678 246.872 173.691 246.804C173.704 246.737 173.758 246.684 173.854 246.646L177.728 245.09C177.57 244.728 177.393 244.428 177.197 244.192C176.997 243.957 176.78 243.78 176.547 243.661C176.315 243.545 176.07 243.486 175.812 243.483C175.555 243.484 175.29 243.54 175.015 243.65C174.76 243.753 174.552 243.87 174.391 244C174.229 244.137 174.094 244.266 173.988 244.388C173.882 244.511 173.797 244.618 173.732 244.711C173.665 244.809 173.599 244.871 173.534 244.897C173.45 244.931 173.372 244.924 173.3 244.878L172.865 244.62Z" fill="#54545C"/>
<path d="M164.97 251.558C164.901 252.025 164.762 252.414 164.553 252.724C164.346 253.039 164.043 253.255 163.644 253.372C163.518 253.409 163.394 253.431 163.271 253.437C163.145 253.444 163.028 253.431 162.92 253.399L162.766 252.588C162.76 252.482 162.805 252.415 162.9 252.387C162.955 252.371 163.039 252.359 163.153 252.351C163.266 252.344 163.39 252.32 163.524 252.281C163.713 252.225 163.875 252.147 164.008 252.048C164.138 251.949 164.246 251.827 164.332 251.682C164.415 251.542 164.48 251.376 164.527 251.187C164.572 251.002 164.601 250.795 164.616 250.568L163.505 246.774L164.564 246.462L166.322 252.467L165.719 252.645C165.605 252.679 165.519 252.68 165.463 252.65C165.407 252.619 165.356 252.553 165.309 252.45L164.97 251.558Z" fill="#54545C"/>
<path d="M142.35 251.564C142.36 251.671 142.351 251.773 142.324 251.871C142.292 251.969 142.246 252.056 142.187 252.132C142.124 252.209 142.048 252.272 141.958 252.322C141.867 252.372 141.769 252.402 141.663 252.412C141.556 252.422 141.454 252.411 141.356 252.379C141.258 252.347 141.171 252.3 141.095 252.237C141.019 252.174 140.956 252.097 140.906 252.007C140.856 251.916 140.826 251.818 140.816 251.711C140.805 251.6 140.816 251.496 140.848 251.398C140.88 251.304 140.928 251.218 140.991 251.142C141.054 251.066 141.13 251.005 141.221 250.959C141.311 250.909 141.409 250.878 141.516 250.868C141.622 250.858 141.724 250.869 141.822 250.901C141.92 250.929 142.007 250.974 142.083 251.037C142.155 251.101 142.216 251.176 142.266 251.262C142.311 251.353 142.34 251.454 142.35 251.564Z" fill="#54545C"/>
<path d="M118.893 258.914L119.187 255.833L115.572 255.486L115.664 254.515L119.279 254.861L119.64 251.072L120.831 251.186L119.992 260L114.572 259.481L114.665 258.509L118.893 258.914Z" fill="#54545C"/>
<path d="M105.545 254.117C105.271 254.5 104.969 254.782 104.642 254.962C104.313 255.146 103.945 255.199 103.538 255.12C103.409 255.095 103.288 255.057 103.177 255.006C103.061 254.954 102.963 254.889 102.881 254.811L103.115 254.019C103.159 253.922 103.229 253.884 103.326 253.902C103.382 253.913 103.463 253.941 103.567 253.987C103.672 254.032 103.792 254.068 103.93 254.094C104.123 254.132 104.302 254.137 104.466 254.11C104.627 254.082 104.778 254.024 104.921 253.934C105.059 253.847 105.192 253.73 105.321 253.583C105.445 253.439 105.566 253.27 105.683 253.074L106.429 249.191L107.513 249.401L106.332 255.547L105.714 255.427C105.597 255.405 105.521 255.367 105.485 255.314C105.449 255.261 105.433 255.178 105.438 255.066L105.545 254.117Z" fill="#54545C"/>
<path d="M94.077 252.688C93.6393 252.559 93.2663 252.37 92.9581 252.121C92.65 251.871 92.411 251.575 92.2412 251.233C92.0715 250.891 91.9776 250.509 91.9597 250.088C91.9367 249.669 91.9941 249.224 92.1318 248.754C92.2706 248.28 92.4627 247.872 92.7078 247.532C92.9491 247.191 93.2332 246.923 93.5604 246.727C93.8875 246.532 94.248 246.413 94.6418 246.37C95.0344 246.331 95.4496 246.376 95.8874 246.505C96.3291 246.635 96.7066 246.823 97.0198 247.07C97.328 247.32 97.567 247.615 97.7367 247.957C97.9065 248.299 98.0029 248.68 98.0259 249.099C98.0449 249.516 97.985 249.962 97.8462 250.437C97.7085 250.907 97.519 251.313 97.2778 251.654C97.0315 251.998 96.7447 252.268 96.4176 252.463C96.0905 252.659 95.73 252.778 95.3362 252.821C94.9384 252.863 94.5187 252.818 94.077 252.688ZM95.6461 247.329C95.0546 247.155 94.555 247.222 94.1475 247.531C93.7388 247.845 93.4303 248.357 93.222 249.068C93.0125 249.784 92.9953 250.384 93.1703 250.869C93.3452 251.354 93.7285 251.684 94.32 251.858C94.6197 251.947 94.897 251.972 95.1519 251.936C95.4028 251.898 95.6316 251.804 95.8382 251.655C96.0408 251.504 96.2212 251.298 96.3794 251.035C96.5326 250.775 96.6612 250.468 96.7654 250.112C96.9737 249.401 96.9903 248.802 96.8154 248.317C96.6353 247.835 96.2455 247.505 95.6461 247.329Z" fill="#54545C"/>
<path d="M84.4114 248.345C84.229 248.436 84.0443 248.511 83.8573 248.569C83.6703 248.627 83.4826 248.665 83.2941 248.682C83.1003 248.702 82.9072 248.698 82.7149 248.669C82.5172 248.643 82.3154 248.589 82.1093 248.506C81.7927 248.379 81.5355 248.213 81.3379 248.01C81.1349 247.809 80.9922 247.578 80.9098 247.319C80.8221 247.062 80.7904 246.781 80.8149 246.475C80.8393 246.17 80.9172 245.853 81.0484 245.524L82.5254 241.824L83.5499 242.235L82.0729 245.935C81.8974 246.375 81.8626 246.756 81.9687 247.078C82.0694 247.403 82.3239 247.647 82.7321 247.811C83.0336 247.932 83.3449 247.973 83.6662 247.933C83.9837 247.892 84.3027 247.791 84.6232 247.632L86.3314 243.352L87.3559 243.764L85.0363 249.575L84.4239 249.329C84.2789 249.271 84.2175 249.164 84.2396 249.009L84.4114 248.345Z" fill="#54545C"/>
<path d="M73.1929 237.223C73.6312 237.449 73.906 237.747 74.0174 238.115C74.125 238.481 74.0603 238.895 73.8231 239.356L72.0726 242.762L72.7411 243.107C72.7995 243.138 72.8404 243.18 72.8636 243.233C72.885 243.291 72.8768 243.356 72.8392 243.429L72.6387 243.819L71.6699 243.464L70.5615 245.067C70.5223 245.117 70.476 245.148 70.4225 245.162C70.3635 245.178 70.303 245.17 70.2409 245.138L69.7477 244.883L70.7331 242.966L69.1277 242.136L69.4919 241.427L71.0973 242.258L72.8139 238.918C72.9344 238.684 72.9672 238.48 72.9123 238.308C72.8574 238.136 72.7405 238.004 72.5615 237.911C72.4592 237.859 72.3649 237.826 72.2787 237.814C72.1869 237.804 72.1052 237.801 72.0334 237.805C71.9617 237.81 71.901 237.816 71.8513 237.822C71.7961 237.831 71.7538 237.828 71.7246 237.812C71.6735 237.786 71.6438 237.731 71.6356 237.648L71.5907 237.034C71.8396 236.963 72.1064 236.944 72.3909 236.975C72.6735 237.01 72.9408 237.093 73.1929 237.223Z" fill="#54545C"/>
<path d="M51.4053 223.833L52.012 223.069L56.2901 226.443L50.8313 233.405L46.5532 230.031L47.1551 229.263L50.4932 231.896L52.3065 229.583L49.603 227.451L50.182 226.713L52.8855 228.845L54.7483 226.469L51.4053 223.833Z" fill="#54545C"/>
<path d="M43.8222 222.873C43.6191 222.89 43.4201 222.89 43.225 222.874C43.0299 222.858 42.8416 222.824 42.6602 222.77C42.4729 222.716 42.2953 222.64 42.1273 222.542C41.9535 222.444 41.7863 222.318 41.6258 222.165C41.3789 221.929 41.2016 221.679 41.0936 221.417C40.9798 221.154 40.9328 220.887 40.9525 220.616C40.9664 220.344 41.0413 220.071 41.1772 219.797C41.3131 219.523 41.5029 219.257 41.7468 219.001L44.4899 216.116L45.2883 216.879L42.5452 219.764C42.2191 220.107 42.0456 220.448 42.0246 220.787C41.9978 221.126 42.1434 221.447 42.4616 221.751C42.6965 221.976 42.9705 222.13 43.2834 222.213C43.5933 222.293 43.9267 222.318 44.2835 222.289L47.4561 218.952L48.2546 219.716L43.9464 224.247L43.4691 223.791C43.3561 223.683 43.3387 223.561 43.4168 223.425L43.8222 222.873Z" fill="#54545C"/>
<path d="M33.8712 211.567C33.7977 211.903 33.7986 212.197 33.8739 212.448C33.9461 212.701 34.079 212.94 34.2727 213.164C34.6521 213.603 35.1008 213.805 35.6189 213.769C36.1371 213.733 36.6865 213.463 37.2672 212.958C37.5746 212.691 37.8157 212.435 37.9904 212.19C38.1621 211.949 38.2749 211.714 38.329 211.487C38.3799 211.263 38.3734 211.048 38.3095 210.842C38.2456 210.636 38.1315 210.438 37.9674 210.248C37.7307 209.974 37.4627 209.789 37.1636 209.695C36.8619 209.597 36.5236 209.561 36.149 209.587L33.8712 211.567ZM29.8876 213.573L36.7488 207.61L37.1766 208.105C37.2789 208.223 37.286 208.348 37.198 208.479L36.6896 209.052C37.1067 209.044 37.5014 209.104 37.8738 209.233C38.2462 209.362 38.579 209.596 38.8722 209.936C39.1063 210.207 39.2676 210.497 39.3562 210.807C39.4416 211.12 39.4507 211.442 39.3834 211.773C39.316 212.104 39.1681 212.443 38.9395 212.789C38.7109 213.135 38.401 213.477 38.0097 213.818C37.6619 214.12 37.2986 214.354 36.9198 214.519C36.5379 214.688 36.1613 214.781 35.7902 214.798C35.419 214.815 35.0624 214.751 34.7203 214.607C34.3723 214.462 34.0611 214.231 33.7867 213.914C33.5365 213.624 33.3723 213.333 33.2941 213.041C33.2101 212.749 33.1851 212.446 33.2191 212.133L30.6059 214.404L29.8876 213.573Z" fill="#54545C"/>
<path d="M19.2143 189.41C19.7873 189.078 20.3611 188.867 20.9356 188.777C21.5102 188.687 22.0602 188.711 22.5858 188.849C23.1113 188.987 23.6012 189.237 24.0553 189.597C24.5038 189.956 24.8903 190.417 25.2149 190.981L26.8631 193.844L19.2131 198.274L17.5648 195.41C17.2403 194.847 17.037 194.279 16.9551 193.708C16.8676 193.136 16.8973 192.586 17.0444 192.058C17.1879 191.533 17.4422 191.043 17.8073 190.589C18.1723 190.135 18.6413 189.742 19.2143 189.41ZM19.8274 190.475C19.3576 190.747 18.9746 191.055 18.6784 191.397C18.3822 191.74 18.1738 192.103 18.0531 192.487C17.9324 192.871 17.901 193.27 17.9588 193.684C18.0166 194.097 18.1647 194.511 18.4029 194.925L19.4535 196.75L25.4273 193.291L24.3767 191.466C24.1385 191.052 23.8552 190.717 23.5269 190.459C23.1986 190.202 22.8403 190.029 22.452 189.94C22.0602 189.853 21.6423 189.852 21.1982 189.938C20.7541 190.024 20.2972 190.203 19.8274 190.475Z" fill="#54545C"/>
<path d="M15.5972 180.425C15.3654 180.531 15.1696 180.662 15.0096 180.816C14.8442 180.969 14.7214 181.141 14.6411 181.332C14.5553 181.52 14.516 181.722 14.5231 181.936C14.5265 182.152 14.5803 182.374 14.6844 182.603C14.9028 183.082 15.2162 183.398 15.6245 183.551C16.0274 183.702 16.491 183.698 17.0152 183.539L15.5972 180.425ZM17.8923 178.396C18.0981 178.451 18.2964 178.539 18.487 178.66C18.6739 178.783 18.8481 178.927 19.0096 179.093C19.1693 179.255 19.3138 179.434 19.443 179.628C19.576 179.821 19.6894 180.02 19.7832 180.226C19.9624 180.62 20.0625 181.013 20.0835 181.407C20.0991 181.798 20.0352 182.174 19.8919 182.534C19.7431 182.892 19.5107 183.225 19.1945 183.533C18.8784 183.841 18.4754 184.107 17.9857 184.331C17.5894 184.512 17.192 184.622 16.7935 184.66C16.3932 184.693 16.0158 184.653 15.6613 184.54C15.303 184.427 14.9777 184.239 14.6855 183.974C14.3895 183.711 14.1477 183.374 13.96 182.962C13.8047 182.621 13.7193 182.279 13.7038 181.938C13.6829 181.594 13.7331 181.267 13.8543 180.958C13.9702 180.647 14.1597 180.359 14.4228 180.093C14.6823 179.83 15.0139 179.605 15.4176 179.42C15.5746 179.348 15.687 179.317 15.7547 179.327C15.8224 179.337 15.8775 179.389 15.9202 179.482L17.653 183.288C18.0068 183.112 18.2967 182.92 18.5229 182.713C18.7474 182.501 18.9135 182.276 19.0213 182.036C19.1254 181.798 19.1727 181.55 19.1635 181.291C19.1505 181.035 19.0826 180.771 18.9597 180.502C18.8454 180.251 18.7193 180.048 18.5813 179.894C18.4379 179.738 18.3026 179.609 18.1756 179.509C18.0486 179.409 17.9374 179.328 17.8421 179.268C17.7414 179.205 17.6765 179.142 17.6475 179.078C17.6099 178.996 17.6127 178.918 17.6558 178.844L17.8923 178.396Z" fill="#54545C"/>
<path d="M8.62136 168.907L15.3554 169.27L15.6778 170.204L10.6082 174.665L10.316 173.818C10.2865 173.732 10.2837 173.655 10.3076 173.586C10.3315 173.516 10.3692 173.462 10.4208 173.422L13.7015 170.603C13.8291 170.506 13.9548 170.417 14.0786 170.335C14.2025 170.252 14.327 170.172 14.4522 170.094C14.3055 170.11 14.1581 170.124 14.0101 170.136C13.8621 170.148 13.7075 170.154 13.5463 170.153L9.22382 169.954C9.15361 169.952 9.08969 169.93 9.03204 169.889C8.97051 169.85 8.92698 169.793 8.90146 169.719L8.62136 168.907Z" fill="#54545C"/>
<path d="M5.84778 148.393C6.13757 148.792 6.46099 149.078 6.81804 149.251C7.1745 149.421 7.54395 149.478 7.92639 149.422C8.19085 149.384 8.41777 149.302 8.60717 149.174C8.7925 149.048 8.94294 148.895 9.05847 148.716C9.17401 148.537 9.25378 148.34 9.29779 148.126C9.33773 147.912 9.3425 147.699 9.31211 147.487C9.24665 147.031 9.1045 146.633 8.88567 146.294C8.66626 145.951 8.3966 145.663 8.07671 145.431L5.84778 148.393ZM9.34625 142.12L9.49793 143.178C9.51488 143.297 9.51438 143.394 9.49642 143.472C9.47846 143.549 9.43086 143.637 9.35363 143.736L8.58974 144.751C9.01492 145.081 9.37331 145.481 9.6649 145.951C9.95184 146.417 10.1383 146.95 10.2242 147.549C10.271 147.875 10.2619 148.203 10.1971 148.533C10.1316 148.859 10.013 149.161 9.84116 149.44C9.66525 149.719 9.43757 149.956 9.15813 150.15C8.87868 150.344 8.54977 150.469 8.1714 150.523C7.8866 150.564 7.61136 150.556 7.34566 150.499C7.07532 150.438 6.82005 150.337 6.57987 150.197C6.33969 150.057 6.1175 149.883 5.91331 149.675C5.70911 149.467 5.52612 149.234 5.36432 148.974C5.08262 149.269 4.80379 149.496 4.5278 149.657C4.24775 149.818 3.94905 149.921 3.6317 149.967C3.3347 150.01 3.04841 149.997 2.77282 149.928C2.49666 149.856 2.24835 149.731 2.0279 149.555C1.80339 149.379 1.61546 149.155 1.46411 148.881C1.30811 148.604 1.20409 148.284 1.15207 147.921C1.1059 147.599 1.11671 147.298 1.1845 147.018C1.24822 146.738 1.35178 146.49 1.49519 146.274C1.6386 146.057 1.81633 145.878 2.02839 145.735C2.23579 145.588 2.46038 145.489 2.70215 145.438L2.93373 146.097C2.98557 146.227 2.93683 146.336 2.78751 146.424C2.68582 146.468 2.58269 146.531 2.47812 146.613C2.37297 146.69 2.28091 146.787 2.20195 146.902C2.1224 147.013 2.06234 147.145 2.02177 147.296C1.98061 147.444 1.97348 147.611 2.00036 147.799C2.02959 148.003 2.08873 148.183 2.17779 148.341C2.26627 148.495 2.37798 148.622 2.51291 148.724C2.6432 148.821 2.79206 148.889 2.9595 148.928C3.12287 148.967 3.2961 148.973 3.47918 148.946C3.62158 148.926 3.75554 148.89 3.88106 148.838C4.00658 148.787 4.1315 148.717 4.25582 148.628C4.37956 148.536 4.50271 148.424 4.62526 148.294C4.74781 148.164 4.87528 148.011 5.00767 147.833L7.20353 144.945C6.90466 144.83 6.6 144.747 6.28956 144.696C5.97504 144.646 5.66724 144.627 5.36614 144.642C5.28767 144.645 5.22313 144.629 5.17254 144.595C5.12194 144.56 5.09138 144.507 5.08086 144.433L4.98529 143.767C5.45376 143.703 5.92402 143.71 6.39609 143.788C6.86408 143.866 7.31469 144.011 7.74792 144.223L9.34625 142.12Z" fill="#54545C"/>
<path d="M8.04447 124.169C8.06188 123.803 8.01584 123.473 7.90636 123.179C7.79688 122.885 7.63597 122.634 7.42365 122.426C7.21152 122.214 6.95393 122.049 6.65089 121.931C6.34804 121.81 6.01185 121.74 5.64233 121.722L0.278119 121.466L0.33474 120.275L5.69895 120.531C6.20807 120.556 6.67633 120.66 7.10372 120.846C7.5313 121.027 7.89798 121.277 8.20376 121.597C8.50563 121.913 8.73653 122.293 8.89645 122.737C9.05637 123.182 9.12343 123.676 9.09761 124.219C9.07179 124.762 8.95819 125.248 8.7568 125.675C8.55542 126.103 8.28941 126.461 7.9588 126.75C7.62407 127.04 7.23519 127.256 6.79215 127.4C6.34931 127.54 5.87333 127.597 5.36421 127.573L0 127.317L0.0566212 126.126L5.41468 126.382C5.7842 126.399 6.12537 126.364 6.43819 126.276C6.75121 126.184 7.02327 126.044 7.25437 125.857C7.48567 125.666 7.6718 125.43 7.81277 125.148C7.94983 124.861 8.02707 124.535 8.04447 124.169Z" fill="#54545C"/>
<path d="M10.7693 107.956L10.601 109.13C10.5881 109.22 10.5555 109.288 10.5032 109.335C10.4473 109.377 10.3886 109.41 10.3269 109.434L6.31639 111.253C6.40936 111.3 6.4875 111.348 6.55082 111.399L9.6466 114.18C9.69771 114.229 9.74417 114.282 9.78598 114.338C9.82431 114.389 9.83762 114.455 9.82593 114.537L9.66812 115.638L5.60869 111.975L0.940337 114.254L1.10955 113.074C1.12182 112.988 1.14512 112.927 1.17945 112.891C1.21377 112.854 1.25972 112.823 1.31728 112.798L5.14819 111.016C5.06684 110.975 4.97941 110.919 4.88587 110.847L1.99749 108.227C1.94521 108.186 1.90601 108.141 1.87989 108.091C1.8497 108.041 1.83899 107.986 1.84776 107.924L2.00996 106.793L5.79224 110.303L10.7693 107.956Z" fill="#54545C"/>
<path d="M12.0852 102.666C12.2124 102.752 12.2964 102.859 12.3372 102.988C12.379 103.112 12.3858 103.232 12.3577 103.349L12.2488 103.799L4.1523 98.0078C4.0361 97.9286 3.95567 97.8327 3.91101 97.7201C3.86731 97.6035 3.86095 97.4812 3.89194 97.3531L4.00232 96.8967L12.0852 102.666Z" fill="#54545C"/>
<path d="M14.6208 89.9454C14.7404 89.5989 14.7889 89.2692 14.7664 88.9563C14.744 88.6433 14.6601 88.357 14.5148 88.0974C14.3709 87.8338 14.1701 87.6028 13.9124 87.4044C13.656 87.2021 13.3531 87.0402 13.0035 86.9189L7.92902 85.1574L8.31793 84.0304L13.3924 85.7919C13.874 85.9591 14.2938 86.192 14.6518 86.4906C15.0111 86.7853 15.2925 87.1293 15.4961 87.5226C15.6971 87.9106 15.8118 88.3405 15.8403 88.8125C15.8688 89.2845 15.7944 89.7774 15.6171 90.2912C15.4398 90.8051 15.1945 91.2387 14.8812 91.592C14.5679 91.9453 14.212 92.2141 13.8135 92.3983C13.4111 92.5813 12.9772 92.6791 12.5118 92.6919C12.0477 92.7008 11.5748 92.6217 11.0932 92.4545L6.01874 90.693L6.40765 89.5661L11.4763 91.3255C11.8259 91.4469 12.1631 91.5094 12.488 91.5132C12.8142 91.5131 13.1144 91.456 13.3886 91.342C13.6642 91.224 13.9092 91.0497 14.1236 90.819C14.3355 90.5831 14.5013 90.2919 14.6208 89.9454Z" fill="#54545C"/>
<path d="M20.0487 78.9822L19.5521 80.0727L11.5164 76.3921L12.0129 75.3016L20.0487 78.9822Z" fill="#54545C"/>
<path d="M30.0952 53.6086C30.6341 53.9935 31.0637 54.4293 31.3841 54.9161C31.7044 55.4028 31.9111 55.9146 32.0041 56.4514C32.0971 56.9883 32.0746 57.5387 31.9365 58.1027C31.7974 58.6609 31.5396 59.2051 31.1631 59.7354L29.2508 62.4288L22.0557 57.2902L23.9681 54.5968C24.3446 54.0665 24.7747 53.6454 25.2586 53.3334C25.7415 53.0156 26.2527 52.8142 26.7923 52.7292C27.3286 52.6418 27.8784 52.6703 28.4418 52.8147C29.0052 52.9591 29.5563 53.2237 30.0952 53.6086ZM29.3839 54.6105C28.9421 54.2949 28.5042 54.0732 28.0703 53.9454C27.6364 53.8176 27.2203 53.7784 26.822 53.8278C26.4237 53.8772 26.049 54.0142 25.6978 54.2388C25.3466 54.4635 25.0328 54.7705 24.7564 55.1598L23.5375 56.8765L29.1559 60.8892L30.3748 59.1724C30.6512 58.7831 30.8379 58.3853 30.9347 57.979C31.0315 57.5726 31.0397 57.1738 30.9593 56.7826C30.8755 56.389 30.7025 56.0074 30.4402 55.638C30.1778 55.2685 29.8258 54.926 29.3839 54.6105Z" fill="#54545C"/>
<path d="M36.7411 46.5753C36.5486 46.408 36.3489 46.2836 36.1421 46.202C35.9349 46.1146 35.7281 46.0739 35.5217 46.08C35.3149 46.0802 35.1159 46.128 34.9247 46.2235C34.7303 46.3163 34.5511 46.4577 34.387 46.6477C34.0426 47.0463 33.8859 47.4636 33.9171 47.8995C33.9478 48.3297 34.1439 48.7509 34.5053 49.1632L36.7411 46.5753ZM39.5348 47.8255C39.5702 48.0362 39.5726 48.2537 39.542 48.4779C39.5083 48.6994 39.4497 48.9183 39.3661 49.1347C39.2852 49.3479 39.1834 49.5538 39.0607 49.7525C38.941 49.9539 38.8072 50.1402 38.6593 50.3115C38.3768 50.6385 38.0615 50.8933 37.7133 51.076C37.3648 51.2529 36.9975 51.3508 36.6114 51.3697C36.225 51.3828 35.8265 51.3091 35.416 51.1486C35.0055 50.9882 34.5969 50.7312 34.1901 50.3776C33.8609 50.0916 33.5965 49.7746 33.3969 49.4266C33.2 49.0756 33.0796 48.7147 33.0356 48.3439C32.9886 47.9704 33.0245 47.5954 33.1432 47.2188C33.2589 46.8395 33.4647 46.4786 33.7606 46.1361C34.0054 45.8527 34.2796 45.6329 34.583 45.4768C34.886 45.3149 35.2029 45.225 35.5337 45.2071C35.8641 45.1834 36.2043 45.2364 36.5543 45.3662C36.9013 45.4932 37.2424 45.7025 37.5778 45.9939C37.7082 46.1073 37.7831 46.1969 37.8023 46.2627C37.8216 46.3285 37.7976 46.4003 37.7303 46.4782L34.9982 49.6405C35.3043 49.8903 35.5986 50.0751 35.881 50.1951C36.166 50.312 36.4396 50.3698 36.7016 50.3685C36.9606 50.3646 37.2053 50.3047 37.4359 50.1888C37.6634 50.0703 37.874 49.8989 38.0677 49.6747C38.2479 49.466 38.3794 49.2667 38.4619 49.0768C38.5441 48.881 38.6043 48.7043 38.6425 48.5468C38.6808 48.3892 38.7076 48.2544 38.7229 48.1423C38.7378 48.0243 38.7681 47.9389 38.8138 47.886C38.873 47.8175 38.9452 47.7875 39.0302 47.796L39.5348 47.8255Z" fill="#54545C"/>
<path d="M44.1291 37.0042C44.1558 37.104 44.132 37.1894 44.0577 37.2605C44.0131 37.3031 43.9469 37.3351 43.8592 37.3563C43.7715 37.3775 43.6676 37.4086 43.5475 37.4494C43.4275 37.4844 43.2954 37.5396 43.1513 37.6148C43.0042 37.6871 42.8534 37.7972 42.6988 37.9451C42.565 38.073 42.4615 38.2061 42.3885 38.3443C42.3126 38.4794 42.2644 38.6138 42.2438 38.7474C42.2262 38.8781 42.2348 39.0037 42.2697 39.124C42.3048 39.2385 42.3663 39.342 42.4542 39.4344C42.5647 39.5508 42.6896 39.6164 42.8287 39.6314C42.9708 39.6435 43.1238 39.6253 43.2877 39.5767C43.4516 39.5282 43.6247 39.4595 43.807 39.3705C43.9865 39.2786 44.1732 39.1884 44.3671 39.0997C44.5611 39.0052 44.7564 38.921 44.9528 38.847C45.1493 38.773 45.3451 38.7281 45.5402 38.7124C45.7352 38.6966 45.9279 38.7231 46.118 38.7917C46.3084 38.8546 46.49 38.9769 46.6629 39.1589C46.8614 39.3676 47.0085 39.597 47.1043 39.847C47.1972 40.0941 47.2332 40.3529 47.2123 40.6235C47.1885 40.891 47.1065 41.1631 46.9662 41.4395C46.826 41.716 46.6176 41.9864 46.341 42.2509C46.0258 42.5523 45.6921 42.7747 45.34 42.9178C44.985 43.058 44.6418 43.1329 44.3103 43.1425L44.2084 42.6591C44.1953 42.5976 44.1952 42.5407 44.2081 42.4886C44.221 42.4364 44.2527 42.3862 44.3032 42.3378C44.3567 42.2866 44.4331 42.2535 44.5323 42.2384C44.6314 42.2233 44.7467 42.2012 44.8782 42.1723C45.0126 42.1405 45.1607 42.0872 45.3223 42.0124C45.4839 41.9375 45.6554 41.8134 45.8368 41.6399C45.9914 41.4921 46.1083 41.3433 46.1874 41.1936C46.2637 41.0409 46.3079 40.8934 46.32 40.7508C46.3321 40.6083 46.3135 40.4752 46.2641 40.3516C46.2177 40.2252 46.1463 40.1113 46.0499 40.0099C45.9308 39.8846 45.7988 39.8144 45.6538 39.7993C45.509 39.7784 45.3547 39.7922 45.1908 39.8407C45.024 39.8863 44.8495 39.9565 44.667 40.0512C44.4847 40.1401 44.2966 40.2318 44.1025 40.3263C43.9115 40.4179 43.7162 40.5022 43.5168 40.579C43.3175 40.6501 43.1188 40.6919 42.9209 40.7047C42.723 40.7175 42.5261 40.6895 42.3301 40.6207C42.1342 40.546 41.9442 40.4118 41.7599 40.218C41.5954 40.045 41.4738 39.8453 41.3948 39.619C41.3131 39.3897 41.2839 39.15 41.3073 38.8999C41.3279 38.6469 41.4037 38.3893 41.5349 38.1272C41.6661 37.8651 41.8596 37.6117 42.1153 37.3672C42.4127 37.0828 42.7242 36.876 43.0498 36.7468C43.3756 36.6117 43.7027 36.5437 44.0311 36.5428L44.1291 37.0042Z" fill="#54545C"/>
<path d="M51.6809 29.228L55.5398 34.1494L54.6774 34.8296L50.8185 29.9082L51.6809 29.228ZM50.6536 27.5379C50.7197 27.6221 50.7641 27.7154 50.787 27.818C50.8106 27.9147 50.8161 28.0151 50.8037 28.1193C50.792 28.2177 50.7601 28.3136 50.7079 28.4071C50.659 28.4981 50.5926 28.5767 50.5086 28.643C50.4246 28.7092 50.3328 28.7554 50.2331 28.7816C50.1367 28.8053 50.0394 28.8112 49.9413 28.7995C49.8407 28.7845 49.7463 28.7541 49.6581 28.7083C49.5674 28.6593 49.489 28.5927 49.423 28.5085C49.357 28.4243 49.3109 28.3322 49.2848 28.2322C49.2562 28.129 49.2477 28.0282 49.2594 27.9299C49.2686 27.8283 49.2961 27.7332 49.3417 27.6448C49.3906 27.5538 49.4571 27.4752 49.541 27.409C49.625 27.3427 49.7169 27.2965 49.8165 27.2703C49.9195 27.2416 50.0212 27.2347 50.1218 27.2497C50.2232 27.2589 50.3204 27.2896 50.4137 27.3419C50.5076 27.3883 50.5876 27.4537 50.6536 27.5379Z" fill="#54545C"/>
<path d="M62.7184 25.2924C62.9051 25.1721 63.0527 25.0403 63.1611 24.8969C63.2695 24.7536 63.3422 24.6039 63.379 24.4479C63.4158 24.292 63.4173 24.1343 63.3836 23.9748C63.3476 23.8119 63.2796 23.6525 63.1797 23.4965C62.9731 23.1742 62.7102 22.9812 62.391 22.9176C62.0753 22.8517 61.7325 22.938 61.3626 23.1764C60.9892 23.4171 60.7651 23.6962 60.6902 24.0139C60.6187 24.3293 60.6863 24.6482 60.8928 24.9705C60.9928 25.1265 61.1091 25.2547 61.2419 25.3552C61.3759 25.4501 61.5213 25.5131 61.6781 25.5442C61.8349 25.5754 62.0008 25.5713 62.1758 25.532C62.3509 25.4926 62.5318 25.4128 62.7184 25.2924ZM66.2153 27.079C66.1331 26.9508 66.0302 26.8702 65.9065 26.8372C65.7828 26.8043 65.6443 26.8054 65.491 26.8406C65.3411 26.8735 65.1794 26.9337 65.0058 27.0211C64.83 27.105 64.6472 27.2008 64.4573 27.3085C64.2708 27.414 64.081 27.5217 63.8876 27.6316C63.6943 27.7416 63.5034 27.8401 63.315 27.9273C63.1791 28.1422 63.0934 28.359 63.0578 28.5779C63.0234 28.7911 63.0651 28.9895 63.1828 29.1732C63.2583 29.291 63.3576 29.3813 63.4808 29.4439C63.6097 29.5078 63.7596 29.536 63.9307 29.5286C64.1041 29.5246 64.2974 29.4832 64.5107 29.4045C64.7297 29.327 64.9671 29.2058 65.223 29.0409C65.4719 28.8805 65.6804 28.7142 65.8486 28.5422C66.0168 28.3701 66.1416 28.199 66.2232 28.0289C66.3081 27.8566 66.3503 27.6899 66.3496 27.5287C66.3489 27.3675 66.3041 27.2176 66.2153 27.079ZM63.7292 21.1294L63.9491 21.4726C64.0224 21.5869 63.9964 21.7065 63.8712 21.8313L63.3248 22.2937C63.5889 22.4467 63.8098 22.6618 63.9875 22.9391C64.1519 23.1956 64.2517 23.4618 64.2869 23.7379C64.3233 24.0082 64.3029 24.2736 64.2255 24.5341C64.1482 24.7945 64.014 25.0426 63.8231 25.2783C63.6322 25.514 63.395 25.7232 63.1115 25.9059C62.8661 26.0641 62.6156 26.184 62.36 26.2654C62.2938 26.406 62.2569 26.5352 62.2492 26.6528C62.2393 26.7669 62.2599 26.8638 62.311 26.9435C62.3909 27.0683 62.5021 27.1313 62.6446 27.1325C62.7883 27.1281 62.9519 27.0862 63.1357 27.007C63.3194 26.9278 63.5189 26.8237 63.7342 26.6947C63.953 26.5635 64.1785 26.4352 64.4109 26.3099C64.6445 26.179 64.8789 26.0646 65.1143 25.9668C65.353 25.8668 65.5832 25.8066 65.8046 25.7863C66.0261 25.766 66.2358 25.7998 66.4338 25.8877C66.6352 25.9733 66.8137 26.1374 66.9691 26.3801C67.1135 26.6054 67.1964 26.8605 67.2178 27.1454C67.2426 27.4282 67.2018 27.719 67.0953 28.0178C66.991 28.3201 66.8161 28.6189 66.5706 28.9143C66.3308 29.2109 66.019 29.4828 65.6353 29.7302C65.2516 29.9775 64.8918 30.1555 64.556 30.2642C64.2202 30.3729 63.9162 30.4244 63.6438 30.4187C63.3715 30.413 63.1326 30.3565 62.9269 30.249C62.727 30.1428 62.5682 29.9979 62.4505 29.8142C62.2839 29.5542 62.2241 29.2818 62.2711 28.9968C62.3181 28.7118 62.4489 28.4243 62.6635 28.1341C62.4635 28.1651 62.2802 28.1534 62.1136 28.0992C61.9482 28.0393 61.8022 27.9106 61.6756 27.713C61.6267 27.6368 61.5906 27.5499 61.5672 27.4523C61.5415 27.3513 61.5308 27.2431 61.5351 27.1277C61.5405 27.0067 61.5614 26.883 61.5978 26.7568C61.6341 26.6305 61.6898 26.504 61.7649 26.3772C61.4123 26.3988 61.0868 26.3368 60.7884 26.1912C60.4877 26.0421 60.2352 25.8082 60.0309 25.4893C59.8666 25.2328 59.7661 24.9694 59.7297 24.6991C59.6945 24.423 59.7184 24.1554 59.8014 23.8962C59.8822 23.6335 60.0181 23.3843 60.209 23.1486C60.4034 22.9107 60.6457 22.6981 60.9361 22.511C61.1643 22.3639 61.3936 22.2529 61.6239 22.1778C61.8521 22.0993 62.0785 22.0563 62.3032 22.0486L63.7292 21.1294Z" fill="#54545C"/>
<path d="M70.6779 17.9459C70.7288 17.7481 70.7936 17.5593 70.8723 17.3795C70.951 17.1998 71.0454 17.0328 71.1557 16.8784C71.2677 16.7186 71.3973 16.575 71.5447 16.4479C71.6938 16.3152 71.867 16.1978 72.0642 16.0958C72.3674 15.9391 72.6604 15.8524 72.9432 15.836C73.2278 15.814 73.4948 15.8567 73.7443 15.9641C73.9954 16.066 74.228 16.2261 74.442 16.4446C74.656 16.663 74.844 16.9297 75.0059 17.2446L76.8269 20.7874L75.8461 21.2945L74.0251 17.7517C73.8086 17.3306 73.5443 17.0548 73.2321 16.9242C72.9217 16.788 72.5711 16.821 72.1802 17.0231C71.8916 17.1723 71.6571 17.3816 71.4766 17.6511C71.2997 17.9187 71.1665 18.2263 71.077 18.5738L73.1832 22.6714L72.2024 23.1785L69.3423 17.6144L69.9286 17.3113C70.0674 17.2395 70.1881 17.2629 70.2906 17.3813L70.6779 17.9459Z" fill="#54545C"/>
<path d="M85.2226 12.9864C85.1279 12.7492 85.0073 12.547 84.8608 12.3795C84.7166 12.2067 84.5513 12.0755 84.3651 11.9861C84.1812 11.8914 83.9824 11.8425 83.7687 11.8395C83.5535 11.8328 83.3295 11.8761 83.0968 11.9696C82.6084 12.1657 82.2784 12.4646 82.1067 12.8663C81.9373 13.2627 81.919 13.7271 82.0519 14.2595L85.2226 12.9864ZM87.1344 15.3804C87.0696 15.5839 86.9723 15.7783 86.8426 15.9635C86.7113 16.1448 86.5591 16.3125 86.3859 16.4663C86.2165 16.6187 86.0318 16.7549 85.8319 16.8751C85.6335 16.9992 85.4293 17.1033 85.2195 17.1876C84.8189 17.3484 84.422 17.4301 84.029 17.4326C83.6383 17.4298 83.267 17.3481 82.9152 17.1876C82.5657 17.0218 82.2451 16.7733 81.9536 16.4422C81.662 16.1111 81.4163 15.695 81.2163 15.194C81.0545 14.7886 80.9644 14.3855 80.946 13.9846C80.9315 13.5822 80.9895 13.2062 81.12 12.8565C81.2489 12.503 81.4522 12.1861 81.73 11.906C82.0062 11.622 82.3542 11.3958 82.7739 11.2272C83.1211 11.0878 83.4653 11.0184 83.8064 11.019C84.1498 11.0143 84.4727 11.0799 84.7749 11.2159C85.0794 11.3466 85.3575 11.5499 85.6094 11.826C85.8597 12.0982 86.0673 12.4408 86.2322 12.8539C86.2963 13.0145 86.3219 13.1285 86.3089 13.1958C86.296 13.2631 86.2418 13.316 86.1464 13.3543L82.2717 14.91C82.4297 15.2726 82.6068 15.572 82.8029 15.8083C83.0029 16.0431 83.2196 16.2201 83.4531 16.3393C83.6851 16.4547 83.9301 16.5139 84.1881 16.5168C84.4445 16.5159 84.71 16.4603 84.9848 16.35C85.2404 16.2473 85.4483 16.1306 85.6086 15.9997C85.7711 15.8634 85.9054 15.734 86.0115 15.6116C86.1176 15.4891 86.203 15.3816 86.2679 15.289C86.335 15.191 86.401 15.129 86.4659 15.103C86.5498 15.0693 86.6277 15.0757 86.6994 15.1224L87.1344 15.3804Z" fill="#54545C"/>
<path d="M95.0297 8.44164C95.0986 7.97484 95.2376 7.58617 95.4465 7.27563C95.6543 6.96114 95.9574 6.74525 96.3557 6.62795C96.4819 6.59078 96.6062 6.5692 96.7287 6.56318C96.8551 6.55601 96.9723 6.56871 97.0804 6.60128L97.2343 7.41245C97.2396 7.51823 97.1949 7.58505 97.1002 7.61292C97.045 7.62918 96.9607 7.64113 96.8473 7.64878C96.7339 7.65642 96.6101 7.67998 96.476 7.71947C96.2867 7.77522 96.1253 7.85282 95.9916 7.95229C95.8619 8.0506 95.7541 8.1725 95.6682 8.31801C95.585 8.45841 95.5199 8.62357 95.4727 8.81349C95.4282 8.9983 95.3987 9.2045 95.3839 9.4321L96.4948 13.2265L95.4359 13.5383L93.6776 7.53253L94.281 7.35484C94.3954 7.32116 94.4806 7.31967 94.5367 7.35037C94.5928 7.38107 94.6444 7.44746 94.6914 7.54953L95.0297 8.44164Z" fill="#54545C"/>
<path d="M117.65 8.43593C117.64 8.32932 117.649 8.22709 117.676 8.12926C117.708 8.03103 117.754 7.94392 117.813 7.86795C117.875 7.79158 117.952 7.72839 118.042 7.67837C118.132 7.62835 118.231 7.59825 118.337 7.58806C118.444 7.57787 118.546 7.58877 118.644 7.62076C118.742 7.65276 118.829 7.70027 118.905 7.76332C118.981 7.82636 119.044 7.90308 119.094 7.99347C119.144 8.08386 119.174 8.18236 119.184 8.28898C119.195 8.39969 119.184 8.50416 119.152 8.60238C119.12 8.69651 119.072 8.78176 119.009 8.85813C118.946 8.9345 118.87 8.99564 118.779 9.04156C118.689 9.09158 118.591 9.12168 118.484 9.13187C118.378 9.14206 118.276 9.13115 118.178 9.09916C118.08 9.07127 117.993 9.0258 117.917 8.96276C117.845 8.89932 117.784 8.82446 117.734 8.73817C117.689 8.64738 117.66 8.54664 117.65 8.43593Z" fill="#54545C"/>
<path d="M123.642 28.4071H127.195V29.4956H123.642V28.4071Z" fill="#54545C"/>
<path d="M136.376 28.4083L139.901 28.8546L139.765 29.9345L136.24 29.4881L136.376 28.4083Z" fill="#54545C"/>
<path d="M149.013 30.0124L152.455 30.8994L152.185 31.9537L148.744 31.0668L149.013 30.0124Z" fill="#54545C"/>
<path d="M161.347 33.1936L164.65 34.5064L164.251 35.5186L160.947 34.2059L161.347 33.1936Z" fill="#54545C"/>
<path d="M173.187 37.9015L176.3 39.6192L175.777 40.5734L172.665 38.8557L173.187 37.9015Z" fill="#54545C"/>
<path d="M184.346 44.0619L187.219 46.1572L186.581 47.0383L183.708 44.9429L184.346 44.0619Z" fill="#54545C"/>
<path d="M194.647 51.5777L197.235 54.0175L196.492 54.8115L193.904 52.3718L194.647 51.5777Z" fill="#54545C"/>
<path d="M203.928 60.3304L206.191 63.0759L205.355 63.7704L203.092 61.0249L203.928 60.3304Z" fill="#54545C"/>
<path d="M212.045 70.1815L213.947 73.1896L213.03 73.7735L211.128 70.7655L212.045 70.1815Z" fill="#54545C"/>
<path d="M218.867 80.9757L220.378 84.1986L219.395 84.6627L217.884 81.4397L218.867 80.9757Z" fill="#54545C"/>
<path d="M224.286 92.5423L225.383 95.9294L224.35 96.2663L223.253 92.8791L224.286 92.5423Z" fill="#54545C"/>
<path d="M228.22 104.7L228.885 108.198L227.818 108.402L227.153 104.904L228.22 104.7Z" fill="#54545C"/>
<path d="M230.605 117.256L230.828 120.81L229.744 120.878L229.521 117.325L230.605 117.256Z" fill="#54545C"/>
<path d="M231.403 130.013L231.18 133.567L230.096 133.499L230.319 129.945L231.403 130.013Z" fill="#54545C"/>
<path d="M230.602 142.77L229.937 146.268L228.87 146.064L229.535 142.566L230.602 142.77Z" fill="#54545C"/>
<path d="M228.215 155.325L227.118 158.712L226.085 158.376L227.182 154.988L228.215 155.325Z" fill="#54545C"/>
<path d="M224.279 167.482L222.768 170.705L221.786 170.241L223.297 167.018L224.279 167.482Z" fill="#54545C"/>
<path d="M218.856 179.048L216.955 182.056L216.038 181.472L217.94 178.464L218.856 179.048Z" fill="#54545C"/>
<path d="M212.033 189.84L209.77 192.586L208.934 191.891L211.197 189.146L212.033 189.84Z" fill="#54545C"/>
<path d="M203.916 199.689L201.327 202.129L200.584 201.335L203.173 198.895L203.916 199.689Z" fill="#54545C"/>
<path d="M194.632 208.439L191.759 210.534L191.121 209.653L193.994 207.558L194.632 208.439Z" fill="#54545C"/>
<path d="M184.33 215.953L181.217 217.671L180.694 216.717L183.807 214.999L184.33 215.953Z" fill="#54545C"/>
<path d="M173.169 222.111L169.866 223.424L169.467 222.412L172.77 221.099L173.169 222.111Z" fill="#54545C"/>
<path d="M161.328 226.817L157.887 227.704L157.617 226.65L161.059 225.763L161.328 226.817Z" fill="#54545C"/>
<path d="M148.995 229.995L145.469 230.442L145.333 229.362L148.859 228.915L148.995 229.995Z" fill="#54545C"/>
<path d="M136.358 231.596H132.805V230.508H136.358V231.596Z" fill="#54545C"/>
<path d="M123.622 231.595L120.097 231.148L120.233 230.068L123.758 230.515L123.622 231.595Z" fill="#54545C"/>
<path d="M110.987 229.991L107.545 229.104L107.815 228.05L111.256 228.937L110.987 229.991Z" fill="#54545C"/>
<path d="M98.6515 226.81L95.3483 225.497L95.7476 224.485L99.0508 225.798L98.6515 226.81Z" fill="#54545C"/>
<path d="M86.811 222.102L83.6982 220.385L84.2208 219.43L87.3336 221.148L86.811 222.102Z" fill="#54545C"/>
<path d="M75.6525 215.941L72.7793 213.846L73.417 212.965L76.2902 215.06L75.6525 215.941Z" fill="#54545C"/>
<path d="M65.3513 208.425L62.763 205.986L63.5059 205.191L66.0942 207.631L65.3513 208.425Z" fill="#54545C"/>
<path d="M56.0712 199.673L53.8084 196.927L54.6448 196.233L56.9076 198.978L56.0712 199.673Z" fill="#54545C"/>
<path d="M47.9567 189.822L46.0549 186.814L46.9716 186.23L48.8734 189.238L47.9567 189.822Z" fill="#54545C"/>
<path d="M41.1344 179.028L39.6234 175.805L40.6059 175.341L42.1169 178.564L41.1344 179.028Z" fill="#54545C"/>
<path d="M35.7146 167.461L34.6182 164.073L35.651 163.737L36.7475 167.124L35.7146 167.461Z" fill="#54545C"/>
<path d="M31.7801 155.303L31.1153 151.805L32.1822 151.601L32.847 155.099L31.7801 155.303Z" fill="#54545C"/>
<path d="M29.3968 142.747L29.174 139.193L30.258 139.125L30.4808 142.679L29.3968 142.747Z" fill="#54545C"/>
<path d="M28.5983 129.99L28.8211 126.436L29.9051 126.505L29.6823 130.059L28.5983 129.99Z" fill="#54545C"/>
<path d="M29.3991 117.233L30.064 113.735L31.1309 113.939L30.466 117.437L29.3991 117.233Z" fill="#54545C"/>
<path d="M31.7864 104.678L32.8829 101.291L33.9157 101.628L32.8193 105.015L31.7864 104.678Z" fill="#54545C"/>
<path d="M35.7219 92.5214L37.2329 89.2985L38.2154 89.7625L36.7044 92.9855L35.7219 92.5214Z" fill="#54545C"/>
<path d="M41.1431 80.9558L43.0449 77.9478L43.9616 78.5317L42.0597 81.5397L41.1431 80.9558Z" fill="#54545C"/>
<path d="M47.9679 70.1632L50.2308 67.4176L51.0671 68.1121L48.8043 70.8577L47.9679 70.1632Z" fill="#54545C"/>
<path d="M56.085 60.3145L58.6734 57.8748L59.4163 58.6688L56.8279 61.1086L56.085 60.3145Z" fill="#54545C"/>
<path d="M65.3666 51.5636L68.2398 49.4682L68.8775 50.3493L66.0044 52.4446L65.3666 51.5636Z" fill="#54545C"/>
<path d="M75.6688 44.0502L78.7816 42.3326L79.3042 43.2868L76.1914 45.0044L75.6688 44.0502Z" fill="#54545C"/>
<path d="M86.8293 37.8922L90.1325 36.5795L90.5317 37.5917L87.2285 38.9044L86.8293 37.8922Z" fill="#54545C"/>
<path d="M98.6702 33.1865L102.112 32.2996L102.381 33.3539L98.9399 34.2409L98.6702 33.1865Z" fill="#54545C"/>
<path d="M111.005 30.008L114.531 29.561L114.667 30.6409L111.141 31.0879L111.005 30.008Z" fill="#54545C"/>
<path d="M170.295 181.488L106.645 115.131L95.8085 126.429L118.603 150.193L111.628 157.465L81.7334 126.299L99.5453 107.73L78.6194 85.9138L85.7193 78.512L177.395 174.086L170.295 181.488ZM163.569 144.868L156.469 137.467L167.305 126.169L144.511 102.406L151.486 95.1336L181.381 126.299L163.569 144.868Z" fill="url(#paint0_linear_582_378)"/>
</g>
<defs>
<linearGradient id="paint0_linear_582_378" x1="0" y1="130" x2="260" y2="130" gradientUnits="userSpaceOnUse">
<stop stop-color="#6379AC"/>
<stop offset="1" stop-color="#4B4996"/>
</linearGradient>
<clipPath id="clip0_582_378">
<rect width="260" height="260" fill="white"/>
</clipPath>
</defs>
</svg>
