<svg width="36" height="36" viewBox="0 0 36 36" fill="none" xmlns="http://www.w3.org/2000/svg">
<mask id="mask0_767_367" style="mask-type:alpha" maskUnits="userSpaceOnUse" x="0" y="0" width="36" height="36">
<rect width="36" height="36" fill="#D9D9D9"/>
</mask>
<g mask="url(#mask0_767_367)">
<path d="M21 13.1625C21 12.9375 21.0815 12.706 21.2445 12.468C21.4065 12.231 21.5875 12.075 21.7875 12C22.5125 11.75 23.2375 11.5625 23.9625 11.4375C24.6875 11.3125 25.45 11.25 26.25 11.25C26.75 11.25 27.244 11.281 27.732 11.343C28.219 11.406 28.7 11.4875 29.175 11.5875C29.4 11.6375 29.5935 11.7625 29.7555 11.9625C29.9185 12.1625 30 12.3875 30 12.6375C30 13.0625 29.8625 13.375 29.5875 13.575C29.3125 13.775 28.9625 13.825 28.5375 13.725C28.1875 13.65 27.819 13.5935 27.432 13.5555C27.044 13.5185 26.65 13.5 26.25 13.5C25.6 13.5 24.9625 13.5625 24.3375 13.6875C23.7125 13.8125 23.1125 13.975 22.5375 14.175C22.0875 14.35 21.719 14.3375 21.432 14.1375C21.144 13.9375 21 13.6125 21 13.1625ZM21 21.4125C21 21.1875 21.0815 20.956 21.2445 20.718C21.4065 20.481 21.5875 20.325 21.7875 20.25C22.5125 20 23.2375 19.8125 23.9625 19.6875C24.6875 19.5625 25.45 19.5 26.25 19.5C26.75 19.5 27.244 19.531 27.732 19.593C28.219 19.656 28.7 19.7375 29.175 19.8375C29.4 19.8875 29.5935 20.0125 29.7555 20.2125C29.9185 20.4125 30 20.6375 30 20.8875C30 21.3125 29.8625 21.625 29.5875 21.825C29.3125 22.025 28.9625 22.075 28.5375 21.975C28.1875 21.9 27.819 21.8435 27.432 21.8055C27.044 21.7685 26.65 21.75 26.25 21.75C25.6 21.75 24.9625 21.8065 24.3375 21.9195C23.7125 22.0315 23.1125 22.1875 22.5375 22.3875C22.0875 22.5625 21.719 22.556 21.432 22.368C21.144 22.181 21 21.8625 21 21.4125ZM21 17.2875C21 17.0625 21.0815 16.831 21.2445 16.593C21.4065 16.356 21.5875 16.2 21.7875 16.125C22.5125 15.875 23.2375 15.6875 23.9625 15.5625C24.6875 15.4375 25.45 15.375 26.25 15.375C26.75 15.375 27.244 15.406 27.732 15.468C28.219 15.531 28.7 15.6125 29.175 15.7125C29.4 15.7625 29.5935 15.8875 29.7555 16.0875C29.9185 16.2875 30 16.5125 30 16.7625C30 17.1875 29.8625 17.5 29.5875 17.7C29.3125 17.9 28.9625 17.95 28.5375 17.85C28.1875 17.775 27.819 17.7185 27.432 17.6805C27.044 17.6435 26.65 17.625 26.25 17.625C25.6 17.625 24.9625 17.6875 24.3375 17.8125C23.7125 17.9375 23.1125 18.1 22.5375 18.3C22.0875 18.475 21.719 18.4625 21.432 18.2625C21.144 18.0625 21 17.7375 21 17.2875ZM9.75 24C10.925 24 12.069 24.131 13.182 24.393C14.294 24.656 15.4 25.05 16.5 25.575V10.8C15.475 10.2 14.3875 9.75 13.2375 9.45C12.0875 9.15 10.925 9 9.75 9C8.85 9 7.9565 9.0875 7.0695 9.2625C6.1815 9.4375 5.325 9.7 4.5 10.05V24.9C5.375 24.6 6.244 24.375 7.107 24.225C7.969 24.075 8.85 24 9.75 24ZM19.5 25.575C20.6 25.05 21.7065 24.656 22.8195 24.393C23.9315 24.131 25.075 24 26.25 24C27.15 24 28.0315 24.075 28.8945 24.225C29.7565 24.375 30.625 24.6 31.5 24.9V10.05C30.675 9.7 29.819 9.4375 28.932 9.2625C28.044 9.0875 27.15 9 26.25 9C25.075 9 23.9125 9.15 22.7625 9.45C21.6125 9.75 20.525 10.2 19.5 10.8V25.575ZM18 29.2125C17.65 29.2125 17.319 29.169 17.007 29.082C16.694 28.994 16.4 28.875 16.125 28.725C15.15 28.15 14.125 27.719 13.05 27.432C11.975 27.144 10.875 27 9.75 27C8.7 27 7.669 27.1375 6.657 27.4125C5.644 27.6875 4.675 28.075 3.75 28.575C3.225 28.85 2.719 28.8375 2.232 28.5375C1.744 28.2375 1.5 27.8 1.5 27.225V9.15C1.5 8.875 1.569 8.6125 1.707 8.3625C1.844 8.1125 2.05 7.925 2.325 7.8C3.475 7.2 4.675 6.75 5.925 6.45C7.175 6.15 8.45 6 9.75 6C11.2 6 12.619 6.1875 14.007 6.5625C15.394 6.9375 16.725 7.5 18 8.25C19.275 7.5 20.6065 6.9375 21.9945 6.5625C23.3815 6.1875 24.8 6 26.25 6C27.55 6 28.825 6.15 30.075 6.45C31.325 6.75 32.525 7.2 33.675 7.8C33.95 7.925 34.1565 8.1125 34.2945 8.3625C34.4315 8.6125 34.5 8.875 34.5 9.15V27.225C34.5 27.8 34.2565 28.2375 33.7695 28.5375C33.2815 28.8375 32.775 28.85 32.25 28.575C31.325 28.075 30.356 27.6875 29.343 27.4125C28.331 27.1375 27.3 27 26.25 27C25.125 27 24.025 27.144 22.95 27.432C21.875 27.719 20.85 28.15 19.875 28.725C19.6 28.875 19.3065 28.994 18.9945 29.082C18.6815 29.169 18.35 29.2125 18 29.2125Z" fill="url(#paint0_linear_767_367)"/>
</g>
<defs>
<linearGradient id="paint0_linear_767_367" x1="18.0403" y1="6" x2="18.0403" y2="29.2125" gradientUnits="userSpaceOnUse">
<stop stop-color="#6379AC"/>
<stop offset="1" stop-color="#4B4996"/>
</linearGradient>
</defs>
</svg>
