<svg width="36" height="36" viewBox="0 0 36 36" fill="none" xmlns="http://www.w3.org/2000/svg">
<mask id="mask0_767_366" style="mask-type:alpha" maskUnits="userSpaceOnUse" x="0" y="0" width="36" height="36">
<rect width="36" height="36" fill="#D9D9D9"/>
</mask>
<g mask="url(#mask0_767_366)">
<path d="M17.9999 31.0875C17.7499 31.0875 17.5059 31.0565 17.2679 30.9945C17.0309 30.9315 16.7999 30.8375 16.5749 30.7125L9.07493 26.6625C8.57493 26.3875 8.18743 26.019 7.91243 25.557C7.63743 25.094 7.49993 24.575 7.49993 24V16.8L3.89993 14.8125C3.62493 14.6625 3.42493 14.475 3.29993 14.25C3.17493 14.025 3.11243 13.775 3.11243 13.5C3.11243 13.225 3.17493 12.975 3.29993 12.75C3.42493 12.525 3.62493 12.3375 3.89993 12.1875L16.5749 5.28754C16.7999 5.16254 17.0309 5.06854 17.2679 5.00554C17.5059 4.94354 17.7499 4.91254 17.9999 4.91254C18.2499 4.91254 18.4939 4.94354 18.7319 5.00554C18.9689 5.06854 19.1999 5.16254 19.4249 5.28754L33.7124 13.0875C33.9624 13.2125 34.1564 13.3935 34.2944 13.6305C34.4314 13.8685 34.4999 14.125 34.4999 14.4V24C34.4999 24.425 34.3559 24.781 34.0679 25.068C33.7809 25.356 33.4249 25.5 32.9999 25.5C32.5749 25.5 32.2189 25.356 31.9319 25.068C31.6439 24.781 31.4999 24.425 31.4999 24V15.15L28.4999 16.8V24C28.4999 24.575 28.3624 25.094 28.0874 25.557C27.8124 26.019 27.4249 26.3875 26.9249 26.6625L19.4249 30.7125C19.1999 30.8375 18.9689 30.9315 18.7319 30.9945C18.4939 31.0565 18.2499 31.0875 17.9999 31.0875ZM17.9999 19.05L28.2749 13.5L17.9999 7.95004L7.72493 13.5L17.9999 19.05ZM17.9999 28.0875L25.4999 24.0375V18.375L19.4624 21.7125C19.2374 21.8375 18.9999 21.931 18.7499 21.993C18.4999 22.056 18.2499 22.0875 17.9999 22.0875C17.7499 22.0875 17.4999 22.056 17.2499 21.993C16.9999 21.931 16.7624 21.8375 16.5374 21.7125L10.4999 18.375V24.0375L17.9999 28.0875Z" fill="url(#paint0_linear_767_366)"/>
</g>
<defs>
<linearGradient id="paint0_linear_767_366" x1="18.8445" y1="4.91254" x2="18.8445" y2="31.0875" gradientUnits="userSpaceOnUse">
<stop stop-color="#6379AC"/>
<stop offset="1" stop-color="#4B4996"/>
</linearGradient>
</defs>
</svg>
