<svg width="36" height="36" viewBox="0 0 36 36" fill="none" xmlns="http://www.w3.org/2000/svg">
<mask id="mask0_767_368" style="mask-type:alpha" maskUnits="userSpaceOnUse" x="0" y="0" width="36" height="36">
<rect width="36" height="36" fill="#D9D9D9"/>
</mask>
<g mask="url(#mask0_767_368)">
<path d="M20.025 33C19.425 33 18.994 32.8065 18.732 32.4195C18.469 32.0315 18.4375 31.55 18.6375 30.975L24.1125 16.4625C24.2625 16.0625 24.544 15.7185 24.957 15.4305C25.369 15.1435 25.8 15 26.25 15C26.675 15 27.1 15.1435 27.525 15.4305C27.95 15.7185 28.2375 16.0625 28.3875 16.4625L33.8625 30.975C34.0625 31.55 34.0315 32.0315 33.7695 32.4195C33.5065 32.8065 33.0625 33 32.4375 33C32.1625 33 31.9125 32.9125 31.6875 32.7375C31.4625 32.5625 31.3 32.35 31.2 32.1L29.925 28.425H22.65L21.3375 32.1C21.2375 32.35 21.0625 32.5625 20.8125 32.7375C20.5625 32.9125 20.3 33 20.025 33ZM23.55 25.8H28.95L26.325 18.375H26.175L23.55 25.8ZM10.725 12.825C11.125 13.55 11.55 14.2185 12 14.8305C12.45 15.4435 12.975 16.075 13.575 16.725C14.675 15.525 15.5875 14.294 16.3125 13.032C17.0375 11.769 17.65 10.425 18.15 9H3C2.575 9 2.219 8.8565 1.932 8.5695C1.644 8.2815 1.5 7.925 1.5 7.5C1.5 7.075 1.644 6.7185 1.932 6.4305C2.219 6.1435 2.575 6 3 6H12V4.5C12 4.075 12.144 3.7185 12.432 3.4305C12.719 3.1435 13.075 3 13.5 3C13.925 3 14.2815 3.1435 14.5695 3.4305C14.8565 3.7185 15 4.075 15 4.5V6H24C24.425 6 24.781 6.1435 25.068 6.4305C25.356 6.7185 25.5 7.075 25.5 7.5C25.5 7.925 25.356 8.2815 25.068 8.5695C24.781 8.8565 24.425 9 24 9H21.15C20.625 10.775 19.9125 12.5 19.0125 14.175C18.1125 15.85 17 17.425 15.675 18.9L19.275 22.575L18.15 25.65L13.5 21L7.05 27.45C6.775 27.725 6.425 27.8625 6 27.8625C5.575 27.8625 5.225 27.725 4.95 27.45C4.675 27.175 4.5375 26.825 4.5375 26.4C4.5375 25.975 4.675 25.625 4.95 25.35L11.475 18.825C10.8 18.05 10.175 17.2685 9.6 16.4805C9.025 15.6935 8.5125 14.8625 8.0625 13.9875C7.7875 13.4625 7.775 13 8.025 12.6C8.275 12.2 8.7125 12 9.3375 12C9.5875 12 9.85 12.081 10.125 12.243C10.4 12.406 10.6 12.6 10.725 12.825Z" fill="url(#paint0_linear_767_368)"/>
</g>
<defs>
<linearGradient id="paint0_linear_767_368" x1="17.7859" y1="3" x2="17.7859" y2="33" gradientUnits="userSpaceOnUse">
<stop stop-color="#6379AC"/>
<stop offset="1" stop-color="#4B4996"/>
</linearGradient>
</defs>
</svg>
